<?xml version="1.0" encoding="UTF-8"?>
<!DOCTYPE svg  PUBLIC '-//W3C//DTD SVG 1.1//EN'  'http://www.w3.org/Graphics/SVG/1.1/DTD/svg11.dtd'>
<svg version="1.1" viewBox="0 0 640 640" xmlns="http://www.w3.org/2000/svg" xmlns:xlink="http://www.w3.org/1999/xlink">
<defs>
<path id="a" d="m328.93 7.77l1.34 0.11 1.33 0.16 1.31 0.2 1.3 0.24 1.28 0.29 1.27 0.32 1.25 0.37 1.23 0.41 1.22 0.44 1.19 0.48 1.18 0.52 1.15 0.56 1.14 0.59 1.11 0.63 1.09 0.66 1.07 0.69 1.04 0.73 1.02 0.76 0.99 0.79 0.97 0.83 0.94 0.85 0.91 0.88 0.89 0.91 0.85 0.94 0.83 0.96 0.79 1 0.76 1.01 0.73 1.04 0.7 1.07 0.67 1.09 0.63 1.11 0.59 1.14 0.56 1.15 0.53 1.18 0.48 1.19 0.45 1.22 0.41 1.23 0.37 1.25 0.49-0.35 0.5-0.35 0.51-0.33 0.51-0.33 0.51-0.33 0.52-0.31 0.53-0.31 0.53-0.29 0.53-0.3 0.54-0.28 0.55-0.27 0.55-0.27 0.55-0.26 0.56-0.25 0.56-0.24 0.57-0.23 0.57-0.23 0.58-0.21 0.58-0.21 0.59-0.2 0.58-0.19 0.6-0.18 0.59-0.17 0.6-0.17 0.61-0.15 0.6-0.14 0.62-0.14 0.61-0.12 0.62-0.12 0.62-0.11 0.62-0.09 0.63-0.09 0.63-0.08 0.64-0.06 0.63-0.06 0.64-0.05 0.64-0.03 0.65-0.03 0.65-0.02h0.65l1.64 0.03 1.62 0.1 1.61 0.17 1.58 0.22 1.57 0.29 1.54 0.35 1.52 0.41 1.5 0.46 1.46 0.52 1.45 0.58 1.41 0.63 1.39 0.69 1.35 0.73 1.32 0.79 1.29 0.83 1.25 0.88 1.22 0.93 1.18 0.97 1.14 1.02 1.1 1.06 1.06 1.1 1.02 1.14 0.97 1.18 0.93 1.22 0.88 1.25 0.83 1.29 0.79 1.32 0.73 1.35 0.69 1.38 0.63 1.42 0.58 1.44 0.52 1.47 0.46 1.49 0.41 1.52 0.35 1.55 0.29 1.56 0.22 1.59 0.17 1.6 0.09 1.63 0.04 1.64v25.3l0.47-0.31 0.48-0.3 0.48-0.29 0.48-0.29 0.49-0.28 0.49-0.27 0.5-0.27 0.5-0.26 0.51-0.26 0.51-0.24 0.51-0.24 0.52-0.24 0.52-0.22 0.52-0.22 0.53-0.22 0.53-0.2 0.54-0.2 0.54-0.19 0.54-0.18 0.54-0.17 0.55-0.17 0.56-0.16 0.55-0.15 0.56-0.14 0.57-0.14 0.56-0.13 0.57-0.12 0.57-0.11 0.58-0.1 0.57-0.09 0.58-0.09 0.59-0.08 0.58-0.06 0.59-0.06 0.6-0.05 0.59-0.04 0.6-0.04 0.6-0.02 0.6-0.02h0.6l1.64 0.03 1.63 0.1 1.6 0.17 1.59 0.22 1.56 0.29 1.55 0.35 1.51 0.4 1.5 0.47 1.47 0.52 1.44 0.58 1.41 0.63 1.39 0.68 1.35 0.74 1.32 0.79 1.29 0.83 1.25 0.88 1.22 0.93 1.17 0.97 1.14 1.02 1.1 1.06 1.06 1.1 1.02 1.14 0.97 1.18 0.93 1.22 0.88 1.25 0.83 1.29 0.79 1.32 0.73 1.35 0.69 1.39 0.63 1.41 0.57 1.44 0.52 1.47 0.47 1.5 0.41 1.52 0.34 1.54 0.29 1.57 0.23 1.58 0.16 1.61 0.1 1.62 0.03 1.64v222.37h0.02v0.01 0.01 0.01 0.01 0.02l-0.01 0.02v0.01 0.01 0.01 70.68l-0.07 3.77-0.23 3.72-0.37 3.69-0.52 3.64-0.66 3.59-0.8 3.54-0.94 3.49-1.06 3.43-1.2 3.37-1.33 3.31-1.44 3.25-1.57 3.17-1.69 3.11-1.8 3.03-1.92 2.96-2.02 2.87-2.13 2.79-2.24 2.71-2.33 2.62-2.43 2.52-2.53 2.43-2.62 2.34-2.7 2.23-2.8 2.13-2.87 2.03-2.96 1.91-3.03 1.8-3.11 1.69-3.17 1.57-3.25 1.45-3.31 1.32-3.37 1.2-3.44 1.07-3.49 0.93-3.54 0.8-3.59 0.66-3.64 0.52-3.69 0.38-3.72 0.22-3.77 0.08-141.8-0.01h-0.05-0.06-0.05-0.06-0.02-0.06-0.05-0.03-0.02-0.03-0.03-0.03-0.06-0.06l-0.07 0.01h-0.03-0.04-0.03-0.08-0.04-0.17l-2.06-0.03-2.04-0.08-2.03-0.13-2-0.19-1.98-0.24-1.96-0.28-1.94-0.34-1.92-0.39-1.89-0.43-1.88-0.48-1.85-0.53-1.84-0.57-1.81-0.62-1.79-0.66-1.77-0.71-1.75-0.74-1.73-0.79-1.71-0.83-1.68-0.87-1.67-0.9-1.64-0.95-1.62-0.98-1.6-1.01-1.58-1.06-1.56-1.08-1.54-1.12-1.51-1.16-1.5-1.18-1.47-1.22-1.45-1.25-1.43-1.27-1.41-1.31-1.38-1.33-1.37-1.36-1.34-1.39-1.33-1.41-1.3-1.44-1.28-1.45-1.25-1.49-1.24-1.5-1.23-1.53-1.21-1.56-1.19-1.58-1.18-1.59-1.15-1.62-1.14-1.63-1.12-1.66-1.11-1.67-1.09-1.69-1.07-1.71-1.05-1.72-1.04-1.74-1.02-1.76-1.01-1.76-0.99-1.79-0.97-1.79-0.96-1.81-0.94-1.82-0.93-1.84-0.91-1.84-0.9-1.86-0.88-1.86-0.87-1.88-0.85-1.88-0.84-1.89-0.82-1.9-0.81-1.91-0.8-1.91-0.78-1.92-0.77-1.93-0.76-1.93-0.74-1.93-0.73-1.94-0.72-1.94-0.7-1.95-0.69-1.94-0.68-1.95-0.67-1.95-0.66-1.94-0.64-1.95-1.24-3.89-1.2-3.88-1.16-3.88-1.1-3.85-1.07-3.83-1.01-3.81-0.98-3.77-0.93-3.74-0.9-3.7-0.85-3.66-0.81-3.6-0.78-3.56-0.73-3.49-0.7-3.43-0.66-3.36-0.63-3.28-0.59-3.21-0.56-3.13-0.52-3.04-0.49-2.94-0.46-2.85-0.43-2.75-0.4-2.64-0.37-2.54-0.34-2.41-0.31-2.3-0.29-2.17-0.26-2.04-0.24-1.91-0.21-1.77-0.18-1.63-0.17-1.47-0.14-1.33-0.12-1.16-0.1-1.01-0.09-0.84-0.06-0.66-0.04-0.49-0.03-0.31-0.01-0.12-0.01-0.15-0.01-0.16-0.01-0.15v-0.16-0.15-0.16l0.01-0.15 0.01-0.16 0.01-0.15 0.01-0.15 0.02-0.16 0.02-0.15 0.03-0.15 0.02-0.15 0.03-0.15 0.03-0.15 0.03-0.15 0.04-0.15 0.04-0.15 0.04-0.14 0.05-0.15 0.05-0.14 0.05-0.15 0.05-0.14 0.06-0.14 0.05-0.15 0.07-0.14 0.06-0.14 0.07-0.13 0.07-0.14 0.07-0.14 0.07-0.13 0.08-0.14 0.08-0.13 0.08-0.13 0.09-0.13 0.08-0.13 0.09-0.12 0.1-0.13 0.09-0.12 2.4-3.12 2.3-3.08 2.21-3.05 2.11-3.01 2.02-2.98 1.93-2.93 1.84-2.89 1.76-2.85 1.67-2.81 1.6-2.75 1.51-2.71 1.43-2.66 1.36-2.6 1.29-2.56 1.21-2.49 1.15-2.44 1.08-2.38 1.01-2.32 0.95-2.26 0.89-2.2 0.83-2.13 0.77-2.06 0.71-1.99 0.66-1.93 0.61-1.85 0.57-1.78 0.51-1.7 0.47-1.62 0.42-1.55 0.39-1.46 0.34-1.39 0.31-1.3 0.27-1.21 0.24-1.13 0.21-1.03 0.18-0.95 0.15-0.86 0.13-0.76 0.1-0.66 0.09-0.57 0.01-0.07 0.01-0.07v-0.07l0.01-0.06 0.01-0.07 0.01-0.06 0.01-0.05v-0.06l0.01-0.05 0.01-0.05v-0.05l0.01-0.05 0.01-0.04v-0.05l0.01-0.04v-0.03l0.01-0.04v-0.03-0.04l0.01-0.03v-0.02-0.03l0.01-0.03v-0.02-0.02-0.02l0.01-0.03v-0.03-0.02-0.02l0.01-0.02 0.02-0.23 0.02-0.22 0.04-0.22 0.03-0.22 0.05-0.21 0.05-0.22 0.05-0.21 0.06-0.21 0.07-0.21 0.07-0.21 0.08-0.2 0.08-0.21 0.09-0.19 0.09-0.2 0.1-0.2 0.1-0.19 0.11-0.18 0.11-0.19 0.12-0.18 0.12-0.18 0.13-0.18 0.13-0.17 0.13-0.17 0.14-0.16 0.15-0.16 0.15-0.16 0.15-0.16 0.16-0.15 0.16-0.14 0.17-0.14 0.17-0.14 0.17-0.13 0.18-0.13 0.18-0.13 0.18-0.12 0.19-0.11 0.19-0.11 0.2-0.11 0.2-0.1 0.2-0.1 0.61-0.27 0.61-0.27 0.6-0.26 0.6-0.25 0.6-0.25 0.6-0.24 0.59-0.23 0.59-0.23 0.58-0.22 0.59-0.21 0.58-0.2 0.58-0.2 0.57-0.19 0.57-0.18 0.57-0.18 0.57-0.17 0.56-0.16 0.56-0.16 0.56-0.15 0.56-0.14 0.55-0.13 0.55-0.13 0.55-0.12 0.54-0.11 0.55-0.11 0.54-0.1 0.53-0.09 0.54-0.09 0.53-0.08 0.53-0.07 0.53-0.07 0.53-0.06 0.52-0.05 0.52-0.04 0.52-0.04 0.51-0.03 0.52-0.03 0.51-0.02 0.51-0.01h0.5 0.84l0.82 0.02 0.82 0.04 0.81 0.07 0.8 0.08 0.79 0.11 0.78 0.12 0.78 0.14 0.76 0.17 0.75 0.18 0.74 0.2 0.74 0.21 0.72 0.24 0.71 0.25 0.7 0.26 0.7 0.29 0.68 0.3 0.67 0.31 0.66 0.33 0.64 0.34 0.64 0.36 0.62 0.37 0.62 0.38 0.6 0.39 0.59 0.41 0.57 0.42 0.57 0.43 0.55 0.44 0.54 0.45 0.53 0.46 0.51 0.48 0.5 0.48 0.49 0.49 0.47 0.49 0.46 0.51 0.45 0.51 0.43 0.52 0.42 0.53 0.41 0.54 0.39 0.53v-125.23l0.03-1.64 0.1-1.62 0.16-1.61 0.23-1.59 0.29-1.56 0.35-1.54 0.41-1.52 0.46-1.5 0.52-1.47 0.58-1.44 0.63-1.41 0.69-1.39 0.73-1.35 0.79-1.32 0.83-1.29 0.88-1.25 0.93-1.22 0.97-1.18 1.02-1.14 1.06-1.1 1.1-1.06 1.14-1.01 1.18-0.97 1.22-0.93 1.25-0.88 1.29-0.84 1.32-0.78 1.35-0.74 1.39-0.68 1.41-0.63 1.44-0.58 1.47-0.52 1.5-0.47 1.52-0.4 1.54-0.35 1.57-0.29 1.58-0.23 1.61-0.16 1.62-0.1 1.64-0.03h0.61l0.6 0.02 0.6 0.02 0.59 0.03 0.6 0.04 0.59 0.05 0.58 0.06 0.59 0.07 0.58 0.08 0.58 0.09 0.58 0.09 0.57 0.1 0.57 0.11 0.57 0.12 0.57 0.13 0.56 0.13 0.56 0.15 0.55 0.15 0.56 0.16 0.54 0.16 0.55 0.18 0.54 0.18 0.54 0.19 0.54 0.2 0.53 0.2 0.53 0.21 0.52 0.22 0.52 0.23 0.52 0.23 0.51 0.24 0.51 0.25 0.51 0.26 0.5 0.26 0.5 0.26 0.49 0.28 0.49 0.28 0.48 0.29 0.48 0.29 0.48 0.3 0.47 0.31v-6.83l0.04-1.65 0.1-1.62 0.16-1.61 0.23-1.58 0.28-1.57 0.35-1.54 0.41-1.52 0.47-1.5 0.52-1.47 0.57-1.44 0.64-1.42 0.68-1.38 0.73-1.35 0.79-1.33 0.83-1.28 0.89-1.26 0.92-1.21 0.98-1.18 1.01-1.14 1.06-1.1 1.1-1.06 1.14-1.02 1.18-0.97 1.22-0.93 1.25-0.88 1.29-0.84 1.32-0.78 1.35-0.74 1.38-0.68 1.41-0.63 1.45-0.58 1.46-0.52 1.5-0.46 1.52-0.41 1.54-0.35 1.56-0.29 1.59-0.22 1.6-0.17 1.63-0.1 1.64-0.03 1.36 0.02 1.35 0.07zm-4.63 16.48l-0.94 0.1-0.93 0.13-0.91 0.17-0.9 0.21-0.89 0.24-0.88 0.27-0.86 0.3-0.84 0.34-0.83 0.37-0.81 0.4-0.79 0.43-0.77 0.46-0.76 0.49-0.73 0.52-0.71 0.54-0.69 0.57-0.67 0.6-0.64 0.62-0.62 0.64-0.6 0.67-0.57 0.69-0.54 0.71-0.52 0.73-0.48 0.76-0.46 0.77-0.43 0.79-0.41 0.81-0.36 0.83-0.34 0.84-0.31 0.86-0.27 0.88-0.24 0.89-0.21 0.9-0.17 0.92-0.13 0.93-0.1 0.94-0.06 0.95-0.02 0.97v213.16l-0.01 0.34-0.02 0.33-0.03 0.34-0.05 0.33-0.06 0.32-0.08 0.32-0.08 0.31-0.1 0.31-0.11 0.31-0.12 0.3-0.13 0.29-0.15 0.28-0.15 0.28-0.17 0.28-0.17 0.26-0.19 0.26-0.19 0.25-0.2 0.25-0.21 0.23-0.23 0.23-0.23 0.22-0.23 0.21-0.25 0.2-0.25 0.19-0.26 0.18-0.27 0.17-0.28 0.16-0.28 0.15-0.28 0.14-0.3 0.13-0.3 0.12-0.3 0.11-0.31 0.09-0.32 0.08-0.32 0.07-0.32 0.06-0.33 0.05-0.33 0.03-0.34 0.02h-0.34l-0.34-0.01-0.34-0.02-0.33-0.03-0.33-0.05-0.32-0.06-0.32-0.08-0.31-0.08-0.31-0.1-0.31-0.11-0.29-0.12-0.3-0.13-0.28-0.15-0.28-0.15-0.27-0.16-0.27-0.18-0.26-0.18-0.25-0.2-0.24-0.2-0.23-0.21-0.23-0.22-0.22-0.23-0.21-0.24-0.2-0.24-0.19-0.26-0.18-0.26-0.17-0.26-0.16-0.28-0.15-0.28-0.14-0.29-0.13-0.29-0.12-0.3-0.1-0.31-0.1-0.31-0.08-0.31-0.07-0.32-0.06-0.33-0.05-0.33-0.03-0.33-0.02-0.34v-0.34-0.34-4.76-5.94-22.6-23.78-40.09-32.77-51.08l-0.26-0.66-0.28-0.64-0.3-0.63-0.31-0.63-0.34-0.61-0.35-0.6-0.37-0.59-0.38-0.58-0.41-0.56-0.41-0.55-0.44-0.54-0.45-0.53-0.46-0.51-0.48-0.5-0.5-0.48-0.51-0.47-0.52-0.46-0.53-0.44-0.55-0.42-0.56-0.41-0.58-0.39-0.58-0.37-0.6-0.36-0.61-0.34-0.61-0.32-0.63-0.3-0.64-0.28-0.65-0.27-0.66-0.24-0.67-0.23-0.68-0.21-0.69-0.18-0.69-0.17-0.7-0.14-0.71-0.12-0.72-0.1-0.72-0.08-0.73-0.06-0.74-0.03-0.74-0.01-0.96 0.02-0.95 0.06-0.94 0.09-0.93 0.14-0.92 0.17-0.9 0.2-0.89 0.24-0.88 0.27-0.86 0.31-0.84 0.34-0.83 0.37-0.81 0.4-0.79 0.43-0.77 0.46-0.76 0.49-0.73 0.51-0.71 0.55-0.69 0.56-0.67 0.6-0.64 0.62-0.62 0.64-0.6 0.67-0.57 0.69-0.54 0.71-0.52 0.74-0.49 0.75-0.46 0.77-0.43 0.79-0.4 0.81-0.37 0.83-0.34 0.84-0.3 0.86-0.28 0.88-0.24 0.89-0.2 0.9-0.17 0.92-0.13 0.93-0.1 0.94-0.06 0.95-0.02 0.96v249.5l0.41 0.04 0.43 0.03 0.46 0.05 0.47 0.04 0.49 0.05 0.51 0.06 0.54 0.05 0.55 0.07 0.56 0.07 0.59 0.07 0.6 0.08 0.63 0.08 0.63 0.09 0.66 0.1 0.67 0.1 0.68 0.11 0.7 0.11 0.72 0.12 0.73 0.13 0.74 0.13 0.76 0.14 0.77 0.15 0.78 0.16 0.8 0.16 0.81 0.17 0.82 0.18 0.83 0.18 0.84 0.2 0.85 0.2 0.86 0.21 0.88 0.23 0.88 0.22 0.89 0.24 0.9 0.25 0.9 0.26 0.92 0.27 0.92 0.27 0.93 0.29 0.93 0.3 0.94 0.3 1.31 0.45 1.31 0.46 1.32 0.49 1.33 0.51 1.35 0.53 1.34 0.56 1.36 0.58 1.36 0.6 1.36 0.63 1.36 0.66 1.36 0.69 1.37 0.71 1.36 0.74 1.35 0.77 1.36 0.8 1.34 0.82 1.34 0.86 1.33 0.89 1.33 0.92 1.31 0.95 1.29 0.98 1.29 1.02 1.27 1.05 1.25 1.08 1.24 1.12 1.21 1.15 1.2 1.19 1.17 1.23 1.16 1.26 1.12 1.3 1.11 1.33 1.08 1.38 1.04 1.41 1.02 1.46 0.99 1.49 0.96 1.53 0.93 1.58 0.89 1.62 0.85 1.65 0.82 1.71 0.14 0.31 0.12 0.31 0.11 0.32 0.09 0.32 0.08 0.32 0.07 0.32 0.06 0.32 0.04 0.32 0.03 0.32 0.02 0.32v0.32l-0.01 0.32-0.02 0.32-0.03 0.32-0.05 0.31-0.06 0.31-0.07 0.31-0.08 0.31-0.09 0.3-0.1 0.3-0.12 0.29-0.12 0.29-0.14 0.29-0.15 0.28-0.16 0.27-0.17 0.27-0.18 0.26-0.19 0.26-0.2 0.25-0.21 0.24-0.23 0.23-0.23 0.23-0.24 0.21-0.25 0.21-0.26 0.2-0.27 0.19-0.28 0.18-0.29 0.17-0.29 0.16-0.31 0.15-0.08 0.03-0.09 0.04-0.08 0.04-0.08 0.04-0.09 0.03-0.08 0.03-0.09 0.04-0.08 0.03-0.09 0.03-0.08 0.03-0.09 0.03-0.08 0.03-0.09 0.02-0.09 0.03-0.08 0.02-0.09 0.03-0.08 0.02-0.09 0.02-0.09 0.02-0.08 0.02-0.09 0.02-0.08 0.02-0.09 0.01-0.09 0.02-0.08 0.01-0.09 0.02-0.09 0.01-0.09 0.01-0.08 0.01-0.09 0.01-0.09 0.01-0.08 0.01-0.09 0.01h-0.09l-0.08 0.01h-0.09-0.09l-0.09 0.01h-0.08-0.09-0.23l-0.23-0.01-0.24-0.02-0.23-0.02-0.23-0.03-0.22-0.04-0.23-0.04-0.23-0.05-0.22-0.06-0.22-0.06-0.23-0.06-0.21-0.08-0.22-0.08-0.22-0.08-0.21-0.1-0.21-0.09-0.2-0.11-0.21-0.11-0.2-0.11-0.2-0.12-0.19-0.13-0.19-0.13-0.19-0.14-0.19-0.14-0.18-0.15-0.17-0.15-0.18-0.16-0.16-0.17-0.17-0.17-0.16-0.17-0.15-0.18-0.15-0.19-0.15-0.19-0.14-0.19-0.13-0.2-0.13-0.21-0.13-0.21-0.12-0.21-0.11-0.22-0.11-0.22-0.89-1.89-0.96-1.81-1.03-1.76-1.1-1.7-1.16-1.63-1.22-1.58-1.27-1.52-1.33-1.46-1.37-1.4-1.42-1.35-1.46-1.3-1.5-1.24-1.54-1.19-1.57-1.14-1.59-1.09-1.62-1.04-1.64-0.99-1.66-0.94-1.68-0.9-1.68-0.85-1.7-0.81-1.69-0.77-1.7-0.72-1.7-0.69-1.69-0.64-1.69-0.6-1.67-0.57-1.65-0.53-1.64-0.49-1.61-0.46-1.59-0.43-1.55-0.39-1.53-0.36-1.49-0.33-1.45-0.3-1.4-0.27-1.36-0.24-1.32-0.22-1.25-0.19-1.2-0.17-0.38-0.05-0.37-0.05-0.36-0.05-0.36-0.04-0.34-0.04-0.34-0.05-0.33-0.03-0.31-0.04-0.31-0.04-0.31-0.03-0.29-0.03-0.28-0.03-0.28-0.03-0.26-0.02-0.26-0.03-0.25-0.02-0.24-0.02-0.23-0.02-0.21-0.02-0.21-0.02-0.21-0.01-0.19-0.02-0.18-0.01-0.17-0.01-0.16-0.01-0.15-0.01-0.14-0.01-0.14-0.01-0.12-0.01h-0.11l-0.1-0.01h-0.09l-0.08-0.01h-0.07-0.06-0.05l-0.04-0.01h-0.02-0.03-0.04-0.04l-0.07-0.01h-0.08l-0.1-0.01-0.12-0.01-0.12-0.01-0.15-0.01-0.15-0.01-0.16-0.02-0.18-0.01-0.19-0.02-0.19-0.01-0.2-0.02-0.21-0.02-0.22-0.02-0.22-0.02-0.22-0.02-0.23-0.02-0.23-0.02-0.23-0.03-0.23-0.02-0.23-0.02-0.23-0.03-0.23-0.02-0.23-0.03-0.22-0.02-0.21-0.03-0.21-0.03-0.21-0.02-0.19-0.03-0.19-0.03-0.18-0.03-0.17-0.02-0.16-0.03-0.14-0.03-0.14-0.03-0.11-0.03-0.11-0.03-19.19-5.74-0.2-0.05-0.23-0.08-0.26-0.11-0.28-0.13-0.31-0.16-0.32-0.19-0.35-0.21-0.36-0.25-0.38-0.27-0.39-0.3-0.41-0.34-0.41-0.36-0.43-0.39-0.43-0.42-0.43-0.46-0.44-0.48-0.44-0.52-0.44-0.55-0.44-0.58-0.44-0.62-0.43-0.64-0.42-0.69-0.41-0.71-0.4-0.75-0.39-0.79-0.38-0.82-0.36-0.86-0.34-0.89-0.32-0.93-0.3-0.97-0.28-1-0.25-1.04-0.23-1.08-0.19-1.12-0.17-1.16-0.14-1.19-0.1-1.24-0.06-1.27-0.03-1.32 0.01-1.35 0.01-1.05 0.03-1.07 0.05-1.09 0.07-1.12 0.09-1.15 0.1-1.17 0.13-1.19 0.15-1.23 0.17-1.25 0.19-1.27 0.22-1.31 0.24-1.33 0.26-1.36 0.29-1.4 0.31-1.42 0.34-1.45 0.36-1.48 0.4-1.52 0.41-1.54 0.45-1.58 0.47-1.61 0.5-1.64 0.53-1.68 0.56-1.71 0.6-1.74 0.62-1.78 0.65-1.82 0.69-1.85 0.71-1.89 0.75-1.92 0.79-1.96 0.81-2 0.86-2.04 0.88-2.07 0.93-2.11 0.96-2.16 0.99-2.19 1.04-2.23 1.07-2.28 1.11-2.31v-0.04-0.05-0.08-0.05-0.09-0.04-0.05-0.05l0.01-0.04v-0.05-0.05-0.05-0.05-0.05-0.05-0.05-0.05-0.06-0.05-0.05-0.06-0.05-0.06l0.01-0.05v-0.06-0.06-0.05-0.06-0.06-0.06-0.06-0.06-0.06-0.06-0.06-0.07-0.06-0.06l0.01-0.55v-0.58-0.6l-0.02-0.64-0.01-0.66-0.03-0.69-0.03-0.71-0.04-0.73-0.05-0.76-0.06-0.77-0.07-0.79-0.07-0.81-0.09-0.82-0.09-0.83-0.11-0.85-0.11-0.85-0.12-0.86-0.14-0.87-0.14-0.87-0.16-0.87-0.16-0.87-0.18-0.88-0.19-0.87-0.2-0.87-0.21-0.86-0.23-0.86-0.24-0.85-0.25-0.84-0.27-0.82-0.27-0.82-0.29-0.79-0.31-0.79-0.32-0.76-0.33-0.74-0.35-0.73-0.36-0.7-0.38-0.67-0.4-0.65-0.41-0.62-0.42-0.59-0.23-0.31-0.24-0.29-0.23-0.29-0.23-0.28-0.24-0.28-0.23-0.26-0.23-0.26-0.24-0.25-0.24-0.24-0.24-0.24-0.24-0.23-0.24-0.22-0.25-0.21-0.25-0.21-0.26-0.19-0.26-0.2-0.26-0.18-0.27-0.17-0.27-0.17-0.28-0.16-0.28-0.16-0.29-0.14-0.3-0.14-0.3-0.13-0.31-0.13-0.32-0.11-0.32-0.11-0.33-0.11-0.34-0.09-0.35-0.09-0.36-0.08-0.37-0.07-0.37-0.07-0.39-0.05-0.4-0.05-0.4-0.05-0.42-0.03-0.43-0.03-0.44-0.02-0.46-0.02h-0.22-0.22l-0.22 0.01-0.23 0.01-0.24 0.01-0.23 0.01-0.24 0.02-0.24 0.02-0.25 0.02-0.24 0.02-0.26 0.03-0.25 0.03-0.26 0.03-0.26 0.04-0.27 0.04-0.26 0.04-0.27 0.04-0.28 0.05-0.28 0.05-0.28 0.06-0.28 0.05-0.29 0.06-0.29 0.07-0.29 0.07-0.3 0.07-0.3 0.07-0.31 0.08-0.3 0.08-0.31 0.09-0.32 0.09-0.32 0.09-0.32 0.1-0.32 0.1-0.33 0.1-0.33 0.11-0.33 0.11-0.34 0.12-0.34 0.12-0.34 0.12-0.35 0.13-0.18 0.95-0.19 1.03-0.23 1.11-0.25 1.18-0.28 1.25-0.31 1.32-0.35 1.39-0.37 1.45-0.41 1.53-0.45 1.59-0.48 1.65-0.53 1.71-0.56 1.78-0.61 1.83-0.65 1.9-0.69 1.95-0.74 2.01-0.79 2.06-0.84 2.12-0.89 2.17-0.94 2.22-1 2.27-1.05 2.31-1.1 2.37-1.17 2.41-1.22 2.45-1.29 2.5-1.35 2.54-1.41 2.58-1.48 2.63-1.55 2.65-1.61 2.7-1.69 2.73-1.75 2.77-1.83 2.8-1.91 2.83-1.98 2.86-2.05 2.89-2.14 2.92-2.22 2.94 0.03 0.24 0.02 0.24 0.03 0.25 0.03 0.26 0.03 0.26 0.03 0.28 0.03 0.28 0.03 0.29 0.03 0.3 0.03 0.3 0.04 0.31 0.04 0.32 0.03 0.33 0.04 0.34 0.04 0.34 0.04 0.35 0.04 0.35 0.04 0.37 0.05 0.37 0.04 0.38 0.05 0.38 0.05 0.39 0.05 0.4 0.05 0.41 0.05 0.41 0.05 0.42 0.05 0.43 0.06 0.43 0.05 0.44 0.06 0.45 0.06 0.45 0.06 0.46 0.06 0.47 0.06 0.47 0.07 0.48 0.06 0.49 0.07 0.49 0.07 0.5 0.07 0.5 0.07 0.52 0.12 0.86 0.13 0.88 0.12 0.9 0.14 0.91 0.13 0.93 0.14 0.95 0.15 0.96 0.15 0.97 0.15 0.99 0.16 1 0.16 1.02 0.16 1.03 0.17 1.04 0.18 1.06 0.17 1.07 0.19 1.08 0.18 1.1 0.19 1.11 0.2 1.12 0.2 1.13 0.2 1.14 0.21 1.16 0.22 1.16 0.22 1.18 0.22 1.19 0.23 1.19 0.23 1.21 0.24 1.22 0.24 1.22 0.25 1.24 0.25 1.24 0.26 1.26 0.26 1.26 0.27 1.27 0.27 1.28 0.28 1.28 0.28 1.3 0.29 1.3 0.29 1.3 0.3 1.32 0.61 2.64 0.63 2.67 0.66 2.69 0.68 2.71 0.7 2.73 0.72 2.74 0.75 2.76 0.77 2.77 0.8 2.77 0.82 2.79 0.84 2.79 0.87 2.79 0.9 2.79 0.91 2.79 0.95 2.79 0.96 2.78 1 2.78 1.02 2.76 1.04 2.76 1.07 2.74 1.1 2.72 1.12 2.71 1.15 2.69 1.17 2.66 1.2 2.64 1.23 2.61 1.26 2.59 1.28 2.56 1.31 2.52 1.34 2.49 1.36 2.45 1.4 2.41 1.42 2.37 1.45 2.33 1.47 2.29 1.51 2.24 1.54 2.18 1.56 2.14 1.59 2.08 1.62 2.03 1.11 1.33 1.11 1.3 1.12 1.27 1.13 1.24 1.14 1.21 1.16 1.19 1.16 1.16 1.17 1.13 1.18 1.1 1.2 1.07 1.21 1.04 1.21 1.01 1.23 0.99 1.24 0.95 1.26 0.91 1.26 0.89 1.28 0.86 1.29 0.82 1.3 0.79 1.32 0.76 1.33 0.72 1.34 0.69 1.36 0.66 1.37 0.62 1.38 0.59 1.4 0.55 1.42 0.52 1.43 0.48 1.44 0.44 1.46 0.41 1.48 0.38 1.49 0.33 1.5 0.3 1.52 0.26 1.54 0.22 1.56 0.18 1.57 0.15 1.59 0.1 1.6 0.07 1.63 0.02h0.22 0.64 1.02 3.14 2.08 5.08 6.19 11.03 4.08 13.13 14.11 9.7 19.46 27.03l14.86-0.01h10.92l3.09-0.06 3.05-0.2 3.02-0.31 2.98-0.43 2.94-0.54 2.9-0.66 2.86-0.77 2.81-0.87 2.76-0.99 2.72-1.08 2.65-1.19 2.6-1.29 2.55-1.38 2.48-1.48 2.42-1.57 2.35-1.65 2.29-1.75 2.22-1.83 2.14-1.91 2.07-1.99 1.99-2.07 1.91-2.14 1.83-2.22 1.75-2.29 1.65-2.35 1.57-2.42 1.48-2.48 1.38-2.55 1.29-2.6 1.19-2.66 1.08-2.71 0.98-2.76 0.88-2.81 0.77-2.86 0.66-2.9 0.54-2.94 0.43-2.98 0.31-3.02 0.19-3.05 0.07-3.09v-293.16l-0.02-0.96-0.06-0.95-0.1-0.94-0.13-0.93-0.17-0.92-0.21-0.9-0.23-0.89-0.28-0.88-0.3-0.86-0.34-0.84-0.37-0.83-0.4-0.81-0.43-0.79-0.46-0.77-0.49-0.76-0.51-0.73-0.55-0.71-0.57-0.69-0.59-0.67-0.62-0.64-0.64-0.62-0.67-0.6-0.69-0.57-0.71-0.54-0.73-0.52-0.76-0.49-0.77-0.46-0.79-0.43-0.81-0.4-0.83-0.37-0.84-0.34-0.86-0.3-0.88-0.27-0.88-0.24-0.91-0.21-0.91-0.17-0.93-0.13-0.94-0.1-0.95-0.06-0.96-0.02-0.74 0.01-0.74 0.04-0.73 0.05-0.73 0.08-0.71 0.1-0.71 0.13-0.71 0.14-0.69 0.17-0.69 0.18-0.68 0.21-0.66 0.22-0.66 0.25-0.65 0.26-0.64 0.29-0.63 0.3-0.62 0.32-0.61 0.34-0.6 0.35-0.58 0.38-0.58 0.39-0.56 0.4-0.55 0.43-0.53 0.43-0.52 0.46-0.51 0.47-0.49 0.48-0.48 0.5-0.47 0.51-0.45 0.52-0.43 0.54-0.42 0.55-0.41 0.57-0.38 0.57-0.37 0.59-0.35 0.6-0.34 0.61-0.32 0.63-0.3 0.63-0.28 0.64-0.26 0.65v162.34h0.01v0.34l-0.02 0.34-0.04 0.33-0.05 0.33-0.06 0.32-0.07 0.32-0.08 0.31-0.1 0.31-0.11 0.31-0.12 0.3-0.13 0.29-0.14 0.29-0.15 0.28-0.16 0.27-0.18 0.27-0.18 0.26-0.19 0.25-0.21 0.24-0.21 0.24-0.22 0.23-0.22 0.22-0.24 0.21-0.25 0.2-0.25 0.19-0.26 0.19-0.26 0.17-0.28 0.16-0.28 0.16-0.29 0.14-0.29 0.13-0.3 0.12-0.3 0.11-0.31 0.09-0.32 0.09-0.32 0.07-0.32 0.06-0.33 0.05-0.34 0.03-0.33 0.02-0.34 0.01-0.34-0.01-0.34-0.02-0.33-0.03-0.33-0.05-0.32-0.06-0.32-0.07-0.32-0.09-0.31-0.09-0.3-0.11-0.3-0.12-0.3-0.13-0.28-0.14-0.28-0.16-0.28-0.16-0.26-0.17-0.26-0.19-0.25-0.19-0.25-0.2-0.23-0.21-0.23-0.22-0.22-0.23-0.21-0.24-0.2-0.24-0.2-0.25-0.18-0.26-0.17-0.27-0.16-0.27-0.16-0.28-0.14-0.29-0.13-0.29-0.12-0.3-0.11-0.31-0.09-0.31-0.09-0.31-0.07-0.32-0.06-0.32-0.04-0.33-0.04-0.33-0.02-0.34-0.01-0.34v-212.5l-0.02-0.96-0.06-0.95-0.09-0.94-0.14-0.93-0.17-0.92-0.2-0.9-0.24-0.89-0.27-0.88-0.31-0.86-0.34-0.84-0.37-0.83-0.4-0.81-0.43-0.79-0.46-0.77-0.49-0.76-0.51-0.73-0.55-0.71-0.56-0.69-0.6-0.67-0.62-0.64-0.64-0.62-0.67-0.6-0.69-0.57-0.71-0.54-0.74-0.52-0.75-0.49-0.77-0.46-0.8-0.43-0.81-0.4-0.83-0.37-0.84-0.34-0.86-0.3-0.88-0.28-0.89-0.23-0.9-0.21-0.92-0.17-0.93-0.13-0.94-0.1-0.95-0.06-0.96-0.02-0.74 0.01-0.74 0.03-0.73 0.06-0.72 0.08-0.72 0.1-0.71 0.12-0.7 0.15-0.7 0.16-0.68 0.19-0.68 0.21-0.67 0.22-0.66 0.25-0.65 0.26-0.64 0.29-0.63 0.3-0.61 0.32-0.61 0.34-0.6 0.36-0.58 0.37-0.58 0.39-0.56 0.41-0.54 0.42-0.54 0.44-0.52 0.45-0.51 0.47-0.49 0.49-0.48 0.49-0.46 0.52-0.45 0.52-0.44 0.54-0.41 0.56-0.41 0.56-0.38 0.58-0.37 0.59-0.35 0.6-0.34 0.61-0.31 0.62-0.3 0.64-0.28 0.64-0.26 0.65v212.2h0.01l-0.01 0.34-0.02 0.33-0.03 0.34-0.05 0.32-0.06 0.33-0.07 0.32-0.09 0.31-0.09 0.31-0.11 0.31-0.12 0.29-0.13 0.3-0.14 0.28-0.15 0.28-0.17 0.28-0.17 0.26-0.18 0.26-0.19 0.26-0.21 0.24-0.21 0.24-0.22 0.22-0.22 0.22-0.24 0.22-0.25 0.2-0.25 0.19-0.26 0.18-0.26 0.18-0.28 0.16-0.28 0.15-0.29 0.14-0.29 0.13-0.3 0.12-0.3 0.11-0.31 0.1-0.32 0.08-0.32 0.07-0.32 0.06-0.33 0.05-0.33 0.03-0.34 0.03h-0.34-0.34l-0.34-0.03-0.33-0.03-0.33-0.05-0.32-0.06-0.32-0.07-0.32-0.08-0.3-0.1-0.31-0.11-0.3-0.12-0.29-0.13-0.29-0.14-0.28-0.15-0.27-0.16-0.27-0.18-0.26-0.18-0.25-0.19-0.24-0.2-0.24-0.22-0.23-0.22-0.22-0.22-0.21-0.24-0.2-0.24-0.19-0.26-0.19-0.26-0.17-0.26-0.16-0.28-0.15-0.28-0.14-0.28-0.14-0.3-0.11-0.29-0.11-0.31-0.1-0.31-0.08-0.31-0.08-0.32-0.06-0.33-0.04-0.32-0.04-0.34-0.02-0.33v-0.34-225.43l-0.02-0.97-0.06-0.95-0.1-0.94-0.13-0.93-0.17-0.92-0.21-0.9-0.24-0.89-0.27-0.88-0.31-0.86-0.33-0.84-0.37-0.83-0.4-0.81-0.44-0.79-0.45-0.77-0.49-0.76-0.52-0.73-0.54-0.71-0.57-0.69-0.6-0.67-0.62-0.64-0.64-0.62-0.67-0.6-0.69-0.57-0.71-0.54-0.73-0.52-0.76-0.49-0.77-0.46-0.79-0.43-0.81-0.4-0.83-0.37-0.85-0.34-0.86-0.3-0.87-0.27-0.89-0.24-0.9-0.21-0.92-0.17-0.93-0.13-0.94-0.1-0.95-0.06-0.96-0.02-0.96 0.02-0.95 0.06zm-101.38 263.26l-0.87 2.42-0.81 2.34-0.74 2.25-0.69 2.18-0.62 2.1-0.57 2.02-0.52 1.94-0.46 1.87-0.41 1.79-0.36 1.72-0.32 1.65-0.27 1.57-0.22 1.51-0.19 1.43-0.15 1.36-0.11 1.3-0.07 1.23-0.05 1.16-0.01 1.1 0.03 1.11 0.05 1.03 0.08 0.96 0.09 0.9 0.11 0.82 0.12 0.77 0.13 0.7 0.15 0.64 0.15 0.59 0.16 0.53 0.17 0.49 0.17 0.43 0.16 0.39 0.17 0.34 0.17 0.3 0.16 0.27 0.15 0.23 0.15 0.19 0.13 0.17 0.12 0.13 0.11 0.11 6.65 1.98v-51.11l-1 2.59-0.94 2.5z"/>
</defs>
<use fill="#000000" xlink:href="#a"/>
<use fill-opacity="0" stroke="#000000" stroke-opacity="0" xlink:href="#a"/>
</svg>
