<svg viewBox="0 0 640 640" xmlns="http://www.w3.org/2000/svg" xmlns:xlink="http://www.w3.org/1999/xlink"><defs><path id="a" d="M328.93 7.77l1.34.11 1.33.16 1.31.2 1.3.24 1.28.29 1.27.32 1.25.37 1.23.41 1.22.44 1.19.48 1.18.52 1.15.56 1.14.59 1.11.63 1.09.66 1.07.69 1.04.73 1.02.76.99.79.97.83.94.85.91.88.89.91.85.94.83.96.79 1 .76 1.01.73 1.04.7 1.07.67 1.09.63 1.11.59 1.14.56 1.15.53 1.18.48 1.19.45 1.22.41 1.23.37 1.25.49-.35.5-.35.51-.33.51-.33.51-.33.52-.31.53-.31.53-.29.53-.3.54-.28.55-.27.55-.27.55-.26.56-.25.56-.24.57-.23.57-.23.58-.21.58-.21.59-.2.58-.19.6-.18.59-.17.6-.17.61-.15.6-.14.62-.14.61-.12.62-.12.62-.11.62-.09.63-.09.63-.08.64-.06.63-.06.64-.05.64-.03.65-.03.65-.02h.65l1.64.03 1.62.1 1.61.17 1.58.22 1.57.29 1.54.35 1.52.41 1.5.46 1.46.52 1.45.58 1.41.63 1.39.69 1.35.73 1.32.79 1.29.83 1.25.88 1.22.93 1.18.97 1.14 1.02 1.1 1.06 1.06 1.1 1.02 1.14.97 1.18.93 1.22.88 1.25.83 1.29.79 1.32.73 1.35.69 1.38.63 1.42.58 1.44.52 1.47.46 1.49.41 1.52.35 1.55.29 1.56.22 1.59.17 1.6.09 1.63.04 1.64v25.3l.47-.31.48-.3.48-.29.48-.29.49-.28.49-.27.5-.27.5-.26.51-.26.51-.24.51-.24.52-.24.52-.22.52-.22.53-.22.53-.2.54-.2.54-.19.54-.18.54-.17.55-.17.56-.16.55-.15.56-.14.57-.14.56-.13.57-.12.57-.11.58-.1.57-.09.58-.09.59-.08.58-.06.59-.06.6-.05.59-.04.6-.04.6-.02.6-.02h.6l1.64.03 1.63.1 1.6.17 1.59.22 1.56.29 1.55.35 1.51.4 1.5.47 1.47.52 1.44.58 1.41.63 1.39.68 1.35.74 1.32.79 1.29.83 1.25.88 1.22.93 1.17.97 1.14 1.02 1.1 1.06 1.06 1.1 1.02 1.14.97 1.18.93 1.22.88 1.25.83 1.29.79 1.32.73 1.35.69 1.39.63 1.41.57 1.44.52 1.47.47 1.5.41 1.52.34 1.54.29 1.57.23 1.58.16 1.61.1 1.62.03 1.64v222.37h.02v.06l-.01.02v70.71l-.07 3.77-.23 3.72-.37 3.69-.52 3.64-.66 3.59-.8 3.54-.94 3.49-1.06 3.43-1.2 3.37-1.33 3.31-1.44 3.25-1.57 3.17-1.69 3.11-1.8 3.03-1.92 2.96-2.02 2.87-2.13 2.79-2.24 2.71-2.33 2.62-2.43 2.52-2.53 2.43-2.62 2.34-2.7 2.23-2.8 2.13-2.87 2.03-2.96 1.91-3.03 1.8-3.11 1.69-3.17 1.57-3.25 1.45-3.31 1.32-3.37 1.2-3.44 1.07-3.49.93-3.54.8-3.59.66-3.64.52-3.69.38-3.72.22-3.77.08-141.8-.01h-.61l-.07.01h-.39l-2.06-.03-2.04-.08-2.03-.13-2-.19-1.98-.24-1.96-.28-1.94-.34-1.92-.39-1.89-.43-1.88-.48-1.85-.53-1.84-.57-1.81-.62-1.79-.66-1.77-.71-1.75-.74-1.73-.79-1.71-.83-1.68-.87-1.67-.9-1.64-.95-1.62-.98-1.6-1.01-1.58-1.06-1.56-1.08-1.54-1.12-1.51-1.16-1.5-1.18-1.47-1.22-1.45-1.25-1.43-1.27-1.41-1.31-1.38-1.33-1.37-1.36-1.34-1.39-1.33-1.41-1.3-1.44-1.28-1.45-1.25-1.49-1.24-1.5-1.23-1.53-1.21-1.56-1.19-1.58-1.18-1.59-1.15-1.62-1.14-1.63-1.12-1.66-1.11-1.67-1.09-1.69-1.07-1.71-1.05-1.72-1.04-1.74-1.02-1.76-1.01-1.76-.99-1.79-.97-1.79-.96-1.81-.94-1.82-.93-1.84-.91-1.84-.9-1.86-.88-1.86-.87-1.88-.85-1.88-.84-1.89-.82-1.9-.81-1.91-.8-1.91-.78-1.92-.77-1.93-.76-1.93-.74-1.93-.73-1.94-.72-1.94-.7-1.95-.69-1.94-.68-1.95-.67-1.95-.66-1.94-.64-1.95-1.24-3.89-1.2-3.88-1.16-3.88-1.1-3.85-1.07-3.83-1.01-3.81-.98-3.77-.93-3.74-.9-3.7-.85-3.66-.81-3.6-.78-3.56-.73-3.49-.7-3.43-.66-3.36-.63-3.28-.59-3.21-.56-3.13-.52-3.04-.49-2.94-.46-2.85-.43-2.75-.4-2.64-.37-2.54-.34-2.41-.31-2.3-.29-2.17-.26-2.04-.24-1.91-.21-1.77-.18-1.63-.17-1.47-.14-1.33-.12-1.16-.1-1.01-.09-.84-.06-.66-.04-.49-.03-.31-.01-.12-.01-.15-.01-.16-.01-.15v-.47l.01-.15.01-.16.01-.15.01-.15.02-.16.02-.15.03-.15.02-.15.03-.15.03-.15.03-.15.04-.15.04-.15.04-.14.05-.15.05-.14.05-.15.05-.14.06-.14.05-.15.07-.14.06-.14.07-.13.07-.14.07-.14.07-.13.08-.14.08-.13.08-.13.09-.13.08-.13.09-.12.1-.13.09-.12 2.4-3.12 2.3-3.08 2.21-3.05 2.11-3.01 2.02-2.98 1.93-2.93 1.84-2.89 1.76-2.85 1.67-2.81 1.6-2.75 1.51-2.71 1.43-2.66 1.36-2.6 1.29-2.56 1.21-2.49 1.15-2.44 1.08-2.38 1.01-2.32.95-2.26.89-2.2.83-2.13.77-2.06.71-1.99.66-1.93.61-1.85.57-1.78.51-1.7.47-1.62.42-1.55.39-1.46.34-1.39.31-1.3.27-1.21.24-1.13.21-1.03.18-.95.15-.86.13-.76.1-.66.09-.57.01-.07.01-.07v-.07l.01-.06.01-.07.01-.06.01-.05v-.06l.01-.05.01-.05v-.05l.01-.05.01-.04v-.05l.01-.04v-.03l.01-.04v-.07l.01-.03v-.05l.01-.03v-.06l.01-.03v-.07l.01-.02.02-.23.02-.22.04-.22.03-.22.05-.21.05-.22.05-.21.06-.21.07-.21.07-.21.08-.2.08-.21.09-.19.09-.2.1-.2.1-.19.11-.18.11-.19.12-.18.12-.18.13-.18.13-.17.13-.17.14-.16.15-.16.15-.16.15-.16.16-.15.16-.14.17-.14.17-.14.17-.13.18-.13.18-.13.18-.12.19-.11.19-.11.2-.11.2-.1.2-.1.61-.27.61-.27.6-.26.6-.25.6-.25.6-.24.59-.23.59-.23.58-.22.59-.21.58-.2.58-.2.57-.19.57-.18.57-.18.57-.17.56-.16.56-.16.56-.15.56-.14.55-.13.55-.13.55-.12.54-.11.55-.11.54-.1.53-.09.54-.09.53-.08.53-.07.53-.07.53-.06.52-.05.52-.04.52-.04.51-.03.52-.03.51-.02.51-.01h1.34l.82.02.82.04.81.07.8.08.79.11.78.12.78.14.76.17.75.18.74.2.74.21.72.24.71.25.7.26.7.29.68.3.67.31.66.33.64.34.64.36.62.37.62.38.6.39.59.41.57.42.57.43.55.44.54.45.53.46.51.48.5.48.49.49.47.49.46.51.45.51.43.52.42.53.41.54.39.53V87.49l.03-1.64.1-1.62.16-1.61.23-1.59.29-1.56.35-1.54.41-1.52.46-1.5.52-1.47L228 72l.63-1.41.69-1.39.73-1.35.79-1.32.83-1.29.88-1.25.93-1.22.97-1.18 1.02-1.14 1.06-1.1 1.1-1.06 1.14-1.01 1.18-.97 1.22-.93 1.25-.88 1.29-.84 1.32-.78 1.35-.74 1.39-.68 1.41-.63 1.44-.58 1.47-.52 1.5-.47 1.52-.4 1.54-.35 1.57-.29 1.58-.23 1.61-.16 1.62-.1 1.64-.03h.61l.6.02.6.02.59.03.6.04.59.05.58.06.59.07.58.08.58.09.58.09.57.1.57.11.57.12.57.13.56.13.56.15.55.15.56.16.54.16.55.18.54.18.54.19.54.2.53.2.53.21.52.22.52.23.52.23.51.24.51.25.51.26.5.26.5.26.49.28.49.28.48.29.48.29.48.3.47.31v-6.83l.04-1.65.1-1.62.16-1.61.23-1.58.28-1.57.35-1.54.41-1.52.47-1.5.52-1.47.57-1.44.64-1.42.68-1.38.73-1.35.79-1.33.83-1.28.89-1.26.92-1.21.98-1.18 1.01-1.14 1.06-1.1 1.1-1.06 1.14-1.02 1.18-.97 1.22-.93 1.25-.88 1.29-.84 1.32-.78 1.35-.74 1.38-.68 1.41-.63 1.45-.58 1.46-.52 1.5-.46 1.52-.41 1.54-.35 1.56-.29 1.59-.22 1.6-.17 1.63-.1 1.64-.03 1.36.02 1.35.07zm-4.63 16.48l-.94.1-.93.13-.91.17-.9.21-.89.24-.88.27-.86.3-.84.34-.83.37-.81.4-.79.43-.77.46-.76.49-.73.52-.71.54-.69.57-.67.6-.64.62-.62.64-.6.67-.57.69-.54.71-.52.73-.48.76-.46.77-.43.79-.41.81-.36.83-.34.84-.31.86-.27.88-.24.89-.21.9-.17.92-.13.93-.1.94-.06.95-.02.97v213.16l-.01.34-.02.33-.03.34-.05.33-.06.32-.08.32-.08.31-.1.31-.11.31-.12.3-.13.29-.15.28-.15.28-.17.28-.17.26-.19.26-.19.25-.2.25-.21.23-.23.23-.23.22-.23.21-.25.2-.25.19-.26.18-.27.17-.28.16-.28.15-.28.14-.3.13-.3.12-.3.11-.31.09-.32.08-.32.07-.32.06-.33.05-.33.03-.34.02h-.34l-.34-.01-.34-.02-.33-.03-.33-.05-.32-.06-.32-.08-.31-.08-.31-.1-.31-.11-.29-.12-.3-.13-.28-.15-.28-.15-.27-.16-.27-.18-.26-.18-.25-.2-.24-.2-.23-.21-.23-.22-.22-.23-.21-.24-.2-.24-.19-.26-.18-.26-.17-.26-.16-.28-.15-.28-.14-.29-.13-.29-.12-.3-.1-.31-.1-.31-.08-.31-.07-.32-.06-.33-.05-.33-.03-.33-.02-.34V79.2l-.26-.66-.28-.64-.3-.63-.31-.63-.34-.61-.35-.6-.37-.59-.38-.58-.41-.56-.41-.55-.44-.54-.45-.53-.46-.51-.48-.5-.5-.48-.51-.47-.52-.46-.53-.44-.55-.42-.56-.41-.58-.39-.58-.37-.6-.36-.61-.34-.61-.32-.63-.3-.64-.28-.65-.27-.66-.24-.67-.23-.68-.21-.69-.18-.69-.17-.7-.14-.71-.12-.72-.1-.72-.08-.73-.06-.74-.03-.74-.01-.96.02-.95.06-.94.09-.93.14-.92.17-.9.2-.89.24-.88.27-.86.31-.84.34-.83.37-.81.4-.79.43-.77.46-.76.49-.73.51-.71.55-.69.56-.67.6-.64.62-.62.64-.6.67-.57.69-.54.71-.52.74-.49.75-.46.77-.43.79-.4.81-.37.83-.34.84-.3.86-.28.88-.24.89-.2.9-.17.92-.13.93-.1.94-.06.95-.02.96v249.5l.41.04.43.03.46.05.47.04.49.05.51.06.54.05.55.07.56.07.59.07.6.08.63.08.63.09.66.1.67.1.68.11.7.11.72.12.73.13.74.13.76.14.77.15.78.16.8.16.81.17.82.18.83.18.84.2.85.2.86.21.88.23.88.22.89.24.9.25.9.26.92.27.92.27.93.29.93.3.94.3 1.31.45 1.31.46 1.32.49 1.33.51 1.35.53 1.34.56 1.36.58 1.36.6 1.36.63 1.36.66 1.36.69 1.37.71 1.36.74 1.35.77 1.36.8 1.34.82 1.34.86 1.33.89 1.33.92 1.31.95 1.29.98 1.29 1.02 1.27 1.05 1.25 1.08 1.24 1.12 1.21 1.15 1.2 1.19 1.17 1.23 1.16 1.26 1.12 1.3 1.11 1.33 1.08 1.38 1.04 1.41 1.02 1.46.99 1.49.96 1.53.93 1.58.89 1.62.85 1.65.82 1.71.14.31.12.31.11.32.09.32.08.32.07.32.06.32.04.32.03.32.02.32v.32l-.01.32-.02.32-.03.32-.05.31-.06.31-.07.31-.08.31-.09.3-.1.3-.12.29-.12.29-.14.29-.15.28-.16.27-.17.27-.18.26-.19.26-.2.25-.21.24-.23.23-.23.23-.24.21-.25.21-.26.2-.27.19-.28.18-.29.17-.29.16-.31.15-.08.03-.09.04-.08.04-.08.04-.09.03-.08.03-.09.04-.08.03-.09.03-.08.03-.09.03-.08.03-.09.02-.09.03-.08.02-.09.03-.08.02-.09.02-.09.02-.08.02-.09.02-.08.02-.09.01-.09.02-.08.01-.09.02-.09.01-.09.01-.08.01-.09.01-.09.01-.08.01-.09.01h-.09l-.08.01h-.18l-.09.01h-.4l-.23-.01-.24-.02-.23-.02-.23-.03-.22-.04-.23-.04-.23-.05-.22-.06-.22-.06-.23-.06-.21-.08-.22-.08-.22-.08-.21-.1-.21-.09-.2-.11-.21-.11-.2-.11-.2-.12-.19-.13-.19-.13-.19-.14-.19-.14-.18-.15-.17-.15-.18-.16-.16-.17-.17-.17-.16-.17-.15-.18-.15-.19-.15-.19-.14-.19-.13-.2-.13-.21-.13-.21-.12-.21-.11-.22-.11-.22-.89-1.89-.96-1.81-1.03-1.76-1.1-1.7-1.16-1.63-1.22-1.58-1.27-1.52-1.33-1.46-1.37-1.4-1.42-1.35-1.46-1.3-1.5-1.24-1.54-1.19-1.57-1.14-1.59-1.09-1.62-1.04-1.64-.99-1.66-.94-1.68-.9-1.68-.85-1.7-.81-1.69-.77-1.7-.72-1.7-.69-1.69-.64-1.69-.6-1.67-.57-1.65-.53-1.64-.49-1.61-.46-1.59-.43-1.55-.39-1.53-.36-1.49-.33-1.45-.3-1.4-.27-1.36-.24-1.32-.22-1.25-.19-1.2-.17-.38-.05-.37-.05-.36-.05-.36-.04-.34-.04-.34-.05-.33-.03-.31-.04-.31-.04-.31-.03-.29-.03-.28-.03-.28-.03-.26-.02-.26-.03-.25-.02-.24-.02-.23-.02-.21-.02-.21-.02-.21-.01-.19-.02-.18-.01-.17-.01-.16-.01-.15-.01-.14-.01-.14-.01-.12-.01h-.11l-.1-.01h-.09l-.08-.01h-.18l-.04-.01h-.13l-.07-.01h-.08l-.1-.01-.12-.01-.12-.01-.15-.01-.15-.01-.16-.02-.18-.01-.19-.02-.19-.01-.2-.02-.21-.02-.22-.02-.22-.02-.22-.02-.23-.02-.23-.02-.23-.03-.23-.02-.23-.02-.23-.03-.23-.02-.23-.03-.22-.02-.21-.03-.21-.03-.21-.02-.19-.03-.19-.03-.18-.03-.17-.02-.16-.03-.14-.03-.14-.03-.11-.03-.11-.03-19.19-5.74-.2-.05-.23-.08-.26-.11-.28-.13-.31-.16-.32-.19-.35-.21-.36-.25-.38-.27-.39-.3-.41-.34-.41-.36-.43-.39-.43-.42-.43-.46-.44-.48-.44-.52-.44-.55-.44-.58-.44-.62-.43-.64-.42-.69-.41-.71-.4-.75-.39-.79-.38-.82-.36-.86-.34-.89-.32-.93-.3-.97-.28-1-.25-1.04-.23-1.08-.19-1.12-.17-1.16-.14-1.19-.1-1.24-.06-1.27-.03-1.32.01-1.35.01-1.05.03-1.07.05-1.09.07-1.12.09-1.15.1-1.17.13-1.19.15-1.23.17-1.25.19-1.27.22-1.31.24-1.33.26-1.36.29-1.4.31-1.42.34-1.45.36-1.48.4-1.52.41-1.54.45-1.58.47-1.61.5-1.64.53-1.68.56-1.71.6-1.74.62-1.78.65-1.82.69-1.85.71-1.89.75-1.92.79-1.96.81-2 .86-2.04.88-2.07.93-2.11.96-2.16.99-2.19 1.04-2.23 1.07-2.28 1.11-2.31v-.45l.01-.04v-.73l.01-.05v-.84l.01-.55v-1.18l-.02-.64-.01-.66-.03-.69-.03-.71-.04-.73-.05-.76-.06-.77-.07-.79-.07-.81-.09-.82-.09-.83-.11-.85-.11-.85-.12-.86-.14-.87-.14-.87-.16-.87-.16-.87-.18-.88-.19-.87-.2-.87-.21-.86-.23-.86-.24-.85-.25-.84-.27-.82-.27-.82-.29-.79-.31-.79-.32-.76-.33-.74-.35-.73-.36-.7-.38-.67-.4-.65-.41-.62-.42-.59-.23-.31-.24-.29-.23-.29-.23-.28-.24-.28-.23-.26-.23-.26-.24-.25-.24-.24-.24-.24-.24-.23-.24-.22-.25-.21-.25-.21-.26-.19-.26-.2-.26-.18-.27-.17-.27-.17-.28-.16-.28-.16-.29-.14-.3-.14-.3-.13-.31-.13-.32-.11-.32-.11-.33-.11-.34-.09-.35-.09-.36-.08-.37-.07-.37-.07-.39-.05-.4-.05-.4-.05-.42-.03-.43-.03-.44-.02-.46-.02h-.44l-.22.01-.23.01-.24.01-.23.01-.24.02-.24.02-.25.02-.24.02-.26.03-.25.03-.26.03-.26.04-.27.04-.26.04-.27.04-.28.05-.28.05-.28.06-.28.05-.29.06-.29.07-.29.07-.3.07-.3.07-.31.08-.3.08-.31.09-.32.09-.32.09-.32.1-.32.1-.33.1-.33.11-.33.11-.34.12-.34.12-.34.12-.35.13-.18.95-.19 1.03-.23 1.11-.25 1.18-.28 1.25-.31 1.32-.35 1.39-.37 1.45-.41 1.53-.45 1.59-.48 1.65-.53 1.71-.56 1.78-.61 1.83-.65 1.9-.69 1.95-.74 2.01-.79 2.06-.84 2.12-.89 2.17-.94 2.22-1 2.27-1.05 2.31-1.1 2.37-1.17 2.41-1.22 2.45-1.29 2.5-1.35 2.54-1.41 2.58-1.48 2.63-1.55 2.65-1.61 2.7-1.69 2.73-1.75 2.77-1.83 2.8-1.91 2.83-1.98 2.86-2.05 2.89-2.14 2.92-2.22 2.94.03.24.02.24.03.25.03.26.03.26.03.28.03.28.03.29.03.3.03.3.04.31.04.32.03.33.04.34.04.34.04.35.04.35.04.37.05.37.04.38.05.38.05.39.05.4.05.41.05.41.05.42.05.43.06.43.05.44.06.45.06.45.06.46.06.47.06.47.07.48.06.49.07.49.07.5.07.5.07.52.12.86.13.88.12.9.14.91.13.93.14.95.15.96.15.97.15.99.16 1 .16 1.02.16 1.03.17 1.04.18 1.06.17 1.07.19 1.08.18 1.1.19 1.11.2 1.12.2 1.13.2 1.14.21 1.16.22 1.16.22 1.18.22 1.19.23 1.19.23 1.21.24 1.22.24 1.22.25 1.24.25 1.24.26 1.26.26 1.26.27 1.27.27 1.28.28 1.28.28 1.3.29 1.3.29 1.3.3 1.32.61 2.64.63 2.67.66 2.69.68 2.71.7 2.73.72 2.74.75 2.76.77 2.77.8 2.77.82 2.79.84 2.79.87 2.79.9 2.79.91 2.79.95 2.79.96 2.78 1 2.78 1.02 2.76 1.04 2.76 1.07 2.74 1.1 2.72 1.12 2.71 1.15 2.69 1.17 2.66 1.2 2.64 1.23 2.61 1.26 2.59 1.28 2.56 1.31 2.52 1.34 2.49 1.36 2.45 1.4 2.41 1.42 2.37 1.45 2.33 1.47 2.29 1.51 2.24 1.54 2.18 1.56 2.14 1.59 2.08 1.62 2.03 1.11 1.33 1.11 1.3 1.12 1.27 1.13 1.24 1.14 1.21 1.16 1.19 1.16 1.16 1.17 1.13 1.18 1.1 1.2 1.07 1.21 1.04 1.21 1.01 1.23.99 1.24.95 1.26.91 1.26.89 1.28.86 1.29.82 1.3.79 1.32.76 1.33.72 1.34.69 1.36.66 1.37.62 1.38.59 1.4.55 1.42.52 1.43.48 1.44.44 1.46.41 1.48.38 1.49.33 1.5.3 1.52.26 1.54.22 1.56.18 1.57.15 1.59.1 1.6.07 1.63.02h116.91l14.86-.01h10.92l3.09-.06 3.05-.2 3.02-.31 2.98-.43 2.94-.54 2.9-.66 2.86-.77 2.81-.87 2.76-.99 2.72-1.08 2.65-1.19 2.6-1.29 2.55-1.38 2.48-1.48 2.42-1.57 2.35-1.65 2.29-1.75 2.22-1.83 2.14-1.91 2.07-1.99 1.99-2.07 1.91-2.14 1.83-2.22 1.75-2.29 1.65-2.35 1.57-2.42 1.48-2.48 1.38-2.55 1.29-2.6 1.19-2.66 1.08-2.71.98-2.76.88-2.81.77-2.86.66-2.9.54-2.94.43-2.98.31-3.02.19-3.05.07-3.09V127.5l-.02-.96-.06-.95-.1-.94-.13-.93-.17-.92-.21-.9-.23-.89-.28-.88-.3-.86-.34-.84-.37-.83-.4-.81-.43-.79-.46-.77-.49-.76-.51-.73-.55-.71-.57-.69-.59-.67-.62-.64-.64-.62-.67-.6-.69-.57-.71-.54-.73-.52-.76-.49-.77-.46-.79-.43-.81-.4-.83-.37-.84-.34-.86-.3-.88-.27-.88-.24-.91-.21-.91-.17-.93-.13-.94-.1-.95-.06-.96-.02-.74.01-.74.04-.73.05-.73.08-.71.1-.71.13-.71.14-.69.17-.69.18-.68.21-.66.22-.66.25-.65.26-.64.29-.63.3-.62.32-.61.34-.6.35-.58.38-.58.39-.56.4-.55.43-.53.43-.52.46-.51.47-.49.48-.48.5-.47.51-.45.52-.43.54-.42.55-.41.57-.38.57-.37.59-.35.6-.34.61-.32.63-.3.63-.28.64-.26.65v162.34h.01v.34l-.02.34-.04.33-.05.33-.06.32-.07.32-.08.31-.1.31-.11.31-.12.3-.13.29-.14.29-.15.28-.16.27-.18.27-.18.26-.19.25-.21.24-.21.24-.22.23-.22.22-.24.21-.25.2-.25.19-.26.19-.26.17-.28.16-.28.16-.29.14-.29.13-.3.12-.3.11-.31.09-.32.09-.32.07-.32.06-.33.05-.34.03-.33.02-.34.01-.34-.01-.34-.02-.33-.03-.33-.05-.32-.06-.32-.07-.32-.09-.31-.09-.3-.11-.3-.12-.3-.13-.28-.14-.28-.16-.28-.16-.26-.17-.26-.19-.25-.19-.25-.2-.23-.21-.23-.22-.22-.23-.21-.24-.2-.24-.2-.25-.18-.26-.17-.27-.16-.27-.16-.28-.14-.29-.13-.29-.12-.3-.11-.31-.09-.31-.09-.31-.07-.32-.06-.32-.04-.33-.04-.33-.02-.34-.01-.34V69.02l-.02-.96-.06-.95-.09-.94-.14-.93-.17-.92-.2-.9-.24-.89-.27-.88-.31-.86-.34-.84-.37-.83-.4-.81-.43-.79-.46-.77-.49-.76-.51-.73-.55-.71-.56-.69-.6-.67-.62-.64-.64-.62-.67-.6-.69-.57-.71-.54-.74-.52-.75-.49-.77-.46-.8-.43-.81-.4-.83-.37-.84-.34-.86-.3-.88-.28-.89-.23-.9-.21-.92-.17-.93-.13-.94-.1-.95-.06-.96-.02-.74.01-.74.03-.73.06-.72.08-.72.1-.71.12-.7.15-.7.16-.68.19-.68.21-.67.22-.66.25-.65.26-.64.29-.63.3-.61.32-.61.34-.6.36-.58.37-.58.39-.56.41-.54.42-.54.44-.52.45-.51.47-.49.49-.48.49-.46.52-.45.52-.44.54-.41.56-.41.56-.38.58-.37.59-.35.6-.34.61-.31.62-.3.64-.28.64-.26.65v212.2h.01l-.01.34-.02.33-.03.34-.05.32-.06.33-.07.32-.09.31-.09.31-.11.31-.12.29-.13.3-.14.28-.15.28-.17.28-.17.26-.18.26-.19.26-.21.24-.21.24-.22.22-.22.22-.24.22-.25.2-.25.19-.26.18-.26.18-.28.16-.28.15-.29.14-.29.13-.3.12-.3.11-.31.1-.32.08-.32.07-.32.06-.33.05-.33.03-.34.03h-.68l-.34-.03-.33-.03-.33-.05-.32-.06-.32-.07-.32-.08-.3-.1-.31-.11-.3-.12-.29-.13-.29-.14-.28-.15-.27-.16-.27-.18-.26-.18-.25-.19-.24-.2-.24-.22-.23-.22-.22-.22-.21-.24-.2-.24-.19-.26-.19-.26-.17-.26-.16-.28-.15-.28-.14-.28-.14-.3-.11-.29-.11-.31-.1-.31-.08-.31-.08-.32-.06-.33-.04-.32-.04-.34-.02-.33V47.49l-.02-.97-.06-.95-.1-.94-.13-.93-.17-.92-.21-.9-.24-.89-.27-.88-.31-.86-.33-.84-.37-.83-.4-.81-.44-.79-.45-.77-.49-.76-.52-.73-.54-.71-.57-.69-.6-.67-.62-.64-.64-.62-.67-.6-.69-.57-.71-.54-.73-.52-.76-.49-.77-.46-.79-.43-.81-.4-.83-.37-.85-.34-.86-.3-.87-.27-.89-.24-.9-.21-.92-.17-.93-.13-.94-.1-.95-.06-.96-.02-.96.02-.95.06zM222.92 287.51l-.87 2.42-.81 2.34-.74 2.25-.69 2.18-.62 2.1-.57 2.02-.52 1.94-.46 1.87-.41 1.79-.36 1.72-.32 1.65-.27 1.57-.22 1.51-.19 1.43-.15 1.36-.11 1.3-.07 1.23-.05 1.16-.01 1.1.03 1.11.05 1.03.08.96.09.9.11.82.12.77.13.7.15.64.15.59.16.53.17.49.17.43.16.39.17.34.17.3.16.27.15.23.15.19.13.17.12.13.11.11 6.65 1.98v-51.11l-1 2.59-.94 2.5z"/></defs><use xlink:href="#a"/><use fill-opacity="0" stroke="#000" stroke-opacity="0" xlink:href="#a"/></svg>