<?xml version="1.0" encoding="UTF-8"?>
<!DOCTYPE svg  PUBLIC '-//W3C//DTD SVG 1.1//EN'  'http://www.w3.org/Graphics/SVG/1.1/DTD/svg11.dtd'>
<svg version="1.1" viewBox="0 0 640 640" xmlns="http://www.w3.org/2000/svg" xmlns:xlink="http://www.w3.org/1999/xlink">
<defs>
<path id="a" d="m328.16 115.5l1.34 0.12 1.32 0.15 1.32 0.2 1.3 0.25 1.28 0.28 1.27 0.33 1.25 0.36 1.23 0.41 1.22 0.44 1.19 0.48 1.18 0.52 1.15 0.56 1.14 0.59 1.11 0.63 1.09 0.66 1.07 0.7 1.04 0.72 1.02 0.77 0.99 0.79 0.97 0.82 0.94 0.85 0.91 0.88 0.89 0.91 0.85 0.94 0.83 0.97 0.79 0.99 0.76 1.02 0.74 1.04 0.69 1.06 0.67 1.09 0.63 1.11 0.59 1.14 0.56 1.15 0.53 1.18 0.48 1.19 0.45 1.22 0.41 1.23 0.37 1.25 0.5-0.35 0.5-0.35 0.5-0.33 0.51-0.33 0.52-0.33 0.52-0.31 0.52-0.31 0.53-0.29 0.54-0.3 0.54-0.28 0.55-0.27 0.55-0.27 0.55-0.26 0.56-0.25 0.56-0.24 0.57-0.23 0.57-0.23 0.58-0.22 0.58-0.2 0.58-0.2 0.59-0.19 0.59-0.18 0.6-0.18 0.6-0.16 0.6-0.15 0.61-0.15 0.61-0.13 0.62-0.13 0.62-0.11 0.62-0.11 0.62-0.1 0.63-0.08 0.63-0.08 0.64-0.07 0.63-0.05 0.64-0.05 0.65-0.04 0.64-0.03 0.65-0.01 0.65-0.01 1.51 0.03 1.49 0.09 1.48 0.13 1.46 0.2 1.45 0.24 1.43 0.3 1.4 0.34 1.39 0.4 1.37 0.44 1.34 0.5 1.32 0.53 1.3 0.59 1.27 0.62 1.24 0.68 1.22 0.71 1.19 0.76 1.16 0.79 1.13 0.84 1.1 0.87 1.07 0.91 1.03 0.95 1 0.98 0.97 1.02 0.93 1.05 0.89 1.09 0.85 1.11 0.82 1.15 0.77 1.18 0.74 1.2 0.69 1.23 0.65 1.26 0.61 1.29 0.56 1.3 0.51 1.34 0.47 1.35 0.42 1.38 0.37 1.4 0.32 1.41 0.27 1.44 0.22 1.45 0.48-0.32 0.48-0.31 0.49-0.3 0.49-0.3 0.5-0.29 0.5-0.28 0.5-0.28 0.51-0.27 0.52-0.26 0.51-0.26 0.52-0.25 0.53-0.24 0.53-0.24 0.53-0.22 0.54-0.22 0.54-0.22 0.55-0.2 0.54-0.2 0.56-0.19 0.55-0.18 0.56-0.17 0.56-0.16 0.57-0.16 0.57-0.15 0.57-0.14 0.58-0.13 0.58-0.12 0.58-0.12 0.59-0.1 0.58-0.1 0.6-0.09 0.59-0.08 0.6-0.07 0.6-0.06 0.6-0.05 0.61-0.05 0.61-0.03 0.61-0.02 0.61-0.02h0.62l1.09 0.02 1.09 0.08 1.09 0.12 1.08 0.17 1.08 0.23 1.07 0.27 1.06 0.33 1.06 0.37 1.06 0.42 1.04 0.47 1.05 0.53 1.04 0.57 1.03 0.62 1.03 0.67 1.02 0.72 1.02 0.78 1.02 0.82 1 0.87 1.01 0.92 0.99 0.97 1 1.02 0.98 1.07 0.99 1.12 0.97 1.17 0.97 1.22 0.97 1.27 0.96 1.32 0.96 1.36 0.95 1.42 0.94 1.47 0.94 1.52 0.94 1.57 0.93 1.61 0.93 1.67 0.91 1.72 0.92 1.76 0.91 1.82 0.9 1.87 0.9 1.91 0.9 1.97 0.75 216.19-0.07 3.77-0.23 3.73-0.37 3.68-0.52 3.64-0.66 3.59-0.8 3.55-0.94 3.49-1.06 3.43-1.2 3.37-1.33 3.31-1.44 3.25-1.57 3.18-1.69 3.1-1.8 3.04-1.92 2.95-2.02 2.88-2.13 2.79-2.24 2.71-2.33 2.61-2.43 2.53-2.53 2.43-2.62 2.34-2.7 2.23-2.79 2.13-2.88 2.02-2.95 1.92-3.04 1.8-3.1 1.69-3.18 1.57-3.24 1.45-3.31 1.32-3.38 1.2-3.43 1.07-3.49 0.93-3.54 0.8-3.59 0.66-3.64 0.52-3.68 0.38-3.73 0.22-3.76 0.08-123.14-0.01h-0.42-0.43-0.42l-0.42-0.01-0.42-0.01-0.42-0.01-0.43-0.01-0.42-0.01-0.42-0.02-0.41-0.02-0.42-0.02-0.42-0.02-0.42-0.03-0.42-0.02-0.41-0.03-0.42-0.03-0.41-0.03-0.42-0.04-0.41-0.03-0.42-0.04-0.41-0.04-0.41-0.04-0.42-0.04-0.41-0.05-0.41-0.05-0.41-0.04-0.41-0.06-0.41-0.05-0.41-0.05-0.4-0.06-0.41-0.06-0.41-0.06-0.4-0.06-0.41-0.06-0.41-0.06-0.4-0.07-0.4-0.07-0.41-0.07-0.4-0.07-0.4-0.07-2.15-0.03h-0.06-0.06-0.04-0.04-0.06-0.05-0.05l-0.02 0.01h-0.03-0.02-0.03-0.03-0.06-0.06-0.07-0.04-0.03-0.04-0.08-0.04l-2.06-0.02-2.05-0.08-2.03-0.13-2.01-0.18-1.98-0.23-1.97-0.28-1.94-0.33-1.92-0.39-1.9-0.42-1.88-0.48-1.86-0.52-1.84-0.57-1.82-0.61-1.79-0.66-1.78-0.69-1.75-0.74-1.73-0.78-1.71-0.82-1.69-0.87-1.67-0.89-1.65-0.94-1.62-0.98-1.61-1.01-1.58-1.04-1.56-1.08-1.54-1.11-1.52-1.15-1.5-1.18-1.47-1.21-1.46-1.24-1.43-1.27-1.41-1.3-1.39-1.32-1.37-1.35-1.34-1.38-1.33-1.41-1.3-1.43-1.28-1.45-1.26-1.47-1.24-1.5-1.23-1.52-1.21-1.55-1.19-1.56-1.18-1.59-1.15-1.6-1.14-1.63-1.13-1.64-1.1-1.66-1.09-1.68-1.07-1.69-1.05-1.72-1.04-1.72-1.02-1.74-1.01-1.76-0.99-1.77-0.97-1.78-0.96-1.8-0.95-1.81-0.92-1.82-0.91-1.83-0.9-1.84-0.88-1.86-0.87-1.86-0.86-1.87-0.83-1.88-0.83-1.88-0.81-1.9-0.8-1.9-0.78-1.9-0.77-1.91-0.76-1.92-0.74-1.92-0.73-1.92-0.72-1.93-0.7-1.93-0.69-1.93-0.68-1.94-0.67-1.93-0.65-1.94-0.65-1.93-1.24-3.86-1.2-3.86-1.16-3.84-1.1-3.82-1.07-3.81-1.02-3.78-0.97-3.74-0.94-3.72-0.89-3.67-0.85-3.63-0.82-3.58-0.77-3.52-0.74-3.47-0.69-3.4-0.67-3.33-0.62-3.26-0.59-3.19-0.56-3.1-0.53-3.02-0.49-2.92-0.46-2.83-0.43-2.73-0.4-2.62-0.36-2.52-0.35-2.4-0.31-2.28-0.29-2.15-0.26-2.03-0.23-1.89-0.22-1.76-0.18-1.61-0.17-1.47-0.14-1.31-0.12-1.16-0.1-1-0.09-0.83-0.06-0.66-0.04-0.48-0.03-0.31-0.01-0.12-0.01-0.15-0.01-0.16-0.01-0.15v-0.16-0.15-0.16l0.01-0.15 0.01-0.15 0.01-0.16 0.01-0.15 0.02-0.15 0.02-0.16 0.03-0.15 0.02-0.15 0.03-0.15 0.03-0.15 0.03-0.15 0.04-0.14 0.04-0.15 0.04-0.15 0.05-0.14 0.05-0.15 0.05-0.14 0.05-0.15 0.06-0.14 0.05-0.14 0.07-0.14 0.06-0.14 0.07-0.14 0.07-0.14 0.07-0.13 0.07-0.14 0.08-0.13 0.08-0.13 0.08-0.13 0.09-0.13 0.08-0.13 0.09-0.13 0.1-0.12 0.09-0.13 2.4-3.11 2.3-3.09 2.2-3.05 2.12-3.01 2.02-2.97 1.93-2.94 1.84-2.89 1.76-2.85 1.67-2.8 1.59-2.76 1.51-2.71 1.44-2.66 1.36-2.6 1.29-2.56 1.21-2.49 1.15-2.44 1.07-2.38 1.02-2.33 0.95-2.26 0.88-2.19 0.83-2.13 0.77-2.06 0.72-2 0.66-1.92 0.61-1.85 0.57-1.78 0.51-1.7 0.47-1.63 0.43-1.55 0.38-1.46 0.35-1.38 0.3-1.3 0.28-1.22 0.24-1.12 0.21-1.04 0.18-0.95 0.15-0.85 0.12-0.76 0.11-0.67 0.08-0.56 0.01-0.08 0.01-0.07 0.01-0.06 0.01-0.07 0.01-0.06 0.01-0.06v-0.06l0.01-0.06 0.01-0.05v-0.05l0.01-0.05v-0.05l0.01-0.04v-0.04l0.01-0.05v-0.03l0.01-0.04v-0.03-0.04l0.01-0.03v-0.03-0.02-0.03l0.01-0.02v-0.02-0.02-0.02-0.03l0.01-0.02v-0.02-0.02-0.02l0.02-0.22 0.03-0.22 0.03-0.22 0.04-0.22 0.04-0.22 0.05-0.21 0.06-0.22 0.06-0.21 0.07-0.21 0.07-0.2 0.07-0.21 0.09-0.2 0.08-0.2 0.1-0.19 0.1-0.2 0.1-0.19 0.11-0.19 0.11-0.18 0.12-0.18 0.12-0.18 0.12-0.18 0.14-0.17 0.13-0.17 0.14-0.16 0.15-0.16 0.15-0.16 0.15-0.16 0.16-0.15 0.16-0.14 0.16-0.15 0.17-0.13 0.18-0.14 0.18-0.13 0.18-0.12 0.18-0.12 0.19-0.12 0.19-0.11 0.2-0.1 0.2-0.11 0.2-0.09 0.61-0.28 0.61-0.26 0.6-0.27 0.6-0.25 0.6-0.24 0.59-0.24 0.6-0.24 0.59-0.22 0.58-0.22 0.59-0.21 0.58-0.2 0.57-0.2 0.58-0.19 0.57-0.19 0.57-0.17 0.56-0.17 0.57-0.16 0.56-0.16 0.56-0.15 0.55-0.14 0.56-0.13 0.55-0.13 0.54-0.12 0.55-0.11 0.54-0.11 0.54-0.1 0.54-0.09 0.53-0.09 0.54-0.08 0.53-0.07 0.52-0.07 0.53-0.06 0.52-0.05 0.52-0.04 0.52-0.04 0.52-0.03 0.51-0.03 0.51-0.02 0.51-0.01h0.51 0.84l0.82 0.02 0.82 0.04 0.82 0.07 0.8 0.08 0.79 0.11 0.78 0.12 0.78 0.15 0.76 0.16 0.76 0.19 0.74 0.2 0.74 0.21 0.72 0.24 0.71 0.25 0.71 0.27 0.69 0.29 0.68 0.3 0.67 0.31 0.66 0.33 0.65 0.35 0.63 0.36 0.63 0.37 0.61 0.38 0.6 0.4 0.59 0.41 0.58 0.42 0.56 0.43 0.55 0.45 0.54 0.45 0.53 0.46 0.51 0.48 0.5 0.48 0.49 0.49 0.47 0.5 0.46 0.51 0.44 0.51 0.43 0.52 0.42 0.53 0.4 0.54 0.39 0.54v-24.43l0.2-1.78 0.32-1.33 0.36-1.31 0.4-1.29 0.45-1.28 0.49-1.25 0.53-1.23 0.57-1.21 0.61-1.18 0.64-1.17 0.69-1.14 0.72-1.11 0.75-1.09 0.79-1.06 0.83-1.03 0.85-1.01 0.89-0.97 0.93-0.95 0.95-0.91 0.98-0.88 1.01-0.85 1.04-0.82 1.07-0.78 1.09-0.75 1.12-0.71 1.14-0.68 1.17-0.64 1.19-0.59 1.22-0.56 1.23-0.53 1.26-0.47 1.27-0.44 1.3-0.4 1.31-0.35 1.33-0.31 1.35-0.26 1.37-0.22 1.38-0.17 1.39-0.12 1.41-0.08 1.42-0.03 0.62 0.01 0.62 0.02 0.62 0.02 0.61 0.03 0.61 0.05 0.61 0.05 0.61 0.06 0.6 0.08 0.6 0.08 0.6 0.09 0.59 0.09 0.59 0.11 0.59 0.12 0.59 0.12 0.58 0.14 0.58 0.14 0.57 0.15 0.57 0.16 0.57 0.17 0.57 0.18 0.56 0.18 0.55 0.19 0.56 0.2 0.55 0.21 0.54 0.22 0.54 0.22 0.54 0.23 0.54 0.24 0.52 0.25 0.53 0.25 0.52 0.26 0.52 0.27 0.51 0.27 0.51 0.29 0.5 0.29 0.5 0.29 0.5 0.31 0.49 0.31 0.48 0.31 0.48 0.33 0.01-0.49v-0.48-0.47-0.46-0.46l0.01-0.45v-0.44-0.43-0.43-0.42l0.01-0.41v-0.41-0.4l0.01-0.38v-0.39-0.37-0.37l0.01-0.35v-0.35-0.35l0.01-0.33v-0.32-0.32l0.01-0.31v-0.3l0.01-0.29v-0.28-0.28l0.01-0.26v-0.26-0.25l0.01-0.23v-0.23l0.01-0.22v-0.21l0.01-0.21v-0.19l0.01-0.18v-0.17-0.17l0.01-0.06v-0.06l0.01-0.06v-0.05-0.05l0.01-0.05v-0.04-0.04-0.04-0.04-0.03-0.04-0.03-0.03-0.04-0.03-0.03-0.04-0.03-0.04-0.04l0.01-0.04v-0.05-0.05l0.01-0.05v-0.06l0.01-0.06 0.01-0.06v-0.07l0.01-0.08 0.01-0.08 0.02-0.08 0.01-0.1 0.01-0.1 0.02-0.1 0.02-0.12 0.02-0.12 0.02-0.13 0.02-0.14 0.02-0.15 0.32-1.33 0.37-1.31 0.4-1.3 0.45-1.27 0.49-1.25 0.53-1.24 0.57-1.21 0.61-1.18 0.65-1.17 0.68-1.14 0.72-1.11 0.76-1.09 0.79-1.06 0.82-1.03 0.86-1.01 0.89-0.98 0.92-0.94 0.95-0.92 0.99-0.88 1.01-0.85 1.04-0.82 1.06-0.78 1.1-0.75 1.12-0.71 1.14-0.67 1.17-0.64 1.19-0.6 1.21-0.56 1.24-0.52 1.26-0.48 1.27-0.43 1.3-0.4 1.31-0.35 1.33-0.31 1.35-0.26 1.36-0.22 1.38-0.17 1.4-0.12 1.4-0.07 1.42-0.03 1.37 0.02 1.35 0.07zm-128.97 100.84l-0.23 0.01-0.23 0.01-0.23 0.01-0.24 0.01-0.23 0.02-0.25 0.02-0.24 0.02-0.25 0.02-0.25 0.03-0.25 0.03-0.26 0.04-0.26 0.03-0.27 0.04-0.27 0.04-0.27 0.05-0.27 0.05-0.28 0.05-0.28 0.05-0.28 0.06-0.29 0.06-0.29 0.07-0.3 0.07-0.29 0.07-0.3 0.07-0.31 0.08-0.31 0.08-0.31 0.09-0.31 0.09-0.32 0.09-0.32 0.1-0.32 0.1-0.33 0.1-0.33 0.11-0.33 0.11-0.34 0.11-0.34 0.12-0.35 0.13-0.34 0.12-0.18 0.96-0.2 1.03-0.22 1.11-0.25 1.18-0.28 1.25-0.31 1.32-0.35 1.39-0.37 1.45-0.41 1.53-0.45 1.58-0.49 1.66-0.52 1.71-0.56 1.78-0.61 1.83-0.65 1.9-0.69 1.95-0.74 2.01-0.79 2.06-0.84 2.12-0.89 2.17-0.94 2.22-1 2.27-1.05 2.32-1.11 2.36-1.16 2.41-1.23 2.46-1.29 2.5-1.34 2.54-1.42 2.58-1.48 2.62-1.54 2.66-1.62 2.7-1.68 2.73-1.76 2.77-1.83 2.8-1.9 2.83-1.98 2.86-2.06 2.9-2.13 2.92-2.22 2.94 0.03 0.23 0.02 0.24 0.03 0.25 0.03 0.26 0.02 0.26 0.03 0.27 0.03 0.28 0.03 0.29 0.04 0.29 0.03 0.31 0.04 0.31 0.03 0.31 0.04 0.33 0.04 0.33 0.04 0.34 0.04 0.34 0.04 0.36 0.04 0.36 0.04 0.37 0.05 0.37 0.04 0.38 0.05 0.39 0.05 0.4 0.05 0.4 0.05 0.41 0.05 0.42 0.06 0.42 0.05 0.43 0.06 0.44 0.06 0.44 0.05 0.45 0.06 0.46 0.07 0.46 0.06 0.47 0.06 0.47 0.07 0.49 0.06 0.48 0.07 0.5 0.07 0.5 0.07 0.5 0.12 0.86 0.13 0.87 0.13 0.89 0.13 0.91 0.14 0.92 0.14 0.93 0.14 0.95 0.15 0.97 0.15 0.98 0.16 0.99 0.16 1.01 0.16 1.02 0.17 1.04 0.18 1.05 0.18 1.06 0.18 1.07 0.19 1.09 0.19 1.1 0.19 1.11 0.2 1.12 0.21 1.14 0.21 1.14 0.21 1.16 0.22 1.16 0.22 1.18 0.23 1.19 0.23 1.2 0.24 1.2 0.24 1.22 0.25 1.23 0.25 1.23 0.26 1.24 0.26 1.25 0.27 1.26 0.27 1.27 0.28 1.28 0.29 1.28 0.28 1.29 0.3 1.29 0.3 1.31 0.6 2.62 0.64 2.65 0.65 2.67 0.68 2.69 0.7 2.71 0.72 2.72 0.75 2.73 0.77 2.75 0.8 2.76 0.81 2.76 0.85 2.76 0.87 2.78 0.89 2.77 0.92 2.77 0.94 2.76 0.97 2.76 0.99 2.76 1.02 2.74 1.04 2.73 1.07 2.72 1.1 2.71 1.12 2.68 1.15 2.67 1.17 2.64 1.2 2.62 1.23 2.59 1.25 2.57 1.29 2.53 1.31 2.51 1.33 2.46 1.37 2.44 1.39 2.39 1.42 2.35 1.45 2.31 1.48 2.27 1.5 2.22 1.54 2.17 1.56 2.12 1.59 2.07 1.62 2.01 1.11 1.31 1.11 1.29 1.12 1.26 1.13 1.24 1.14 1.2 1.15 1.18 1.16 1.15 1.17 1.12 1.19 1.1 1.19 1.06 1.21 1.03 1.21 1.01 1.23 0.97 1.24 0.94 1.25 0.92 1.27 0.88 1.28 0.85 1.29 0.81 1.3 0.79 1.32 0.75 1.33 0.72 1.34 0.68 1.36 0.66 1.37 0.61 1.39 0.59 1.4 0.54 1.41 0.52 1.43 0.47 1.45 0.45 1.46 0.4 1.47 0.37 1.5 0.33 1.5 0.3 1.53 0.25 1.54 0.22 1.55 0.18 1.58 0.15 1.59 0.1 1.61 0.06 1.62 0.03h0.03 0.02 0.03 0.02 0.03l0.05-0.01h0.12 0.05 0.02 0.02 0.04 0.04 0.02 0.04 0.05 0.02 0.04 0.03 0.02 0.02 0.08 0.03 0.04 0.04 0.02 0.03 0.02 0.02 0.02 0.02 0.02 0.03 0.03 0.02 0.03l0.03 0.01h0.01 0.03l2.74 0.03 1.46 0.14 0.34 0.06 0.35 0.07 0.34 0.06 0.35 0.06 0.35 0.06 0.34 0.06 0.35 0.06 0.35 0.05 0.35 0.06 0.35 0.05 0.35 0.05 0.35 0.05 0.35 0.04 0.35 0.05 0.35 0.04 0.35 0.04 0.35 0.04 0.36 0.04 0.35 0.04 0.35 0.03 0.36 0.04 0.35 0.03 0.36 0.03 0.35 0.02 0.36 0.03 0.35 0.03 0.36 0.02 0.36 0.02 0.35 0.02 0.36 0.02 0.36 0.01 0.36 0.02 0.36 0.01 0.36 0.01 0.36 0.01 0.36 0.01h0.36l0.36 0.01h0.37 0.36 123.12l2.06-0.05 2.05-0.14 2.04-0.24 2.03-0.33 2.03-0.42 2.01-0.52 2-0.61 1.99-0.7 1.99-0.8 1.97-0.89 1.97-0.98 1.95-1.08 1.94-1.17 1.94-1.27 1.92-1.35 1.92-1.45 1.9-1.55 1.9-1.64 1.89-1.73 1.87-1.82 1.87-1.92 1.85-2.01 1.85-2.1 1.84-2.2 1.83-2.29 1.81-2.39 1.81-2.48 1.8-2.57 1.79-2.66 1.78-2.76 1.76-2.85 1.76-2.95 1.75-3.03 1.74-3.14 1.73-3.22 1.72-3.32 1.71-3.41 1.7-3.5 1.69-3.6 1.69-3.7h0.01v-130.67l-0.01 0.01h-0.01l-0.01 0.01v0.01h-0.01l-0.01 0.01h-0.01l-0.01 0.01-0.01 0.01-0.01 0.01h-0.01l-0.01 0.01-0.02 0.01-0.01 0.01h-0.01l-0.01 0.01-0.05 0.03-0.01 0.01-0.02 0.01-0.02 0.01-0.01 0.01-0.02 0.01h-0.01l-0.01 0.01-0.01 0.01-0.01 0.01h-0.01l-0.11 0.08-0.11 0.09-0.11 0.08-0.11 0.08-0.11 0.08-0.11 0.08-0.12 0.08-0.11 0.08-0.11 0.08-0.12 0.07-0.11 0.08-0.11 0.08-0.12 0.08-0.11 0.08-0.11 0.07-0.12 0.08-0.11 0.07-0.12 0.08-0.12 0.08-0.11 0.07-0.12 0.07-0.11 0.08-0.12 0.07-0.12 0.08-0.12 0.07-0.11 0.07-0.12 0.07-0.12 0.08-0.12 0.07-0.12 0.07-0.12 0.07-0.12 0.07-0.12 0.07-0.12 0.07-0.12 0.07-0.12 0.06-0.12 0.07-0.12 0.07-0.12 0.07-0.12 0.06-0.04 0.02-0.02 0.01-0.03 0.02-0.04 0.02-0.04 0.02-0.03 0.02-0.06 0.03-0.04 0.02-0.11 0.06-0.08 0.04-0.04 0.02-0.05 0.03-0.04 0.02-0.06 0.03-0.04 0.02-0.04 0.02-0.12 0.07-0.13 0.06-0.12 0.06-0.13 0.07-0.12 0.06-0.13 0.06-0.12 0.06-0.13 0.07-0.12 0.06-0.13 0.06-0.12 0.06-0.13 0.06-0.13 0.06-0.12 0.06-0.13 0.06-0.13 0.06-0.13 0.05-0.12 0.06-0.13 0.06-0.13 0.05-0.13 0.06-0.13 0.06-0.12 0.05-0.13 0.06-0.13 0.05-0.13 0.05-0.13 0.06-0.13 0.05-0.13 0.05-0.13 0.05-0.13 0.06-0.14 0.05-0.13 0.05-0.13 0.05-0.13 0.05-0.13 0.04-0.14 0.05-0.13 0.05-0.13 0.05-0.13 0.04-0.02 0.01-0.02 0.01h-0.02l-0.01 0.01-0.02 0.01h-0.02l-0.02 0.01-0.02 0.01h-0.01l-0.02 0.01h-0.02l-0.02 0.01-0.01 0.01h-0.02l-0.02 0.01h-0.02l-0.02 0.01-0.03 0.01-0.04 0.01-0.07 0.02-0.04 0.01-0.02 0.01h-0.02l-0.03 0.01-0.02 0.01h-0.02l-0.02 0.01-0.02 0.01h-0.01l-0.02 0.01h-0.02l-0.02 0.01-0.02 0.01-0.13 0.04-0.14 0.05-0.14 0.04-0.14 0.05-0.14 0.04-0.14 0.04-0.13 0.05-0.14 0.04-0.14 0.04-0.14 0.04-0.14 0.04-0.14 0.04-0.14 0.04-0.14 0.04-0.14 0.04-0.14 0.04-0.14 0.04-0.15 0.04-0.14 0.03-0.14 0.04-0.14 0.04-0.14 0.03-0.15 0.04-0.14 0.03-0.14 0.04-0.14 0.03-0.15 0.03-0.14 0.03-0.15 0.04-0.14 0.03-0.14 0.03-0.15 0.03-0.14 0.03-0.15 0.03-0.14 0.03-0.15 0.02-0.15 0.03-0.14 0.03-0.15 0.03-0.14 0.02h-0.02l-0.02 0.01h-0.01-0.03l-0.02 0.01h-0.02-0.02-0.02l-0.02 0.01h-0.03-0.02l-0.03 0.01h-0.03-0.02l-0.04 0.01h-0.01-0.04l-0.03 0.01h-0.05-0.04l-0.16 0.03-0.15 0.02-0.15 0.03-0.16 0.02-0.15 0.02-0.16 0.03-0.15 0.02-0.16 0.02-0.15 0.02-0.16 0.02-0.15 0.02-0.16 0.02-0.15 0.02-0.16 0.01-0.15 0.02-0.16 0.02-0.16 0.01-0.15 0.02-0.16 0.01-0.16 0.02-0.15 0.01-0.16 0.01-0.16 0.02-0.16 0.01-0.15 0.01-0.16 0.01-0.16 0.01-0.16 0.01-0.16 0.01h-0.15l-0.16 0.01-0.16 0.01h-0.16l-0.16 0.01h-0.16-0.16l-0.16 0.01h-0.16-0.16-0.16-0.17-0.16-0.16l-0.16-0.01h-0.16-0.16l-0.17-0.01h-0.16l-0.16-0.01-0.16-0.01h-0.16l-0.16-0.01-0.16-0.01-0.16-0.01-0.16-0.01-0.16-0.01-0.16-0.01-0.16-0.01-0.15-0.01-0.16-0.02-0.16-0.01-0.16-0.01-0.16-0.02-0.16-0.01-0.15-0.02-0.16-0.02-0.16-0.02-0.15-0.01-0.16-0.02-0.16-0.02-0.15-0.02-0.16-0.02-0.16-0.02-0.15-0.02-0.16-0.03-0.15-0.02-0.16-0.02-0.16-0.02-0.15-0.03-0.16-0.02-0.05-0.01-0.05-0.01-0.05-0.01-0.04-0.01-0.05-0.01-0.05-0.01-0.05-0.01-0.05-0.01-0.05-0.01-0.05-0.01-0.05-0.01-0.05-0.01-0.05-0.01-0.05-0.01-0.05-0.02-0.05-0.01-0.04-0.01-0.05-0.01-0.05-0.02-0.05-0.01-0.05-0.01-0.05-0.01-0.14-0.04-0.05-0.02-0.05-0.01-0.05-0.01-0.05-0.01-0.05-0.02-0.05-0.01-0.04-0.01-0.05-0.01-0.05-0.01-0.05-0.02-0.05-0.01-0.05-0.01-0.05-0.01-0.04-0.01-0.05-0.01-0.11-0.02-0.1-0.02-0.1-0.03-0.11-0.02-0.1-0.02-0.1-0.02-0.11-0.03-0.1-0.02-0.1-0.02-0.11-0.02-0.1-0.03-0.1-0.02-0.11-0.02-0.1-0.03-0.1-0.02-0.1-0.02-0.11-0.03-0.1-0.02-0.1-0.02-0.1-0.03-0.11-0.02-0.1-0.03-0.1-0.02-0.1-0.03-0.1-0.02-0.11-0.03-0.1-0.03-0.1-0.02-0.1-0.03-0.1-0.03-0.1-0.02-0.1-0.03-0.1-0.03-0.1-0.03-0.1-0.03-0.1-0.03-0.1-0.03-0.09-0.03-0.1-0.03-0.1-0.03-0.06-0.02-0.05-0.02-0.06-0.02-0.05-0.02-0.06-0.02-0.05-0.02-0.06-0.02-0.05-0.02-0.06-0.02-0.05-0.02-0.06-0.02-0.05-0.03-0.06-0.02-0.05-0.02-0.05-0.02-0.06-0.02-0.05-0.02-0.05-0.03-0.06-0.02-0.05-0.02-0.06-0.02-0.05-0.03-0.05-0.02-0.06-0.02-0.16-0.07-0.05-0.02-0.05-0.02-0.06-0.03-0.05-0.02-0.05-0.02-0.06-0.02-0.05-0.03-0.05-0.02-0.06-0.02-0.05-0.02-0.05-0.02-0.06-0.03-0.14-0.05-0.09-0.04-0.09-0.03-0.09-0.04-0.17-0.07-0.09-0.03-0.09-0.04-0.09-0.03-0.08-0.03-0.09-0.04-0.09-0.03-0.09-0.04-0.09-0.03-0.08-0.04-0.09-0.03-0.09-0.04-0.09-0.04-0.08-0.03-0.09-0.04-0.09-0.03-0.08-0.04-0.09-0.04-0.09-0.03-0.08-0.04-0.09-0.04-0.08-0.04-0.09-0.03-0.09-0.04-0.08-0.04-0.09-0.04-0.08-0.04-0.09-0.04-0.08-0.04-0.08-0.04-0.09-0.04-0.08-0.04-0.08-0.04-0.09-0.04-0.08-0.05-0.05-0.02-0.06-0.03-0.05-0.03-0.06-0.03-0.05-0.03-0.05-0.03-0.06-0.03-0.05-0.03-0.05-0.03-0.06-0.03-0.05-0.03-0.05-0.03-0.05-0.03-0.06-0.03-0.05-0.03-0.05-0.03-0.05-0.04-0.05-0.03-0.06-0.03-0.05-0.03-0.05-0.03-0.05-0.03-0.05-0.04-0.06-0.03-0.05-0.03-0.15-0.09-0.06-0.04-0.05-0.03-0.05-0.03-0.05-0.03-0.05-0.03-0.06-0.03-0.05-0.04-0.05-0.03-0.05-0.03-0.06-0.03-0.05-0.03-0.05-0.03-0.06-0.04-0.06-0.03-0.07-0.04-0.06-0.04-0.06-0.03-0.06-0.04-0.07-0.03-0.06-0.04-0.06-0.04-0.07-0.03-0.06-0.04-0.06-0.03-0.07-0.04-0.06-0.03-0.13-0.07-0.06-0.04-0.06-0.03-0.07-0.04-0.06-0.04-0.06-0.03-0.07-0.04-0.06-0.03-0.06-0.04-0.07-0.04-0.06-0.03-0.06-0.04-0.06-0.04-0.07-0.03-0.06-0.04-0.06-0.04-0.06-0.04-0.07-0.03-0.06-0.04-0.06-0.04-0.06-0.04-0.06-0.04-0.06-0.04-0.06-0.04-0.06-0.04-0.02 0.09-0.02 0.08-0.02 0.09-0.02 0.09-0.02 0.09-0.02 0.09-0.02 0.09-0.02 0.08-0.02 0.09-0.02 0.09-0.02 0.09-0.02 0.09-0.02 0.08-0.02 0.09-0.02 0.09-0.02 0.09-0.02 0.08-0.03 0.09-0.02 0.09-0.02 0.08-0.02 0.09-0.03 0.09-0.02 0.08-0.02 0.09-0.02 0.09-0.03 0.08-0.02 0.09-0.03 0.09-0.02 0.08-0.02 0.09-0.03 0.09-0.02 0.08-0.03 0.09-0.02 0.08-0.03 0.09-0.03 0.09-0.02 0.08-0.03 0.09-0.03 0.08-0.02 0.09-0.01 0.03-0.01 0.04-0.01 0.03-0.01 0.03-0.01 0.04-0.01 0.03-0.02 0.03-0.01 0.04-0.01 0.03-0.01 0.04-0.01 0.03-0.01 0.03-0.01 0.04-0.02 0.03-0.01 0.03-0.01 0.04-0.01 0.03-0.01 0.03-0.02 0.03-0.01 0.04-0.03 0.1-0.03 0.06-0.01 0.04-0.01 0.03-0.01 0.03-0.02 0.03-0.01 0.04-0.01 0.03-0.01 0.03-0.01 0.04-0.01 0.03-0.01 0.03-0.01 0.04-0.02 0.03-0.01 0.03-0.01 0.04-0.01 0.03-0.02 0.05-0.01 0.06-0.02 0.05-0.02 0.05-0.02 0.06-0.02 0.05-0.02 0.05-0.02 0.06-0.01 0.05-0.02 0.05-0.02 0.06-0.02 0.05-0.02 0.05-0.02 0.06-0.02 0.05-0.02 0.05-0.02 0.05-0.02 0.06-0.01 0.05-0.02 0.05-0.02 0.06-0.02 0.05-0.02 0.05-0.02 0.06-0.02 0.05-0.02 0.05-0.02 0.05-0.02 0.06-0.02 0.05-0.02 0.05-0.02 0.05-0.02 0.06-0.02 0.05-0.02 0.05-0.02 0.05-0.02 0.06-0.02 0.05-0.02 0.05-0.03 0.05-0.02 0.06-0.01 0.03-0.02 0.04-0.01 0.04-0.02 0.03-0.01 0.04-0.02 0.03-0.01 0.04-0.02 0.04-0.01 0.03-0.02 0.04-0.02 0.04-0.01 0.03-0.02 0.04-0.01 0.04-0.02 0.03-0.01 0.04-0.02 0.03-0.02 0.04-0.01 0.04-0.02 0.03-0.02 0.04-0.01 0.03-0.02 0.04-0.01 0.03-0.02 0.04-0.02 0.04-0.01 0.03-0.02 0.04-0.02 0.03-0.01 0.04-0.02 0.04-0.02 0.03-0.01 0.04-0.02 0.03-0.02 0.04-0.01 0.03-0.02 0.04-0.02 0.03-0.03 0.07-0.02 0.05-0.07 0.14-0.02 0.05-0.02 0.05-0.02 0.05-0.02 0.04-0.02 0.05-0.03 0.05-0.02 0.04-0.02 0.05-0.02 0.05-0.02 0.04-0.03 0.05-0.02 0.05-0.02 0.05-0.02 0.04-0.02 0.05-0.03 0.05-0.02 0.04-0.02 0.05-0.02 0.05-0.03 0.04-0.02 0.05-0.02 0.04-0.02 0.05-0.03 0.05-0.02 0.04-0.02 0.05-0.02 0.04-0.03 0.05-0.02 0.05-0.02 0.04-0.03 0.05-0.02 0.04-0.03 0.05-0.02 0.04-0.02 0.05-0.03 0.04-0.02 0.04-0.02 0.04-0.01 0.03-0.02 0.04-0.02 0.03-0.02 0.04-0.02 0.04-0.02 0.03-0.02 0.04-0.02 0.03-0.01 0.04-0.02 0.03-0.02 0.04-0.02 0.03-0.02 0.04-0.02 0.04-0.02 0.03-0.02 0.04-0.02 0.03-0.02 0.04-0.02 0.03-0.02 0.04-0.02 0.03-0.02 0.04-0.02 0.03-0.02 0.04-0.02 0.03-0.02 0.04-0.02 0.04-0.02 0.03-0.02 0.04-0.02 0.03-0.02 0.04-0.02 0.03-0.02 0.04-0.02 0.03-0.02 0.04-0.04 0.07-0.02 0.03-0.02 0.05-0.03 0.04-0.02 0.04-0.03 0.05-0.03 0.04-0.02 0.05-0.03 0.04-0.02 0.04-0.03 0.05-0.03 0.04-0.02 0.04-0.03 0.05-0.03 0.04-0.02 0.04-0.03 0.05-0.02 0.04-0.03 0.04-0.03 0.04-0.02 0.05-0.03 0.04-0.03 0.04-0.02 0.05-0.03 0.04-0.03 0.04-0.02 0.04-0.03 0.05-0.03 0.04-0.03 0.04-0.02 0.04-0.03 0.05-0.03 0.04-0.02 0.04-0.03 0.04-0.11 0.18-0.05 0.08-0.03 0.05-0.04 0.06-0.05 0.07-0.04 0.07-0.05 0.06-0.02 0.04-0.02 0.03-0.02 0.04-0.02 0.03-0.05 0.07-0.02 0.03-0.02 0.03-0.02 0.04-0.02 0.03-0.03 0.03-0.02 0.04-0.02 0.03-0.02 0.03-0.02 0.04-0.03 0.03-0.02 0.04-0.02 0.03-0.02 0.03-0.02 0.04-0.03 0.03-0.02 0.03-0.02 0.03-0.02 0.04-0.03 0.03-0.02 0.03-0.02 0.04-0.02 0.03-0.03 0.03-0.02 0.04-0.02 0.03-0.02 0.03-0.03 0.04-0.03 0.05-0.03 0.04-0.03 0.04-0.03 0.04-0.03 0.04-0.03 0.04-0.03 0.04-0.04 0.05-0.03 0.04-0.03 0.04-0.03 0.04-0.03 0.04-0.03 0.04-0.03 0.04-0.03 0.04-0.03 0.04-0.03 0.04-0.03 0.04-0.03 0.04-0.03 0.05-0.04 0.04-0.03 0.04-0.03 0.04-0.03 0.04-0.06 0.08-0.12 0.16-0.04 0.04-0.06 0.08-0.03 0.04-0.03 0.04-0.03 0.04-0.03 0.04-0.03 0.04-0.03 0.04-0.03 0.04-0.02 0.03-0.02 0.03-0.03 0.03-0.02 0.03-0.03 0.03-0.02 0.03-0.03 0.03-0.02 0.03-0.02 0.03-0.03 0.03-0.02 0.03-0.05 0.06-0.05 0.06-0.05 0.07-0.02 0.03-0.02 0.03-0.03 0.03-0.02 0.03-0.03 0.03-0.02 0.03-0.03 0.03-0.02 0.03-0.03 0.03-0.02 0.03-0.02 0.03-0.03 0.03-0.02 0.03-0.03 0.03-0.02 0.03-0.03 0.03-0.02 0.03-0.03 0.03-0.02 0.03-0.03 0.03-0.02 0.03-0.03 0.03-0.04 0.04-0.03 0.04-0.04 0.04-0.03 0.05-0.04 0.04-0.03 0.04-0.04 0.04-0.03 0.04-0.04 0.04-0.04 0.04-0.03 0.04-0.04 0.04-0.03 0.04-0.04 0.04-0.04 0.04-0.03 0.04-0.04 0.04-0.04 0.04-0.03 0.04-0.04 0.04-0.04 0.04-0.04 0.04-0.03 0.04-0.04 0.04-0.04 0.04-0.03 0.04-0.04 0.04-0.04 0.04-0.04 0.04-0.03 0.04-0.04 0.04-0.04 0.04-0.04 0.04-0.03 0.04-0.04 0.04-0.04 0.04-0.07 0.08-0.08 0.08-0.02 0.02-0.03 0.03-0.02 0.02-0.02 0.03-0.03 0.03-0.02 0.02-0.03 0.03-0.02 0.03-0.05 0.05-0.02 0.02-0.07 0.08-0.05 0.06-0.03 0.02-0.02 0.03-0.02 0.02-0.03 0.03-0.02 0.03-0.03 0.02-0.02 0.03-0.02 0.02-0.03 0.03-0.02 0.03-0.03 0.02-0.02 0.03-0.02 0.02-0.03 0.03-0.02 0.02-0.03 0.03-0.02 0.02-0.03 0.03-0.02 0.02-0.03 0.03-0.02 0.02-0.03 0.03-0.02 0.02-0.03 0.03-0.05 0.05-0.05 0.04-0.05 0.05-0.05 0.05-0.05 0.05-0.05 0.05-0.05 0.05-0.05 0.05-0.05 0.04-0.05 0.05-0.05 0.05-0.05 0.05-0.05 0.05-0.06 0.04-0.05 0.05-0.05 0.05-0.05 0.05-0.05 0.04-0.05 0.05-0.06 0.05-0.05 0.04-0.05 0.05-0.05 0.05-0.05 0.05-0.05 0.04-0.06 0.05-0.05 0.05-0.05 0.04-0.05 0.05-0.06 0.04-0.05 0.05-0.05 0.05-0.05 0.04-0.06 0.05-0.05 0.05-0.05 0.04-0.05 0.05-0.06 0.04-0.05 0.05-0.05 0.04-0.02 0.02-0.02 0.02-0.02 0.01-0.02 0.02-0.02 0.02-0.02 0.02-0.02 0.01-0.02 0.02-0.02 0.02-0.02 0.01-0.02 0.02-0.02 0.02-0.02 0.01-0.04 0.04-0.08 0.07-0.04 0.03-0.03 0.03-0.02 0.02-0.04 0.03-0.02 0.02-0.02 0.02-0.02 0.01-0.02 0.02-0.02 0.02-0.02 0.01-0.02 0.02-0.02 0.02-0.02 0.01-0.02 0.02-0.02 0.02-0.02 0.01-0.02 0.02-0.02 0.02-0.06 0.05-0.07 0.05-0.06 0.05-0.07 0.05-0.06 0.05-0.06 0.05-0.07 0.06-0.06 0.05-0.07 0.05-0.06 0.05-0.07 0.05-0.06 0.05-0.07 0.05-0.06 0.05-0.07 0.05-0.06 0.05-0.07 0.05-0.06 0.05-0.07 0.05-0.06 0.05-0.07 0.05-0.07 0.05-0.06 0.04-0.07 0.05-0.06 0.05-0.07 0.05-0.07 0.05-0.06 0.05-0.07 0.04-0.07 0.05-0.06 0.05-0.07 0.05-0.07 0.04-0.06 0.05-0.07 0.05-0.07 0.04-0.06 0.05-0.07 0.05-0.07 0.04-0.06 0.05-0.03 0.02-0.03 0.02-0.03 0.02-0.03 0.02-0.03 0.02-0.03 0.01-0.02 0.02-0.03 0.02-0.03 0.02-0.03 0.02-0.03 0.02-0.03 0.02-0.03 0.02-0.03 0.02-0.03 0.01-0.03 0.02-0.03 0.02-0.03 0.02-0.03 0.02-0.03 0.02-0.06 0.03-0.06 0.04-0.06 0.04-0.03 0.01-0.03 0.02-0.03 0.02-0.03 0.02-0.03 0.02-0.03 0.02-0.03 0.01-0.03 0.02-0.03 0.02-0.03 0.02-0.02 0.02-0.03 0.02-0.03 0.02-0.03 0.01-0.05 0.03-0.04 0.03-0.05 0.03-0.05 0.03-0.04 0.03-0.05 0.03-0.05 0.03-0.04 0.03-0.05 0.03-0.05 0.03-0.05 0.03-0.04 0.03-0.05 0.03-0.05 0.02-0.04 0.03-0.05 0.03-0.05 0.03-0.04 0.03-0.05 0.03-0.05 0.03-0.05 0.03-0.04 0.03-0.05 0.02-0.05 0.03-0.05 0.03-0.04 0.03-0.05 0.03-0.05 0.03-0.05 0.02-0.04 0.03-0.05 0.03-0.05 0.03-0.05 0.03-0.04 0.02-0.05 0.03-0.05 0.03-0.05 0.03-0.04 0.02-0.05 0.03-0.05 0.03-0.03 0.02-0.04 0.02-0.03 0.01-0.04 0.02-0.03 0.02-0.04 0.02-0.03 0.02-0.04 0.02-0.03 0.02-0.04 0.02-0.03 0.02-0.03 0.01-0.04 0.02-0.03 0.02-0.04 0.02-0.03 0.02-0.04 0.02-0.04 0.01-0.03 0.02-0.04 0.02-0.03 0.02-0.04 0.02-0.03 0.01-0.04 0.02-0.03 0.02-0.04 0.02-0.03 0.02-0.04 0.01-0.03 0.02-0.04 0.02-0.03 0.02-0.07 0.03-0.04 0.02-0.07 0.04-0.07 0.03-0.07 0.04-0.04 0.02-0.05 0.02-0.05 0.02-0.04 0.03-0.05 0.02-0.04 0.02-0.05 0.02-0.04 0.03-0.05 0.02-0.04 0.02-0.05 0.03-0.05 0.02-0.04 0.02-0.05 0.02-0.04 0.03-0.05 0.02-0.05 0.02-0.04 0.02-0.05 0.03-0.05 0.02-0.04 0.02-0.05 0.02-0.05 0.03-0.04 0.02-0.05 0.02-0.05 0.02-0.04 0.03-0.05 0.02-0.05 0.02-0.04 0.02-0.05 0.02-0.05 0.03-0.04 0.02-0.05 0.02-0.05 0.02-0.04 0.02-0.05 0.02-0.05 0.03-0.05 0.02-0.04 0.02-0.04 0.02-0.04 0.01-0.07 0.03-0.04 0.02-0.04 0.02-0.04 0.01-0.03 0.02-0.04 0.01-0.04 0.02-0.04 0.02-0.03 0.01-0.04 0.02-0.04 0.01-0.04 0.02-0.04 0.02-0.03 0.01-0.04 0.02-0.04 0.01-0.04 0.02-0.03 0.01-0.04 0.02-0.04 0.02-0.04 0.01-0.04 0.02-0.03 0.01-0.04 0.02-0.04 0.01-0.04 0.02-0.04 0.02-0.03 0.01-0.04 0.02-0.04 0.01-0.04 0.02-0.04 0.01-0.03 0.02-0.04 0.01-0.04 0.02-0.04 0.01-0.04 0.02-0.04 0.02-0.05 0.02-0.05 0.02-0.05 0.01-0.04 0.02-0.05 0.02-0.05 0.02-0.05 0.02-0.04 0.01-0.05 0.02-0.05 0.02-0.05 0.02-0.04 0.01-0.05 0.02-0.05 0.02-0.05 0.02-0.04 0.02-0.05 0.01-0.05 0.02-0.05 0.02-0.04 0.01-0.05 0.02-0.05 0.02-0.05 0.02-0.04 0.01-0.05 0.02-0.05 0.02-0.05 0.01-0.04 0.02-0.05 0.02-0.05 0.01-0.05 0.02-0.04 0.02-0.05 0.01-0.05 0.02-0.05 0.01-0.04 0.02-0.05 0.02-0.05 0.01-0.05 0.02-0.04 0.01-0.04 0.01-0.04 0.02-0.04 0.01-0.04 0.01-0.04 0.02-0.07 0.02-0.04 0.02-0.08 0.02-0.12 0.04-0.08 0.03-0.04 0.01-0.04 0.01-0.04 0.02-0.04 0.01-0.04 0.01-0.04 0.01-0.04 0.02-0.04 0.01-0.04 0.01-0.04 0.02-0.04 0.01-0.04 0.01-0.04 0.01-0.04 0.02-0.04 0.01-0.04 0.01-0.04 0.02-0.04 0.01-0.04 0.01-0.04 0.01-0.04 0.01-0.04 0.02-0.05 0.01-0.04 0.01-0.05 0.01-0.05 0.02-0.05 0.01-0.05 0.02-0.05 0.01-0.05 0.01-0.05 0.02-0.05 0.01-0.05 0.01-0.04 0.02-0.05 0.01-0.05 0.01-0.05 0.02-0.05 0.01-0.05 0.01-0.05 0.02-0.05 0.01-0.05 0.01-0.05 0.01-0.05 0.02-0.05 0.01-0.05 0.01-0.05 0.01-0.05 0.02-0.05 0.01-0.05 0.01-0.05 0.01-0.05 0.02-0.05 0.01-0.05 0.01-0.05 0.01-0.04 0.01-0.05 0.02-0.05 0.01-0.05 0.01-0.05 0.01-0.05 0.01-0.05 0.01-0.05 0.02-0.05 0.01-0.04 0.01-0.04 0.01-0.08 0.01-0.21 0.05-0.08 0.02-0.08 0.02-0.04 0.01-0.04 0.01-0.04 0.01-0.08 0.01-0.04 0.01-0.04 0.01-0.04 0.01-0.05 0.01-0.04 0.01-0.04 0.01-0.04 0.01-0.04 0.01-0.04 0.01h-0.04l-0.04 0.01-0.04 0.01-0.04 0.01-0.04 0.01-0.04 0.01-0.04 0.01h-0.04l-0.04 0.01-0.05 0.01-0.04 0.01-0.04 0.01-0.04 0.01-0.05 0.01-0.06 0.01-0.05 0.01-0.05 0.01-0.06 0.01-0.05 0.01-0.05 0.01-0.06 0.01-0.05 0.01-0.06 0.01h-0.05l-0.05 0.01-0.06 0.01-0.05 0.01-0.06 0.01-0.05 0.01-0.06 0.01h-0.05l-0.05 0.01-0.06 0.01-0.05 0.01-0.06 0.01h-0.05l-0.06 0.01-0.05 0.01-0.06 0.01h-0.05l-0.06 0.01-0.05 0.01-0.05 0.01-0.11 0.01-0.11 0.02h-0.06l-0.05 0.01-0.06 0.01-0.05 0.01h-0.06l-0.05 0.01-0.04 0.01-0.08 0.01-0.15 0.02-0.11 0.02h-0.04l-0.04 0.01-0.08 0.01-0.04 0.01h-0.03l-0.04 0.01h-0.04l-0.04 0.01h-0.04l-0.04 0.01h-0.04l-0.04 0.01h-0.03l-0.04 0.01h-0.04l-0.04 0.01h-0.04l-0.04 0.01-0.04 0.01h-0.04-0.04l-0.03 0.01h-0.04l-0.04 0.01h-0.04l-0.04 0.01h-0.04l-0.04 0.01h-0.04l-0.07 0.01h-0.07l-0.08 0.01h-0.07l-0.07 0.01h-0.08l-0.07 0.01h-0.07l-0.07 0.01h-0.08l-0.07 0.01h-0.07l-0.08 0.01h-0.07l-0.08 0.01h-0.07-0.07l-0.08 0.01h-0.07-0.07l-0.08 0.01h-0.07-0.08l-0.07 0.01h-0.07-0.08l-0.07 0.01h-0.08-0.07-0.07l-0.08 0.01h-0.07-0.08-0.07-0.07l-0.08 0.01h-0.07-0.08-0.07-0.08-0.02-0.02l-0.02 0.01h-0.02-0.02-0.02-0.02-0.02-0.02-0.02-0.02l-0.02 0.01h-0.02-0.04-0.02l-0.08 0.01h-0.02-0.04-0.03l-0.02 0.01h-0.02-0.02-0.02-0.02-0.02-0.02l-0.02 0.01h-0.03-0.02-0.02-0.02-0.02-0.02-0.02-0.03-0.01-0.01-0.02-0.01l-0.04-0.01h-0.01-0.02-0.01-0.01-0.15l-0.15-0.01h-0.14-0.15-0.14l-0.15-0.01h-0.14l-0.15-0.01h-0.14l-0.15-0.01-0.14-0.01-0.15-0.01h-0.14l-0.14-0.01-0.15-0.01-0.14-0.01-0.15-0.01-0.14-0.01-0.14-0.01-0.14-0.02-0.15-0.01-0.14-0.01-0.14-0.01-0.14-0.02-0.15-0.01-0.14-0.02-0.14-0.01-0.14-0.02-0.14-0.01-0.14-0.02-0.14-0.02-0.14-0.01-0.15-0.02-0.14-0.02-0.14-0.02-0.14-0.02-0.14-0.02-0.14-0.02-0.14-0.02-0.14-0.02h-0.02l-0.03-0.01h-0.03-0.02l-0.05-0.01h-0.03l-0.05-0.01-0.06-0.01h-0.02l-0.05-0.01-0.11-0.01-0.05-0.01-0.05-0.01h-0.06l-0.02-0.01-0.06-0.01h-0.02-0.03l-0.02-0.01h-0.03-0.03l-0.02-0.01h-0.03l-0.03-0.01h-0.02-0.03l-0.03-0.01h-0.02l-0.03-0.01-0.14-0.02-0.13-0.02-0.14-0.03-0.13-0.02-0.14-0.03-0.14-0.03-0.13-0.02-0.14-0.03-0.13-0.03-0.14-0.03-0.13-0.03-0.14-0.03-0.13-0.03-0.14-0.03-0.13-0.03-0.14-0.03-0.13-0.03-0.14-0.03-0.13-0.03-0.13-0.04-0.14-0.03-0.13-0.04-0.13-0.03-0.14-0.04-0.13-0.03-0.13-0.04-0.13-0.03-0.13-0.04-0.14-0.04-0.13-0.04-0.13-0.03-0.13-0.04-0.13-0.04-0.13-0.04-0.13-0.04-0.13-0.04-0.13-0.04-0.13-0.04-0.13-0.05-0.13-0.04-0.03-0.01h-0.02l-0.03-0.01-0.02-0.01-0.03-0.01-0.02-0.01h-0.03l-0.02-0.01-0.03-0.01-0.02-0.01-0.03-0.01-0.02-0.01h-0.03l-0.02-0.01-0.02-0.01-0.03-0.01-0.05-0.02-0.02-0.01-0.05-0.01-0.05-0.02-0.05-0.02-0.02-0.01-0.05-0.01-0.05-0.02-0.05-0.02-0.02-0.01-0.05-0.01-0.12-0.05-0.13-0.05-0.13-0.04-0.14-0.05-0.13-0.05-0.13-0.05-0.13-0.05-0.13-0.05-0.13-0.05-0.13-0.05-0.13-0.05-0.13-0.05-0.13-0.05-0.13-0.05-0.13-0.05-0.13-0.05-0.12-0.06-0.13-0.05-0.13-0.05-0.13-0.06-0.13-0.05-0.13-0.06-0.12-0.05-0.13-0.06-0.13-0.05-0.13-0.06-0.12-0.05-0.13-0.06-0.13-0.06-0.12-0.06-0.13-0.06-0.13-0.05-0.12-0.06-0.13-0.06-0.12-0.06-0.13-0.07-0.12-0.06-0.13-0.06-0.12-0.06-0.12-0.07-0.13-0.06-0.01-0.01-0.02-0.01-0.01-0.01h-0.02l-0.02-0.02-0.03-0.01-0.01-0.01-0.05-0.03-0.02-0.01-0.02-0.01-0.02-0.01-0.03-0.02-0.02-0.01-0.02-0.01-0.02-0.01-0.11-0.06-0.12-0.07-0.12-0.06-0.12-0.06-0.11-0.07-0.12-0.06-0.12-0.07-0.11-0.06-0.12-0.07-0.11-0.07-0.12-0.07-0.11-0.06-0.12-0.07-0.11-0.07-0.12-0.07-0.11-0.07-0.12-0.07-0.11-0.07-0.12-0.07-0.11-0.07-0.11-0.07-0.12-0.07-0.11-0.08-0.11-0.07-0.11-0.07-0.12-0.07-0.11-0.08-0.11-0.07-0.11-0.08-0.11-0.07-0.11-0.08-0.11-0.07-0.11-0.08-0.11-0.07-0.11-0.08-0.11-0.08-0.11-0.08-0.11-0.07-0.11-0.08-0.11-0.08-0.02-0.01-0.01-0.01-0.04-0.03-0.02-0.01-0.03-0.03-0.04-0.02-0.03-0.02-0.04-0.03-0.03-0.02-0.04-0.03-0.03-0.02-0.05-0.04-0.06-0.03-0.03-0.03-0.05-0.03-0.06-0.04-0.08-0.06-0.04-0.02-0.08-0.07-0.09-0.06-0.08-0.07-0.08-0.06-0.08-0.06-0.08-0.07-0.09-0.06-0.08-0.07-0.08-0.06-0.08-0.07-0.08-0.06-0.08-0.07-0.09-0.06-0.08-0.07-0.08-0.07-0.08-0.06-0.08-0.07-0.08-0.06-0.08-0.07-0.08-0.07-0.08-0.06-0.08-0.07-0.08-0.07-0.08-0.07-0.08-0.06-0.08-0.07-0.08-0.07-0.08-0.07-0.08-0.07-0.08-0.07-0.07-0.07-0.08-0.06-0.08-0.07-0.08-0.07-0.08-0.07-0.07-0.07-0.08-0.08-0.08-0.07-0.08-0.07-0.07-0.07-0.01 0.01-0.01 0.01v0.02l-0.01 0.01-0.02 0.02v0.01l-0.01 0.01-0.02 0.02-0.01 0.03-0.01 0.01-0.01 0.02-0.03 0.03-0.02 0.03-0.01 0.02-0.05 0.07-0.02 0.03-0.01 0.01v0.01l-0.02 0.02-0.01 0.02-0.02 0.02-0.05 0.09-0.05 0.09-0.06 0.08-0.05 0.09-0.05 0.09-0.05 0.08-0.06 0.09-0.05 0.08-0.05 0.09-0.06 0.08-0.05 0.09-0.06 0.08-0.05 0.09-0.05 0.08-0.06 0.09-0.05 0.08-0.06 0.09-0.05 0.08-0.06 0.08-0.06 0.09-0.05 0.08-0.06 0.09-0.05 0.08-0.06 0.08-0.06 0.08-0.05 0.09-0.06 0.08-0.06 0.08-0.06 0.09-0.05 0.08-0.06 0.08-0.06 0.08-0.06 0.08-0.06 0.08-0.06 0.09-0.06 0.08-0.05 0.08-0.06 0.08-0.06 0.08-0.06 0.08-0.02 0.02-0.02 0.02-0.03 0.05-0.02 0.02-0.01 0.03-0.04 0.04-0.01 0.02-0.04 0.05-0.01 0.02-0.02 0.02-0.02 0.03-0.03 0.04-0.02 0.03-0.01 0.02-0.02 0.02-0.04 0.04-0.01 0.03-0.02 0.02-0.02 0.02-0.01 0.02-0.02 0.03-0.02 0.02-0.01 0.02-0.02 0.02-0.02 0.03-0.02 0.02-0.01 0.02-0.04 0.04-0.01 0.03-0.02 0.02-0.04 0.04-0.01 0.03-0.02 0.02-0.07 0.08-0.06 0.08-0.07 0.08-0.06 0.09-0.07 0.08-0.06 0.08-0.07 0.08-0.06 0.08-0.07 0.08-0.07 0.08-0.06 0.09-0.07 0.08-0.07 0.08-0.06 0.08-0.07 0.08-0.07 0.07-0.06 0.08-0.07 0.08-0.07 0.08-0.07 0.08-0.07 0.08-0.07 0.08-0.06 0.08-0.07 0.07-0.07 0.08-0.07 0.08-0.07 0.08-0.07 0.07-0.07 0.08-0.07 0.08-0.07 0.07-0.07 0.08-0.07 0.08-0.08 0.07-0.07 0.08-0.07 0.07-0.07 0.08-0.07 0.07-0.07 0.08-0.08 0.07-0.01 0.01-0.01 0.01-0.01 0.01v0.01l-0.01 0.01-0.01 0.01-0.01 0.01-0.01 0.01-0.01 0.01-0.01 0.01-0.01 0.01-0.01 0.01-0.02 0.02-0.02 0.02-0.03 0.04-0.03 0.03-0.02 0.02-0.01 0.01v0.01l-0.02 0.02-0.01 0.01-0.01 0.01h-0.01l-0.01 0.01-0.01 0.01-0.01 0.01-0.01 0.01-0.01 0.01-0.01 0.01-0.01 0.01-0.08 0.08-0.08 0.08-0.08 0.08-0.09 0.09-0.08 0.08-0.08 0.08-0.09 0.08-0.08 0.08-0.09 0.08-0.08 0.08-0.09 0.08-0.08 0.08-0.09 0.08-0.08 0.08-0.09 0.08-0.08 0.08-0.09 0.07-0.09 0.08-0.08 0.08-0.09 0.08-0.09 0.08-0.09 0.07-0.08 0.08-0.09 0.08-0.09 0.07-0.09 0.08-0.09 0.08-0.09 0.07-0.08 0.08-0.09 0.07-0.09 0.08-0.09 0.07-0.09 0.08-0.09 0.07-0.1 0.08-0.09 0.07-0.09 0.08-0.09 0.07-0.09 0.07-0.09 0.08-0.02 0.01-0.03 0.02-0.02 0.01-0.02 0.02-0.02 0.02-0.02 0.01-0.02 0.02-0.02 0.01-0.02 0.02-0.02 0.02-0.03 0.01-0.02 0.02-0.04 0.03-0.02 0.01-0.02 0.02-0.02 0.02-0.05 0.03-0.02 0.01-0.02 0.02-0.04 0.03-0.11 0.08-0.04 0.03-0.03 0.02-0.04 0.03-0.02 0.02-0.05 0.03-0.02 0.01-0.02 0.02-0.02 0.02-0.02 0.01-0.07 0.06-0.08 0.05-0.07 0.05-0.07 0.06-0.08 0.05-0.07 0.05-0.07 0.06-0.07 0.05-0.08 0.05-0.07 0.06-0.07 0.05-0.08 0.05-0.07 0.05-0.07 0.05-0.08 0.06-0.07 0.05-0.08 0.05-0.07 0.05-0.07 0.05-0.08 0.05-0.07 0.05-0.08 0.05-0.07 0.05-0.08 0.05-0.07 0.05-0.08 0.05-0.07 0.05-0.08 0.05-0.07 0.05-0.08 0.05-0.08 0.05-0.07 0.05-0.08 0.05-0.07 0.05-0.08 0.04-0.08 0.05-0.08 0.05-0.07 0.05-0.08 0.05-0.08 0.04-0.03 0.02-0.02 0.02-0.03 0.02-0.03 0.01-0.03 0.02-0.03 0.02-0.03 0.02-0.02 0.01-0.03 0.02-0.03 0.02-0.03 0.02-0.03 0.01-0.03 0.02-0.03 0.02-0.02 0.01-0.03 0.02-0.03 0.02-0.03 0.02-0.03 0.01-0.03 0.02-0.03 0.02-0.03 0.02-0.03 0.01-0.03 0.02-0.03 0.02-0.02 0.01-0.03 0.02-0.03 0.02-0.03 0.02-0.03 0.01-0.03 0.02-0.06 0.03-0.03 0.02-0.06 0.03-0.03 0.02-0.03 0.02-0.05 0.03-0.09 0.05-0.09 0.05-0.09 0.05-0.09 0.05-0.09 0.05-0.09 0.05-0.09 0.05-0.09 0.05-0.09 0.05-0.09 0.05-0.09 0.05-0.09 0.05-0.09 0.04-0.09 0.05-0.09 0.05-0.09 0.05-0.09 0.04-0.1 0.05-0.09 0.05-0.09 0.04-0.09 0.05-0.09 0.05-0.09 0.04-0.1 0.05-0.09 0.04-0.09 0.05-0.09 0.04-0.1 0.05-0.09 0.04-0.09 0.05-0.09 0.04-0.1 0.04-0.09 0.05-0.1 0.04-0.09 0.04-0.09 0.05-0.1 0.04-0.09 0.04-0.1 0.04-0.09 0.05h-0.02l-0.02 0.01-0.02 0.01-0.01 0.01h-0.01l-0.03 0.02h-0.01l-0.01 0.01h-0.02l-0.02 0.02-0.08 0.03-0.04 0.02-0.01 0.01-0.01 0.01h-0.02l-0.02 0.01-0.02 0.01-0.01 0.01-0.03 0.01h-0.01l-0.01 0.01-0.02 0.01h-0.01l-0.01 0.01h-0.02l-0.01 0.01-0.01 0.01h-0.02l-0.1 0.05-0.11 0.04-0.1 0.04-0.11 0.05-0.11 0.04-0.1 0.05-0.11 0.04-0.11 0.04-0.11 0.04-0.1 0.04-0.11 0.05-0.11 0.04-0.11 0.04-0.11 0.04-0.1 0.04-0.11 0.04-0.11 0.04-0.11 0.03-0.11 0.04-0.11 0.04-0.11 0.04-0.11 0.04-0.11 0.03-0.11 0.04-0.11 0.04-0.11 0.03-0.11 0.04-0.11 0.03-0.11 0.04-0.11 0.03-0.11 0.04-0.11 0.03-0.11 0.04-0.11 0.03-0.11 0.03-0.11 0.04-0.11 0.03-0.12 0.03-0.11 0.03-0.11 0.04-0.03 0.01-0.04 0.01-0.03 0.01-0.04 0.01-0.03 0.01-0.04 0.01-0.03 0.01-0.03 0.01-0.04 0.01h-0.03l-0.04 0.01-0.03 0.01-0.04 0.01-0.03 0.01-0.04 0.01-0.03 0.01-0.04 0.01-0.03 0.01h-0.03l-0.04 0.01-0.03 0.01-0.04 0.01-0.03 0.01-0.04 0.01-0.03 0.01h-0.04l-0.1 0.03-0.07 0.02h-0.04l-0.03 0.01-0.04 0.01-0.03 0.01-0.04 0.01-0.03 0.01-0.04 0.01h-0.03l-0.04 0.01-0.08 0.02-0.08 0.03-0.09 0.02-0.08 0.02-0.08 0.02-0.09 0.02-0.08 0.02-0.08 0.02-0.09 0.01-0.08 0.02-0.08 0.02-0.09 0.02-0.08 0.02-0.08 0.02-0.09 0.02-0.08 0.02-0.09 0.01-0.08 0.02-0.08 0.02-0.09 0.02-0.08 0.01-0.09 0.02-0.08 0.02-0.09 0.02-0.08 0.01-0.09 0.02-0.08 0.01-0.09 0.02-0.08 0.02-0.08 0.01-0.09 0.02-0.08 0.01-0.09 0.02-0.08 0.01-0.09 0.02-0.08 0.01-0.09 0.02-0.09 0.01-0.08 0.01-0.09 0.02h-0.03l-0.04 0.01-0.04 0.01h-0.04l-0.04 0.01-0.04 0.01h-0.03l-0.04 0.01-0.04 0.01h-0.04l-0.04 0.01-0.03 0.01h-0.04l-0.04 0.01-0.04 0.01h-0.04l-0.03 0.01h-0.04l-0.04 0.01-0.04 0.01h-0.04l-0.03 0.01h-0.04l-0.04 0.01h-0.04l-0.04 0.01h-0.04l-0.03 0.01-0.04 0.01h-0.04l-0.04 0.01h-0.04l-0.04 0.01h-0.03l-0.04 0.01h-0.04l-0.04 0.01h-0.04l-0.04 0.01h-0.04l-0.11 0.01-0.11 0.02-0.11 0.01-0.11 0.01-0.11 0.02-0.11 0.01-0.12 0.01-0.11 0.01-0.11 0.01-0.11 0.02-0.11 0.01-0.11 0.01-0.12 0.01-0.11 0.01-0.11 0.01-0.11 0.01h-0.11l-0.12 0.01-0.11 0.01-0.11 0.01-0.11 0.01h-0.12l-0.11 0.01-0.11 0.01h-0.11l-0.12 0.01h-0.11l-0.11 0.01h-0.12l-0.11 0.01h-0.11l-0.12 0.01h-0.11-0.12l-0.11 0.01h-0.11-0.12l-0.11 0.01h-0.12-0.11-0.01-0.01-0.02-0.02-0.02-0.01-0.01l-0.01 0.01h-0.01-0.02-0.04l-0.02 0.01h-0.01-0.02-0.01-0.01-0.02l-0.01 0.01h-0.01-0.02-0.01-0.01-0.1-0.1-0.1l-0.1-0.01h-0.1-0.1-0.1-0.1l-0.1-0.01h-0.1-0.1l-0.1-0.01h-0.1-0.1l-0.1-0.01h-0.1l-0.1-0.01h-0.1l-0.1-0.01h-0.1l-0.1-0.01-0.09-0.01h-0.1l-0.1-0.01h-0.1l-0.1-0.01-0.1-0.01-0.1-0.01h-0.1l-0.1-0.01-0.09-0.01-0.1-0.01h-0.1l-0.1-0.01-0.1-0.01-0.1-0.01-0.09-0.01-0.1-0.01h-0.1l-0.1-0.01-0.01-0.01h-0.02-0.01-0.03l-0.01-0.01h-0.02-0.02l-0.03-0.01-0.06-0.01-0.05-0.01h-0.03-0.02l-0.02-0.01h-0.03l-0.02-0.01h-0.02-0.02-0.02l-0.01-0.01h-0.02l-0.09-0.01-0.09-0.01-0.09-0.01-0.09-0.01-0.08-0.01-0.09-0.01-0.09-0.01-0.09-0.02-0.08-0.01-0.09-0.01-0.09-0.01-0.08-0.01-0.09-0.02-0.09-0.01-0.09-0.01-0.08-0.01-0.09-0.02-0.09-0.01-0.08-0.01-0.09-0.01-0.09-0.02-0.08-0.01-0.09-0.02-0.08-0.01-0.09-0.01-0.09-0.02-0.08-0.01-0.09-0.02-0.08-0.01-0.09-0.02-0.09-0.01-0.08-0.02-0.09-0.01-0.08-0.02-0.09-0.02-0.08-0.01-0.09-0.02-0.08-0.02-0.09-0.02-0.08-0.01-0.01-0.01h-0.01-0.02-0.02l-0.03-0.01h-0.01l-0.03-0.01h-0.03l-0.02-0.01h-0.02l-0.02-0.01h-0.04l-0.05-0.02-1.15-0.26-1.14-0.29-1.12-0.32-1.11-0.36-1.09-0.39-1.08-0.42-1.07-0.45-1.05-0.48-1.03-0.5-1.01-0.54-1-0.56-0.98-0.6-0.96-0.61-0.94-0.65-0.92-0.67-0.9-0.7-0.88-0.72-0.86-0.74-0.84-0.77-0.82-0.8-0.79-0.81-0.77-0.84-0.74-0.86-0.72-0.88-0.7-0.9-0.67-0.93-0.64-0.94-0.62-0.96-0.59-0.98-0.56-0.99-0.53-1.02-0.51-1.03-0.48-1.05-0.44-1.06-0.42-1.08-0.38-1.1-0.36-1.11-0.32-1.12-0.29-1.14-0.26-1.15-0.06 0.04-0.06 0.04-0.06 0.04-0.06 0.04-0.06 0.04-0.06 0.04-0.06 0.04-0.06 0.04-0.06 0.03-0.06 0.04-0.06 0.04-0.07 0.03-0.06 0.04-0.06 0.04-0.06 0.03-0.07 0.04-0.06 0.03-0.06 0.04-0.06 0.04-0.07 0.03-0.06 0.04-0.06 0.03-0.06 0.04-0.07 0.03-0.06 0.04-0.13 0.07-0.06 0.03-0.06 0.04-0.07 0.03-0.06 0.04-0.06 0.03-0.07 0.04-0.06 0.03-0.06 0.04-0.06 0.04-0.07 0.03-0.06 0.04-0.06 0.04-0.06 0.03-0.06 0.03-0.05 0.04-0.05 0.03-0.06 0.03-0.05 0.03-0.05 0.03-0.05 0.04-0.06 0.03-0.05 0.03-0.05 0.03-0.06 0.04-0.05 0.03-0.1 0.06-0.06 0.04-0.05 0.03-0.05 0.03-0.05 0.03-0.06 0.04-0.05 0.03-0.05 0.03-0.05 0.03-0.06 0.03-0.05 0.04-0.05 0.03-0.06 0.03-0.05 0.03-0.05 0.03-0.06 0.03-0.05 0.03-0.05 0.03-0.06 0.03-0.05 0.03-0.05 0.03-0.06 0.03-0.05 0.03-0.06 0.03-0.05 0.03-0.06 0.03-0.05 0.02-0.09 0.05-0.08 0.04-0.08 0.04-0.09 0.04-0.08 0.04-0.09 0.05-0.09 0.04-0.08 0.04-0.09 0.04-0.08 0.03-0.09 0.04-0.09 0.04-0.08 0.04-0.09 0.04-0.09 0.04-0.08 0.03-0.09 0.04-0.09 0.04-0.08 0.04-0.09 0.03-0.09 0.04-0.09 0.03-0.08 0.04-0.09 0.04-0.09 0.03-0.09 0.04-0.09 0.03-0.09 0.04-0.08 0.03-0.09 0.04-0.09 0.03-0.09 0.04-0.09 0.03-0.09 0.03-0.09 0.04-0.08 0.03-0.09 0.04-0.09 0.03-0.09 0.04-0.09 0.03-0.05 0.02-0.06 0.02-0.05 0.02-0.05 0.02-0.06 0.02-0.05 0.03-0.05 0.02-0.06 0.02-0.05 0.02-0.05 0.03-0.05 0.02-0.06 0.02-0.05 0.02-0.05 0.03-0.06 0.02-0.1 0.04-0.05 0.03-0.06 0.02-0.05 0.02-0.05 0.02-0.05 0.03-0.06 0.02-0.05 0.02-0.05 0.02-0.06 0.03-0.05 0.02-0.05 0.02-0.06 0.02-0.05 0.02-0.05 0.02-0.06 0.02-0.05 0.02-0.05 0.02-0.06 0.02-0.05 0.02-0.06 0.02-0.05 0.02-0.06 0.02-0.05 0.02-0.1 0.03-0.1 0.03-0.1 0.03-0.1 0.04-0.11 0.03-0.1 0.03-0.1 0.03-0.1 0.02-0.1 0.03-0.1 0.03-0.11 0.03-0.1 0.03-0.1 0.02-0.1 0.03-0.11 0.03-0.1 0.02-0.1 0.03-0.11 0.02-0.1 0.03-0.1 0.02-0.11 0.03-0.1 0.02-0.1 0.03-0.11 0.02-0.1 0.03-0.11 0.02-0.1 0.02-0.1 0.03-0.11 0.02-0.1 0.02-0.11 0.02-0.1 0.03-0.1 0.02-0.11 0.02-0.1 0.03-0.11 0.02-0.1 0.02-0.11 0.02-0.1 0.03-0.11 0.02-0.04 0.01-0.05 0.01-0.05 0.01-0.05 0.01-0.04 0.01-0.05 0.01-0.05 0.01-0.05 0.01-0.04 0.02-0.05 0.01-0.05 0.01-0.05 0.01-0.04 0.01-0.05 0.02-0.05 0.01-0.04 0.01-0.1 0.02-0.05 0.02-0.04 0.01-0.05 0.01-0.05 0.01-0.04 0.01-0.05 0.02-0.05 0.01-0.05 0.01-0.04 0.01-0.05 0.01-0.05 0.01-0.05 0.02-0.04 0.01-0.05 0.01-0.05 0.01-0.05 0.01-0.04 0.01-0.05 0.01-0.05 0.01h-0.05l-0.05 0.01-0.05 0.01-0.14 0.02-0.15 0.03-0.14 0.02-0.14 0.02-0.15 0.02-0.15 0.02-0.14 0.02-0.15 0.02-0.14 0.02-0.15 0.02-0.14 0.01-0.15 0.02-0.15 0.02-0.14 0.01-0.15 0.02-0.15 0.01-0.14 0.01-0.15 0.02-0.15 0.01-0.15 0.01-0.14 0.01-0.15 0.02-0.15 0.01-0.15 0.01-0.15 0.01-0.14 0.01h-0.15l-0.15 0.01-0.15 0.01-0.15 0.01h-0.15l-0.15 0.01h-0.15l-0.15 0.01h-0.15l-0.15 0.01h-0.15l-0.15 0.01h-0.15-0.15-0.01-0.01-0.01-0.01-0.01-0.01-0.03l-0.01 0.01h-0.01-0.01-0.03-0.01-0.02l-0.02 0.01h-0.03-0.04l-0.02 0.01h-0.03-0.02-0.01-0.01-0.01-0.01-0.02-0.01-0.01-0.01l-0.01 0.01h-0.01l-0.17-0.01h-0.17-0.17-0.17l-0.17-0.01h-0.16l-0.17-0.01-0.17-0.01h-0.17l-0.16-0.01-0.17-0.01-0.17-0.01-0.17-0.01-0.16-0.01-0.17-0.01-0.16-0.01-0.17-0.02-0.17-0.01-0.16-0.02-0.17-0.01-0.16-0.02-0.17-0.01-0.16-0.02-0.17-0.02-0.16-0.01-0.17-0.02-0.16-0.02-0.16-0.02-0.17-0.02-0.16-0.02-0.16-0.03-0.17-0.02-0.16-0.02-0.16-0.02-0.17-0.03-0.16-0.02-0.16-0.03-0.16-0.02-0.17-0.03-0.16-0.03h-0.05l-0.05-0.01-0.05-0.01-0.04-0.01-0.05-0.01-0.05-0.01-0.05-0.01-0.05-0.01-0.05-0.01-0.05-0.01-0.04-0.01-0.05-0.02-0.05-0.01-0.05-0.01-0.05-0.01-0.05-0.01-0.04-0.01-0.05-0.02-0.05-0.01-0.05-0.01-0.05-0.01-0.04-0.02-0.05-0.01-0.14-0.04-0.05-0.01-0.05-0.01-0.05-0.01-0.05-0.02-0.04-0.01-0.05-0.01-0.05-0.01-0.05-0.01-0.05-0.02-0.04-0.01-0.05-0.01-0.05-0.01-0.05-0.01-0.05-0.01-0.1-0.03-0.11-0.02-0.11-0.02-0.11-0.03-0.11-0.02-0.11-0.03-0.11-0.02-0.11-0.03-0.11-0.02-0.11-0.03-0.1-0.02-0.11-0.03-0.11-0.02-0.11-0.03-0.11-0.03-0.11-0.02-0.1-0.03-0.11-0.03-0.11-0.03-0.11-0.02-0.1-0.03-0.11-0.03-0.11-0.03-0.11-0.03-0.1-0.03-0.11-0.03-0.11-0.03-0.1-0.03-0.11-0.03-0.11-0.03-0.1-0.03-0.11-0.03-0.1-0.04-0.11-0.03-0.11-0.03-0.1-0.04-0.11-0.03-0.1-0.04-0.11-0.03-0.1-0.04-0.06-0.01-0.05-0.02-0.06-0.02-0.06-0.03-0.06-0.02-0.05-0.02-0.06-0.02-0.05-0.02-0.06-0.02-0.06-0.02-0.05-0.02-0.06-0.02-0.05-0.03-0.06-0.02-0.06-0.02-0.05-0.02-0.06-0.03-0.05-0.02-0.06-0.02-0.06-0.02-0.05-0.03-0.06-0.02-0.05-0.02-0.06-0.03-0.05-0.02-0.06-0.02-0.05-0.03-0.06-0.02-0.05-0.02-0.06-0.03-0.06-0.02-0.05-0.02-0.06-0.03-0.05-0.02-0.06-0.02-0.11-0.05-0.05-0.03-0.06-0.02-0.06-0.02-0.09-0.04-0.09-0.04-0.09-0.04-0.09-0.04-0.09-0.03-0.09-0.04-0.09-0.04-0.09-0.04-0.09-0.04-0.09-0.04-0.09-0.03-0.09-0.04-0.09-0.04-0.09-0.04-0.09-0.04-0.09-0.04-0.09-0.04-0.09-0.04-0.09-0.04-0.09-0.04-0.09-0.04-0.09-0.05-0.09-0.04-0.09-0.04-0.09-0.04-0.08-0.04-0.09-0.04-0.09-0.05-0.09-0.04-0.09-0.04-0.08-0.05-0.09-0.04-0.09-0.04-0.09-0.05-0.08-0.04-0.09-0.05-0.09-0.04-0.09-0.05-0.08-0.04-0.09-0.05-0.05-0.03-0.06-0.03-0.05-0.03-0.06-0.03-0.06-0.03-0.05-0.03-0.06-0.03-0.05-0.03-0.06-0.03-0.05-0.03-0.06-0.03-0.05-0.03-0.06-0.03-0.05-0.04-0.06-0.03-0.05-0.03-0.05-0.03-0.06-0.03-0.05-0.03-0.06-0.04-0.05-0.03-0.06-0.03-0.05-0.03-0.05-0.03-0.06-0.04-0.05-0.03-0.06-0.03-0.05-0.03-0.05-0.03-0.06-0.04-0.05-0.03-0.05-0.03-0.06-0.04-0.05-0.03-0.05-0.03-0.06-0.03-0.05-0.04-0.05-0.03-0.06-0.03-0.05-0.04-0.04-0.02-0.05-0.03-0.04-0.02-0.04-0.03-0.04-0.03-0.05-0.02-0.04-0.03-0.04-0.02-0.05-0.03-0.04-0.02-0.04-0.03-0.05-0.02-0.04-0.02-0.04-0.03-0.05-0.02-0.04-0.03-0.09-0.05-0.04-0.02-0.04-0.02-0.05-0.03-0.04-0.02-0.04-0.03-0.05-0.02-0.04-0.03-0.04-0.02-0.05-0.02-0.04-0.03-0.04-0.02-0.04-0.03-0.05-0.03-0.04-0.02-0.04-0.03-0.04-0.02-0.05-0.03-0.04-0.03-0.04-0.02-0.04-0.03-0.04-0.03-0.04-0.02v36.24l0.46 0.04 0.47 0.05 0.49 0.05 0.49 0.05 0.51 0.05 0.52 0.06 0.53 0.06 0.53 0.07 0.55 0.07 0.56 0.07 0.57 0.08 0.57 0.08 0.59 0.08 0.6 0.09 0.6 0.09 0.61 0.1 0.62 0.1 0.63 0.11 0.64 0.11 0.65 0.12 0.65 0.12 0.66 0.12 0.67 0.14 0.67 0.13 0.69 0.14 0.68 0.15 0.7 0.15 0.7 0.16 0.71 0.16 0.71 0.17 0.72 0.18 0.72 0.18 0.73 0.19 0.74 0.19 0.74 0.2 0.74 0.21 0.75 0.21 0.75 0.22 0.76 0.23 0.76 0.23 1.29 0.41 1.31 0.44 1.32 0.45 1.33 0.48 1.33 0.51 1.34 0.52 1.35 0.55 1.35 0.58 1.36 0.6 1.35 0.63 1.36 0.66 1.35 0.68 1.36 0.72 1.35 0.74 1.34 0.77 1.34 0.8 1.33 0.83 1.32 0.86 1.32 0.89 1.3 0.93 1.29 0.96 1.27 0.99 1.26 1.02 1.25 1.06 1.23 1.1 1.2 1.13 1.19 1.17 1.17 1.2 1.14 1.24 1.12 1.28 1.1 1.32 1.07 1.35 1.04 1.4 1.01 1.44 0.98 1.47 0.95 1.52 0.92 1.56 0.88 1.61 0.85 1.64 0.81 1.69 0.14 0.32 0.12 0.31 0.11 0.32 0.09 0.32 0.08 0.31 0.07 0.33 0.06 0.32 0.04 0.32 0.03 0.32 0.02 0.32v0.32l-0.01 0.32-0.02 0.32-0.03 0.32-0.05 0.31-0.06 0.31-0.06 0.31-0.08 0.31-0.1 0.3-0.1 0.3-0.12 0.29-0.12 0.29-0.14 0.29-0.15 0.28-0.16 0.27-0.17 0.27-0.18 0.26-0.19 0.26-0.2 0.24-0.21 0.25-0.22 0.23-0.23 0.22-0.24 0.22-0.25 0.21-0.26 0.2-0.27 0.19-0.28 0.18-0.29 0.17-0.3 0.16-0.3 0.15-0.08 0.04-0.09 0.03-0.08 0.04-0.09 0.04-0.08 0.03-0.09 0.04-0.08 0.03-0.09 0.03-0.08 0.03-0.09 0.03-0.08 0.03-0.09 0.03-0.08 0.02-0.09 0.03-0.08 0.02-0.09 0.02-0.09 0.03-0.08 0.02-0.09 0.02-0.08 0.02-0.09 0.02-0.09 0.01-0.08 0.02-0.09 0.02-0.09 0.01-0.08 0.02-0.09 0.01-0.09 0.01-0.09 0.01-0.08 0.01-0.09 0.01-0.09 0.01h-0.08l-0.09 0.01h-0.09l-0.08 0.01h-0.09-0.09l-0.09 0.01h-0.08l-0.24-0.01-0.23-0.01-0.23-0.01-0.23-0.03-0.23-0.03-0.23-0.03-0.22-0.05-0.23-0.04-0.22-0.06-0.23-0.06-0.22-0.07-0.22-0.07-0.21-0.08-0.22-0.09-0.21-0.09-0.21-0.1-0.21-0.1-0.2-0.11-0.2-0.11-0.2-0.12-0.19-0.13-0.2-0.13-0.18-0.14-0.19-0.14-0.18-0.15-0.17-0.15-0.18-0.16-0.17-0.17-0.16-0.17-0.16-0.17-0.15-0.18-0.15-0.18-0.15-0.19-0.14-0.2-0.13-0.2-0.13-0.2-0.13-0.21-0.11-0.21-0.12-0.22-0.1-0.22-0.6-1.25-0.62-1.22-0.65-1.19-0.68-1.16-0.71-1.13-0.73-1.1-0.76-1.08-0.78-1.05-0.81-1.02-0.82-0.99-0.85-0.97-0.87-0.95-0.89-0.91-0.91-0.89-0.93-0.87-0.95-0.84-0.96-0.82-0.98-0.79-0.99-0.78-1.01-0.74-1.02-0.73-1.03-0.7-1.05-0.68-1.05-0.66-1.07-0.63-1.08-0.62-1.08-0.59-1.09-0.58-1.1-0.55-1.11-0.54-1.11-0.51-1.11-0.5-1.12-0.48-1.12-0.46-1.13-0.44-1.12-0.42-1.12-0.41-1.13-0.39-1.12-0.37-1.12-0.36-0.99-0.3-1-0.29-1.01-0.27-1.02-0.26-1.02-0.25-1.03-0.24-1.04-0.22-1.03-0.21-1.04-0.21-1.03-0.19-1.03-0.18-1.02-0.17-1.01-0.16-1.01-0.15-0.99-0.14-0.98-0.14-0.97-0.12-0.95-0.12-0.93-0.11-0.9-0.1-0.89-0.1-0.87-0.09-0.83-0.08-0.81-0.07-0.78-0.07-0.75-0.07-0.72-0.06-0.68-0.06-0.64-0.05-0.61-0.04-0.56-0.05-0.53-0.04-0.47-0.04-0.44-0.03-0.38-0.04-0.34-0.03-0.28-0.03-0.24-0.02-0.17-0.03-0.12-0.03-19.19-5.72-0.21-0.06-0.23-0.08-0.26-0.1-0.28-0.14-0.3-0.16-0.33-0.19-0.35-0.21-0.36-0.25-0.38-0.27-0.39-0.3-0.41-0.33-0.41-0.37-0.43-0.39-0.43-0.42-0.43-0.46-0.44-0.48-0.44-0.52-0.44-0.55-0.44-0.58-0.44-0.62-0.43-0.64-0.42-0.69-0.41-0.71-0.41-0.76-0.39-0.78-0.37-0.82-0.36-0.86-0.34-0.89-0.33-0.93-0.3-0.97-0.27-1-0.26-1.05-0.22-1.08-0.2-1.11-0.17-1.16-0.13-1.2-0.1-1.23-0.07-1.28-0.03-1.32 0.01-1.35 0.02-1.05 0.03-1.07 0.04-1.09 0.07-1.12 0.09-1.14 0.11-1.17 0.12-1.2 0.15-1.22 0.18-1.25 0.19-1.27 0.21-1.31 0.24-1.33 0.27-1.36 0.29-1.39 0.31-1.42 0.34-1.46 0.36-1.48 0.39-1.51 0.42-1.55 0.44-1.57 0.48-1.61 0.5-1.65 0.53-1.67 0.56-1.71 0.59-1.75 0.62-1.78 0.66-1.81 0.68-1.85 0.72-1.89 0.75-1.92 0.78-1.96 0.82-2 0.86-2.03 0.88-2.08 0.93-2.11 0.96-2.15 0.99-2.19 1.03-2.24 1.08-2.27 1.1-2.31 0.01-0.04v-0.05-0.04-0.05-0.04-0.04-0.05-0.05-0.04l0.01-0.05v-0.05-0.05-0.04-0.05-0.05-0.05-0.06-0.05-0.05-0.05-0.05-0.06-0.05-0.06-0.05-0.06l0.01-0.05v-0.06-0.06-0.06-0.06-0.05-0.06-0.06-0.07-0.06-0.06-0.06-0.06-0.07l0.01-0.54v-0.58-0.61l-0.02-0.64-0.01-0.66-0.03-0.69-0.03-0.71-0.04-0.73-0.05-0.76-0.06-0.77-0.07-0.79-0.07-0.81-0.09-0.82-0.09-0.83-0.11-0.85-0.11-0.85-0.12-0.86-0.14-0.87-0.14-0.87-0.16-0.88-0.17-0.87-0.17-0.88-0.19-0.87-0.21-0.87-0.21-0.86-0.23-0.86-0.23-0.85-0.26-0.83-0.26-0.83-0.28-0.81-0.29-0.8-0.31-0.78-0.32-0.77-0.33-0.74-0.35-0.72-0.36-0.7-0.38-0.68-0.39-0.65-0.41-0.62-0.43-0.59-0.23-0.3-0.23-0.3-0.24-0.29-0.23-0.28-0.23-0.27-0.24-0.27-0.23-0.25-0.24-0.26-0.23-0.24-0.24-0.23-0.25-0.23-0.24-0.22-0.25-0.22-0.25-0.2-0.25-0.2-0.26-0.19-0.26-0.18-0.27-0.18-0.27-0.17-0.28-0.16-0.29-0.16-0.29-0.14-0.29-0.14-0.3-0.13-0.31-0.13-0.32-0.12-0.32-0.11-0.34-0.1-0.34-0.09-0.35-0.09-0.35-0.08-0.37-0.08-0.38-0.06-0.39-0.06-0.39-0.05-0.41-0.05-0.42-0.03-0.43-0.03-0.44-0.03-0.45-0.01h-0.22-0.22zm23.74 71.16l-0.87 2.42-0.8 2.33-0.75 2.26-0.68 2.18-0.63 2.1-0.57 2.02-0.51 1.94-0.46 1.87-0.41 1.79-0.36 1.72-0.32 1.65-0.27 1.57-0.22 1.5-0.19 1.44-0.15 1.36-0.1 1.29-0.08 1.23-0.04 1.17-0.01 1.09 0.03 1.11 0.05 1.03 0.07 0.96 0.09 0.9 0.11 0.82 0.12 0.77 0.13 0.7 0.15 0.65 0.15 0.58 0.16 0.54 0.17 0.48 0.16 0.44 0.17 0.39 0.17 0.34 0.17 0.3 0.16 0.27 0.15 0.23 0.15 0.2 0.13 0.16 0.12 0.14 0.11 0.11 6.65 1.97v-51.11l-1.01 2.59-0.94 2.5zm100.9-155.55l-0.8 0.06-0.79 0.1-0.78 0.12-0.78 0.15-0.76 0.17-0.76 0.2-0.75 0.22-0.73 0.25-0.72 0.27-0.72 0.3-0.7 0.31-0.68 0.34-0.68 0.36-0.66 0.39-0.65 0.4-0.63 0.42-0.62 0.45-0.6 0.46-0.59 0.48-0.57 0.5-0.56 0.52-0.54 0.54-0.52 0.55-0.5 0.57-0.48 0.59-0.47 0.6-0.44 0.62-0.43 0.63-0.4 0.65-0.39 0.66-0.36 0.67-0.34 0.69-0.32 0.7-0.3 0.71-0.27 0.73-0.25 0.73-0.23 0.75-0.2 0.75v0.03l-0.01 0.11v0.04 0.08 0.09 0.04 0.05 0.09l-0.01 0.1v0.2 0.16l-0.01 0.12v0.11 0.06 0.12 0.07 0.06l-0.01 0.06v0.07 0.06 0.07 0.07 0.06 0.07l-0.01 0.07v0.07 0.07 0.4 0.88 1.34 1.77 2.19 2.57 2.92 3.26l0.01 3.56v3.84 4.09 4.33l0.01 4.52v4.71 4.85l0.01 4.98v5.08l0.01 5.15v5.21l0.01 5.22v5.22 5.19l0.01 5.14v5.06l0.01 4.95v4.82l0.01 4.66v4.47l0.01 4.27v4.03 3.78l0.01 3.48v3.18 2.83l0.01 2.47v2.08 1.67 1.23 0.75 0.27l0.03 0.91 0.05 0.91 0.08 0.89 0.12 0.88 0.14 0.86 0.17 0.86 0.2 0.84 0.23 0.83 0.25 0.81 0.29 0.8 0.3 0.78 0.34 0.76 0.36 0.75 0.38 0.74 0.41 0.71 0.43 0.7 0.46 0.68 0.48 0.66 0.5 0.64 0.52 0.62 0.55 0.6 0.56 0.58 0.59 0.55 0.6 0.54 0.62 0.51 0.65 0.49 0.66 0.46 0.68 0.45 0.7 0.41 0.71 0.39 0.73 0.37 0.74 0.34 0.76 0.31 0.78 0.29 0.79 0.26 0.8 0.23 0.82 0.2 0.83 0.17 0.84 0.14 0.86 0.12h0.06l0.06 0.01 0.07 0.01 0.06 0.01 0.06 0.01h0.06l0.07 0.01 0.06 0.01 0.06 0.01 0.06 0.01 0.13 0.02 0.06 0.01 0.06 0.01h0.07l0.06 0.01 0.06 0.01 0.07 0.01 0.06 0.01 0.06 0.01h0.07l0.06 0.01 0.06 0.01 0.06 0.01h0.07l0.06 0.01 0.06 0.01h0.07l0.06 0.01h0.07l0.06 0.01h0.06l0.07 0.01h0.06 0.07l0.06 0.01h0.06 0.07 0.06 0.07 0.01 0.01 0.01 0.01 0.02 0.01 0.01 0.02 0.01l0.02-0.01h0.01 0.03l0.02-0.01h0.02 0.01 0.01 0.01 0.02 0.02 0.01l0.01-0.01h0.01 0.11 0.11 0.11l0.11-0.01h0.11 0.11l0.11-0.01h0.11l0.11-0.01h0.11l0.11-0.01 0.11-0.01h0.1l0.11-0.01 0.11-0.01 0.11-0.01 0.11-0.01 0.11-0.01 0.1-0.01 0.11-0.01 0.11-0.01 0.11-0.01 0.1-0.01 0.11-0.01 0.11-0.01 0.11-0.02 0.1-0.01 0.11-0.02 0.1-0.01 0.11-0.02 0.11-0.01 0.1-0.02 0.11-0.01 0.1-0.02 0.11-0.02 0.1-0.02 0.11-0.02 0.1-0.02 0.11-0.02 0.1-0.02 0.04-0.01 0.04-0.01 0.05-0.01 0.04-0.01 0.04-0.01 0.04-0.01 0.04-0.01 0.04-0.01 0.04-0.01 0.04-0.01 0.04-0.02 0.04-0.01 0.04-0.01 0.04-0.01 0.04-0.02 0.04-0.01 0.04-0.01 0.04-0.02 0.04-0.01 0.04-0.01 0.04-0.02 0.04-0.01 0.04-0.01 0.08-0.03 0.04-0.01 0.04-0.02 0.04-0.01 0.04-0.01 0.04-0.01 0.04-0.02 0.04-0.01 0.04-0.01 0.04-0.02 0.04-0.01 0.04-0.01 0.05-0.01 0.04-0.01 0.04-0.02 0.04-0.01 0.07-0.02 0.06-0.02 0.07-0.01 0.07-0.02 0.07-0.02 0.07-0.02 0.07-0.02 0.07-0.02 0.13-0.03 0.07-0.02 0.07-0.02 0.07-0.02 0.07-0.02 0.07-0.02 0.06-0.02 0.07-0.02 0.07-0.02 0.07-0.01 0.07-0.02 0.07-0.02 0.06-0.02 0.07-0.02 0.07-0.02 0.07-0.02 0.06-0.03 0.07-0.02 0.07-0.02 0.06-0.02 0.07-0.02 0.07-0.03 0.06-0.02 0.07-0.02 0.07-0.03 0.06-0.02 0.07-0.02 0.06-0.03 0.07-0.02 0.06-0.03 0.06-0.03 0.04-0.02 0.04-0.01 0.04-0.02 0.04-0.02 0.04-0.02 0.04-0.02 0.04-0.02 0.04-0.02 0.04-0.02 0.04-0.02 0.04-0.02 0.04-0.02 0.03-0.02 0.04-0.02 0.04-0.02 0.04-0.02 0.04-0.03 0.04-0.02 0.04-0.02 0.03-0.02 0.04-0.02 0.08-0.04 0.08-0.05 0.04-0.02 0.03-0.02 0.04-0.02 0.04-0.03 0.04-0.02 0.04-0.02 0.04-0.02 0.04-0.02 0.04-0.02 0.04-0.02 0.04-0.03 0.04-0.02 0.04-0.02 0.04-0.02 0.04-0.02 0.06-0.03 0.06-0.03 0.06-0.03 0.06-0.03 0.06-0.03 0.06-0.03 0.06-0.03 0.06-0.03 0.12-0.06 0.06-0.03 0.06-0.03 0.06-0.03 0.06-0.03 0.06-0.03 0.06-0.03 0.06-0.03 0.06-0.03 0.06-0.03 0.06-0.03 0.06-0.03 0.06-0.03 0.06-0.04 0.05-0.03 0.06-0.03 0.06-0.03 0.06-0.03 0.06-0.03 0.06-0.04 0.05-0.03 0.06-0.03 0.06-0.04 0.06-0.03 0.05-0.03 0.06-0.04 0.06-0.03 0.06-0.04 0.05-0.03 0.06-0.04 0.05-0.04 0.04-0.02 0.03-0.02 0.04-0.03 0.03-0.02 0.03-0.03 0.04-0.02 0.03-0.03 0.03-0.02 0.04-0.03 0.03-0.02 0.03-0.03 0.03-0.03 0.04-0.02 0.03-0.03 0.03-0.02 0.03-0.03 0.04-0.03 0.03-0.02 0.03-0.03 0.03-0.03 0.03-0.02 0.04-0.03 0.03-0.03 0.03-0.03 0.06-0.05 0.03-0.03 0.04-0.02 0.03-0.03 0.03-0.03 0.03-0.02 0.04-0.03 0.03-0.03 0.03-0.03 0.03-0.02 0.03-0.03 0.04-0.02 0.03-0.03 0.03-0.03 0.04-0.02 0.05-0.05 0.06-0.04 0.05-0.04 0.05-0.04 0.06-0.04 0.05-0.05 0.06-0.04 0.11-0.08 0.05-0.04 0.06-0.05 0.05-0.04 0.05-0.04 0.06-0.04 0.05-0.04 0.06-0.05 0.05-0.04 0.06-0.04 0.05-0.04 0.05-0.05 0.06-0.04 0.05-0.04 0.05-0.04 0.06-0.05 0.05-0.04 0.05-0.04 0.06-0.05 0.05-0.04 0.05-0.05 0.05-0.04 0.05-0.04 0.06-0.05 0.05-0.04 0.05-0.05 0.05-0.05 0.05-0.04 0.05-0.05 0.05-0.04 0.05-0.05 0.05-0.05 0.03-0.03 0.02-0.02 0.03-0.03 0.03-0.03 0.02-0.02 0.03-0.03 0.03-0.03 0.02-0.03 0.03-0.03 0.02-0.03 0.03-0.02 0.02-0.03 0.03-0.03 0.02-0.03 0.03-0.03 0.02-0.03 0.03-0.03 0.02-0.03 0.02-0.03 0.03-0.03 0.02-0.03 0.03-0.03 0.04-0.06 0.03-0.02 0.02-0.03 0.03-0.03 0.02-0.03 0.02-0.03 0.03-0.03 0.02-0.03 0.03-0.03 0.02-0.03 0.03-0.03 0.02-0.03 0.03-0.03 0.02-0.02 0.03-0.03 0.02-0.03 0.03-0.03 0.05-0.05 0.05-0.06 0.09-0.1 0.05-0.06 0.05-0.05 0.05-0.05 0.05-0.06 0.04-0.05 0.05-0.06 0.05-0.05 0.05-0.05 0.05-0.06 0.04-0.05 0.05-0.06 0.05-0.05 0.05-0.06 0.04-0.05 0.05-0.06 0.05-0.05 0.05-0.06 0.04-0.05 0.05-0.06 0.05-0.05 0.04-0.06 0.05-0.05 0.04-0.06 0.05-0.06 0.04-0.05 0.05-0.06 0.04-0.06 0.05-0.06 0.04-0.05 0.05-0.06 0.04-0.06 0.04-0.06 0.05-0.06 0.04-0.06 0.04-0.06 0.04-0.06 0.02-0.03 0.02-0.02 0.02-0.03 0.02-0.03 0.02-0.03 0.02-0.03 0.01-0.03 0.02-0.03 0.02-0.03 0.02-0.03 0.01-0.02 0.02-0.03 0.02-0.03 0.01-0.03 0.02-0.03 0.02-0.03 0.01-0.03 0.02-0.04 0.02-0.03 0.01-0.03 0.02-0.03 0.01-0.03 0.05-0.09 0.02-0.03 0.01-0.03 0.02-0.03 0.02-0.03 0.01-0.03 0.02-0.03 0.02-0.03 0.01-0.03 0.02-0.03 0.02-0.03 0.01-0.03 0.02-0.03 0.02-0.03 0.01-0.03 0.02-0.03 0.04-0.06 0.04-0.07 0.04-0.06 0.04-0.07 0.05-0.07 0.04-0.06 0.04-0.07 0.04-0.06 0.04-0.07 0.04-0.07 0.04-0.06 0.04-0.07 0.04-0.06 0.04-0.07 0.04-0.07 0.03-0.06 0.04-0.07 0.04-0.07 0.04-0.06 0.04-0.07 0.04-0.07 0.04-0.06 0.03-0.07 0.04-0.07 0.04-0.06 0.03-0.07 0.04-0.07 0.04-0.07 0.03-0.06 0.04-0.07 0.03-0.07 0.04-0.07 0.03-0.07 0.04-0.07 0.03-0.07 0.03-0.07 0.04-0.07 0.03-0.07 0.03-0.07 0.03-0.07 0.02-0.03 0.01-0.03 0.01-0.03 0.01-0.03 0.01-0.03 0.01-0.03 0.01-0.03 0.02-0.03 0.01-0.03 0.01-0.03 0.01-0.04 0.01-0.03 0.01-0.03 0.01-0.03 0.01-0.03 0.01-0.03 0.01-0.03 0.01-0.03 0.01-0.03 0.01-0.03 0.03-0.1 0.01-0.03 0.01-0.03 0.01-0.03 0.01-0.03 0.01-0.03 0.01-0.03 0.01-0.04 0.01-0.03 0.01-0.03 0.01-0.03 0.01-0.03 0.01-0.03 0.01-0.03 0.01-0.03 0.01-0.03 0.01-0.03 0.01-0.03 0.03-0.08 0.03-0.07 0.03-0.08 0.03-0.07 0.03-0.08 0.03-0.07 0.02-0.08 0.03-0.07 0.03-0.08 0.03-0.07 0.03-0.08 0.02-0.07 0.03-0.08 0.03-0.07 0.02-0.08 0.03-0.08 0.02-0.07 0.03-0.08 0.03-0.07 0.02-0.08 0.03-0.08 0.02-0.07 0.03-0.08 0.02-0.07 0.02-0.08 0.03-0.08 0.02-0.07 0.02-0.08 0.02-0.08 0.03-0.08 0.02-0.07 0.02-0.08 0.02-0.08 0.02-0.08 0.02-0.08 0.02-0.08 0.02-0.07 0.02-0.08 0.02-0.08 0.01-0.08 0.01-0.03 0.01-0.04v-0.03l0.01-0.03 0.01-0.03v-0.04l0.01-0.03v-0.03l0.01-0.03v-0.04l0.01-0.03v-0.03l0.01-0.04v-0.03l0.01-0.03v-0.04l0.01-0.03v-0.03-0.03l0.01-0.04v-0.03l0.01-0.03v-0.04l0.01-0.1 0.01-0.06v-0.04l0.01-0.03v-0.03-0.04l0.01-0.03v-0.03l0.01-0.03v-0.04l0.01-0.03v-0.03l0.01-0.03v-0.04l0.01-0.07 0.01-0.07 0.02-0.07 0.01-0.07 0.01-0.07 0.01-0.07 0.01-0.07 0.01-0.07 0.01-0.07 0.01-0.07 0.01-0.07 0.01-0.07 0.01-0.07 0.01-0.07 0.01-0.07 0.01-0.07 0.01-0.07 0.01-0.07 0.01-0.07 0.01-0.07v-0.07l0.01-0.07 0.01-0.07 0.01-0.07v-0.07l0.01-0.07 0.01-0.07v-0.07l0.01-0.07 0.01-0.08v-0.07l0.01-0.07v-0.07l0.01-0.07v-0.07l0.01-0.07v-0.07l0.01-0.08v-0.07-0.07l0.01-0.01v-0.01-0.01-0.01-0.02-0.02l0.01-0.02v-0.01-0.02-0.01-0.02l0.01-0.01v-0.03l0.01-0.06v-0.01l0.01-0.03v-0.02-0.03l0.01-0.02v-0.01-0.02-0.01-0.01-0.01-0.06-0.03-0.01l-0.01-0.03v-0.01-0.03-0.03-0.03l-0.01-0.02v-0.01-0.03-0.02-0.02-0.01l-0.01-0.02v-0.02-0.01-0.02-0.02l-0.01-0.02v-0.02-0.02-0.01l-0.01-0.02v-0.02-0.02-0.03l-0.01-0.02v-0.02-0.02l-0.01-0.02v-0.06-0.05l-0.01-0.05v-0.06-0.05l-0.01-0.06v-0.05-0.06l-0.01-0.06v-0.06-0.05-0.06l-0.01-0.06v-0.06-0.06l-0.01-0.06v-0.06-0.07-0.06l-0.01-0.06v-0.07-0.06-0.06l-0.01-0.07v-0.07-0.06-0.07l-0.01-0.07v-0.07-0.06-0.07-0.07l-0.01-0.08v-0.07-0.07-0.07-0.08l-0.01-0.07v-0.08-0.07-0.39l-0.01-0.86v-1.29-1.71-2.09-2.46-2.8l0.01-3.12v-3.4-3.68l0.01-3.91v-4.13l0.01-4.33 0.01-4.49v-4.64l0.01-4.76 0.01-4.85 0.01-4.92 0.01-4.97 0.01-4.99v-4.98l0.01-4.96 0.01-4.91 0.01-4.83 0.01-4.73 0.01-4.6 0.01-4.45v-4.28l0.01-4.08 0.01-3.85 0.01-3.61v-3.33l0.01-3.04v-2.72l0.01-2.36v-2l0.01-1.61v-1.18-0.74-0.27l-0.02-0.95-0.06-0.95-0.1-0.94-0.13-0.93-0.17-0.91-0.21-0.91-0.24-0.89-0.27-0.87-0.31-0.86-0.34-0.84-0.37-0.83-0.4-0.81-0.43-0.79-0.46-0.77-0.49-0.75-0.51-0.73-0.55-0.72-0.57-0.68-0.59-0.67-0.62-0.64-0.65-0.62-0.66-0.6-0.69-0.57-0.72-0.54-0.73-0.52-0.75-0.48-0.78-0.46-0.79-0.43-0.81-0.4-0.82-0.37-0.85-0.34-0.86-0.31-0.87-0.27-0.89-0.24-0.9-0.2-0.92-0.17-0.93-0.13-0.94-0.1-0.95-0.06-0.96-0.02-0.81 0.01-0.81 0.05zm62.37 21.5l-0.74 0.03-0.74 0.06-0.73 0.08-0.73 0.11-0.71 0.13-0.71 0.15-0.7 0.17-0.69 0.19-0.69 0.21-0.67 0.24-0.67 0.25-0.65 0.28-0.65 0.29-0.63 0.31-0.62 0.33-0.61 0.35-0.6 0.37-0.59 0.38-0.58 0.4-0.56 0.42-0.55 0.44-0.53 0.45-0.52 0.46-0.51 0.49-0.5 0.49-0.47 0.51-0.47 0.53-0.44 0.54-0.44 0.55-0.41 0.57-0.4 0.57-0.38 0.59-0.37 0.61-0.34 0.61-0.33 0.63-0.31 0.63-0.29 0.65-0.27 0.65-0.26 0.67v0.02l-0.01 0.02-0.01 0.02v0.01l-0.01 0.02-0.01 0.02-0.01 0.02v0.02l-0.01 0.01-0.01 0.02-0.01 0.02v0.02l-0.02 0.03-0.02 0.04v0.02l-0.05 0.11-0.01 0.01-0.01 0.04-0.02 0.04-0.01 0.01v0.02l-0.01 0.02-0.01 0.02-0.01 0.02v0.01l-0.01 0.02-0.01 0.02-0.01 0.02v0.02l-0.01 0.01-0.01 0.02-0.05 0.18-0.05 0.17-0.06 0.17-0.05 0.18-0.05 0.17-0.04 0.18-0.05 0.17-0.05 0.18-0.04 0.17-0.04 0.18-0.05 0.17-0.04 0.18-0.03 0.18-0.04 0.17-0.04 0.18-0.03 0.18-0.04 0.18-0.03 0.18-0.03 0.18-0.03 0.17-0.03 0.18-0.02 0.18-0.03 0.19-0.02 0.18-0.02 0.18-0.03 0.18-0.02 0.18-0.01 0.18-0.02 0.19-0.02 0.18-0.01 0.18-0.01 0.19-0.01 0.18-0.01 0.19-0.01 0.18-0.01 0.19v0.19l-0.01 0.18v0.19 0.19l-0.01 106.18v0.19 0.18l0.01 0.19v0.18l0.01 0.19 0.01 0.18 0.01 0.19 0.01 0.18 0.01 0.18 0.02 0.19 0.02 0.18 0.01 0.18 0.02 0.18 0.02 0.18 0.02 0.18 0.02 0.18 0.03 0.18 0.02 0.18 0.03 0.18 0.03 0.18 0.03 0.18 0.03 0.17 0.03 0.18 0.03 0.18 0.04 0.18 0.03 0.17 0.04 0.18 0.04 0.17 0.04 0.18 0.04 0.17 0.04 0.17 0.05 0.18 0.04 0.17 0.05 0.17 0.05 0.17 0.04 0.18 0.05 0.17 0.06 0.17 0.05 0.17 0.05 0.17 0.01 0.01v0.02l0.01 0.01 0.01 0.02v0.02l0.01 0.01v0.02l0.01 0.02 0.01 0.01v0.02l0.01 0.01 0.01 0.02v0.02l0.01 0.01 0.01 0.02 0.01 0.03 0.01 0.01 0.01 0.02v0.02l0.01 0.01 0.03 0.08 0.02 0.03 0.01 0.01 0.01 0.04 0.01 0.03 0.01 0.01 0.01 0.02v0.01l0.01 0.02 0.01 0.02v0.01l0.01 0.02 0.05 0.15 0.06 0.15 0.05 0.15 0.06 0.15 0.06 0.15 0.06 0.14 0.06 0.15 0.06 0.15 0.06 0.15 0.06 0.14 0.06 0.15 0.07 0.15 0.06 0.14 0.07 0.15 0.07 0.14 0.06 0.14 0.07 0.15 0.07 0.14 0.07 0.14 0.07 0.14 0.08 0.14 0.07 0.14 0.07 0.14 0.08 0.14 0.08 0.14 0.07 0.14 0.08 0.14 0.08 0.13 0.08 0.14 0.08 0.14 0.08 0.13 0.09 0.14 0.08 0.13 0.08 0.13 0.09 0.14 0.08 0.13 0.09 0.13 0.09 0.13 0.09 0.13 0.09 0.13 0.32 0.44 0.33 0.44 0.34 0.43 0.35 0.42 0.36 0.41 0.37 0.41 0.38 0.39 0.39 0.39 0.4 0.38 0.41 0.36 0.41 0.36 0.42 0.35 0.43 0.34 0.44 0.33 0.45 0.32 0.46 0.31 0.46 0.29 0.47 0.29 0.47 0.28 0.49 0.26 0.49 0.26 0.5 0.24 0.5 0.23 0.51 0.22 0.51 0.2 0.53 0.2 0.53 0.18 0.53 0.17 0.54 0.16 0.54 0.14 0.55 0.13 0.56 0.12 0.56 0.11 0.56 0.09 0.57 0.08 0.57 0.06 0.58 0.05 0.58 0.04 0.58 0.02h0.59 0.36l0.36-0.01 0.36-0.01 0.36-0.02 0.35-0.03 0.36-0.03 0.35-0.04 0.35-0.04 0.35-0.04 0.35-0.05 0.35-0.06 0.34-0.06 0.34-0.07 0.35-0.07 0.33-0.07 0.34-0.08 0.34-0.09 0.33-0.09 0.33-0.1 0.33-0.1 0.33-0.1 0.32-0.11 0.33-0.11 0.32-0.12 0.32-0.13 0.31-0.12 0.32-0.14 0.31-0.13 0.31-0.14 0.3-0.15 0.31-0.15 0.3-0.15 0.3-0.16 0.29-0.16 0.3-0.17 0.29-0.17 0.29-0.17 0.28-0.18 0.28-0.18 0.28-0.19 0.47-0.32 0.45-0.33 0.44-0.34 0.44-0.35 0.43-0.36 0.41-0.37 0.41-0.38 0.4-0.39 0.39-0.4 0.38-0.41 0.38-0.42 0.36-0.43 0.35-0.43 0.34-0.45 0.33-0.45 0.32-0.46 0.31-0.47 0.3-0.48 0.28-0.48 0.28-0.49 0.26-0.5 0.25-0.51 0.24-0.51 0.23-0.52 0.21-0.52 0.21-0.54 0.19-0.53 0.17-0.55 0.17-0.55 0.15-0.55 0.14-0.56 0.12-0.57 0.11-0.57 0.1-0.58 0.08-0.58 0.07-0.58 0.05-0.59 0.04-0.6 0.03-0.59 0.01-0.6v-106.18l-0.03-0.96-0.06-0.95-0.09-0.94-0.14-0.93-0.17-0.92-0.2-0.9-0.24-0.89-0.27-0.88-0.31-0.86-0.34-0.84-0.37-0.83-0.4-0.81-0.43-0.79-0.46-0.77-0.49-0.76-0.51-0.73-0.55-0.71-0.57-0.69-0.59-0.67-0.62-0.65-0.65-0.62-0.67-0.59-0.69-0.57-0.71-0.55-0.73-0.51-0.76-0.49-0.77-0.46-0.79-0.43-0.81-0.4-0.83-0.37-0.84-0.34-0.86-0.31-0.88-0.27-0.89-0.24-0.9-0.2-0.92-0.17-0.93-0.14-0.94-0.09-0.95-0.06-0.96-0.02h-0.05l-0.76 0.01zm-123.39 18.5l-0.54 0.05-0.55 0.08-0.54 0.09-0.55 0.12-0.55 0.14-0.55 0.17-0.55 0.18-0.55 0.21-0.55 0.23-0.56 0.25-0.55 0.27-0.56 0.29-0.56 0.32-0.56 0.34-0.56 0.36-0.56 0.38-0.56 0.4-0.56 0.42-0.56 0.45-0.57 0.47-0.57 0.49-0.56 0.51-0.57 0.54-0.57 0.55-0.57 0.58-0.57 0.6-0.57 0.62-0.58 0.65-0.57 0.66-0.58 0.69-0.58 0.71-0.57 0.73-0.58 0.75-0.58 0.78-0.58 0.79-0.59 0.82-0.58 0.84-0.58 0.86h0.01v83.88l0.01 0.04 0.01 0.04 0.01 0.05 0.01 0.04 0.01 0.04 0.01 0.04 0.02 0.04 0.01 0.05 0.01 0.04 0.01 0.04 0.01 0.04 0.02 0.04 0.01 0.04 0.01 0.04 0.02 0.04 0.01 0.05 0.01 0.04 0.01 0.04 0.02 0.04 0.01 0.04 0.01 0.04 0.02 0.04 0.01 0.04 0.01 0.04 0.02 0.04 0.01 0.04 0.02 0.04 0.01 0.04 0.01 0.05 0.03 0.08 0.01 0.04 0.03 0.08 0.02 0.04 0.01 0.04 0.01 0.04 0.02 0.04 0.01 0.04 0.01 0.04 0.02 0.05 0.02 0.05 0.01 0.04 0.02 0.05 0.01 0.05 0.02 0.04 0.01 0.05 0.03 0.09 0.02 0.05 0.03 0.09 0.01 0.05 0.02 0.04 0.01 0.05 0.02 0.05 0.01 0.04 0.02 0.05 0.01 0.05 0.02 0.04 0.01 0.05 0.02 0.05 0.02 0.04 0.01 0.05 0.02 0.05 0.01 0.04 0.02 0.05 0.02 0.04 0.01 0.05 0.02 0.05 0.02 0.04 0.01 0.05 0.02 0.04 0.02 0.05 0.02 0.04 0.01 0.05 0.02 0.04 0.02 0.05 0.02 0.04 0.02 0.05 0.02 0.04 0.02 0.05 0.02 0.04 0.02 0.04 0.02 0.05 0.02 0.04 0.02 0.04 0.02 0.05 0.02 0.04 0.02 0.04 0.02 0.05 0.03 0.04 0.02 0.04 0.02 0.04 0.02 0.05 0.02 0.04 0.03 0.04 0.02 0.04 0.02 0.04 0.02 0.05 0.02 0.04 0.03 0.04 0.02 0.04 0.02 0.04 0.03 0.05 0.02 0.04 0.02 0.04 0.05 0.08 0.02 0.05 0.02 0.04 0.02 0.04 0.03 0.04 0.02 0.04 0.02 0.05 0.02 0.04 0.03 0.04 0.02 0.04 0.02 0.05 0.02 0.04 0.03 0.04 0.02 0.04 0.02 0.05 0.02 0.04 0.03 0.04 0.02 0.05 0.02 0.04 0.04 0.09 0.03 0.04 0.02 0.04 0.02 0.04 0.02 0.05 0.03 0.04 0.02 0.04 0.02 0.04 0.02 0.05 0.02 0.04 0.03 0.04 0.02 0.04 0.02 0.05 0.03 0.04 0.02 0.04 0.02 0.04 0.02 0.05 0.03 0.04 0.02 0.04 0.02 0.04 0.03 0.04 0.02 0.05 0.03 0.04 0.02 0.04 0.02 0.04 0.03 0.04 0.02 0.05 0.03 0.04 0.02 0.04 0.03 0.04 0.02 0.04 0.03 0.04 0.03 0.04 0.02 0.05 0.03 0.04 0.03 0.04 0.02 0.04 0.03 0.04 0.03 0.04 0.03 0.04 0.02 0.03 0.03 0.04 0.03 0.04 0.03 0.04 0.03 0.04 0.02 0.04 0.03 0.04 0.03 0.04 0.03 0.03 0.03 0.04 0.03 0.04 0.03 0.04 0.03 0.04 0.03 0.04 0.03 0.03 0.02 0.04 0.03 0.04 0.03 0.04 0.03 0.03 0.03 0.04 0.03 0.04 0.06 0.08 0.03 0.03 0.03 0.04 0.03 0.04 0.03 0.04 0.03 0.03 0.03 0.04 0.03 0.04 0.03 0.04 0.02 0.04 0.03 0.03 0.03 0.04 0.03 0.04 0.03 0.04 0.03 0.03 0.03 0.04 0.03 0.04 0.02 0.04 0.03 0.04 0.03 0.03 0.03 0.04 0.08 0.12 0.03 0.03 0.03 0.04 0.03 0.04 0.03 0.04 0.03 0.04 0.03 0.03 0.02 0.04 0.03 0.04 0.03 0.04 0.03 0.04 0.03 0.03 0.03 0.04 0.03 0.04 0.03 0.04 0.03 0.03 0.03 0.04 0.03 0.04 0.03 0.04 0.03 0.03 0.03 0.04 0.03 0.04 0.03 0.03 0.03 0.04 0.03 0.04 0.03 0.03 0.04 0.04 0.03 0.03 0.03 0.04 0.04 0.03 0.03 0.04 0.03 0.03 0.04 0.04 0.03 0.03 0.04 0.04 0.03 0.03 0.04 0.04 0.03 0.03 0.04 0.04 0.03 0.03 0.04 0.03 0.03 0.04 0.04 0.03 0.03 0.04 0.04 0.03 0.04 0.03 0.03 0.04 0.04 0.03 0.03 0.03 0.04 0.04 0.03 0.03 0.04 0.03 0.04 0.04 0.03 0.03 0.04 0.03 0.07 0.07 0.07 0.06 0.04 0.04 0.03 0.03 0.04 0.03 0.03 0.03 0.04 0.04 0.04 0.03 0.03 0.03 0.04 0.04 0.03 0.03 0.03 0.03 0.04 0.03 0.03 0.04 0.03 0.03 0.04 0.03 0.03 0.03 0.03 0.04 0.04 0.03 0.1 0.1 0.03 0.03 0.03 0.03 0.04 0.03 0.03 0.04 0.03 0.03 0.04 0.03 0.03 0.03 0.03 0.04 0.04 0.03 0.03 0.03 0.03 0.03 0.04 0.03 0.03 0.04 0.03 0.03 0.04 0.03 0.03 0.03 0.04 0.03 0.03 0.03 0.04 0.03 0.03 0.03 0.03 0.03 0.04 0.03 0.03 0.03 0.04 0.03 0.03 0.03 0.04 0.03 0.04 0.03 0.07 0.06 0.04 0.03 0.04 0.03 0.04 0.04 0.04 0.03 0.05 0.03 0.04 0.03 0.04 0.03 0.04 0.03 0.04 0.03 0.04 0.03 0.05 0.03 0.04 0.03 0.04 0.03 0.04 0.03 0.05 0.03 0.04 0.03 0.04 0.03 0.05 0.02 0.04 0.03 0.04 0.03 0.05 0.03 0.04 0.03 0.04 0.03 0.05 0.02 0.04 0.03 0.04 0.03 0.05 0.03 0.04 0.03 0.04 0.02 0.05 0.03 0.04 0.03 0.04 0.03 0.05 0.03 0.04 0.02 0.04 0.03 0.05 0.03 0.04 0.03 0.04 0.03 0.05 0.02 0.03 0.03 0.04 0.02 0.04 0.03 0.03 0.02 0.04 0.03 0.04 0.02 0.03 0.03 0.04 0.02 0.03 0.03 0.04 0.02 0.04 0.03 0.03 0.02 0.04 0.03 0.07 0.05 0.03 0.02 0.04 0.03 0.04 0.02 0.03 0.03 0.04 0.02 0.03 0.03 0.04 0.02 0.03 0.03 0.04 0.02 0.04 0.02 0.03 0.03 0.04 0.02 0.04 0.03 0.03 0.02 0.04 0.02 0.04 0.03 0.03 0.02 0.04 0.02 0.04 0.03 0.03 0.02 0.04 0.02 0.04 0.03 0.04 0.02 0.04 0.02 0.03 0.02 0.05 0.03 0.05 0.03 0.05 0.02 0.05 0.03 0.05 0.03 0.05 0.02 0.06 0.03 0.05 0.03 0.05 0.02 0.05 0.03 0.05 0.02 0.05 0.03 0.05 0.02 0.05 0.02 0.06 0.03 0.05 0.02 0.05 0.03 0.05 0.02 0.05 0.02 0.06 0.03 0.05 0.02 0.05 0.02 0.05 0.03 0.06 0.02 0.05 0.02 0.05 0.02 0.06 0.03 0.05 0.02 0.05 0.02 0.05 0.03 0.06 0.02 0.05 0.02 0.05 0.03 0.05 0.02 0.06 0.02 0.05 0.02 0.05 0.03 0.06 0.02 0.05 0.03 0.05 0.02 0.04 0.01 0.03 0.02 0.04 0.01 0.03 0.02 0.04 0.02 0.03 0.01 0.04 0.02 0.04 0.01 0.03 0.02 0.04 0.02 0.03 0.01 0.04 0.02 0.03 0.02 0.04 0.01 0.03 0.02 0.07 0.03 0.04 0.02 0.03 0.02 0.04 0.01 0.04 0.02 0.03 0.02 0.04 0.01 0.03 0.02 0.04 0.01 0.03 0.02 0.04 0.02 0.03 0.01 0.04 0.02 0.04 0.01 0.03 0.02 0.04 0.01 0.03 0.02 0.04 0.01 0.04 0.02 0.03 0.01 0.04 0.02 0.03 0.01 0.04 0.01 0.04 0.01 0.06 0.03 0.07 0.02 0.06 0.02 0.07 0.02 0.06 0.03 0.06 0.02 0.07 0.02 0.06 0.02 0.07 0.02 0.06 0.02 0.07 0.02 0.06 0.02 0.07 0.01 0.07 0.02 0.06 0.02 0.07 0.02 0.06 0.02 0.07 0.01 0.06 0.02 0.07 0.02 0.07 0.01 0.06 0.02 0.07 0.02 0.06 0.01 0.07 0.02 0.07 0.02 0.06 0.01 0.07 0.02 0.07 0.01 0.06 0.02 0.07 0.01 0.07 0.02 0.06 0.02 0.07 0.01 0.07 0.02 0.06 0.01 0.07 0.02 0.07 0.01 0.07 0.02 0.06 0.01 0.03 0.01h0.03l0.03 0.01 0.03 0.01 0.03 0.01h0.03l0.03 0.01 0.03 0.01 0.02 0.01 0.03 0.01h0.03l0.03 0.01 0.03 0.01 0.03 0.01 0.03 0.01 0.05 0.01 0.06 0.02 0.03 0.01 0.03 0.01 0.03 0.01h0.03l0.03 0.01 0.02 0.01 0.03 0.01 0.03 0.01h0.03l0.03 0.01 0.03 0.01 0.03 0.01h0.03l0.03 0.01 0.03 0.01h0.02l0.03 0.01 0.03 0.01h0.03l0.03 0.01h0.03l0.1 0.02 0.1 0.02 0.1 0.01 0.09 0.02 0.1 0.02 0.1 0.01 0.1 0.02 0.1 0.01 0.1 0.01 0.1 0.02 0.1 0.01 0.1 0.01 0.1 0.02 0.1 0.01 0.1 0.01 0.1 0.01 0.1 0.01 0.1 0.01 0.1 0.01 0.1 0.01 0.1 0.01 0.1 0.01 0.1 0.01h0.1l0.1 0.01 0.11 0.01h0.1l0.1 0.01h0.1l0.1 0.01h0.11l0.1 0.01h0.1 0.1 0.11l0.1 0.01h0.1 0.1 0.11 0.1 0.01 0.01 0.01 0.01 0.02 0.01l0.02-0.01h0.01 0.02 0.02l0.01-0.01h0.01 0.01 0.01 0.01 0.09 0.09 0.09 0.09 0.09l0.09-0.01h0.09 0.09l0.09-0.01h0.08 0.09l0.09-0.01h0.09l0.09-0.01h0.09l0.09-0.01h0.09l0.09-0.01 0.09-0.01h0.08l0.09-0.01 0.09-0.01 0.09-0.01h0.09l0.08-0.01 0.09-0.01 0.09-0.01 0.09-0.01 0.09-0.01 0.08-0.01 0.09-0.01 0.09-0.01 0.08-0.01 0.09-0.01 0.09-0.02 0.09-0.01 0.08-0.01 0.09-0.01 0.08-0.02 0.09-0.01 0.04-0.01h0.03l0.03-0.01 0.04-0.01h0.03l0.04-0.01 0.03-0.01 0.03-0.01h0.04l0.03-0.01 0.04-0.01 0.03-0.01 0.03-0.01h0.04l0.03-0.01 0.04-0.01 0.03-0.01 0.03-0.01 0.04-0.01h0.03l0.03-0.01 0.04-0.01 0.06-0.02 0.07-0.02 0.03-0.01 0.04-0.01h0.03l0.03-0.01 0.04-0.01 0.03-0.01 0.03-0.01 0.04-0.01 0.03-0.01h0.03l0.04-0.01 0.03-0.01 0.04-0.01 0.03-0.01 0.05-0.01 0.06-0.01 0.05-0.01 0.06-0.02 0.05-0.01 0.06-0.01 0.05-0.01 0.06-0.02 0.05-0.01 0.12-0.02 0.05-0.01 0.06-0.02 0.05-0.01 0.06-0.01 0.05-0.01 0.05-0.02 0.06-0.01 0.05-0.01 0.06-0.02 0.05-0.01 0.06-0.01 0.05-0.02 0.06-0.01 0.05-0.01 0.06-0.02 0.05-0.01 0.06-0.02 0.05-0.01 0.05-0.01 0.06-0.02 0.05-0.01 0.05-0.02 0.06-0.02 0.05-0.01 0.06-0.02 0.05-0.02 0.05-0.01 0.06-0.02 0.05-0.02 0.04-0.01 0.03-0.01 0.04-0.01 0.04-0.02 0.04-0.01 0.04-0.01 0.03-0.02 0.04-0.01 0.04-0.01 0.04-0.02 0.03-0.01 0.04-0.02 0.04-0.01 0.04-0.02 0.03-0.01 0.04-0.02 0.04-0.01 0.03-0.02 0.04-0.01 0.04-0.02 0.03-0.01 0.04-0.02 0.04-0.02 0.03-0.01 0.04-0.02 0.07-0.03 0.08-0.03 0.03-0.02 0.04-0.01 0.03-0.02 0.04-0.01 0.04-0.02 0.03-0.01 0.04-0.02 0.04-0.01 0.03-0.02 0.04-0.01 0.04-0.02 0.04-0.02 0.05-0.02 0.05-0.01 0.04-0.02 0.14-0.06 0.05-0.02 0.04-0.01 0.05-0.02 0.04-0.02 0.05-0.02 0.05-0.02 0.04-0.02 0.05-0.01 0.04-0.02 0.05-0.02 0.05-0.02 0.04-0.02 0.05-0.02 0.04-0.02 0.05-0.02 0.04-0.01 0.05-0.02 0.04-0.02 0.05-0.02 0.05-0.02 0.04-0.02 0.05-0.02 0.04-0.02 0.04-0.02 0.05-0.03 0.04-0.02 0.05-0.02 0.04-0.02 0.05-0.02 0.04-0.02 0.04-0.02 0.05-0.03 0.04-0.02 0.04-0.02 0.04-0.02 0.03-0.02 0.04-0.02 0.04-0.02 0.03-0.02 0.04-0.02 0.04-0.02 0.03-0.02 0.04-0.02 0.03-0.02 0.04-0.02 0.04-0.02 0.03-0.02 0.04-0.02 0.03-0.02 0.04-0.03 0.03-0.02 0.04-0.02 0.03-0.02 0.04-0.02 0.04-0.02 0.03-0.03 0.04-0.02 0.03-0.02 0.04-0.02 0.03-0.02 0.04-0.03 0.03-0.02 0.04-0.02 0.03-0.02 0.04-0.02 0.14-0.09 0.03-0.03 0.04-0.02 0.03-0.02 0.04-0.02 0.04-0.03 0.04-0.02 0.04-0.02 0.04-0.03 0.04-0.02 0.04-0.03 0.04-0.02 0.04-0.02 0.12-0.08 0.04-0.02 0.04-0.02 0.04-0.03 0.04-0.02 0.04-0.03 0.04-0.02 0.04-0.03 0.04-0.02 0.04-0.02 0.04-0.03 0.04-0.02 0.04-0.03 0.04-0.02 0.04-0.03 0.04-0.02 0.04-0.03 0.04-0.02 0.04-0.03 0.04-0.02 0.04-0.03 0.04-0.02 0.04-0.03 0.04-0.02 0.04-0.03 0.03-0.03 0.04-0.02 0.04-0.03 0.04-0.02 0.04-0.03 0.03-0.03 0.04-0.02 0.03-0.03 0.03-0.02 0.04-0.03 0.03-0.02 0.04-0.03 0.03-0.03 0.03-0.02 0.04-0.03 0.03-0.02 0.03-0.03 0.03-0.03 0.04-0.02 0.03-0.03 0.03-0.03 0.03-0.02 0.04-0.03 0.03-0.03 0.03-0.03 0.03-0.02 0.04-0.03 0.03-0.03 0.03-0.02 0.03-0.03 0.07-0.06 0.06-0.05 0.07-0.06 0.03-0.02 0.03-0.03 0.03-0.03 0.03-0.03 0.04-0.02 0.03-0.03 0.03-0.03 0.03-0.02 0.04-0.03 0.03-0.03 0.04-0.03 0.03-0.03 0.04-0.03 0.03-0.03 0.04-0.03 0.03-0.03 0.04-0.03 0.03-0.03 0.07-0.06 0.04-0.03 0.03-0.03 0.04-0.03 0.03-0.03 0.04-0.02 0.03-0.03 0.04-0.03 0.03-0.03 0.04-0.03 0.03-0.03 0.04-0.03 0.03-0.03 0.04-0.03 0.03-0.03 0.04-0.03 0.03-0.03 0.03-0.03 0.04-0.03 0.03-0.03 0.04-0.04 0.03-0.03 0.03-0.03 0.04-0.03 0.03-0.03 0.04-0.03 0.03-0.03 0.03-0.03 0.03-0.04 0.04-0.03 0.03-0.03 0.03-0.03 0.03-0.03 0.03-0.03 0.03-0.03 0.03-0.03 0.03-0.03 0.03-0.03 0.02-0.03 0.03-0.04 0.03-0.03 0.03-0.03 0.03-0.03 0.03-0.03 0.03-0.03 0.02-0.04 0.03-0.03 0.03-0.03 0.03-0.03 0.03-0.03 0.03-0.03 0.02-0.04 0.03-0.03 0.03-0.03 0.03-0.03 0.02-0.03 0.12-0.13 0.02-0.03 0.03-0.04 0.03-0.03 0.03-0.03 0.03-0.03 0.02-0.03 0.03-0.04 0.03-0.03 0.03-0.03 0.03-0.03 0.03-0.03 0.03-0.04 0.03-0.03 0.03-0.04 0.12-0.13 0.03-0.04 0.03-0.03 0.03-0.04 0.03-0.03 0.03-0.03 0.03-0.04 0.03-0.03 0.03-0.04 0.03-0.03 0.03-0.04 0.03-0.03 0.03-0.03 0.03-0.04 0.03-0.03 0.03-0.04 0.03-0.03 0.03-0.04 0.03-0.03 0.03-0.04 0.03-0.04 0.03-0.03 0.03-0.04 0.03-0.03 0.02-0.04 0.03-0.03 0.03-0.04 0.03-0.04 0.03-0.03 0.03-0.04 0.02-0.04 0.03-0.03 0.03-0.04 0.02-0.03 0.03-0.04 0.02-0.03 0.03-0.03 0.02-0.04 0.03-0.03 0.02-0.03 0.03-0.04 0.02-0.03 0.03-0.03 0.02-0.04 0.02-0.03 0.03-0.04 0.02-0.03 0.02-0.04 0.03-0.03 0.02-0.04 0.02-0.03 0.03-0.04 0.02-0.03 0.02-0.04 0.02-0.03 0.03-0.04 0.02-0.03 0.02-0.04 0.02-0.03 0.03-0.04 0.02-0.03 0.07-0.11 0.02-0.03 0.02-0.04 0.02-0.03 0.03-0.04 0.02-0.03 0.02-0.04 0.03-0.03 0.02-0.04 0.02-0.03 0.03-0.04 0.02-0.04 0.03-0.04 0.02-0.04 0.06-0.08 0.05-0.08 0.02-0.04 0.03-0.04 0.02-0.04 0.03-0.04 0.02-0.04 0.03-0.04 0.03-0.04 0.02-0.04 0.03-0.04 0.02-0.04 0.03-0.03 0.02-0.04 0.03-0.04 0.02-0.05 0.03-0.04 0.02-0.04 0.02-0.04 0.03-0.04 0.02-0.04 0.03-0.04 0.02-0.04 0.03-0.04 0.02-0.04 0.02-0.04 0.03-0.04 0.02-0.04 0.02-0.05 0.03-0.04 0.02-0.04 0.02-0.04 0.02-0.05 0.03-0.04 0.02-0.03 0.01-0.04 0.02-0.04 0.02-0.03 0.02-0.04 0.02-0.03 0.02-0.04 0.02-0.04 0.01-0.03 0.02-0.04 0.02-0.04 0.02-0.03 0.01-0.04 0.02-0.03 0.02-0.04 0.02-0.04 0.01-0.03 0.02-0.04 0.02-0.04 0.02-0.04 0.01-0.03 0.02-0.04 0.02-0.04 0.01-0.03 0.02-0.04 0.02-0.04 0.01-0.03 0.02-0.04 0.02-0.04 0.01-0.03 0.02-0.04 0.03-0.08 0.04-0.07 0.03-0.07 0.03-0.08 0.02-0.04 0.02-0.03 0.01-0.03 0.02-0.04 0.01-0.03 0.02-0.04 0.01-0.03 0.02-0.03 0.01-0.04 0.02-0.03 0.01-0.04 0.02-0.03 0.01-0.04 0.02-0.03 0.01-0.04 0.02-0.03 0.01-0.03 0.02-0.04 0.01-0.03 0.02-0.04 0.01-0.03 0.01-0.04 0.02-0.03 0.01-0.04 0.02-0.03 0.01-0.04 0.01-0.03 0.02-0.03 0.01-0.04 0.02-0.03 0.01-0.04 0.01-0.03 0.02-0.04 0.01-0.03 0.01-0.04 0.02-0.03 0.01-0.04 0.01-0.03 0.02-0.04 0.01-0.03 0.01-0.04v-88.78l-0.26-0.65-0.28-0.64-0.3-0.63-0.31-0.63-0.34-0.61-0.35-0.6-0.37-0.58-0.39-0.58-0.4-0.56-0.42-0.56-0.43-0.53-0.45-0.53-0.47-0.51-0.48-0.5-0.49-0.48-0.51-0.47-0.52-0.45-0.54-0.44-0.54-0.42-0.56-0.41-0.58-0.39-0.58-0.37-0.6-0.36-0.61-0.34-0.61-0.32-0.63-0.3-0.64-0.28-0.65-0.27-0.66-0.24-0.67-0.23-0.68-0.2-0.68-0.19-0.7-0.16-0.7-0.15-0.71-0.12-0.72-0.1-0.72-0.08-0.73-0.06-0.74-0.03-0.74-0.01-0.54 0.01-0.55 0.03zm184.27 9.22l-0.73 0.06-0.73 0.08-0.72 0.1-0.71 0.13-0.71 0.14-0.69 0.17-0.69 0.19-0.68 0.21-0.67 0.23-0.66 0.25-0.65 0.27-0.64 0.29-0.63 0.3-0.62 0.33-0.61 0.34-0.59 0.36-0.59 0.38-0.57 0.39-0.56 0.41-0.55 0.43-0.53 0.44-0.52 0.46-0.51 0.48-0.49 0.48-0.48 0.51-0.46 0.51-0.45 0.53-0.43 0.55-0.42 0.55-0.4 0.57-0.38 0.59-0.37 0.59-0.35 0.6-0.33 0.62-0.32 0.63-0.29 0.63-0.28 0.65-0.26 0.66-0.01 0.02-0.01 0.03-0.01 0.02-0.01 0.03-0.01 0.02-0.01 0.03-0.01 0.02-0.01 0.03-0.01 0.02-0.01 0.02-0.01 0.03-0.01 0.02-0.01 0.03-0.01 0.02-0.01 0.02-0.01 0.03-0.02 0.05-0.03 0.04-0.01 0.03-0.01 0.02-0.01 0.03-0.01 0.02-0.01 0.02-0.01 0.03-0.01 0.02-0.01 0.02-0.01 0.03-0.01 0.02-0.01 0.03-0.01 0.02-0.01 0.02v0.03l-0.01 0.02-0.01 0.03-0.01 0.02-0.01 0.03v0.02l-0.01 0.03-0.02 0.07-0.03 0.06-0.02 0.07-0.02 0.07-0.02 0.07-0.02 0.07-0.02 0.07-0.02 0.07-0.03 0.07-0.02 0.07-0.02 0.06-0.02 0.07-0.02 0.07-0.02 0.07-0.01 0.06-0.02 0.07-0.02 0.07-0.02 0.07-0.02 0.06-0.02 0.07-0.02 0.07-0.01 0.06-0.02 0.07-0.02 0.07-0.01 0.06-0.02 0.07-0.02 0.06-0.01 0.07-0.02 0.07-0.01 0.06-0.02 0.07-0.01 0.06-0.02 0.07-0.01 0.06-0.02 0.07-0.01 0.06-0.01 0.07-0.02 0.06-0.01 0.07-0.01 0.06-0.02 0.12-0.02 0.11-0.02 0.12-0.02 0.11-0.02 0.12-0.02 0.11-0.02 0.12-0.02 0.11-0.01 0.12-0.02 0.11-0.02 0.11-0.01 0.12-0.02 0.11-0.01 0.12-0.02 0.11-0.01 0.11-0.01 0.12-0.02 0.11-0.01 0.11-0.01 0.12-0.01 0.11-0.01 0.11-0.01 0.12-0.01 0.11-0.01 0.11-0.01 0.11-0.01 0.12v0.11l-0.01 0.11-0.01 0.11v0.12l-0.01 0.11v0.11 0.11l-0.01 0.11v0.11 0.12 0.11 0.11 0.11l-0.01 53.85v0.19 0.19l0.01 0.18v0.19l0.01 0.18 0.01 0.18 0.01 0.19 0.01 0.18 0.01 0.18 0.02 0.19 0.01 0.18 0.02 0.18 0.02 0.18 0.02 0.18 0.02 0.18 0.02 0.18 0.03 0.18 0.02 0.18 0.03 0.18 0.03 0.18 0.03 0.18 0.03 0.18 0.03 0.18 0.04 0.17 0.03 0.18 0.04 0.18 0.04 0.17 0.04 0.18 0.04 0.18 0.04 0.17 0.04 0.18 0.05 0.17 0.05 0.18 0.04 0.17 0.05 0.17 0.05 0.18 0.06 0.17 0.05 0.18 0.05 0.17 0.06 0.17v0.01l0.01 0.03v0.02l0.01 0.03 0.01 0.02 0.01 0.03 0.01 0.02 0.01 0.03 0.01 0.02 0.01 0.02 0.01 0.03 0.01 0.02 0.01 0.03 0.01 0.02 0.01 0.03 0.01 0.02 0.01 0.02 0.01 0.03 0.01 0.02 0.01 0.03 0.01 0.02 0.02 0.05 0.03 0.07 0.02 0.02 0.01 0.03 0.01 0.02 0.01 0.02 0.01 0.03 0.01 0.02 0.01 0.03 0.01 0.02 0.01 0.02 0.01 0.03 0.01 0.02 0.01 0.03 0.01 0.02 0.01 0.02 0.01 0.03 0.01 0.03 0.01 0.04 0.02 0.03 0.01 0.04 0.01 0.03 0.02 0.04 0.01 0.03 0.01 0.03 0.02 0.04 0.01 0.03 0.02 0.04 0.01 0.03 0.01 0.03 0.02 0.04 0.01 0.03 0.01 0.03 0.02 0.04 0.01 0.03 0.02 0.04 0.01 0.03 0.01 0.03 0.02 0.04 0.01 0.03 0.02 0.03 0.01 0.04 0.01 0.03 0.02 0.03 0.01 0.04 0.02 0.03 0.01 0.03 0.02 0.04 0.01 0.03 0.01 0.03 0.02 0.04 0.01 0.03 0.02 0.03 0.01 0.04 0.02 0.03 0.01 0.03 0.01 0.04 0.09 0.18 0.08 0.19 0.09 0.18 0.09 0.18 0.09 0.19 0.09 0.18 0.09 0.18 0.1 0.18 0.09 0.17 0.1 0.18 0.1 0.18 0.1 0.17 0.1 0.18 0.1 0.17 0.1 0.17 0.11 0.18 0.1 0.17 0.11 0.17 0.11 0.17 0.11 0.16 0.11 0.17 0.12 0.17 0.11 0.16 0.12 0.16 0.12 0.17 0.12 0.16 0.12 0.16 0.12 0.16 0.12 0.16 0.13 0.15 0.12 0.16 0.13 0.15 0.13 0.16 0.13 0.15 0.13 0.15 0.13 0.15 0.14 0.15 0.13 0.15 0.14 0.14 0.14 0.15 0.32 0.33 0.33 0.32 0.33 0.31 0.34 0.31 0.34 0.3 0.35 0.3 0.36 0.28 0.36 0.28 0.37 0.28 0.37 0.26 0.38 0.26 0.39 0.26 0.39 0.24 0.39 0.24 0.4 0.23 0.4 0.22 0.41 0.21 0.42 0.21 0.41 0.2 0.43 0.19 0.42 0.18 0.44 0.17 0.43 0.16 0.44 0.16 0.45 0.15 0.44 0.14 0.45 0.13 0.46 0.12 0.46 0.11 0.46 0.1 0.47 0.09 0.47 0.09 0.47 0.07 0.48 0.06 0.47 0.06 0.49 0.04 0.48 0.04 0.49 0.02 0.49 0.02h0.49l0.85-0.01 0.84-0.04 0.83-0.08 0.83-0.1 0.81-0.13 0.81-0.16 0.79-0.19 0.79-0.21 0.77-0.24 0.76-0.27 0.75-0.29 0.73-0.32 0.73-0.34 0.71-0.37 0.69-0.38 0.68-0.41 0.66-0.44 0.65-0.45 0.63-0.48 0.62-0.5 0.6-0.51 0.58-0.54 0.56-0.56 0.54-0.57 0.52-0.59 0.5-0.61 0.49-0.63 0.46-0.65 0.44-0.66 0.41-0.67 0.4-0.69 0.37-0.7 0.35-0.72 0.32-0.73 0.3-0.75 0.27-0.75 0.25-0.77 0.22-0.78 0.2-0.79 0.17-0.8v-0.01l0.02-0.11 0.02-0.12 0.01-0.11 0.02-0.11 0.02-0.11 0.02-0.11 0.02-0.11 0.01-0.11 0.02-0.11 0.02-0.11 0.01-0.11 0.02-0.11 0.01-0.11 0.01-0.11 0.02-0.11 0.01-0.11 0.01-0.1 0.01-0.11 0.02-0.11 0.01-0.11 0.01-0.11 0.01-0.11 0.01-0.11 0.01-0.11 0.01-0.11v-0.11l0.01-0.11 0.01-0.11v-0.11l0.01-0.11v-0.11l0.01-0.11v-0.11l0.01-0.1v-0.11-0.11l0.01-0.11v-0.11-0.11-0.11-53.86l-0.02-0.96-0.06-0.95-0.1-0.94-0.13-0.93-0.17-0.92-0.21-0.9-0.24-0.89-0.27-0.88-0.3-0.86-0.34-0.84-0.37-0.83-0.4-0.81-0.43-0.79-0.46-0.78-0.49-0.75-0.52-0.74-0.54-0.71-0.57-0.69-0.6-0.67-0.62-0.64-0.64-0.62-0.67-0.6-0.69-0.57-0.71-0.54-0.73-0.52-0.76-0.48-0.77-0.46-0.79-0.43-0.81-0.4-0.83-0.37-0.84-0.34-0.86-0.31-0.88-0.27-0.89-0.24-0.9-0.21-0.92-0.17-0.92-0.13-0.94-0.1-0.95-0.05-0.96-0.03v-0.01l-0.75 0.01-0.74 0.04z"/>
</defs>
<use fill="#000000" xlink:href="#a"/>
<use fill-opacity="0" stroke="#000000" stroke-opacity="0" xlink:href="#a"/>
</svg>
