<svg viewBox="0 0 640 640" xmlns="http://www.w3.org/2000/svg" xmlns:xlink="http://www.w3.org/1999/xlink"><defs><path id="a" d="M328.16 115.5l1.34.12 1.32.15 1.32.2 1.3.25 1.28.28 1.27.33 1.25.36 1.23.41 1.22.44 1.19.48 1.18.52 1.15.56 1.14.59 1.11.63 1.09.66 1.07.7 1.04.72 1.02.77.99.79.97.82.94.85.91.88.89.91.85.94.83.97.79.99.76 1.02.74 1.04.69 1.06.67 1.09.63 1.11.59 1.14.56 1.15.53 1.18.48 1.19.45 1.22.41 1.23.37 1.25.5-.35.5-.35.5-.33.51-.33.52-.33.52-.31.52-.31.53-.29.54-.3.54-.28.55-.27.55-.27.55-.26.56-.25.56-.24.57-.23.57-.23.58-.22.58-.2.58-.2.59-.19.59-.18.6-.18.6-.16.6-.15.61-.15.61-.13.62-.13.62-.11.62-.11.62-.1.63-.08.63-.08.64-.07.63-.05.64-.05.65-.04.64-.03.65-.01.65-.01 1.51.03 1.49.09 1.48.13 1.46.2 1.45.24 1.43.3 1.4.34 1.39.4 1.37.44 1.34.5 1.32.53 1.3.59 1.27.62 1.24.68 1.22.71 1.19.76 1.16.79 1.13.84 1.1.87 1.07.91 1.03.95 1 .98.97 1.02.93 1.05.89 1.09.85 1.11.82 1.15.77 1.18.74 1.2.69 1.23.65 1.26.61 1.29.56 1.3.51 1.34.47 1.35.42 1.38.37 1.4.32 1.41.27 1.44.22 1.45.48-.32.48-.31.49-.3.49-.3.5-.29.5-.28.5-.28.51-.27.52-.26.51-.26.52-.25.53-.24.53-.24.53-.22.54-.22.54-.22.55-.2.54-.2.56-.19.55-.18.56-.17.56-.16.57-.16.57-.15.57-.14.58-.13.58-.12.58-.12.59-.1.58-.1.6-.09.59-.08.6-.07.6-.06.6-.05.61-.05.61-.03.61-.02.61-.02h.62l1.09.02 1.09.08 1.09.12 1.08.17 1.08.23 1.07.27 1.06.33 1.06.37 1.06.42 1.04.47 1.05.53 1.04.57 1.03.62 1.03.67 1.02.72 1.02.78 1.02.82 1 .87 1.01.92.99.97 1 1.02.98 1.07.99 1.12.97 1.17.97 1.22.97 1.27.96 1.32.96 1.36.95 1.42.94 1.47.94 1.52.94 1.57.93 1.61.93 1.67.91 1.72.92 1.76.91 1.82.9 1.87.9 1.91.9 1.97.75 216.19-.07 3.77-.23 3.73-.37 3.68-.52 3.64-.66 3.59-.8 3.55-.94 3.49-1.06 3.43-1.2 3.37-1.33 3.31-1.44 3.25-1.57 3.18-1.69 3.1-1.8 3.04-1.92 2.95-2.02 2.88-2.13 2.79-2.24 2.71-2.33 2.61-2.43 2.53-2.53 2.43-2.62 2.34-2.7 2.23-2.79 2.13-2.88 2.02-2.95 1.92-3.04 1.8-3.1 1.69-3.18 1.57-3.24 1.45-3.31 1.32-3.38 1.2-3.43 1.07-3.49.93-3.54.8-3.59.66-3.64.52-3.68.38-3.73.22-3.76.08-123.14-.01h-1.27l-.42-.01-.42-.01-.42-.01-.43-.01-.42-.01-.42-.02-.41-.02-.42-.02-.42-.02-.42-.03-.42-.02-.41-.03-.42-.03-.41-.03-.42-.04-.41-.03-.42-.04-.41-.04-.41-.04-.42-.04-.41-.05-.41-.05-.41-.04-.41-.06-.41-.05-.41-.05-.4-.06-.41-.06-.41-.06-.4-.06-.41-.06-.41-.06-.4-.07-.4-.07-.41-.07-.4-.07-.4-.07-2.15-.03h-.36l-.02.01h-.53l-2.06-.02-2.05-.08-2.03-.13-2.01-.18-1.98-.23-1.97-.28-1.94-.33-1.92-.39-1.9-.42-1.88-.48-1.86-.52-1.84-.57-1.82-.61-1.79-.66-1.78-.69-1.75-.74-1.73-.78-1.71-.82-1.69-.87-1.67-.89-1.65-.94-1.62-.98-1.61-1.01-1.58-1.04-1.56-1.08-1.54-1.11-1.52-1.15-1.5-1.18-1.47-1.21-1.46-1.24-1.43-1.27-1.41-1.3-1.39-1.32-1.37-1.35-1.34-1.38-1.33-1.41-1.3-1.43-1.28-1.45-1.26-1.47-1.24-1.5-1.23-1.52-1.21-1.55-1.19-1.56-1.18-1.59-1.15-1.6-1.14-1.63-1.13-1.64-1.1-1.66-1.09-1.68-1.07-1.69-1.05-1.72-1.04-1.72-1.02-1.74-1.01-1.76-.99-1.77-.97-1.78-.96-1.8-.95-1.81-.92-1.82-.91-1.83-.9-1.84-.88-1.86-.87-1.86-.86-1.87-.83-1.88-.83-1.88-.81-1.9-.8-1.9-.78-1.9-.77-1.91-.76-1.92-.74-1.92-.73-1.92-.72-1.93-.7-1.93-.69-1.93-.68-1.94-.67-1.93-.65-1.94-.65-1.93-1.24-3.86-1.2-3.86-1.16-3.84-1.1-3.82-1.07-3.81-1.02-3.78-.97-3.74-.94-3.72-.89-3.67-.85-3.63-.82-3.58-.77-3.52-.74-3.47-.69-3.4-.67-3.33-.62-3.26-.59-3.19-.56-3.1-.53-3.02-.49-2.92-.46-2.83-.43-2.73-.4-2.62-.36-2.52-.35-2.4-.31-2.28-.29-2.15-.26-2.03-.23-1.89-.22-1.76-.18-1.61-.17-1.47-.14-1.31-.12-1.16-.1-1-.09-.83-.06-.66-.04-.48-.03-.31-.01-.12-.01-.15-.01-.16-.01-.15v-.47l.01-.15.01-.15.01-.16.01-.15.02-.15.02-.16.03-.15.02-.15.03-.15.03-.15.03-.15.04-.14.04-.15.04-.15.05-.14.05-.15.05-.14.05-.15.06-.14.05-.14.07-.14.06-.14.07-.14.07-.14.07-.13.07-.14.08-.13.08-.13.08-.13.09-.13.08-.13.09-.13.1-.12.09-.13 2.4-3.11 2.3-3.09 2.2-3.05 2.12-3.01 2.02-2.97 1.93-2.94 1.84-2.89 1.76-2.85 1.67-2.8 1.59-2.76 1.51-2.71 1.44-2.66 1.36-2.6 1.29-2.56 1.21-2.49 1.15-2.44 1.07-2.38 1.02-2.33.95-2.26.88-2.19.83-2.13.77-2.06.72-2 .66-1.92.61-1.85.57-1.78.51-1.7.47-1.63.43-1.55.38-1.46.35-1.38.3-1.3.28-1.22.24-1.12.21-1.04.18-.95.15-.85.12-.76.11-.67.08-.56.01-.08.01-.07.01-.06.01-.07.01-.06.01-.06v-.06l.01-.06.01-.05v-.05l.01-.05v-.05l.01-.04v-.04l.01-.05v-.03l.01-.04v-.07l.01-.03v-.08l.01-.02v-.09l.01-.02v-.06l.02-.22.03-.22.03-.22.04-.22.04-.22.05-.21.06-.22.06-.21.07-.21.07-.2.07-.21.09-.2.08-.2.1-.19.1-.2.1-.19.11-.19.11-.18.12-.18.12-.18.12-.18.14-.17.13-.17.14-.16.15-.16.15-.16.15-.16.16-.15.16-.14.16-.15.17-.13.18-.14.18-.13.18-.12.18-.12.19-.12.19-.11.2-.1.2-.11.2-.09.61-.28.61-.26.6-.27.6-.25.6-.24.59-.24.6-.24.59-.22.58-.22.59-.21.58-.2.57-.2.58-.19.57-.19.57-.17.56-.17.57-.16.56-.16.56-.15.55-.14.56-.13.55-.13.54-.12.55-.11.54-.11.54-.1.54-.09.53-.09.54-.08.53-.07.52-.07.53-.06.52-.05.52-.04.52-.04.52-.03.51-.03.51-.02.51-.01h1.35l.82.02.82.04.82.07.8.08.79.11.78.12.78.15.76.16.76.19.74.2.74.21.72.24.71.25.71.27.69.29.68.3.67.31.66.33.65.35.63.36.63.37.61.38.6.4.59.41.58.42.56.43.55.45.54.45.53.46.51.48.5.48.49.49.47.5.46.51.44.51.43.52.42.53.4.54.39.54v-24.43l.2-1.78.32-1.33.36-1.31.4-1.29.45-1.28.49-1.25.53-1.23.57-1.21.61-1.18.64-1.17.69-1.14.72-1.11.75-1.09.79-1.06.83-1.03.85-1.01.89-.97.93-.95.95-.91.98-.88 1.01-.85 1.04-.82 1.07-.78 1.09-.75 1.12-.71 1.14-.68 1.17-.64 1.19-.59 1.22-.56 1.23-.53 1.26-.47 1.27-.44 1.3-.4 1.31-.35 1.33-.31 1.35-.26 1.37-.22 1.38-.17 1.39-.12 1.41-.08 1.42-.03.62.01.62.02.62.02.61.03.61.05.61.05.61.06.6.08.6.08.6.09.59.09.59.11.59.12.59.12.58.14.58.14.57.15.57.16.57.17.57.18.56.18.55.19.56.2.55.21.54.22.54.22.54.23.54.24.52.25.53.25.52.26.52.27.51.27.51.29.5.29.5.29.5.31.49.31.48.31.48.33.01-.49V160.04l.01-.45v-1.72l.01-.41v-.81l.01-.38v-1.13l.01-.35v-.7l.01-.33v-.64l.01-.31v-.3l.01-.29v-.56l.01-.26v-.51l.01-.23v-.23l.01-.22V150l.01-.21v-.19l.01-.18v-.34l.01-.06v-.06l.01-.06v-.1l.01-.05V148.21l.01-.04v-.1l.01-.05v-.06l.01-.06.01-.06v-.07l.01-.08.01-.08.02-.08.01-.1.01-.1.02-.1.02-.12.02-.12.02-.13.02-.14.02-.15.32-1.33.37-1.31.4-1.3.45-1.27.49-1.25.53-1.24.57-1.21.61-1.18.65-1.17.68-1.14.72-1.11.76-1.09.79-1.06.82-1.03.86-1.01.89-.98.92-.94.95-.92.99-.88 1.01-.85 1.04-.82 1.06-.78 1.1-.75 1.12-.71 1.14-.67 1.17-.64 1.19-.6 1.21-.56 1.24-.52 1.26-.48 1.27-.43 1.3-.4 1.31-.35 1.33-.31 1.35-.26 1.36-.22 1.38-.17 1.4-.12 1.4-.07 1.42-.03 1.37.02 1.35.07zM199.19 216.34l-.23.01-.23.01-.23.01-.24.01-.23.02-.25.02-.24.02-.25.02-.25.03-.25.03-.26.04-.26.03-.27.04-.27.04-.27.05-.27.05-.28.05-.28.05-.28.06-.29.06-.29.07-.3.07-.29.07-.3.07-.31.08-.31.08-.31.09-.31.09-.32.09-.32.1-.32.1-.33.1-.33.11-.33.11-.34.11-.34.12-.35.13-.34.12-.18.96-.2 1.03-.22 1.11-.25 1.18-.28 1.25-.31 1.32-.35 1.39-.37 1.45-.41 1.53-.45 1.58-.49 1.66-.52 1.71-.56 1.78-.61 1.83-.65 1.9-.69 1.95-.74 2.01-.79 2.06-.84 2.12-.89 2.17-.94 2.22-1 2.27-1.05 2.32-1.11 2.36-1.16 2.41-1.23 2.46-1.29 2.5-1.34 2.54-1.42 2.58-1.48 2.62-1.54 2.66-1.62 2.7-1.68 2.73-1.76 2.77-1.83 2.8-1.9 2.83-1.98 2.86-2.06 2.9-2.13 2.92-2.22 2.94.03.23.02.24.03.25.03.26.02.26.03.27.03.28.03.29.04.29.03.31.04.31.03.31.04.33.04.33.04.34.04.34.04.36.04.36.04.37.05.37.04.38.05.39.05.4.05.4.05.41.05.42.06.42.05.43.06.44.06.44.05.45.06.46.07.46.06.47.06.47.07.49.06.48.07.5.07.5.07.5.12.86.13.87.13.89.13.91.14.92.14.93.14.95.15.97.15.98.16.99.16 1.01.16 1.02.17 1.04.18 1.05.18 1.06.18 1.07.19 1.09.19 1.1.19 1.11.2 1.12.21 1.14.21 1.14.21 1.16.22 1.16.22 1.18.23 1.19.23 1.2.24 1.2.24 1.22.25 1.23.25 1.23.26 1.24.26 1.25.27 1.26.27 1.27.28 1.28.29 1.28.28 1.29.3 1.29.3 1.31.6 2.62.64 2.65.65 2.67.68 2.69.7 2.71.72 2.72.75 2.73.77 2.75.8 2.76.81 2.76.85 2.76.87 2.78.89 2.77.92 2.77.94 2.76.97 2.76.99 2.76 1.02 2.74 1.04 2.73 1.07 2.72 1.1 2.71 1.12 2.68 1.15 2.67 1.17 2.64 1.2 2.62 1.23 2.59 1.25 2.57 1.29 2.53 1.31 2.51 1.33 2.46 1.37 2.44 1.39 2.39 1.42 2.35 1.45 2.31 1.48 2.27 1.5 2.22 1.54 2.17 1.56 2.12 1.59 2.07 1.62 2.01 1.11 1.31 1.11 1.29 1.12 1.26 1.13 1.24 1.14 1.2 1.15 1.18 1.16 1.15 1.17 1.12 1.19 1.1 1.19 1.06 1.21 1.03 1.21 1.01 1.23.97 1.24.94 1.25.92 1.27.88 1.28.85 1.29.81 1.3.79 1.32.75 1.33.72 1.34.68 1.36.66 1.37.61 1.39.59 1.4.54 1.41.52 1.43.47 1.45.45 1.46.4 1.47.37 1.5.33 1.5.3 1.53.25 1.54.22 1.55.18 1.58.15 1.59.1 1.61.06 1.62.03h.13l.05-.01H256.25l.03.01h.04l2.74.03 1.46.14.34.06.35.07.34.06.35.06.35.06.34.06.35.06.35.05.35.06.35.05.35.05.35.05.35.04.35.05.35.04.35.04.35.04.36.04.35.04.35.03.36.04.35.03.36.03.35.02.36.03.35.03.36.02.36.02.35.02.36.02.36.01.36.02.36.01.36.01.36.01.36.01h.36l.36.01H397.79l2.06-.05 2.05-.14 2.04-.24 2.03-.33 2.03-.42 2.01-.52 2-.61 1.99-.7 1.99-.8 1.97-.89 1.97-.98 1.95-1.08 1.94-1.17 1.94-1.27 1.92-1.35 1.92-1.45 1.9-1.55 1.9-1.64 1.89-1.73 1.87-1.82 1.87-1.92 1.85-2.01 1.85-2.1 1.84-2.2 1.83-2.29 1.81-2.39 1.81-2.48 1.8-2.57 1.79-2.66 1.78-2.76 1.76-2.85 1.76-2.95 1.75-3.03 1.74-3.14 1.73-3.22 1.72-3.32 1.71-3.41 1.7-3.5 1.69-3.6 1.69-3.7h.01V289.99l-.01.01h-.01l-.01.01v.01h-.01l-.01.01h-.01l-.01.01-.01.01-.01.01h-.01l-.01.01-.02.01-.01.01h-.01l-.01.01-.05.03-.01.01-.02.01-.02.01-.01.01-.02.01h-.01l-.01.01-.01.01-.01.01h-.01l-.11.08-.11.09-.11.08-.11.08-.11.08-.11.08-.12.08-.11.08-.11.08-.12.07-.11.08-.11.08-.12.08-.11.08-.11.07-.12.08-.11.07-.12.08-.12.08-.11.07-.12.07-.11.08-.12.07-.12.08-.12.07-.11.07-.12.07-.12.08-.12.07-.12.07-.12.07-.12.07-.12.07-.12.07-.12.07-.12.06-.12.07-.12.07-.12.07-.12.06-.04.02-.02.01-.03.02-.04.02-.04.02-.03.02-.06.03-.04.02-.11.06-.08.04-.04.02-.05.03-.04.02-.06.03-.04.02-.04.02-.12.07-.13.06-.12.06-.13.07-.12.06-.13.06-.12.06-.13.07-.12.06-.13.06-.12.06-.13.06-.13.06-.12.06-.13.06-.13.06-.13.05-.12.06-.13.06-.13.05-.13.06-.13.06-.12.05-.13.06-.13.05-.13.05-.13.06-.13.05-.13.05-.13.05-.13.06-.14.05-.13.05-.13.05-.13.05-.13.04-.14.05-.13.05-.13.05-.13.04-.02.01-.02.01h-.02l-.01.01-.02.01h-.02l-.02.01-.02.01h-.01l-.02.01h-.02l-.02.01-.01.01h-.02l-.02.01h-.02l-.02.01-.03.01-.04.01-.07.02-.04.01-.02.01h-.02l-.03.01-.02.01h-.02l-.02.01-.02.01h-.01l-.02.01h-.02l-.02.01-.02.01-.13.04-.14.05-.14.04-.14.05-.14.04-.14.04-.13.05-.14.04-.14.04-.14.04-.14.04-.14.04-.14.04-.14.04-.14.04-.14.04-.14.04-.15.04-.14.03-.14.04-.14.04-.14.03-.15.04-.14.03-.14.04-.14.03-.15.03-.14.03-.15.04-.14.03-.14.03-.15.03-.14.03-.15.03-.14.03-.15.02-.15.03-.14.03-.15.03-.14.02h-.02l-.02.01h-.04l-.02.01h-.06l-.02.01h-.05l-.03.01h-.05l-.04.01h-.05l-.03.01h-.09l-.16.03-.15.02-.15.03-.16.02-.15.02-.16.03-.15.02-.16.02-.15.02-.16.02-.15.02-.16.02-.15.02-.16.01-.15.02-.16.02-.16.01-.15.02-.16.01-.16.02-.15.01-.16.01-.16.02-.16.01-.15.01-.16.01-.16.01-.16.01-.16.01h-.15l-.16.01-.16.01h-.16l-.16.01h-.32l-.16.01H448.09l-.16-.01h-.32l-.17-.01h-.16l-.16-.01-.16-.01h-.16l-.16-.01-.16-.01-.16-.01-.16-.01-.16-.01-.16-.01-.16-.01-.15-.01-.16-.02-.16-.01-.16-.01-.16-.02-.16-.01-.15-.02-.16-.02-.16-.02-.15-.01-.16-.02-.16-.02-.15-.02-.16-.02-.16-.02-.15-.02-.16-.03-.15-.02-.16-.02-.16-.02-.15-.03-.16-.02-.05-.01-.05-.01-.05-.01-.04-.01-.05-.01-.05-.01-.05-.01-.05-.01-.05-.01-.05-.01-.05-.01-.05-.01-.05-.01-.05-.01-.05-.02-.05-.01-.04-.01-.05-.01-.05-.02-.05-.01-.05-.01-.05-.01-.14-.04-.05-.02-.05-.01-.05-.01-.05-.01-.05-.02-.05-.01-.04-.01-.05-.01-.05-.01-.05-.02-.05-.01-.05-.01-.05-.01-.04-.01-.05-.01-.11-.02-.1-.02-.1-.03-.11-.02-.1-.02-.1-.02-.11-.03-.1-.02-.1-.02-.11-.02-.1-.03-.1-.02-.11-.02-.1-.03-.1-.02-.1-.02-.11-.03-.1-.02-.1-.02-.1-.03-.11-.02-.1-.03-.1-.02-.1-.03-.1-.02-.11-.03-.1-.03-.1-.02-.1-.03-.1-.03-.1-.02-.1-.03-.1-.03-.1-.03-.1-.03-.1-.03-.1-.03-.09-.03-.1-.03-.1-.03-.06-.02-.05-.02-.06-.02-.05-.02-.06-.02-.05-.02-.06-.02-.05-.02-.06-.02-.05-.02-.06-.02-.05-.03-.06-.02-.05-.02-.05-.02-.06-.02-.05-.02-.05-.03-.06-.02-.05-.02-.06-.02-.05-.03-.05-.02-.06-.02-.16-.07-.05-.02-.05-.02-.06-.03-.05-.02-.05-.02-.06-.02-.05-.03-.05-.02-.06-.02-.05-.02-.05-.02-.06-.03-.14-.05-.09-.04-.09-.03-.09-.04-.17-.07-.09-.03-.09-.04-.09-.03-.08-.03-.09-.04-.09-.03-.09-.04-.09-.03-.08-.04-.09-.03-.09-.04-.09-.04-.08-.03-.09-.04-.09-.03-.08-.04-.09-.04-.09-.03-.08-.04-.09-.04-.08-.04-.09-.03-.09-.04-.08-.04-.09-.04-.08-.04-.09-.04-.08-.04-.08-.04-.09-.04-.08-.04-.08-.04-.09-.04-.08-.05-.05-.02-.06-.03-.05-.03-.06-.03-.05-.03-.05-.03-.06-.03-.05-.03-.05-.03-.06-.03-.05-.03-.05-.03-.05-.03-.06-.03-.05-.03-.05-.03-.05-.04-.05-.03-.06-.03-.05-.03-.05-.03-.05-.03-.05-.04-.06-.03-.05-.03-.15-.09-.06-.04-.05-.03-.05-.03-.05-.03-.05-.03-.06-.03-.05-.04-.05-.03-.05-.03-.06-.03-.05-.03-.05-.03-.06-.04-.06-.03-.07-.04-.06-.04-.06-.03-.06-.04-.07-.03-.06-.04-.06-.04-.07-.03-.06-.04-.06-.03-.07-.04-.06-.03-.13-.07-.06-.04-.06-.03-.07-.04-.06-.04-.06-.03-.07-.04-.06-.03-.06-.04-.07-.04-.06-.03-.06-.04-.06-.04-.07-.03-.06-.04-.06-.04-.06-.04-.07-.03-.06-.04-.06-.04-.06-.04-.06-.04-.06-.04-.06-.04-.06-.04-.02.09-.02.08-.02.09-.02.09-.02.09-.02.09-.02.09-.02.08-.02.09-.02.09-.02.09-.02.09-.02.08-.02.09-.02.09-.02.09-.02.08-.03.09-.02.09-.02.08-.02.09-.03.09-.02.08-.02.09-.02.09-.03.08-.02.09-.03.09-.02.08-.02.09-.03.09-.02.08-.03.09-.02.08-.03.09-.03.09-.02.08-.03.09-.03.08-.02.09-.01.03-.01.04-.01.03-.01.03-.01.04-.01.03-.02.03-.01.04-.01.03-.01.04-.01.03-.01.03-.01.04-.02.03-.01.03-.01.04-.01.03-.01.03-.02.03-.01.04-.03.1-.03.06-.01.04-.01.03-.01.03-.02.03-.01.04-.01.03-.01.03-.01.04-.01.03-.01.03-.01.04-.02.03-.01.03-.01.04-.01.03-.02.05-.01.06-.02.05-.02.05-.02.06-.02.05-.02.05-.02.06-.01.05-.02.05-.02.06-.02.05-.02.05-.02.06-.02.05-.02.05-.02.05-.02.06-.01.05-.02.05-.02.06-.02.05-.02.05-.02.06-.02.05-.02.05-.02.05-.02.06-.02.05-.02.05-.02.05-.02.06-.02.05-.02.05-.02.05-.02.06-.02.05-.02.05-.03.05-.02.06-.01.03-.02.04-.01.04-.02.03-.01.04-.02.03-.01.04-.02.04-.01.03-.02.04-.02.04-.01.03-.02.04-.01.04-.02.03-.01.04-.02.03-.02.04-.01.04-.02.03-.02.04-.01.03-.02.04-.01.03-.02.04-.02.04-.01.03-.02.04-.02.03-.01.04-.02.04-.02.03-.01.04-.02.03-.02.04-.01.03-.02.04-.02.03-.03.07-.02.05-.07.14-.02.05-.02.05-.02.05-.02.04-.02.05-.03.05-.02.04-.02.05-.02.05-.02.04-.03.05-.02.05-.02.05-.02.04-.02.05-.03.05-.02.04-.02.05-.02.05-.03.04-.02.05-.02.04-.02.05-.03.05-.02.04-.02.05-.02.04-.03.05-.02.05-.02.04-.03.05-.02.04-.03.05-.02.04-.02.05-.03.04-.02.04-.02.04-.01.03-.02.04-.02.03-.02.04-.02.04-.02.03-.02.04-.02.03-.01.04-.02.03-.02.04-.02.03-.02.04-.02.04-.02.03-.02.04-.02.03-.02.04-.02.03-.02.04-.02.03-.02.04-.02.03-.02.04-.02.03-.02.04-.02.04-.02.03-.02.04-.02.03-.02.04-.02.03-.02.04-.02.03-.02.04-.04.07-.02.03-.02.05-.03.04-.02.04-.03.05-.03.04-.02.05-.03.04-.02.04-.03.05-.03.04-.02.04-.03.05-.03.04-.02.04-.03.05-.02.04-.03.04-.03.04-.02.05-.03.04-.03.04-.02.05-.03.04-.03.04-.02.04-.03.05-.03.04-.03.04-.02.04-.03.05-.03.04-.02.04-.03.04-.11.18-.05.08-.03.05-.04.06-.05.07-.04.07-.05.06-.02.04-.02.03-.02.04-.02.03-.05.07-.02.03-.02.03-.02.04-.02.03-.03.03-.02.04-.02.03-.02.03-.02.04-.03.03-.02.04-.02.03-.02.03-.02.04-.03.03-.02.03-.02.03-.02.04-.03.03-.02.03-.02.04-.02.03-.03.03-.02.04-.02.03-.02.03-.03.04-.03.05-.03.04-.03.04-.03.04-.03.04-.03.04-.03.04-.04.05-.03.04-.03.04-.03.04-.03.04-.03.04-.03.04-.03.04-.03.04-.03.04-.03.04-.03.04-.03.05-.04.04-.03.04-.03.04-.03.04-.06.08-.12.16-.04.04-.06.08-.03.04-.03.04-.03.04-.03.04-.03.04-.03.04-.03.04-.02.03-.02.03-.03.03-.02.03-.03.03-.02.03-.03.03-.02.03-.02.03-.03.03-.02.03-.05.06-.05.06-.05.07-.02.03-.02.03-.03.03-.02.03-.03.03-.02.03-.03.03-.02.03-.03.03-.02.03-.02.03-.03.03-.02.03-.03.03-.02.03-.03.03-.02.03-.03.03-.02.03-.03.03-.02.03-.03.03-.04.04-.03.04-.04.04-.03.05-.04.04-.03.04-.04.04-.03.04-.04.04-.04.04-.03.04-.04.04-.03.04-.04.04-.04.04-.03.04-.04.04-.04.04-.03.04-.04.04-.04.04-.04.04-.03.04-.04.04-.04.04-.03.04-.04.04-.04.04-.04.04-.03.04-.04.04-.04.04-.04.04-.03.04-.04.04-.04.04-.07.08-.08.08-.02.02-.03.03-.02.02-.02.03-.03.03-.02.02-.03.03-.02.03-.05.05-.02.02-.07.08-.05.06-.03.02-.02.03-.02.02-.03.03-.02.03-.03.02-.02.03-.02.02-.03.03-.02.03-.03.02-.02.03-.02.02-.03.03-.02.02-.03.03-.02.02-.03.03-.02.02-.03.03-.02.02-.03.03-.02.02-.03.03-.05.05-.05.04-.05.05-.05.05-.05.05-.05.05-.05.05-.05.05-.05.04-.05.05-.05.05-.05.05-.05.05-.06.04-.05.05-.05.05-.05.05-.05.04-.05.05-.06.05-.05.04-.05.05-.05.05-.05.05-.05.04-.06.05-.05.05-.05.04-.05.05-.06.04-.05.05-.05.05-.05.04-.06.05-.05.05-.05.04-.05.05-.06.04-.05.05-.05.04-.02.02-.02.02-.02.01-.02.02-.02.02-.02.02-.02.01-.02.02-.02.02-.02.01-.02.02-.02.02-.02.01-.04.04-.08.07-.04.03-.03.03-.02.02-.04.03-.02.02-.02.02-.02.01-.02.02-.02.02-.02.01-.02.02-.02.02-.02.01-.02.02-.02.02-.02.01-.02.02-.02.02-.06.05-.07.05-.06.05-.07.05-.06.05-.06.05-.07.06-.06.05-.07.05-.06.05-.07.05-.06.05-.07.05-.06.05-.07.05-.06.05-.07.05-.06.05-.07.05-.06.05-.07.05-.07.05-.06.04-.07.05-.06.05-.07.05-.07.05-.06.05-.07.04-.07.05-.06.05-.07.05-.07.04-.06.05-.07.05-.07.04-.06.05-.07.05-.07.04-.06.05-.03.02-.03.02-.03.02-.03.02-.03.02-.03.01-.02.02-.03.02-.03.02-.03.02-.03.02-.03.02-.03.02-.03.02-.03.01-.03.02-.03.02-.03.02-.03.02-.03.02-.06.03-.06.04-.06.04-.03.01-.03.02-.03.02-.03.02-.03.02-.03.02-.03.01-.03.02-.03.02-.03.02-.02.02-.03.02-.03.02-.03.01-.05.03-.04.03-.05.03-.05.03-.04.03-.05.03-.05.03-.04.03-.05.03-.05.03-.05.03-.04.03-.05.03-.05.02-.04.03-.05.03-.05.03-.04.03-.05.03-.05.03-.05.03-.04.03-.05.02-.05.03-.05.03-.04.03-.05.03-.05.03-.05.02-.04.03-.05.03-.05.03-.05.03-.04.02-.05.03-.05.03-.05.03-.04.02-.05.03-.05.03-.03.02-.04.02-.03.01-.04.02-.03.02-.04.02-.03.02-.04.02-.03.02-.04.02-.03.02-.03.01-.04.02-.03.02-.04.02-.03.02-.04.02-.04.01-.03.02-.04.02-.03.02-.04.02-.03.01-.04.02-.03.02-.04.02-.03.02-.04.01-.03.02-.04.02-.03.02-.07.03-.04.02-.07.04-.07.03-.07.04-.04.02-.05.02-.05.02-.04.03-.05.02-.04.02-.05.02-.04.03-.05.02-.04.02-.05.03-.05.02-.04.02-.05.02-.04.03-.05.02-.05.02-.04.02-.05.03-.05.02-.04.02-.05.02-.05.03-.04.02-.05.02-.05.02-.04.03-.05.02-.05.02-.04.02-.05.02-.05.03-.04.02-.05.02-.05.02-.04.02-.05.02-.05.03-.05.02-.04.02-.04.02-.04.01-.07.03-.04.02-.04.02-.04.01-.03.02-.04.01-.04.02-.04.02-.03.01-.04.02-.04.01-.04.02-.04.02-.03.01-.04.02-.04.01-.04.02-.03.01-.04.02-.04.02-.04.01-.04.02-.03.01-.04.02-.04.01-.04.02-.04.02-.03.01-.04.02-.04.01-.04.02-.04.01-.03.02-.04.01-.04.02-.04.01-.04.02-.04.02-.05.02-.05.02-.05.01-.04.02-.05.02-.05.02-.05.02-.04.01-.05.02-.05.02-.05.02-.04.01-.05.02-.05.02-.05.02-.04.02-.05.01-.05.02-.05.02-.04.01-.05.02-.05.02-.05.02-.04.01-.05.02-.05.02-.05.01-.04.02-.05.02-.05.01-.05.02-.04.02-.05.01-.05.02-.05.01-.04.02-.05.02-.05.01-.05.02-.04.01-.04.01-.04.02-.04.01-.04.01-.04.02-.07.02-.04.02-.08.02-.12.04-.08.03-.04.01-.04.01-.04.02-.04.01-.04.01-.04.01-.04.02-.04.01-.04.01-.04.02-.04.01-.04.01-.04.01-.04.02-.04.01-.04.01-.04.02-.04.01-.04.01-.04.01-.04.01-.04.02-.05.01-.04.01-.05.01-.05.02-.05.01-.05.02-.05.01-.05.01-.05.02-.05.01-.05.01-.04.02-.05.01-.05.01-.05.02-.05.01-.05.01-.05.02-.05.01-.05.01-.05.01-.05.02-.05.01-.05.01-.05.01-.05.02-.05.01-.05.01-.05.01-.05.02-.05.01-.05.01-.05.01-.04.01-.05.02-.05.01-.05.01-.05.01-.05.01-.05.01-.05.02-.05.01-.04.01-.04.01-.08.01-.21.05-.08.02-.08.02-.04.01-.04.01-.04.01-.08.01-.04.01-.04.01-.04.01-.05.01-.04.01-.04.01-.04.01-.04.01-.04.01h-.04l-.04.01-.04.01-.04.01-.04.01-.04.01-.04.01h-.04l-.04.01-.05.01-.04.01-.04.01-.04.01-.05.01-.06.01-.05.01-.05.01-.06.01-.05.01-.05.01-.06.01-.05.01-.06.01h-.05l-.05.01-.06.01-.05.01-.06.01-.05.01-.06.01h-.05l-.05.01-.06.01-.05.01-.06.01h-.05l-.06.01-.05.01-.06.01h-.05l-.06.01-.05.01-.05.01-.11.01-.11.02h-.06l-.05.01-.06.01-.05.01h-.06l-.05.01-.04.01-.08.01-.15.02-.11.02h-.04l-.04.01-.08.01-.04.01h-.03l-.04.01h-.04l-.04.01h-.04l-.04.01h-.04l-.04.01h-.03l-.04.01h-.04l-.04.01h-.04l-.04.01-.04.01h-.08l-.03.01h-.04l-.04.01h-.04l-.04.01h-.04l-.04.01h-.04l-.07.01h-.07l-.08.01h-.07l-.07.01h-.08l-.07.01h-.07l-.07.01h-.08l-.07.01h-.07l-.08.01h-.07l-.08.01h-.14l-.08.01h-.14l-.08.01H389.11l-.07.01H388.89l-.07.01H388.6l-.08.01H388.23l-.08.01H387.81l-.02.01h-.16l-.02.01h-.08l-.08.01h-.09l-.02.01H387.22l-.02.01h-.23l-.04-.01h-.2l-.15-.01H386.15l-.15-.01h-.14l-.15-.01h-.14l-.15-.01-.14-.01-.15-.01h-.14l-.14-.01-.15-.01-.14-.01-.15-.01-.14-.01-.14-.01-.14-.02-.15-.01-.14-.01-.14-.01-.14-.02-.15-.01-.14-.02-.14-.01-.14-.02-.14-.01-.14-.02-.14-.02-.14-.01-.15-.02-.14-.02-.14-.02-.14-.02-.14-.02-.14-.02-.14-.02-.14-.02h-.02l-.03-.01h-.05l-.05-.01h-.03l-.05-.01-.06-.01h-.02l-.05-.01-.11-.01-.05-.01-.05-.01h-.06l-.02-.01-.06-.01h-.05l-.02-.01h-.06l-.02-.01h-.03l-.03-.01h-.05l-.03-.01h-.02l-.03-.01-.14-.02-.13-.02-.14-.03-.13-.02-.14-.03-.14-.03-.13-.02-.14-.03-.13-.03-.14-.03-.13-.03-.14-.03-.13-.03-.14-.03-.13-.03-.14-.03-.13-.03-.14-.03-.13-.03-.13-.04-.14-.03-.13-.04-.13-.03-.14-.04-.13-.03-.13-.04-.13-.03-.13-.04-.14-.04-.13-.04-.13-.03-.13-.04-.13-.04-.13-.04-.13-.04-.13-.04-.13-.04-.13-.04-.13-.05-.13-.04-.03-.01h-.02l-.03-.01-.02-.01-.03-.01-.02-.01h-.03l-.02-.01-.03-.01-.02-.01-.03-.01-.02-.01h-.03l-.02-.01-.02-.01-.03-.01-.05-.02-.02-.01-.05-.01-.05-.02-.05-.02-.02-.01-.05-.01-.05-.02-.05-.02-.02-.01-.05-.01-.12-.05-.13-.05-.13-.04-.14-.05-.13-.05-.13-.05-.13-.05-.13-.05-.13-.05-.13-.05-.13-.05-.13-.05-.13-.05-.13-.05-.13-.05-.13-.05-.12-.06-.13-.05-.13-.05-.13-.06-.13-.05-.13-.06-.12-.05-.13-.06-.13-.05-.13-.06-.12-.05-.13-.06-.13-.06-.12-.06-.13-.06-.13-.05-.12-.06-.13-.06-.12-.06-.13-.07-.12-.06-.13-.06-.12-.06-.12-.07-.13-.06-.01-.01-.02-.01-.01-.01h-.02l-.02-.02-.03-.01-.01-.01-.05-.03-.02-.01-.02-.01-.02-.01-.03-.02-.02-.01-.02-.01-.02-.01-.11-.06-.12-.07-.12-.06-.12-.06-.11-.07-.12-.06-.12-.07-.11-.06-.12-.07-.11-.07-.12-.07-.11-.06-.12-.07-.11-.07-.12-.07-.11-.07-.12-.07-.11-.07-.12-.07-.11-.07-.11-.07-.12-.07-.11-.08-.11-.07-.11-.07-.12-.07-.11-.08-.11-.07-.11-.08-.11-.07-.11-.08-.11-.07-.11-.08-.11-.07-.11-.08-.11-.08-.11-.08-.11-.07-.11-.08-.11-.08-.02-.01-.01-.01-.04-.03-.02-.01-.03-.03-.04-.02-.03-.02-.04-.03-.03-.02-.04-.03-.03-.02-.05-.04-.06-.03-.03-.03-.05-.03-.06-.04-.08-.06-.04-.02-.08-.07-.09-.06-.08-.07-.08-.06-.08-.06-.08-.07-.09-.06-.08-.07-.08-.06-.08-.07-.08-.06-.08-.07-.09-.06-.08-.07-.08-.07-.08-.06-.08-.07-.08-.06-.08-.07-.08-.07-.08-.06-.08-.07-.08-.07-.08-.07-.08-.06-.08-.07-.08-.07-.08-.07-.08-.07-.08-.07-.07-.07-.08-.06-.08-.07-.08-.07-.08-.07-.07-.07-.08-.08-.08-.07-.08-.07-.07-.07-.01.01-.01.01v.02l-.01.01-.02.02v.01l-.01.01-.02.02-.01.03-.01.01-.01.02-.03.03-.02.03-.01.02-.05.07-.02.03-.01.01v.01l-.02.02-.01.02-.02.02-.05.09-.05.09-.06.08-.05.09-.05.09-.05.08-.06.09-.05.08-.05.09-.06.08-.05.09-.06.08-.05.09-.05.08-.06.09-.05.08-.06.09-.05.08-.06.08-.06.09-.05.08-.06.09-.05.08-.06.08-.06.08-.05.09-.06.08-.06.08-.06.09-.05.08-.06.08-.06.08-.06.08-.06.08-.06.09-.06.08-.05.08-.06.08-.06.08-.06.08-.02.02-.02.02-.03.05-.02.02-.01.03-.04.04-.01.02-.04.05-.01.02-.02.02-.02.03-.03.04-.02.03-.01.02-.02.02-.04.04-.01.03-.02.02-.02.02-.01.02-.02.03-.02.02-.01.02-.02.02-.02.03-.02.02-.01.02-.04.04-.01.03-.02.02-.04.04-.01.03-.02.02-.07.08-.06.08-.07.08-.06.09-.07.08-.06.08-.07.08-.06.08-.07.08-.07.08-.06.09-.07.08-.07.08-.06.08-.07.08-.07.07-.06.08-.07.08-.07.08-.07.08-.07.08-.07.08-.06.08-.07.07-.07.08-.07.08-.07.08-.07.07-.07.08-.07.08-.07.07-.07.08-.07.08-.08.07-.07.08-.07.07-.07.08-.07.07-.07.08-.08.07-.01.01-.01.01-.01.01v.01l-.01.01-.01.01-.01.01-.01.01-.01.01-.01.01-.01.01-.01.01-.02.02-.02.02-.03.04-.03.03-.02.02-.01.01v.01l-.02.02-.01.01-.01.01h-.01l-.01.01-.01.01-.01.01-.01.01-.01.01-.01.01-.01.01-.08.08-.08.08-.08.08-.09.09-.08.08-.08.08-.09.08-.08.08-.09.08-.08.08-.09.08-.08.08-.09.08-.08.08-.09.08-.08.08-.09.07-.09.08-.08.08-.09.08-.09.08-.09.07-.08.08-.09.08-.09.07-.09.08-.09.08-.09.07-.08.08-.09.07-.09.08-.09.07-.09.08-.09.07-.1.08-.09.07-.09.08-.09.07-.09.07-.09.08-.02.01-.03.02-.02.01-.02.02-.02.02-.02.01-.02.02-.02.01-.02.02-.02.02-.03.01-.02.02-.04.03-.02.01-.02.02-.02.02-.05.03-.02.01-.02.02-.04.03-.11.08-.04.03-.03.02-.04.03-.02.02-.05.03-.02.01-.02.02-.02.02-.02.01-.07.06-.08.05-.07.05-.07.06-.08.05-.07.05-.07.06-.07.05-.08.05-.07.06-.07.05-.08.05-.07.05-.07.05-.08.06-.07.05-.08.05-.07.05-.07.05-.08.05-.07.05-.08.05-.07.05-.08.05-.07.05-.08.05-.07.05-.08.05-.07.05-.08.05-.08.05-.07.05-.08.05-.07.05-.08.04-.08.05-.08.05-.07.05-.08.05-.08.04-.03.02-.02.02-.03.02-.03.01-.03.02-.03.02-.03.02-.02.01-.03.02-.03.02-.03.02-.03.01-.03.02-.03.02-.02.01-.03.02-.03.02-.03.02-.03.01-.03.02-.03.02-.03.02-.03.01-.03.02-.03.02-.02.01-.03.02-.03.02-.03.02-.03.01-.03.02-.06.03-.03.02-.06.03-.03.02-.03.02-.05.03-.09.05-.09.05-.09.05-.09.05-.09.05-.09.05-.09.05-.09.05-.09.05-.09.05-.09.05-.09.05-.09.04-.09.05-.09.05-.09.05-.09.04-.1.05-.09.05-.09.04-.09.05-.09.05-.09.04-.1.05-.09.04-.09.05-.09.04-.1.05-.09.04-.09.05-.09.04-.1.04-.09.05-.1.04-.09.04-.09.05-.1.04-.09.04-.1.04-.09.05h-.02l-.02.01-.02.01-.01.01h-.01l-.03.02h-.01l-.01.01h-.02l-.02.02-.08.03-.04.02-.01.01-.01.01h-.02l-.02.01-.02.01-.01.01-.03.01h-.01l-.01.01-.02.01h-.01l-.01.01h-.02l-.01.01-.01.01h-.02l-.1.05-.11.04-.1.04-.11.05-.11.04-.1.05-.11.04-.11.04-.11.04-.1.04-.11.05-.11.04-.11.04-.11.04-.1.04-.11.04-.11.04-.11.03-.11.04-.11.04-.11.04-.11.04-.11.03-.11.04-.11.04-.11.03-.11.04-.11.03-.11.04-.11.03-.11.04-.11.03-.11.04-.11.03-.11.03-.11.04-.11.03-.12.03-.11.03-.11.04-.03.01-.04.01-.03.01-.04.01-.03.01-.04.01-.03.01-.03.01-.04.01h-.03l-.04.01-.03.01-.04.01-.03.01-.04.01-.03.01-.04.01-.03.01h-.03l-.04.01-.03.01-.04.01-.03.01-.04.01-.03.01h-.04l-.1.03-.07.02h-.04l-.03.01-.04.01-.03.01-.04.01-.03.01-.04.01h-.03l-.04.01-.08.02-.08.03-.09.02-.08.02-.08.02-.09.02-.08.02-.08.02-.09.01-.08.02-.08.02-.09.02-.08.02-.08.02-.09.02-.08.02-.09.01-.08.02-.08.02-.09.02-.08.01-.09.02-.08.02-.09.02-.08.01-.09.02-.08.01-.09.02-.08.02-.08.01-.09.02-.08.01-.09.02-.08.01-.09.02-.08.01-.09.02-.09.01-.08.01-.09.02h-.03l-.04.01-.04.01h-.04l-.04.01-.04.01h-.03l-.04.01-.04.01h-.04l-.04.01-.03.01h-.04l-.04.01-.04.01h-.04l-.03.01h-.04l-.04.01-.04.01h-.04l-.03.01h-.04l-.04.01h-.04l-.04.01h-.04l-.03.01-.04.01h-.04l-.04.01h-.04l-.04.01h-.03l-.04.01h-.04l-.04.01h-.04l-.04.01h-.04l-.11.01-.11.02-.11.01-.11.01-.11.02-.11.01-.12.01-.11.01-.11.01-.11.02-.11.01-.11.01-.12.01-.11.01-.11.01-.11.01h-.11l-.12.01-.11.01-.11.01-.11.01h-.12l-.11.01-.11.01h-.11l-.12.01h-.11l-.11.01h-.12l-.11.01h-.11l-.12.01H326.47l-.11.01H326.13l-.11.01H325.69l-.01.01h-.07l-.02.01h-.07l-.01.01h-.35l-.1-.01h-.4l-.1-.01h-.2l-.1-.01h-.2l-.1-.01h-.1l-.1-.01h-.1l-.1-.01h-.1l-.1-.01-.09-.01h-.1l-.1-.01h-.1l-.1-.01-.1-.01-.1-.01h-.1l-.1-.01-.09-.01-.1-.01h-.1l-.1-.01-.1-.01-.1-.01-.09-.01-.1-.01h-.1l-.1-.01-.01-.01h-.06l-.01-.01h-.04l-.03-.01-.06-.01-.05-.01h-.05l-.02-.01h-.03l-.02-.01h-.06l-.01-.01h-.02l-.09-.01-.09-.01-.09-.01-.09-.01-.08-.01-.09-.01-.09-.01-.09-.02-.08-.01-.09-.01-.09-.01-.08-.01-.09-.02-.09-.01-.09-.01-.08-.01-.09-.02-.09-.01-.08-.01-.09-.01-.09-.02-.08-.01-.09-.02-.08-.01-.09-.01-.09-.02-.08-.01-.09-.02-.08-.01-.09-.02-.09-.01-.08-.02-.09-.01-.08-.02-.09-.02-.08-.01-.09-.02-.08-.02-.09-.02-.08-.01-.01-.01h-.05l-.03-.01h-.01l-.03-.01h-.03l-.02-.01h-.02l-.02-.01h-.04l-.05-.02-1.15-.26-1.14-.29-1.12-.32-1.11-.36-1.09-.39-1.08-.42-1.07-.45-1.05-.48-1.03-.5-1.01-.54-1-.56-.98-.6-.96-.61-.94-.65-.92-.67-.9-.7-.88-.72-.86-.74-.84-.77-.82-.8-.79-.81-.77-.84-.74-.86-.72-.88-.7-.9-.67-.93-.64-.94-.62-.96-.59-.98-.56-.99-.53-1.02-.51-1.03-.48-1.05-.44-1.06-.42-1.08-.38-1.1-.36-1.11-.32-1.12-.29-1.14-.26-1.15-.06.04-.06.04-.06.04-.06.04-.06.04-.06.04-.06.04-.06.04-.06.03-.06.04-.06.04-.07.03-.06.04-.06.04-.06.03-.07.04-.06.03-.06.04-.06.04-.07.03-.06.04-.06.03-.06.04-.07.03-.06.04-.13.07-.06.03-.06.04-.07.03-.06.04-.06.03-.07.04-.06.03-.06.04-.06.04-.07.03-.06.04-.06.04-.06.03-.06.03-.05.04-.05.03-.06.03-.05.03-.05.03-.05.04-.06.03-.05.03-.05.03-.06.04-.05.03-.1.06-.06.04-.05.03-.05.03-.05.03-.06.04-.05.03-.05.03-.05.03-.06.03-.05.04-.05.03-.06.03-.05.03-.05.03-.06.03-.05.03-.05.03-.06.03-.05.03-.05.03-.06.03-.05.03-.06.03-.05.03-.06.03-.05.02-.09.05-.08.04-.08.04-.09.04-.08.04-.09.05-.09.04-.08.04-.09.04-.08.03-.09.04-.09.04-.08.04-.09.04-.09.04-.08.03-.09.04-.09.04-.08.04-.09.03-.09.04-.09.03-.08.04-.09.04-.09.03-.09.04-.09.03-.09.04-.08.03-.09.04-.09.03-.09.04-.09.03-.09.03-.09.04-.08.03-.09.04-.09.03-.09.04-.09.03-.05.02-.06.02-.05.02-.05.02-.06.02-.05.03-.05.02-.06.02-.05.02-.05.03-.05.02-.06.02-.05.02-.05.03-.06.02-.1.04-.05.03-.06.02-.05.02-.05.02-.05.03-.06.02-.05.02-.05.02-.06.03-.05.02-.05.02-.06.02-.05.02-.05.02-.06.02-.05.02-.05.02-.06.02-.05.02-.06.02-.05.02-.06.02-.05.02-.1.03-.1.03-.1.03-.1.04-.11.03-.1.03-.1.03-.1.02-.1.03-.1.03-.11.03-.1.03-.1.02-.1.03-.11.03-.1.02-.1.03-.11.02-.1.03-.1.02-.11.03-.1.02-.1.03-.11.02-.1.03-.11.02-.1.02-.1.03-.11.02-.1.02-.11.02-.1.03-.1.02-.11.02-.1.03-.11.02-.1.02-.11.02-.1.03-.11.02-.04.01-.05.01-.05.01-.05.01-.04.01-.05.01-.05.01-.05.01-.04.02-.05.01-.05.01-.05.01-.04.01-.05.02-.05.01-.04.01-.1.02-.05.02-.04.01-.05.01-.05.01-.04.01-.05.02-.05.01-.05.01-.04.01-.05.01-.05.01-.05.02-.04.01-.05.01-.05.01-.05.01-.04.01-.05.01-.05.01h-.05l-.05.01-.05.01-.14.02-.15.03-.14.02-.14.02-.15.02-.15.02-.14.02-.15.02-.14.02-.15.02-.14.01-.15.02-.15.02-.14.01-.15.02-.15.01-.14.01-.15.02-.15.01-.15.01-.14.01-.15.02-.15.01-.15.01-.15.01-.14.01h-.15l-.15.01-.15.01-.15.01h-.15l-.15.01h-.15l-.15.01h-.15l-.15.01h-.15l-.15.01h-.39l-.01.01h-.08l-.02.01h-.07l-.02.01h-.14l-.01.01h-.01l-.17-.01h-.51l-.17-.01h-.16l-.17-.01-.17-.01h-.17l-.16-.01-.17-.01-.17-.01-.17-.01-.16-.01-.17-.01-.16-.01-.17-.02-.17-.01-.16-.02-.17-.01-.16-.02-.17-.01-.16-.02-.17-.02-.16-.01-.17-.02-.16-.02-.16-.02-.17-.02-.16-.02-.16-.03-.17-.02-.16-.02-.16-.02-.17-.03-.16-.02-.16-.03-.16-.02-.17-.03-.16-.03h-.05l-.05-.01-.05-.01-.04-.01-.05-.01-.05-.01-.05-.01-.05-.01-.05-.01-.05-.01-.04-.01-.05-.02-.05-.01-.05-.01-.05-.01-.05-.01-.04-.01-.05-.02-.05-.01-.05-.01-.05-.01-.04-.02-.05-.01-.14-.04-.05-.01-.05-.01-.05-.01-.05-.02-.04-.01-.05-.01-.05-.01-.05-.01-.05-.02-.04-.01-.05-.01-.05-.01-.05-.01-.05-.01-.1-.03-.11-.02-.11-.02-.11-.03-.11-.02-.11-.03-.11-.02-.11-.03-.11-.02-.11-.03-.1-.02-.11-.03-.11-.02-.11-.03-.11-.03-.11-.02-.1-.03-.11-.03-.11-.03-.11-.02-.1-.03-.11-.03-.11-.03-.11-.03-.1-.03-.11-.03-.11-.03-.1-.03-.11-.03-.11-.03-.1-.03-.11-.03-.1-.04-.11-.03-.11-.03-.1-.04-.11-.03-.1-.04-.11-.03-.1-.04-.06-.01-.05-.02-.06-.02-.06-.03-.06-.02-.05-.02-.06-.02-.05-.02-.06-.02-.06-.02-.05-.02-.06-.02-.05-.03-.06-.02-.06-.02-.05-.02-.06-.03-.05-.02-.06-.02-.06-.02-.05-.03-.06-.02-.05-.02-.06-.03-.05-.02-.06-.02-.05-.03-.06-.02-.05-.02-.06-.03-.06-.02-.05-.02-.06-.03-.05-.02-.06-.02-.11-.05-.05-.03-.06-.02-.06-.02-.09-.04-.09-.04-.09-.04-.09-.04-.09-.03-.09-.04-.09-.04-.09-.04-.09-.04-.09-.04-.09-.03-.09-.04-.09-.04-.09-.04-.09-.04-.09-.04-.09-.04-.09-.04-.09-.04-.09-.04-.09-.04-.09-.05-.09-.04-.09-.04-.09-.04-.08-.04-.09-.04-.09-.05-.09-.04-.09-.04-.08-.05-.09-.04-.09-.04-.09-.05-.08-.04-.09-.05-.09-.04-.09-.05-.08-.04-.09-.05-.05-.03-.06-.03-.05-.03-.06-.03-.06-.03-.05-.03-.06-.03-.05-.03-.06-.03-.05-.03-.06-.03-.05-.03-.06-.03-.05-.04-.06-.03-.05-.03-.05-.03-.06-.03-.05-.03-.06-.04-.05-.03-.06-.03-.05-.03-.05-.03-.06-.04-.05-.03-.06-.03-.05-.03-.05-.03-.06-.04-.05-.03-.05-.03-.06-.04-.05-.03-.05-.03-.06-.03-.05-.04-.05-.03-.06-.03-.05-.04-.04-.02-.05-.03-.04-.02-.04-.03-.04-.03-.05-.02-.04-.03-.04-.02-.05-.03-.04-.02-.04-.03-.05-.02-.04-.02-.04-.03-.05-.02-.04-.03-.09-.05-.04-.02-.04-.02-.05-.03-.04-.02-.04-.03-.05-.02-.04-.03-.04-.02-.05-.02-.04-.03-.04-.02-.04-.03-.05-.03-.04-.02-.04-.03-.04-.02-.05-.03-.04-.03-.04-.02-.04-.03-.04-.03-.04-.02v36.24l.46.04.47.05.49.05.49.05.51.05.52.06.53.06.53.07.55.07.56.07.57.08.57.08.59.08.6.09.6.09.61.1.62.1.63.11.64.11.65.12.65.12.66.12.67.14.67.13.69.14.68.15.7.15.7.16.71.16.71.17.72.18.72.18.73.19.74.19.74.2.74.21.75.21.75.22.76.23.76.23 1.29.41 1.31.44 1.32.45 1.33.48 1.33.51 1.34.52 1.35.55 1.35.58 1.36.6 1.35.63 1.36.66 1.35.68 1.36.72 1.35.74 1.34.77 1.34.8 1.33.83 1.32.86 1.32.89 1.3.93 1.29.96 1.27.99 1.26 1.02 1.25 1.06 1.23 1.1 1.2 1.13 1.19 1.17 1.17 1.2 1.14 1.24 1.12 1.28 1.1 1.32 1.07 1.35 1.04 1.4 1.01 1.44.98 1.47.95 1.52.92 1.56.88 1.61.85 1.64.81 1.69.14.32.12.31.11.32.09.32.08.31.07.33.06.32.04.32.03.32.02.32v.32l-.01.32-.02.32-.03.32-.05.31-.06.31-.06.31-.08.31-.1.3-.1.3-.12.29-.12.29-.14.29-.15.28-.16.27-.17.27-.18.26-.19.26-.2.24-.21.25-.22.23-.23.22-.24.22-.25.21-.26.2-.27.19-.28.18-.29.17-.3.16-.3.15-.08.04-.09.03-.08.04-.09.04-.08.03-.09.04-.08.03-.09.03-.08.03-.09.03-.08.03-.09.03-.08.02-.09.03-.08.02-.09.02-.09.03-.08.02-.09.02-.08.02-.09.02-.09.01-.08.02-.09.02-.09.01-.08.02-.09.01-.09.01-.09.01-.08.01-.09.01-.09.01h-.08l-.09.01h-.09l-.08.01h-.18l-.09.01h-.08l-.24-.01-.23-.01-.23-.01-.23-.03-.23-.03-.23-.03-.22-.05-.23-.04-.22-.06-.23-.06-.22-.07-.22-.07-.21-.08-.22-.09-.21-.09-.21-.1-.21-.1-.2-.11-.2-.11-.2-.12-.19-.13-.2-.13-.18-.14-.19-.14-.18-.15-.17-.15-.18-.16-.17-.17-.16-.17-.16-.17-.15-.18-.15-.18-.15-.19-.14-.2-.13-.2-.13-.2-.13-.21-.11-.21-.12-.22-.1-.22-.6-1.25-.62-1.22-.65-1.19-.68-1.16-.71-1.13-.73-1.1-.76-1.08-.78-1.05-.81-1.02-.82-.99-.85-.97-.87-.95-.89-.91-.91-.89-.93-.87-.95-.84-.96-.82-.98-.79-.99-.78-1.01-.74-1.02-.73-1.03-.7-1.05-.68-1.05-.66-1.07-.63-1.08-.62-1.08-.59-1.09-.58-1.1-.55-1.11-.54-1.11-.51-1.11-.5-1.12-.48-1.12-.46-1.13-.44-1.12-.42-1.12-.41-1.13-.39-1.12-.37-1.12-.36-.99-.3-1-.29-1.01-.27-1.02-.26-1.02-.25-1.03-.24-1.04-.22-1.03-.21-1.04-.21-1.03-.19-1.03-.18-1.02-.17-1.01-.16-1.01-.15-.99-.14-.98-.14-.97-.12-.95-.12-.93-.11-.9-.1-.89-.1-.87-.09-.83-.08-.81-.07-.78-.07-.75-.07-.72-.06-.68-.06-.64-.05-.61-.04-.56-.05-.53-.04-.47-.04-.44-.03-.38-.04-.34-.03-.28-.03-.24-.02-.17-.03-.12-.03-19.19-5.72-.21-.06-.23-.08-.26-.1-.28-.14-.3-.16-.33-.19-.35-.21-.36-.25-.38-.27-.39-.3-.41-.33-.41-.37-.43-.39-.43-.42-.43-.46-.44-.48-.44-.52-.44-.55-.44-.58-.44-.62-.43-.64-.42-.69-.41-.71-.41-.76-.39-.78-.37-.82-.36-.86-.34-.89-.33-.93-.3-.97-.27-1-.26-1.05-.22-1.08-.2-1.11-.17-1.16-.13-1.2-.1-1.23-.07-1.28-.03-1.32.01-1.35.02-1.05.03-1.07.04-1.09.07-1.12.09-1.14.11-1.17.12-1.2.15-1.22.18-1.25.19-1.27.21-1.31.24-1.33.27-1.36.29-1.39.31-1.42.34-1.46.36-1.48.39-1.51.42-1.55.44-1.57.48-1.61.5-1.65.53-1.67.56-1.71.59-1.75.62-1.78.66-1.81.68-1.85.72-1.89.75-1.92.78-1.96.82-2 .86-2.03.88-2.08.93-2.11.96-2.15.99-2.19 1.03-2.24 1.08-2.27 1.1-2.31.01-.04v-.36l.01-.05V254.21l.01-.05V253.37l.01-.54v-1.19l-.02-.64-.01-.66-.03-.69-.03-.71-.04-.73-.05-.76-.06-.77-.07-.79-.07-.81-.09-.82-.09-.83-.11-.85-.11-.85-.12-.86-.14-.87-.14-.87-.16-.88-.17-.87-.17-.88-.19-.87-.21-.87-.21-.86-.23-.86-.23-.85-.26-.83-.26-.83-.28-.81-.29-.8-.31-.78-.32-.77-.33-.74-.35-.72-.36-.7-.38-.68-.39-.65-.41-.62-.43-.59-.23-.3-.23-.3-.24-.29-.23-.28-.23-.27-.24-.27-.23-.25-.24-.26-.23-.24-.24-.23-.25-.23-.24-.22-.25-.22-.25-.2-.25-.2-.26-.19-.26-.18-.27-.18-.27-.17-.28-.16-.29-.16-.29-.14-.29-.14-.3-.13-.31-.13-.32-.12-.32-.11-.34-.1-.34-.09-.35-.09-.35-.08-.37-.08-.38-.06-.39-.06-.39-.05-.41-.05-.42-.03-.43-.03-.44-.03-.45-.01h-.44zm23.74 71.16l-.87 2.42-.8 2.33-.75 2.26-.68 2.18-.63 2.1-.57 2.02-.51 1.94-.46 1.87-.41 1.79-.36 1.72-.32 1.65-.27 1.57-.22 1.5-.19 1.44-.15 1.36-.1 1.29-.08 1.23-.04 1.17-.01 1.09.03 1.11.05 1.03.07.96.09.9.11.82.12.77.13.7.15.65.15.58.16.54.17.48.16.44.17.39.17.34.17.3.16.27.15.23.15.2.13.16.12.14.11.11 6.65 1.97v-51.11l-1.01 2.59-.94 2.5zm100.9-155.55l-.8.06-.79.1-.78.12-.78.15-.76.17-.76.2-.75.22-.73.25-.72.27-.72.3-.7.31-.68.34-.68.36-.66.39-.65.4-.63.42-.62.45-.6.46-.59.48-.57.5-.56.52-.54.54-.52.55-.5.57-.48.59-.47.6-.44.62-.43.63-.4.65-.39.66-.36.67-.34.69-.32.7-.3.71-.27.73-.25.73-.23.75-.2.75v.03l-.01.11v.39l-.01.1v.36l-.01.12v.42l-.01.06v.4l-.01.07V167.09l.01 3.56v12.26l.01 4.52V196.99l.01 4.98v5.08l.01 5.15v5.21l.01 5.22v10.41l.01 5.14v5.06l.01 4.95v4.82l.01 4.66v4.47l.01 4.27V274.22l.01 3.48v6.01l.01 2.47v6l.03.91.05.91.08.89.12.88.14.86.17.86.2.84.23.83.25.81.29.8.3.78.34.76.36.75.38.74.41.71.43.7.46.68.48.66.5.64.52.62.55.6.56.58.59.55.6.54.62.51.65.49.66.46.68.45.7.41.71.39.73.37.74.34.76.31.78.29.79.26.8.23.82.2.83.17.84.14.86.12h.06l.06.01.07.01.06.01.06.01h.06l.07.01.06.01.06.01.06.01.13.02.06.01.06.01h.07l.06.01.06.01.07.01.06.01.06.01h.07l.06.01.06.01.06.01h.07l.06.01.06.01h.07l.06.01h.07l.06.01h.06l.07.01h.13l.06.01H325.57l.02-.01h.04l.02-.01h.1l.01-.01H326.1l.11-.01h.22l.11-.01h.11l.11-.01h.11l.11-.01.11-.01h.1l.11-.01.11-.01.11-.01.11-.01.11-.01.1-.01.11-.01.11-.01.11-.01.1-.01.11-.01.11-.01.11-.02.1-.01.11-.02.1-.01.11-.02.11-.01.1-.02.11-.01.1-.02.11-.02.1-.02.11-.02.1-.02.11-.02.1-.02.04-.01.04-.01.05-.01.04-.01.04-.01.04-.01.04-.01.04-.01.04-.01.04-.01.04-.02.04-.01.04-.01.04-.01.04-.02.04-.01.04-.01.04-.02.04-.01.04-.01.04-.02.04-.01.04-.01.08-.03.04-.01.04-.02.04-.01.04-.01.04-.01.04-.02.04-.01.04-.01.04-.02.04-.01.04-.01.05-.01.04-.01.04-.02.04-.01.07-.02.06-.02.07-.01.07-.02.07-.02.07-.02.07-.02.07-.02.13-.03.07-.02.07-.02.07-.02.07-.02.07-.02.06-.02.07-.02.07-.02.07-.01.07-.02.07-.02.06-.02.07-.02.07-.02.07-.02.06-.03.07-.02.07-.02.06-.02.07-.02.07-.03.06-.02.07-.02.07-.03.06-.02.07-.02.06-.03.07-.02.06-.03.06-.03.04-.02.04-.01.04-.02.04-.02.04-.02.04-.02.04-.02.04-.02.04-.02.04-.02.04-.02.04-.02.03-.02.04-.02.04-.02.04-.02.04-.03.04-.02.04-.02.03-.02.04-.02.08-.04.08-.05.04-.02.03-.02.04-.02.04-.03.04-.02.04-.02.04-.02.04-.02.04-.02.04-.02.04-.03.04-.02.04-.02.04-.02.04-.02.06-.03.06-.03.06-.03.06-.03.06-.03.06-.03.06-.03.06-.03.12-.06.06-.03.06-.03.06-.03.06-.03.06-.03.06-.03.06-.03.06-.03.06-.03.06-.03.06-.03.06-.03.06-.04.05-.03.06-.03.06-.03.06-.03.06-.03.06-.04.05-.03.06-.03.06-.04.06-.03.05-.03.06-.04.06-.03.06-.04.05-.03.06-.04.05-.04.04-.02.03-.02.04-.03.03-.02.03-.03.04-.02.03-.03.03-.02.04-.03.03-.02.03-.03.03-.03.04-.02.03-.03.03-.02.03-.03.04-.03.03-.02.03-.03.03-.03.03-.02.04-.03.03-.03.03-.03.06-.05.03-.03.04-.02.03-.03.03-.03.03-.02.04-.03.03-.03.03-.03.03-.02.03-.03.04-.02.03-.03.03-.03.04-.02.05-.05.06-.04.05-.04.05-.04.06-.04.05-.05.06-.04.11-.08.05-.04.06-.05.05-.04.05-.04.06-.04.05-.04.06-.05.05-.04.06-.04.05-.04.05-.05.06-.04.05-.04.05-.04.06-.05.05-.04.05-.04.06-.05.05-.04.05-.05.05-.04.05-.04.06-.05.05-.04.05-.05.05-.05.05-.04.05-.05.05-.04.05-.05.05-.05.03-.03.02-.02.03-.03.03-.03.02-.02.03-.03.03-.03.02-.03.03-.03.02-.03.03-.02.02-.03.03-.03.02-.03.03-.03.02-.03.03-.03.02-.03.02-.03.03-.03.02-.03.03-.03.04-.06.03-.02.02-.03.03-.03.02-.03.02-.03.03-.03.02-.03.03-.03.02-.03.03-.03.02-.03.03-.03.02-.02.03-.03.02-.03.03-.03.05-.05.05-.06.09-.1.05-.06.05-.05.05-.05.05-.06.04-.05.05-.06.05-.05.05-.05.05-.06.04-.05.05-.06.05-.05.05-.06.04-.05.05-.06.05-.05.05-.06.04-.05.05-.06.05-.05.04-.06.05-.05.04-.06.05-.06.04-.05.05-.06.04-.06.05-.06.04-.05.05-.06.04-.06.04-.06.05-.06.04-.06.04-.06.04-.06.02-.03.02-.02.02-.03.02-.03.02-.03.02-.03.01-.03.02-.03.02-.03.02-.03.01-.02.02-.03.02-.03.01-.03.02-.03.02-.03.01-.03.02-.04.02-.03.01-.03.02-.03.01-.03.05-.09.02-.03.01-.03.02-.03.02-.03.01-.03.02-.03.02-.03.01-.03.02-.03.02-.03.01-.03.02-.03.02-.03.01-.03.02-.03.04-.06.04-.07.04-.06.04-.07.05-.07.04-.06.04-.07.04-.06.04-.07.04-.07.04-.06.04-.07.04-.06.04-.07.04-.07.03-.06.04-.07.04-.07.04-.06.04-.07.04-.07.04-.06.03-.07.04-.07.04-.06.03-.07.04-.07.04-.07.03-.06.04-.07.03-.07.04-.07.03-.07.04-.07.03-.07.03-.07.04-.07.03-.07.03-.07.03-.07.02-.03.01-.03.01-.03.01-.03.01-.03.01-.03.01-.03.02-.03.01-.03.01-.03.01-.04.01-.03.01-.03.01-.03.01-.03.01-.03.01-.03.01-.03.01-.03.01-.03.03-.1.01-.03.01-.03.01-.03.01-.03.01-.03.01-.03.01-.04.01-.03.01-.03.01-.03.01-.03.01-.03.01-.03.01-.03.01-.03.01-.03.01-.03.03-.08.03-.07.03-.08.03-.07.03-.08.03-.07.02-.08.03-.07.03-.08.03-.07.03-.08.02-.07.03-.08.03-.07.02-.08.03-.08.02-.07.03-.08.03-.07.02-.08.03-.08.02-.07.03-.08.02-.07.02-.08.03-.08.02-.07.02-.08.02-.08.03-.08.02-.07.02-.08.02-.08.02-.08.02-.08.02-.08.02-.07.02-.08.02-.08.01-.08.01-.03.01-.04v-.03l.01-.03.01-.03v-.04l.01-.03v-.03l.01-.03v-.04l.01-.03v-.03l.01-.04v-.03l.01-.03v-.04l.01-.03v-.06l.01-.04v-.03l.01-.03v-.04l.01-.1.01-.06v-.04l.01-.03v-.07l.01-.03v-.03l.01-.03v-.04l.01-.03v-.03l.01-.03v-.04l.01-.07.01-.07.02-.07.01-.07.01-.07.01-.07.01-.07.01-.07.01-.07.01-.07.01-.07.01-.07.01-.07.01-.07.01-.07.01-.07.01-.07.01-.07.01-.07.01-.07v-.07l.01-.07.01-.07.01-.07v-.07l.01-.07.01-.07v-.07l.01-.07.01-.08v-.07l.01-.07v-.07l.01-.07v-.07l.01-.07v-.07l.01-.08v-.14l.01-.01v-.07l.01-.02v-.06l.01-.01v-.03l.01-.06v-.01l.01-.03v-.05l.01-.02v-.16l-.01-.03v-.1l-.01-.02v-.09l-.01-.02v-.07l-.01-.02v-.05l-.01-.02v-.07l-.01-.02v-.04l-.01-.02v-.11l-.01-.05v-.11l-.01-.06v-.11l-.01-.06V291.36l-.01-.06v-.12l-.01-.06v-.19l-.01-.06v-.19l-.01-.07v-.2l-.01-.07v-.27l-.01-.08V289.7l-.01-.07v-.54l-.01-.86v-10.35l.01-3.12v-7.08l.01-3.91v-4.13l.01-4.33.01-4.49v-4.64l.01-4.76.01-4.85.01-4.92.01-4.97.01-4.99v-4.98l.01-4.96.01-4.91.01-4.83.01-4.73.01-4.6.01-4.45v-4.28l.01-4.08.01-3.85.01-3.61v-3.33l.01-3.04v-2.72l.01-2.36v-2l.01-1.61v-2.19l-.02-.95-.06-.95-.1-.94-.13-.93-.17-.91-.21-.91-.24-.89-.27-.87-.31-.86-.34-.84-.37-.83-.4-.81-.43-.79-.46-.77-.49-.75-.51-.73-.55-.72-.57-.68-.59-.67-.62-.64-.65-.62-.66-.6-.69-.57-.72-.54-.73-.52-.75-.48-.78-.46-.79-.43-.81-.4-.82-.37-.85-.34-.86-.31-.87-.27-.89-.24-.9-.2-.92-.17-.93-.13-.94-.1-.95-.06-.96-.02-.81.01-.81.05zm62.37 21.5l-.74.03-.74.06-.73.08-.73.11-.71.13-.71.15-.7.17-.69.19-.69.21-.67.24-.67.25-.65.28-.65.29-.63.31-.62.33-.61.35-.6.37-.59.38-.58.4-.56.42-.55.44-.53.45-.52.46-.51.49-.5.49-.47.51-.47.53-.44.54-.44.55-.41.57-.4.57-.38.59-.37.61-.34.61-.33.63-.31.63-.29.65-.27.65-.26.67v.02l-.01.02-.01.02v.01l-.01.02-.01.02-.01.02v.02l-.01.01-.01.02-.01.02v.02l-.02.03-.02.04v.02l-.05.11-.01.01-.01.04-.02.04-.01.01v.02l-.01.02-.01.02-.01.02v.01l-.01.02-.01.02-.01.02v.02l-.01.01-.01.02-.05.18-.05.17-.06.17-.05.18-.05.17-.04.18-.05.17-.05.18-.04.17-.04.18-.05.17-.04.18-.03.18-.04.17-.04.18-.03.18-.04.18-.03.18-.03.18-.03.17-.03.18-.02.18-.03.19-.02.18-.02.18-.03.18-.02.18-.01.18-.02.19-.02.18-.01.18-.01.19-.01.18-.01.19-.01.18-.01.19v.19l-.01.18v.38l-.01 106.18v.37l.01.19v.18l.01.19.01.18.01.19.01.18.01.18.02.19.02.18.01.18.02.18.02.18.02.18.02.18.03.18.02.18.03.18.03.18.03.18.03.17.03.18.03.18.04.18.03.17.04.18.04.17.04.18.04.17.04.17.05.18.04.17.05.17.05.17.04.18.05.17.06.17.05.17.05.17.01.01v.02l.01.01.01.02v.02l.01.01v.02l.01.02.01.01v.02l.01.01.01.02v.02l.01.01.01.02.01.03.01.01.01.02v.02l.01.01.03.08.02.03.01.01.01.04.01.03.01.01.01.02v.01l.01.02.01.02v.01l.01.02.05.15.06.15.05.15.06.15.06.15.06.14.06.15.06.15.06.15.06.14.06.15.07.15.06.14.07.15.07.14.06.14.07.15.07.14.07.14.07.14.08.14.07.14.07.14.08.14.08.14.07.14.08.14.08.13.08.14.08.14.08.13.09.14.08.13.08.13.09.14.08.13.09.13.09.13.09.13.09.13.32.44.33.44.34.43.35.42.36.41.37.41.38.39.39.39.4.38.41.36.41.36.42.35.43.34.44.33.45.32.46.31.46.29.47.29.47.28.49.26.49.26.5.24.5.23.51.22.51.2.53.2.53.18.53.17.54.16.54.14.55.13.56.12.56.11.56.09.57.08.57.06.58.05.58.04.58.02h.95l.36-.01.36-.01.36-.02.35-.03.36-.03.35-.04.35-.04.35-.04.35-.05.35-.06.34-.06.34-.07.35-.07.33-.07.34-.08.34-.09.33-.09.33-.1.33-.1.33-.1.32-.11.33-.11.32-.12.32-.13.31-.12.32-.14.31-.13.31-.14.3-.15.31-.15.3-.15.3-.16.29-.16.3-.17.29-.17.29-.17.28-.18.28-.18.28-.19.47-.32.45-.33.44-.34.44-.35.43-.36.41-.37.41-.38.4-.39.39-.4.38-.41.38-.42.36-.43.35-.43.34-.45.33-.45.32-.46.31-.47.3-.48.28-.48.28-.49.26-.5.25-.51.24-.51.23-.52.21-.52.21-.54.19-.53.17-.55.17-.55.15-.55.14-.56.12-.57.11-.57.1-.58.08-.58.07-.58.05-.59.04-.6.03-.59.01-.6V176.75l-.03-.96-.06-.95-.09-.94-.14-.93-.17-.92-.2-.9-.24-.89-.27-.88-.31-.86-.34-.84-.37-.83-.4-.81-.43-.79-.46-.77-.49-.76-.51-.73-.55-.71-.57-.69-.59-.67-.62-.65-.65-.62-.67-.59-.69-.57-.71-.55-.73-.51-.76-.49-.77-.46-.79-.43-.81-.4-.83-.37-.84-.34-.86-.31-.88-.27-.89-.24-.9-.2-.92-.17-.93-.14-.94-.09-.95-.06-.96-.02h-.05l-.76.01zm-123.39 18.5l-.54.05-.55.08-.54.09-.55.12-.55.14-.55.17-.55.18-.55.21-.55.23-.56.25-.55.27-.56.29-.56.32-.56.34-.56.36-.56.38-.56.4-.56.42-.56.45-.57.47-.57.49-.56.51-.57.54-.57.55-.57.58-.57.6-.57.62-.58.65-.57.66-.58.69-.58.71-.57.73-.58.75-.58.78-.58.79-.59.82-.58.84-.58.86h.01v83.88l.01.04.01.04.01.05.01.04.01.04.01.04.02.04.01.05.01.04.01.04.01.04.02.04.01.04.01.04.02.04.01.05.01.04.01.04.02.04.01.04.01.04.02.04.01.04.01.04.02.04.01.04.02.04.01.04.01.05.03.08.01.04.03.08.02.04.01.04.01.04.02.04.01.04.01.04.02.05.02.05.01.04.02.05.01.05.02.04.01.05.03.09.02.05.03.09.01.05.02.04.01.05.02.05.01.04.02.05.01.05.02.04.01.05.02.05.02.04.01.05.02.05.01.04.02.05.02.04.01.05.02.05.02.04.01.05.02.04.02.05.02.04.01.05.02.04.02.05.02.04.02.05.02.04.02.05.02.04.02.04.02.05.02.04.02.04.02.05.02.04.02.04.02.05.03.04.02.04.02.04.02.05.02.04.03.04.02.04.02.04.02.05.02.04.03.04.02.04.02.04.03.05.02.04.02.04.05.08.02.05.02.04.02.04.03.04.02.04.02.05.02.04.03.04.02.04.02.05.02.04.03.04.02.04.02.05.02.04.03.04.02.05.02.04.04.09.03.04.02.04.02.04.02.05.03.04.02.04.02.04.02.05.02.04.03.04.02.04.02.05.03.04.02.04.02.04.02.05.03.04.02.04.02.04.03.04.02.05.03.04.02.04.02.04.03.04.02.05.03.04.02.04.03.04.02.04.03.04.03.04.02.05.03.04.03.04.02.04.03.04.03.04.03.04.02.03.03.04.03.04.03.04.03.04.02.04.03.04.03.04.03.03.03.04.03.04.03.04.03.04.03.04.03.03.02.04.03.04.03.04.03.03.03.04.03.04.06.08.03.03.03.04.03.04.03.04.03.03.03.04.03.04.03.04.02.04.03.03.03.04.03.04.03.04.03.03.03.04.03.04.02.04.03.04.03.03.03.04.08.12.03.03.03.04.03.04.03.04.03.04.03.03.02.04.03.04.03.04.03.04.03.03.03.04.03.04.03.04.03.03.03.04.03.04.03.04.03.03.03.04.03.04.03.03.03.04.03.04.03.03.04.04.03.03.03.04.04.03.03.04.03.03.04.04.03.03.04.04.03.03.04.04.03.03.04.04.03.03.04.03.03.04.04.03.03.04.04.03.04.03.03.04.04.03.03.03.04.04.03.03.04.03.04.04.03.03.04.03.07.07.07.06.04.04.03.03.04.03.03.03.04.04.04.03.03.03.04.04.03.03.03.03.04.03.03.04.03.03.04.03.03.03.03.04.04.03.1.1.03.03.03.03.04.03.03.04.03.03.04.03.03.03.03.04.04.03.03.03.03.03.04.03.03.04.03.03.04.03.03.03.04.03.03.03.04.03.03.03.03.03.04.03.03.03.04.03.03.03.04.03.04.03.07.06.04.03.04.03.04.04.04.03.05.03.04.03.04.03.04.03.04.03.04.03.05.03.04.03.04.03.04.03.05.03.04.03.04.03.05.02.04.03.04.03.05.03.04.03.04.03.05.02.04.03.04.03.05.03.04.03.04.02.05.03.04.03.04.03.05.03.04.02.04.03.05.03.04.03.04.03.05.02.03.03.04.02.04.03.03.02.04.03.04.02.03.03.04.02.03.03.04.02.04.03.03.02.04.03.07.05.03.02.04.03.04.02.03.03.04.02.03.03.04.02.03.03.04.02.04.02.03.03.04.02.04.03.03.02.04.02.04.03.03.02.04.02.04.03.03.02.04.02.04.03.04.02.04.02.03.02.05.03.05.03.05.02.05.03.05.03.05.02.06.03.05.03.05.02.05.03.05.02.05.03.05.02.05.02.06.03.05.02.05.03.05.02.05.02.06.03.05.02.05.02.05.03.06.02.05.02.05.02.06.03.05.02.05.02.05.03.06.02.05.02.05.03.05.02.06.02.05.02.05.03.06.02.05.03.05.02.04.01.03.02.04.01.03.02.04.02.03.01.04.02.04.01.03.02.04.02.03.01.04.02.03.02.04.01.03.02.07.03.04.02.03.02.04.01.04.02.03.02.04.01.03.02.04.01.03.02.04.02.03.01.04.02.04.01.03.02.04.01.03.02.04.01.04.02.03.01.04.02.03.01.04.01.04.01.06.03.07.02.06.02.07.02.06.03.06.02.07.02.06.02.07.02.06.02.07.02.06.02.07.01.07.02.06.02.07.02.06.02.07.01.06.02.07.02.07.01.06.02.07.02.06.01.07.02.07.02.06.01.07.02.07.01.06.02.07.01.07.02.06.02.07.01.07.02.06.01.07.02.07.01.07.02.06.01.03.01h.03l.03.01.03.01.03.01h.03l.03.01.03.01.02.01.03.01h.03l.03.01.03.01.03.01.03.01.05.01.06.02.03.01.03.01.03.01h.03l.03.01.02.01.03.01.03.01h.03l.03.01.03.01.03.01h.03l.03.01.03.01h.02l.03.01.03.01h.03l.03.01h.03l.1.02.1.02.1.01.09.02.1.02.1.01.1.02.1.01.1.01.1.02.1.01.1.01.1.02.1.01.1.01.1.01.1.01.1.01.1.01.1.01.1.01.1.01.1.01h.1l.1.01.11.01h.1l.1.01h.1l.1.01h.11l.1.01h.31l.1.01H263.98l.02-.01h.05l.01-.01h.49l.09-.01h.18l.09-.01H265.08l.09-.01h.09l.09-.01h.09l.09-.01h.09l.09-.01.09-.01h.08l.09-.01.09-.01.09-.01h.09l.08-.01.09-.01.09-.01.09-.01.09-.01.08-.01.09-.01.09-.01.08-.01.09-.01.09-.02.09-.01.08-.01.09-.01.08-.02.09-.01.04-.01h.03l.03-.01.04-.01h.03l.04-.01.03-.01.03-.01h.04l.03-.01.04-.01.03-.01.03-.01h.04l.03-.01.04-.01.03-.01.03-.01.04-.01h.03l.03-.01.04-.01.06-.02.07-.02.03-.01.04-.01h.03l.03-.01.04-.01.03-.01.03-.01.04-.01.03-.01h.03l.04-.01.03-.01.04-.01.03-.01.05-.01.06-.01.05-.01.06-.02.05-.01.06-.01.05-.01.06-.02.05-.01.12-.02.05-.01.06-.02.05-.01.06-.01.05-.01.05-.02.06-.01.05-.01.06-.02.05-.01.06-.01.05-.02.06-.01.05-.01.06-.02.05-.01.06-.02.05-.01.05-.01.06-.02.05-.01.05-.02.06-.02.05-.01.06-.02.05-.02.05-.01.06-.02.05-.02.04-.01.03-.01.04-.01.04-.02.04-.01.04-.01.03-.02.04-.01.04-.01.04-.02.03-.01.04-.02.04-.01.04-.02.03-.01.04-.02.04-.01.03-.02.04-.01.04-.02.03-.01.04-.02.04-.02.03-.01.04-.02.07-.03.08-.03.03-.02.04-.01.03-.02.04-.01.04-.02.03-.01.04-.02.04-.01.03-.02.04-.01.04-.02.04-.02.05-.02.05-.01.04-.02.14-.06.05-.02.04-.01.05-.02.04-.02.05-.02.05-.02.04-.02.05-.01.04-.02.05-.02.05-.02.04-.02.05-.02.04-.02.05-.02.04-.01.05-.02.04-.02.05-.02.05-.02.04-.02.05-.02.04-.02.04-.02.05-.03.04-.02.05-.02.04-.02.05-.02.04-.02.04-.02.05-.03.04-.02.04-.02.04-.02.03-.02.04-.02.04-.02.03-.02.04-.02.04-.02.03-.02.04-.02.03-.02.04-.02.04-.02.03-.02.04-.02.03-.02.04-.03.03-.02.04-.02.03-.02.04-.02.04-.02.03-.03.04-.02.03-.02.04-.02.03-.02.04-.03.03-.02.04-.02.03-.02.04-.02.14-.09.03-.03.04-.02.03-.02.04-.02.04-.03.04-.02.04-.02.04-.03.04-.02.04-.03.04-.02.04-.02.12-.08.04-.02.04-.02.04-.03.04-.02.04-.03.04-.02.04-.03.04-.02.04-.02.04-.03.04-.02.04-.03.04-.02.04-.03.04-.02.04-.03.04-.02.04-.03.04-.02.04-.03.04-.02.04-.03.04-.02.04-.03.03-.03.04-.02.04-.03.04-.02.04-.03.03-.03.04-.02.03-.03.03-.02.04-.03.03-.02.04-.03.03-.03.03-.02.04-.03.03-.02.03-.03.03-.03.04-.02.03-.03.03-.03.03-.02.04-.03.03-.03.03-.03.03-.02.04-.03.03-.03.03-.02.03-.03.07-.06.06-.05.07-.06.03-.02.03-.03.03-.03.03-.03.04-.02.03-.03.03-.03.03-.02.04-.03.03-.03.04-.03.03-.03.04-.03.03-.03.04-.03.03-.03.04-.03.03-.03.07-.06.04-.03.03-.03.04-.03.03-.03.04-.02.03-.03.04-.03.03-.03.04-.03.03-.03.04-.03.03-.03.04-.03.03-.03.04-.03.03-.03.03-.03.04-.03.03-.03.04-.04.03-.03.03-.03.04-.03.03-.03.04-.03.03-.03.03-.03.03-.04.04-.03.03-.03.03-.03.03-.03.03-.03.03-.03.03-.03.03-.03.03-.03.02-.03.03-.04.03-.03.03-.03.03-.03.03-.03.03-.03.02-.04.03-.03.03-.03.03-.03.03-.03.03-.03.02-.04.03-.03.03-.03.03-.03.02-.03.12-.13.02-.03.03-.04.03-.03.03-.03.03-.03.02-.03.03-.04.03-.03.03-.03.03-.03.03-.03.03-.04.03-.03.03-.04.12-.13.03-.04.03-.03.03-.04.03-.03.03-.03.03-.04.03-.03.03-.04.03-.03.03-.04.03-.03.03-.03.03-.04.03-.03.03-.04.03-.03.03-.04.03-.03.03-.04.03-.04.03-.03.03-.04.03-.03.02-.04.03-.03.03-.04.03-.04.03-.03.03-.04.02-.04.03-.03.03-.04.02-.03.03-.04.02-.03.03-.03.02-.04.03-.03.02-.03.03-.04.02-.03.03-.03.02-.04.02-.03.03-.04.02-.03.02-.04.03-.03.02-.04.02-.03.03-.04.02-.03.02-.04.02-.03.03-.04.02-.03.02-.04.02-.03.03-.04.02-.03.07-.11.02-.03.02-.04.02-.03.03-.04.02-.03.02-.04.03-.03.02-.04.02-.03.03-.04.02-.04.03-.04.02-.04.06-.08.05-.08.02-.04.03-.04.02-.04.03-.04.02-.04.03-.04.03-.04.02-.04.03-.04.02-.04.03-.03.02-.04.03-.04.02-.05.03-.04.02-.04.02-.04.03-.04.02-.04.03-.04.02-.04.03-.04.02-.04.02-.04.03-.04.02-.04.02-.05.03-.04.02-.04.02-.04.02-.05.03-.04.02-.03.01-.04.02-.04.02-.03.02-.04.02-.03.02-.04.02-.04.01-.03.02-.04.02-.04.02-.03.01-.04.02-.03.02-.04.02-.04.01-.03.02-.04.02-.04.02-.04.01-.03.02-.04.02-.04.01-.03.02-.04.02-.04.01-.03.02-.04.02-.04.01-.03.02-.04.03-.08.04-.07.03-.07.03-.08.02-.04.02-.03.01-.03.02-.04.01-.03.02-.04.01-.03.02-.03.01-.04.02-.03.01-.04.02-.03.01-.04.02-.03.01-.04.02-.03.01-.03.02-.04.01-.03.02-.04.01-.03.01-.04.02-.03.01-.04.02-.03.01-.04.01-.03.02-.03.01-.04.02-.03.01-.04.01-.03.02-.04.01-.03.01-.04.02-.03.01-.04.01-.03.02-.04.01-.03.01-.04v-88.78l-.26-.65-.28-.64-.3-.63-.31-.63-.34-.61-.35-.6-.37-.58-.39-.58-.4-.56-.42-.56-.43-.53-.45-.53-.47-.51-.48-.5-.49-.48-.51-.47-.52-.45-.54-.44-.54-.42-.56-.41-.58-.39-.58-.37-.6-.36-.61-.34-.61-.32-.63-.3-.64-.28-.65-.27-.66-.24-.67-.23-.68-.2-.68-.19-.7-.16-.7-.15-.71-.12-.72-.1-.72-.08-.73-.06-.74-.03-.74-.01-.54.01-.55.03zm184.27 9.22l-.73.06-.73.08-.72.1-.71.13-.71.14-.69.17-.69.19-.68.21-.67.23-.66.25-.65.27-.64.29-.63.3-.62.33-.61.34-.59.36-.59.38-.57.39-.56.41-.55.43-.53.44-.52.46-.51.48-.49.48-.48.51-.46.51-.45.53-.43.55-.42.55-.4.57-.38.59-.37.59-.35.6-.33.62-.32.63-.29.63-.28.65-.26.66-.01.02-.01.03-.01.02-.01.03-.01.02-.01.03-.01.02-.01.03-.01.02-.01.02-.01.03-.01.02-.01.03-.01.02-.01.02-.01.03-.02.05-.03.04-.01.03-.01.02-.01.03-.01.02-.01.02-.01.03-.01.02-.01.02-.01.03-.01.02-.01.03-.01.02-.01.02v.03l-.01.02-.01.03-.01.02-.01.03v.02l-.01.03-.02.07-.03.06-.02.07-.02.07-.02.07-.02.07-.02.07-.02.07-.03.07-.02.07-.02.06-.02.07-.02.07-.02.07-.01.06-.02.07-.02.07-.02.07-.02.06-.02.07-.02.07-.01.06-.02.07-.02.07-.01.06-.02.07-.02.06-.01.07-.02.07-.01.06-.02.07-.01.06-.02.07-.01.06-.02.07-.01.06-.01.07-.02.06-.01.07-.01.06-.02.12-.02.11-.02.12-.02.11-.02.12-.02.11-.02.12-.02.11-.01.12-.02.11-.02.11-.01.12-.02.11-.01.12-.02.11-.01.11-.01.12-.02.11-.01.11-.01.12-.01.11-.01.11-.01.12-.01.11-.01.11-.01.11-.01.12v.11l-.01.11-.01.11v.12l-.01.11v.22l-.01.11V204.45l-.01 53.85v.38l.01.18v.19l.01.18.01.18.01.19.01.18.01.18.02.19.01.18.02.18.02.18.02.18.02.18.02.18.03.18.02.18.03.18.03.18.03.18.03.18.03.18.04.17.03.18.04.18.04.17.04.18.04.18.04.17.04.18.05.17.05.18.04.17.05.17.05.18.06.17.05.18.05.17.06.17v.01l.01.03v.02l.01.03.01.02.01.03.01.02.01.03.01.02.01.02.01.03.01.02.01.03.01.02.01.03.01.02.01.02.01.03.01.02.01.03.01.02.02.05.03.07.02.02.01.03.01.02.01.02.01.03.01.02.01.03.01.02.01.02.01.03.01.02.01.03.01.02.01.02.01.03.01.03.01.04.02.03.01.04.01.03.02.04.01.03.01.03.02.04.01.03.02.04.01.03.01.03.02.04.01.03.01.03.02.04.01.03.02.04.01.03.01.03.02.04.01.03.02.03.01.04.01.03.02.03.01.04.02.03.01.03.02.04.01.03.01.03.02.04.01.03.02.03.01.04.02.03.01.03.01.04.09.18.08.19.09.18.09.18.09.19.09.18.09.18.1.18.09.17.1.18.1.18.1.17.1.18.1.17.1.17.11.18.1.17.11.17.11.17.11.16.11.17.12.17.11.16.12.16.12.17.12.16.12.16.12.16.12.16.13.15.12.16.13.15.13.16.13.15.13.15.13.15.14.15.13.15.14.14.14.15.32.33.33.32.33.31.34.31.34.3.35.3.36.28.36.28.37.28.37.26.38.26.39.26.39.24.39.24.4.23.4.22.41.21.42.21.41.2.43.19.42.18.44.17.43.16.44.16.45.15.44.14.45.13.46.12.46.11.46.1.47.09.47.09.47.07.48.06.47.06.49.04.48.04.49.02.49.02h.49l.85-.01.84-.04.83-.08.83-.1.81-.13.81-.16.79-.19.79-.21.77-.24.76-.27.75-.29.73-.32.73-.34.71-.37.69-.38.68-.41.66-.44.65-.45.63-.48.62-.5.6-.51.58-.54.56-.56.54-.57.52-.59.5-.61.49-.63.46-.65.44-.66.41-.67.4-.69.37-.7.35-.72.32-.73.3-.75.27-.75.25-.77.22-.78.2-.79.17-.8v-.01l.02-.11.02-.12.01-.11.02-.11.02-.11.02-.11.02-.11.01-.11.02-.11.02-.11.01-.11.02-.11.01-.11.01-.11.02-.11.01-.11.01-.1.01-.11.02-.11.01-.11.01-.11.01-.11.01-.11.01-.11.01-.11v-.11l.01-.11.01-.11v-.11l.01-.11v-.11l.01-.11v-.11l.01-.1v-.22l.01-.11v-54.19l-.02-.96-.06-.95-.1-.94-.13-.93-.17-.92-.21-.9-.24-.89-.27-.88-.3-.86-.34-.84-.37-.83-.4-.81-.43-.79-.46-.78-.49-.75-.52-.74-.54-.71-.57-.69-.6-.67-.62-.64-.64-.62-.67-.6-.69-.57-.71-.54-.73-.52-.76-.48-.77-.46-.79-.43-.81-.4-.83-.37-.84-.34-.86-.31-.88-.27-.89-.24-.9-.21-.92-.17-.92-.13-.94-.1-.95-.05-.96-.03v-.01l-.75.01-.74.04z"/></defs><use xlink:href="#a"/><use fill-opacity="0" stroke="#000" stroke-opacity="0" xlink:href="#a"/></svg>