<svg viewBox="0 0 640 640" xmlns="http://www.w3.org/2000/svg" xmlns:xlink="http://www.w3.org/1999/xlink"><defs><path id="a" d="M352.2 0h.28l.14.01h.28l.14.01h.13l.14.01h.14l.14.01h.14l.14.01.14.01h.14l.14.01.14.01.14.01.13.01.14.01.14.01.14.01.14.01.14.02.14.01.14.01.14.01.13.02.14.01.14.02.14.01.14.02.14.02.14.01.14.02.14.02.13.02.14.01.14.02 1.48.24 1.46.29 1.44.34 1.41.39 1.39.44 1.36.49 1.34.53 1.32.58 1.28.62 1.26.67 1.23.71 1.2.75 1.16.79 1.14.83 1.1.87 1.08.9 1.03.94 1 .98.97 1 .93 1.04.89 1.08.86 1.1.82 1.13.77 1.16.74 1.19.69 1.21.65 1.24.61 1.26.57 1.28.52 1.31.47 1.32.43 1.35.38 1.36.33 1.39.29 1.39.23 1.42.19 1.42.13 1.44.08 1.45.02 1.46V40.58l-.01.14v.27l-.01.14v.14l-.01.14v.13l-.01.14-.01.14v.14l-.01.14-.01.14-.01.13v.14l-.01.14-.01.14-.01.14-.01.14-.02.13-.01.14-.01.14-.01.14-.02.13-.01.14-.01.14-.02.14-.01.13-.02.14-.02.14-.01.13-.02.14-.02.13-.02.14-.02.14-16.96 130.17.41-.2.41-.2.41-.2.41-.18.42-.19.42-.18.42-.17.42-.18.42-.16.43-.16.43-.16.43-.15.43-.15.44-.14.43-.14.44-.14.44-.12.45-.13.44-.11.45-.12.44-.11.45-.1.45-.1.46-.09.45-.09.46-.08.46-.07.46-.07.46-.07.46-.06.46-.06.47-.04.47-.05.46-.04.47-.03.47-.03.48-.02.47-.01.47-.01H393.04l.14.01h.14l.14.01h.14l.14.01h.14l.14.01h.13l.14.01.14.01.14.01.14.01h.14l.14.01.14.01.14.01.14.01.14.02.13.01.14.01.14.01.14.02.14.01.14.01.14.02.14.01.14.02.14.02.13.01.14.02.14.02.14.02.14.01.14.02 1.48.24 1.46.29 1.44.34 1.41.39 1.39.44 1.36.49 1.34.53 1.32.58 1.28.62 1.26.67 1.23.71 1.19.75 1.17.79 1.14.83 1.1.87 1.07.9 1.04.94 1 .98.97 1 .93 1.05.89 1.07.86 1.1.81 1.13.78 1.16.74 1.19.69 1.21.65 1.24.61 1.26.57 1.28.52 1.31.47 1.33.43 1.34.38 1.37.33 1.38.29 1.39.23 1.42.18 1.42.14 1.44.08 1.45.02 1.46v.11l-.01.03V211.06l-.01.02v.08l.4-.19.4-.19.4-.18.4-.18.41-.17.4-.17.41-.17.42-.16.41-.15.42-.16.41-.14.42-.15.43-.13.42-.14.42-.13.43-.12.43-.12.43-.12.43-.11.44-.1.43-.11.44-.09.44-.09.44-.09.44-.08.44-.08.45-.07.44-.06.45-.07.45-.05.45-.05.45-.05.45-.04.45-.03.46-.03.46-.03.45-.02.46-.01.46-.01h1.29l.14.01h.14l.14.01h.14l.14.01h.14l.14.01.14.01h.14l.14.01.14.01.14.01.14.01.14.01.14.01.14.01.14.01.14.01.14.02.14.01.14.01.14.02.14.01.14.02.14.01.14.02.14.01.14.02.14.02.14.01.14.02.14.02.14.02.14.02 1.48.24 1.46.29 1.43.34 1.42.39 1.38.44 1.37.49 1.33.53 1.32.58 1.28.62 1.26.67 1.22.71 1.2.75 1.17.79 1.13.83 1.11.86 1.07.91 1.04.94 1 .97.96 1.01.93 1.04.9 1.07.85 1.1.82 1.13.77 1.16.74 1.19.69 1.21.66 1.24.6 1.26.57 1.28.52 1.3.48 1.33.42 1.34.39 1.37.33 1.38.28 1.39.24 1.41.18 1.43.14 1.44.08 1.45.02 1.46V247.82l-.01.14v.27l-.01.14v.14l-.01.14-.01.14v.14l-.01.14-.01.13-.01.14v.14l-.01.14-.01.14-.01.14-.01.14-.02.14-.01.14-.01.14-.01.14-.02.14-.01.14-.01.14-.02.14-.01.14-.02.14-.02.15-.01.14-.02.14-.02.14-.01.14-.02.14-.02.14-1.06 168.2-.08 3.77-.22 3.72-.38 3.69-.52 3.64-.66 3.59-.79 3.54-.94 3.49-1.07 3.43-1.19 3.38-1.33 3.31-1.45 3.24-1.57 3.18-1.68 3.11-1.81 3.03-1.91 2.96-2.03 2.87-2.13 2.8-2.23 2.7-2.33 2.62-2.44 2.53-2.52 2.43-2.62 2.34-2.71 2.23-2.79 2.13-2.88 2.03-2.95 1.91-3.03 1.81-3.11 1.68-3.18 1.57-3.24 1.45-3.31 1.33-3.38 1.2-3.43 1.06-3.49.94-3.54.8-3.59.66-3.64.52-3.69.38-3.73.22-3.76.08-141.69-.01H253.91l-.03.01h-.36l-2.06-.03-2.05-.08-2.03-.13-2-.19-1.98-.24-1.97-.28-1.94-.34-1.92-.39-1.9-.43-1.87-.48-1.86-.53-1.84-.57-1.81-.62-1.79-.66-1.78-.71-1.75-.74-1.73-.79-1.7-.83-1.69-.87-1.67-.9-1.64-.95-1.62-.98-1.6-1.02-1.58-1.05-1.56-1.09-1.54-1.12-1.52-1.15-1.49-1.19-1.48-1.21-1.45-1.25-1.43-1.28-1.41-1.31-1.38-1.33-1.37-1.36-1.34-1.39-1.33-1.41-1.3-1.44-1.28-1.46-1.26-1.48-1.23-1.51-1.23-1.53-1.21-1.56-1.19-1.57-1.18-1.6-1.16-1.62-1.13-1.63-1.13-1.66-1.1-1.67-1.09-1.69-1.07-1.71-1.05-1.72-1.04-1.74-1.02-1.76-1.01-1.77-.99-1.78-.97-1.8-.96-1.81-.94-1.82-.93-1.83-.91-1.85-.9-1.85-.88-1.87-.87-1.88-.85-1.88-.84-1.89-.83-1.9-.81-1.91-.79-1.91-.79-1.92-.77-1.93-.75-1.93-.74-1.93-.73-1.94-.72-1.94-.71-1.95-.69-1.94-.68-1.95-.66-1.95-.66-1.95-.64-1.95-1.25-3.89-1.2-3.88-1.15-3.87-1.11-3.85-1.06-3.84-1.02-3.8-.98-3.78-.93-3.74-.89-3.7-.86-3.65-.81-3.61-.77-3.55-.74-3.49-.7-3.43-.66-3.36-.62-3.29-.6-3.2-.55-3.13-.53-3.04-.49-2.95-.46-2.85-.43-2.75-.4-2.64-.37-2.53-.34-2.42-.31-2.29-.29-2.18-.26-2.04-.23-1.91-.22-1.77-.18-1.62-.17-1.48-.14-1.32-.12-1.17-.1-1-.08-.84-.07-.66-.04-.49-.03-.31-.01-.12v-.08l.01-.01v-.03l.01-.02v-.13l-.01-.07V300.16l.01-.07v-.07l.01-.07v-.07l.01-.07v-.07l.01-.07.01-.07v-.07l.01-.07.01-.07.01-.07.01-.07.01-.06.02-.07.01-.07.01-.07.01-.07.02-.07.01-.06.02-.07.01-.07.02-.07.02-.07.01-.06.02-.07.02-.07.01-.01v-.01l.01-.01v-.02l.01-.01v-.01l.02-.02v-.02l.01-.01.01-.02v-.02l.01-.01v-.01l.01-.01v-.01l.02-.07.02-.06.02-.07.03-.07.02-.07.03-.07.02-.06.03-.07.03-.07.02-.07.03-.06.03-.07.03-.07.03-.06.03-.07.03-.06.03-.07.03-.07.03-.06.04-.07.03-.06.03-.06.04-.07.03-.06.04-.07.03-.06.04-.06.04-.06.04-.07.04-.06.04-.06.04-.06.04-.06.04-.06.04-.06.04-.06.05-.06.04-.06.04-.06.05-.06v-.01l2.4-3.12 2.3-3.08 2.2-3.05 2.11-3.01 2.02-2.98 1.93-2.93 1.85-2.89 1.75-2.85 1.68-2.81 1.59-2.75 1.51-2.71 1.44-2.66 1.36-2.6 1.29-2.56 1.21-2.49 1.15-2.44 1.07-2.38 1.02-2.32.95-2.26.88-2.2.83-2.13.77-2.06.72-1.99.66-1.93.61-1.85.57-1.78.51-1.7.47-1.62.43-1.55.38-1.46.35-1.39.3-1.29.28-1.22.24-1.12.2-1.04.18-.95.16-.85.12-.76.11-.66.08-.57.01-.07.01-.07.01-.07.01-.07v-.06l.01-.06.01-.06.01-.06v-.05l.01-.05.01-.05v-.05l.01-.04v-.05l.01-.04v-.03l.01-.04v-.04l.01-.03v-.06l.01-.03v-.07l.01-.02V212.25l.01-.01v-.02l.02-.23.03-.22.03-.22.04-.22.04-.21.05-.22.06-.21.06-.21.06-.21.07-.21.08-.2.08-.2.09-.2.09-.2.1-.19.1-.19.11-.19.11-.19.12-.18.12-.18.13-.17.13-.17.14-.17.14-.17.14-.16.15-.16.15-.15.16-.15.16-.15.17-.14.17-.14.17-.13.18-.13.18-.12.18-.12.19-.12.2-.11.19-.11.2-.1.2-.1.12-.05.11-.05.11-.05.12-.05.11-.05.11-.05.12-.05.11-.05.11-.04.11-.05.11-.05.12-.05.11-.04.11-.05.11-.05.11-.04.11-.05.11-.04.12-.05.11-.04.11-.05.11-.04.11-.04.11-.05.11-.04.11-.04.11-.05.11-.04.11-.04.11-.04.11-.05.11-.04.11-.04.11-.04.11-.05.11-.04.11-.04.11-.04.11-.04.11-.04.28-.11.28-.1.27-.11.28-.1.27-.1.28-.09.27-.1.28-.1.27-.09.27-.09.27-.09.27-.09.27-.08.27-.09.27-.08.27-.08.26-.08.27-.08.27-.08.26-.07.27-.08.26-.07.27-.07.26-.07.26-.07.26-.06.26-.07.27-.06.26-.06.25-.06.26-.06.26-.05.26-.06.26-.05.25-.06.26-.05.25-.05.26-.05.25-.04.26-.05-33.26-137.91-.07-.26-.07-.25-.06-.26-.06-.26-.07-.26-.05-.26-.06-.26-.06-.26-.05-.26-.06-.26-.05-.26-.05-.26-.04-.26-.05-.26-.04-.25-.04-.26-.04-.26-.04-.26-.04-.26-.03-.26-.04-.26-.03-.26-.03-.26-.03-.25-.02-.26-.03-.26-.02-.26-.02-.26-.02-.25-.02-.26-.01-.26-.02-.26-.01-.25-.01-.26-.01-.26-.01-.25v-.26l-.01-.26v-.51l.02-1.31.06-1.31.11-1.31.15-1.29.19-1.28.24-1.28.27-1.26.32-1.25.35-1.24.39-1.22.43-1.21.47-1.19.51-1.17.55-1.16.58-1.14.62-1.12.65-1.1.69-1.08.72-1.06.75-1.03.79-1.01.82-.98.86-.96.88-.93.92-.91.95-.87.98-.85 1-.81 1.04-.79 1.06-.75 1.1-.72 1.12-.68 1.14-.65 1.18-.62 1.19-.58 1.23-.54 1.25-.5 1.27-.46 1.3-.42 1.32-.38.26-.07.26-.07.25-.06.26-.06.26-.07.26-.06.26-.05.26-.06.26-.05.26-.06.26-.05.26-.04.26-.05.26-.05.25-.04.26-.04.26-.04.26-.04.26-.04.26-.03.26-.03.26-.04.25-.02.26-.03.26-.03.26-.02.26-.03.25-.02.26-.02.26-.01.26-.02.25-.01.26-.02.26-.01.25-.01h.26l.26-.01h.25l.26-.01h.25l1.32.03 1.31.06 1.3.11 1.3.15 1.28.19 1.28.24 1.26.27 1.25.32 1.24.35 1.22.39 1.21.44 1.2.47 1.17.51 1.16.54 1.14.58 1.12.62 1.1.65 1.08.69 1.06.72 1.03.76 1.01.79.99.82.95.86.94.88.9.92.88.95.84.98.82 1 .78 1.04.75 1.06.72 1.1.69 1.12.65 1.15.61 1.17.57 1.2.54 1.22.5 1.25.46 1.28.42 1.29.38 1.33 49.51 181.4 28.45-189.15.23-1.48.29-1.46.34-1.44.39-1.42.43-1.39.49-1.37.53-1.34.58-1.32.62-1.29.67-1.26.71-1.23.75-1.2.79-1.16.83-1.14.87-1.11.9-1.07.94-1.04.98-1 1.01-.97 1.04-.93 1.07-.89 1.1-.86 1.14-.81 1.16-.78 1.19-.74 1.21-.69 1.24-.65 1.26-.61 1.29-.57 1.3-.51 1.33-.48 1.35-.43 1.36-.38 1.38-.33 1.4-.28 1.41-.24 1.43-.18 1.44-.13 1.45-.08 1.46-.03h.28zm-1.98 16.56l-.84.08-.84.11-.82.13-.82.17-.81.19-.8.23-.79.25-.77.28-.77.3-.75.33-.74.36-.73.38-.71.41-.69.43-.68.46-.67.48-.65.5-.63.52-.61.55-.59.57-.57.59-.55.61-.53.63-.51.65-.49.67-.47.68-.44.71-.41.72-.39.74-.37.76-.34.77-.31.79-.29.81-.25.82-.23.83-.2.85-.17.86-.14.87-29.51 196.41-2.91 19.31-.73 4.9-.06.34-.07.33-.08.32-.1.32-.1.31-.12.3-.13.3-.15.29-.15.29-.16.28-.17.27-.19.26-.19.25-.2.25-.21.24-.22.23-.23.22-.23.21-.25.2-.25.19-.26.19-.26.17-.27.16-.28.16-.28.14-.29.13-.3.12-.3.11-.3.1-.31.08-.31.08-.32.06-.32.05-.33.04-.32.02-.33.01h-.33l-.34-.01-.33-.03-.34-.05h-.04l-.01-.01h-.02l-.01-.01h-.03l-.01-.01h-.02l-.02-.01-.04-.01-.03-.01-.02-.01h-.02l-.01-.01h-.02l-.01-.01h-.04l-.25.04-.25.03-.24.03-.25.02-.25.01-.24.01-.25-.01-.24-.01-.25-.02-.24-.02-.24-.03-.24-.04-.23-.05-.24-.05-.23-.06-.23-.06-.23-.07-.22-.08-.22-.09-.22-.09-.22-.1-.21-.1-.22-.11-.2-.12-.21-.12-.2-.13-.19-.13-.2-.14-.19-.15-.18-.15-.18-.15-.18-.16-.17-.17-.17-.17-.16-.18-.16-.18-.15-.19-.15-.19-.14-.2-.14-.2-.03-.05-.04-.06-.03-.05-.03-.05-.04-.06-.03-.05-.03-.06-.03-.05-.04-.06-.03-.05-.03-.06-.03-.05-.03-.06-.03-.05-.03-.06-.03-.06-.03-.05-.03-.06-.03-.06-.02-.05-.03-.06-.03-.06-.02-.06-.03-.06-.03-.06-.02-.05-.03-.06-.02-.06-.02-.06-.03-.06-.02-.07-.02-.06-.02-.06-.02-.06-.02-.06-.02-.06-.02-.07-.02-.06-.02-.06-.02-.07-3.7-13.58-54.12-198.3-.22-.78-.25-.76-.27-.74-.29-.74-.31-.72-.34-.7-.36-.69-.38-.67-.4-.66-.42-.64-.44-.63-.46-.6-.48-.59-.5-.58-.51-.55-.53-.54-.55-.52-.56-.5-.58-.48-.59-.47-.61-.44-.62-.42-.63-.41-.65-.38-.65-.36-.67-.34-.68-.32-.69-.3-.7-.27-.71-.26-.72-.23-.72-.21-.73-.18-.74-.16-.75-.14-.75-.11-.76-.09-.76-.06-.77-.04-.77-.01h-.6l-.15.01h-.15l-.15.01-.15.01h-.15l-.15.01-.15.01-.15.01-.15.02-.15.01-.15.01-.15.02-.15.01-.15.02-.15.02-.15.02-.15.02-.15.02-.16.02-.15.03-.15.02-.15.02-.15.03-.15.03-.15.03-.15.03-.15.03-.15.03-.15.03-.16.04-.15.03-.15.04-.15.04-.15.04-.15.04-.15.04-.78.22-.76.24-.74.27-.74.29-.71.32-.71.34-.68.36-.68.38-.65.4-.64.42-.63.44-.61.46-.59.48-.57.49-.55.52-.54.53-.52.54-.5.56-.48.58-.47.59-.44.61-.42.62-.41.63-.38.65-.36.65-.34.67-.32.68-.3.69-.27.7-.26.71-.23.71-.21.73-.18.73-.16.74-.14.74-.11.76-.09.75-.07.76-.04.77-.01.77V52.79l.01.15v.15l.01.15v.15l.01.15.01.15.01.15.01.16.01.15.02.15.01.15.02.16.01.15.02.15.02.16.02.15.02.15.02.16.02.16.03.15.02.16.03.16.02.15.03.16.03.16.03.16.03.16.04.16.03.16.04.17.03.16.04.16.04.17.04.16.04.17.04.17.05.17 34.44 142.81.35.12.35.11.34.13.34.13.34.13.34.13.33.14.33.15.33.14.32.16.32.15.32.16.31.16.32.17.3.16.31.18.3.17.3.18.3.18.3.19.29.18.29.19.28.2.29.19.28.2.27.21.28.2.27.21.27.21.26.21.27.22.26.21.26.22.25.23.25.22.25.23.25.22.24.24.24.23.24.23.11.11.1.1.11.11.1.11.11.1.1.11.1.11.11.1.1.11.1.11.1.11.11.11.1.1.1.11.1.11.09.11.1.11.1.11.1.11.09.11.1.11.1.12.09.11.1.11.09.11.09.11.09.12.1.11.09.11.09.12.09.11.09.11.08.12.09.11.09.12.08.11.09.12.08.12.09.11.08.12.45.67.43.67.43.68.41.68.39.69.38.69.37.69.36.7.35.7.33.71.32.71.31.71.3.71.29.71.28.72.26.72.26.71.25.72.23.72.23.72.21.71.21.72.2.72.19.71.18.71.17.71.16.71.16.71.14.7.14.7.14.69.12.7.12.68.11.69.1.67.1.68.09.66.09.67.08.65.07.65.02.09.01.09.01.1.01.09.01.09.01.09.01.09.01.09.01.09v.09l.01.09.01.09.01.1.01.09.01.09.01.08.01.09.01.09v.09l.01.09.01.09.01.09.01.09v.09l.01.09.01.08.01.09v.09l.01.09.01.08.01.09v.09l.01.09.01.08.01.09v.09l.01.08.01.09v.09l.01.08.01.08v.08l.01.08v.08l.01.08.01.08v.08l.01.08v.08l.01.08v.07l.01.08v.08l.01.07v.08l.01.08v.07l.01.08v.08l.01.07v.08l.01.07v.08l.01.07v.08l.01.07V246.73l.01.08v.07l.01.08v.07l.01.08v.14l.01.08v.07l.01.08V247.63l.01.16.01.16.01.16.01.16v.16l.01.16.01.16v.15l.01.16.01.16v.15l.01.16.01.15v.15l.01.15v.15l.01.15v.15l.01.15v.14l.01.15v.14l.01.14v.15l.01.14v.27l.01.14v.14l.01.13v.4l.01.13v.25l.01.12V254.71l-.01.05V255.28l-.01.13v.36l-.01.11v.33l-.01.1v.2l-.01.1v.18l-.01.09v.24l-.01.08v.14l-.01.07v.12l-.01.06V257.74l-.01.05v.18l-.01.07v.04l-.01.08v.09l-.01.08-.01.08-.01.08-.01.08-.01.08-.01.08-.01.08-.02.07-.01.08-.01.08-.02.08-.01.08-.02.07-.02.08-.01.08-.02.07-.02.08-.02.08-.02.07-.02.08-.03.08-.02.07-.02.08-.03.07-.02.08-.03.07-.02.08-.03.07-.03.08-.03.07-.03.08-.03.07-.03.08-.03.07-.04.08-.03.07-.03.08-.04.07-.02.05-.04.07-.01.03-.01.02-.02.03-.01.03-.01.02-.02.03-.01.03-.01.03-.02.02-.01.02-.01.05-.12.23-.11.23-.11.23-.11.23-.11.23-.11.22-.11.23-.11.23-.11.23-.11.22-.11.23-.1.22-.11.23-.11.22-.1.23-.11.22-.11.23-.1.22-.11.22-.1.23-.1.22-.11.22-.1.22-.1.22-.11.22-.1.22-.1.22-.1.22-.1.22-.1.22-.1.21-.11.22-.1.22-.09.22-.1.21-.1.22-.1.21-.1.22-.1.21-.1.22-.06.14-.06.13-.06.14-.06.14-.07.13-.06.14-.06.13-.06.14-.05.13-.06.14-.06.13-.06.13-.06.14-.06.13-.05.13-.06.13-.06.13-.05.13-.06.13-.06.14-.05.13-.06.13-.05.13-.06.13-.05.13-.06.13-.05.12-.06.13-.05.13-.06.13-.11.26-.05.13-.06.13-.06.13-.05.13-.06.13-.05.13-.06.13-.05.13 5.12 20.5 2.19 12.21 5.03 28.02.46.04.47.04.49.04.5.05.51.05.53.05.54.06.55.06.56.07.58.07.58.07.6.08.61.08.63.09.63.09.64.09.65.1.66.11.68.11.68.12.69.12.7.13.71.13.71.14.73.15.73.15.74.16.75.16.75.17.77.18.76.18.78.19.78.2.79.2.79.22.8.22.8.22.81.24.81.24.82.25 1.29.41 1.31.43 1.32.46 1.32.48 1.34.5 1.34.53 1.34.55 1.36.58 1.35.6 1.35.63 1.36.65 1.36.69 1.35.71 1.35.74 1.34.77 1.34.8 1.33.83 1.32.86 1.32.9 1.3.92 1.29.96 1.28.99 1.26 1.03 1.24 1.06 1.23 1.1 1.21 1.13 1.18 1.16 1.17 1.21 1.15 1.24 1.12 1.28 1.09 1.32 1.07 1.35 1.04 1.4 1.01 1.44.99 1.47.95 1.52.91 1.56.89 1.61.85 1.64.81 1.69.13.31.13.32.1.31.1.32.08.32.07.32.06.32.04.32.03.33.01.32.01.32-.01.32-.02.32-.03.31-.05.32-.05.31-.07.31-.08.3-.1.31-.1.29-.11.3-.13.29-.14.28-.15.28-.15.28-.17.27-.18.26-.2.25-.2.25-.21.24-.22.24-.23.22-.24.22-.25.21-.26.2-.27.19-.28.18-.29.17-.3.16-.31.15-.08.04-.08.03-.09.04-.08.04-.09.03-.08.03-.09.04-.08.03-.09.03-.08.03-.09.03-.09.02-.08.03-.09.03-.08.02-.09.02-.08.03-.09.02-.09.02-.08.02-.09.02-.09.01-.08.02-.09.02-.09.01-.08.01-.09.02-.08.01-.09.01-.09.01-.08.01-.09.01h-.09l-.08.01h-.09l-.09.01H306.1l-.23-.01-.23-.02-.23-.02-.23-.03-.23-.03-.23-.05-.23-.05-.22-.05-.23-.06-.22-.07-.22-.07-.21-.08-.22-.09-.21-.09-.21-.1-.21-.1-.2-.11-.2-.12-.2-.12-.2-.12-.19-.14-.19-.13-.18-.15-.18-.15-.18-.15-.17-.16-.17-.16-.16-.17-.16-.18-.16-.18-.15-.19-.14-.19-.14-.19-.14-.2-.13-.21-.12-.21-.12-.21-.11-.22-.11-.23-.59-1.24-.63-1.22-.65-1.19-.68-1.16-.71-1.13-.73-1.1-.75-1.08-.79-1.05-.8-1.02-.83-.99-.85-.97-.87-.94-.89-.92-.91-.89-.93-.87-.94-.84-.96-.82-.98-.79-.99-.77-1.01-.75-1.02-.72-1.04-.7-1.04-.68-1.06-.66-1.07-.64-1.07-.61-1.09-.6-1.09-.57-1.1-.56-1.1-.53-1.11-.52-1.12-.49-1.11-.48-1.12-.46-1.13-.44-1.12-.43-1.12-.4-1.13-.39-1.12-.38-1.12-.35-.98-.3-.97-.29-.97-.28-.96-.26-.96-.25-.94-.23-.94-.23-.93-.21-.91-.21-.91-.19-.89-.18-.88-.17-.86-.17-.85-.15-.84-.14-.82-.13-.8-.13-.79-.12-.76-.11-.75-.1-.73-.09-.7-.09-.69-.07-.66-.08-.64-.06-.62-.06-.59-.06-.57-.04-.54-.05-.52-.04-.49-.03-.45-.03-.43-.02-.41-.03-.37-.01-.33-.02-.31-.01-.28-.01-.24-.01h-.25l-.02.01h-.04l-.02.01h-.06l-.03.01h-.06l-.02.01h-.07l-.02.01h-.08l-.02.01H232.39l-.02.01H232.26l-.05.01h-.11l-.01.01h-.05l-.01.01h-.04l-.03.01h-.01l-.04.01h-.01l-.02.01h-.03l-.01.01H231.78l-.01.01h-.12l-.03-.01H231.41l-.06-.01H231.18l-.06-.01h-.05l-.06-.01h-.05l-.06-.01h-.06l-.05-.01h-.06l-.06-.01-.05-.01h-.06l-.05-.01-.06-.01-.06-.01h-.05l-.06-.01-.05-.01-.06-.01-.05-.01-.06-.01-.06-.02-.05-.01-.06-.01-.05-.01-.06-.02-.05-.01-.06-.01-.06-.02-.05-.01-.06-.02-.05-.01-.06-.02-.05-.02-2.74-.81-15.72-4.65-.47-.17-.27-.09-.03-.01h-.02l-.02-.01-.03-.01h-.03l-.02-.01-.03-.01-.03-.01-.02-.01-.03-.01-.03-.01-.03-.01-.03-.01-.03-.01-.03-.01-.03-.01-.03-.01-.03-.01-.03-.01-.03-.02-.03-.01-.04-.01-.03-.02-.03-.01-.04-.02-.03-.01-.04-.02-.03-.02-.04-.01-.03-.02-.04-.02-.04-.01-.03-.02-.04-.02-.04-.02-.04-.02-.03-.02-.04-.02-.04-.02-.04-.02-.25-.15-.26-.16-.27-.18-.28-.19-.29-.21-.3-.23-.3-.25-.31-.26-.32-.28-.32-.3-.33-.32-.33-.34-.34-.35-.33-.38-.34-.39-.33-.41-.34-.43-.33-.45-.34-.47-.33-.49-.32-.51-.33-.53-.31-.55-.31-.57-.31-.6-.29-.61-.29-.63-.28-.65-.26-.68-.26-.7-.25-.72-.23-.74-.22-.76-.2-.78-.2-.81-.17-.83-.16-.85-.14-.88-.12-.89-.11-.93-.01-.12-.01-.13-.02-.12-.01-.13-.01-.13-.01-.12-.01-.13-.01-.13-.02-.13-.01-.13-.01-.12-.01-.13-.01-.13-.01-.13-.01-.13-.01-.13-.01-.13v-.13l-.01-.14-.01-.13-.01-.13v-.13l-.01-.14-.01-.13v-.13l-.01-.14v-.13l-.01-.14v-.27l-.01-.14v-1.12l.01-.14v-.82l.02-.83.03-.84.04-.86.06-.87.06-.89.08-.9.09-.92.1-.94.12-.95.13-.97.14-.99.15-1 .17-1.02.19-1.04.2-1.05.21-1.08.23-1.09.24-1.11.26-1.13.28-1.14.29-1.17.31-1.18.32-1.2.34-1.23.36-1.24.37-1.26.39-1.28.41-1.31.43-1.32.45-1.35.46-1.36.48-1.39.5-1.4.52-1.43.54-1.45.56-1.48.58-1.49.6-1.52.62-1.54.11-.26.1-.25.11-.26.11-.26.1-.26.11-.26.11-.26.11-.26.1-.26.11-.26.11-.27.11-.26.11-.26.11-.27.11-.26.12-.27.11-.26.11-.27.11-.26.12-.27.11-.27.12-.27.11-.27.12-.27.12-.27.12-.27.11-.27.12-.28.12-.27.12-.28.12-.27.13-.28.12-.27.12-.28.12-.28.13-.28.12-.28.13-.28.13-.28.13-.29.06-.13.06-.14.06-.13.06-.14.07-.13.06-.14.06-.14.07-.13.06-.14.07-.14.06-.13.06-.14.07-.14.06-.14.07-.14.06-.14.07-.14.06-.14.07-.14.06-.14.07-.14.07-.14.06-.14.07-.14.06-.14.07-.14.07-.14.06-.14.07-.14.07-.14.06-.14.07-.14.06-.15.07-.14.07-.14.06-.14.07-.14.07-.14.13-.29.03-.06.03-.07.03-.06.03-.07.03-.06.03-.07.03-.06.03-.07.03-.06.03-.06.03-.07.03-.06.03-.07.03-.06.03-.07.03-.06.06-.13.03-.06.03-.07.03-.06.03-.07.03-.06.03-.07.03-.06.03-.06.03-.07.03-.06.03-.07.03-.07.03-.06.03-.07.03-.06.04-.07.03-.06.03-.07.03-.07.03-.07.04-.06.03-.07V255.17l.01-.09v-.59l.01-.06V253.38l.01-.38v-1.25l-.01-.45-.01-.46-.01-.47-.02-.49-.02-.5-.03-.51-.03-.52-.03-.54-.04-.54-.05-.55-.04-.56-.06-.57-.05-.57-.07-.59-.06-.59-.07-.59-.08-.6-.08-.61-.09-.61-.09-.61-.09-.62-.11-.62-.1-.62-.12-.62-.12-.63-.12-.62-.13-.62-.14-.62-.14-.62-.15-.62-.15-.62-.16-.61-.17-.61-.17-.6-.18-.6-.18-.59-.08-.24-.08-.23-.08-.24-.08-.23-.08-.24-.08-.23-.08-.23-.08-.23-.09-.23-.09-.22-.08-.23-.09-.22-.09-.23-.09-.22-.09-.22-.1-.22-.09-.21-.09-.22-.1-.21-.1-.21-.1-.21-.1-.21-.1-.21-.1-.2-.1-.2-.11-.2-.1-.2-.11-.2-.11-.19-.11-.19-.11-.19-.11-.19-.12-.19-.11-.18-.12-.18-.12-.18-.12-.17-.12-.17-.12-.17-.13-.17-.04-.06-.05-.07-.04-.06-.05-.06-.04-.06-.05-.06-.05-.06-.04-.06-.05-.06-.05-.06-.04-.06-.05-.06-.04-.06-.05-.05-.05-.06-.04-.06-.05-.05-.05-.06-.05-.06-.04-.05-.05-.06-.05-.05-.04-.06-.05-.05-.05-.05-.05-.06-.04-.05-.05-.05-.05-.06-.05-.05-.04-.05-.05-.05-.05-.05-.05-.05-.05-.06-.04-.05-.05-.05-.05-.05-.05-.05-.05-.05-.11-.11-.12-.12-.12-.11-.12-.11-.11-.11-.12-.11-.12-.11-.13-.1-.12-.11-.12-.1-.12-.1-.13-.1-.12-.09-.13-.1-.12-.09-.13-.09-.13-.09-.13-.09-.13-.09-.13-.08-.14-.09-.13-.08-.13-.08-.14-.08-.14-.07-.14-.08-.14-.07-.14-.07-.14-.07-.14-.07-.15-.07-.15-.07-.14-.06-.15-.06-.15-.06-.16-.06-.15-.06-.15-.06-.16-.05-.16-.05-.1-.04-.1-.03-.11-.03-.1-.03-.11-.03-.1-.03-.11-.03-.11-.02-.11-.03-.11-.03-.11-.02-.11-.03-.12-.02-.11-.03-.11-.02-.12-.02-.12-.02-.11-.02-.12-.02-.12-.02-.12-.02-.13-.01-.12-.02-.12-.02-.13-.01-.13-.01-.12-.02-.13-.01-.13-.01-.13-.01-.14-.01-.13-.01-.14-.01h-.13l-.14-.01h-.14l-.14-.01h-.8l-.08.01H197.56l-.08.01h-.16l-.08.01h-.08l-.08.01H197l-.08.01h-.08l-.08.01-.09.01h-.08l-.08.01-.08.01-.09.01-.08.01h-.09l-.08.01-.09.01-.08.01-.09.01-.08.01-.09.01-.09.01-.08.01-.09.01-.09.01-.09.02-.08.01-.09.01-.09.01-.09.01-.02.01h-.05l-.02.01h-.07l-.03.01-.17.02-.17.03-.18.02-.17.03-.17.03-.18.03-.18.04-.18.03-.17.04-.19.03-.18.04-.18.04-.19.04-.18.04-.19.04-.19.05-.19.04-.19.05-.19.05-.2.05-.19.05-.2.05-.2.05-.2.06-.2.06-.2.06-.21.06-.2.06-.21.06-.21.07-.21.06-.21.07-.21.07-.22.07-.21.08-.22.07-.22.08-.22.08-.22.08-.22.08-.02.12-.01.05-.02.12-.02.06-.02.12-.01.06-.01.06-.01.06-.01.06-.01.07-.02.06-.01.06-.01.06-.01.07-.01.06-.02.06-.01.07-.01.06-.01.06-.01.07-.02.06-.01.07-.01.06-.01.07-.02.07-.01.06-.01.07-.02.07-.01.06-.01.07-.02.07-.01.07-.01.07-.02.07-.01.07-.02.07-.01.07-.01.04-.01.04-.01.05-.01.04-.01.05-.01.04v.05l-.01.05-.01.04-.01.05-.01.05-.01.04-.01.05-.02.05-.01.04-.01.05-.01.05-.01.05-.01.05-.02.09-.01.05-.01.05-.02.1-.05.2-.02.09-.02.1-.02.1-.01.05-.01.05-.01.05-.01.05-.01.05-.01.02-.01.03v.03l-.01.02-.01.06v.02l-.02.05-.01.06-.01.05-.02.1-.02.08-.01.05-.01.05-.01.06-.01.02v.03l-.01.03v.02l-.01.03-.01.03v.02l-.01.03v.03l-.01.03-.01.03v.02l-.01.03-.01.03-.01.06-.02.07-.01.06-.02.07-.01.06-.02.07-.01.07-.02.06-.01.07-.02.06-.02.07-.01.07-.02.07-.01.06-.02.07-.02.07-.01.07-.02.06-.02.07-.01.07-.02.07-.02.07-.01.07-.02.07-.02.07-.02.07-.01.07-.02.07-.02.07-.02.07-.01.07-.02.07-.02.07-.02.07-.01.07-.02.07-.02.07-.02.07-.02.07-.01.07-.01.04-.01.03-.01.04v.03l-.01.02v.02l-.01.02-.01.03v.04l-.01.03-.01.02v.03l-.01.04-.01.03-.01.06-.02.05-.02.09-.01.05-.01.04-.02.08-.02.07-.02.08-.02.07-.02.08-.02.07-.02.08-.02.08-.02.07-.02.08-.02.08-.02.08-.02.07-.02.08-.03.08-.02.08-.02.08-.02.08-.02.07-.02.08-.02.08-.02.08-.03.08-.02.08-.02.08-.02.08-.02.08-.03.08-.02.08-.02.08-.02.08-.03.08-.02.08-.02.08-.02.08-.03.08-.02.09-.02.08-.02.08-.03.08v.02l-.01.01v.02l-.01.04-.01.02v.01l-.01.02v.02l-.01.02v.02l-.01.01-.01.04v.02l-.01.03-.01.04-.03.1-.01.02v.04l-.01.01v.02l-.01.02-.01.04v.01l-.01.02v.02l-.01.02-.01.02v.02l-.01.01-.02.08-.02.08-.03.09-.02.08-.02.08-.03.08-.02.08-.03.08-.02.08-.02.08-.03.09-.02.08-.03.08-.02.08-.03.09-.02.08-.03.08-.02.09-.03.08-.02.08-.03.09-.02.08-.03.09-.03.08-.02.09-.03.08-.02.08-.03.09-.03.08-.02.09-.03.08-.03.09-.02.09-.03.08-.03.09-.02.08-.03.09-.03.08-.02.09-.03.08-.01.03v.02l-.01.03-.01.02-.01.02-.01.05-.01.03-.01.02-.01.05-.01.04-.02.05-.03.12-.02.04-.01.05-.01.05-.01.02-.02.05v.02l-.01.03-.01.02v.02l-.01.03-.01.02-.01.03-.01.02v.03l-.01.02-.01.02-.03.09-.02.09-.03.08-.03.09-.03.08-.02.09-.03.09-.03.08-.03.09-.03.09-.03.08-.02.09-.03.09-.03.09-.03.09-.03.08-.03.09-.03.09-.03.09-.03.09-.03.09-.03.09-.03.08-.03.09-.03.09-.03.09-.03.09-.03.09-.03.09-.03.09-.03.09-.03.09-.03.09-.03.09-.13.36-.03.09-.03.09-.01.03-.01.03-.01.03-.01.03-.01.02-.01.03-.01.03-.01.03-.01.03-.01.03-.01.02-.01.03-.01.03-.01.05-.01.03-.02.06-.01.03-.02.05-.01.03-.02.06-.02.05-.02.06-.03.08-.06.2-.02.06-.03.09-.04.09-.03.09-.03.08-.03.09-.03.09-.03.09-.04.09-.03.09-.03.09-.03.09-.03.09-.04.09-.03.1-.03.09-.04.09-.03.09-.03.09-.04.09-.03.09-.03.1-.04.09-.03.09-.04.09-.03.1-.03.09-.04.09-.03.09-.04.1-.03.09-.04.09-.03.09-.04.1-.03.09-.04.09-.03.1-.04.09-.03.09-.04.09-.03.1-.01.03-.02.04-.02.07-.01.03-.03.07-.02.07-.09.24-.03.07-.01.04-.02.07-.03.07-.01.03-.02.04-.01.03-.01.03-.01.04-.02.03-.01.04-.01.03-.02.04-.01.03-.01.04-.02.03-.01.04-.01.03-.02.04-.01.04-.01.03-.04.09-.03.09-.04.1-.03.09-.04.09-.04.09-.03.09-.04.1-.04.09-.03.09-.04.1-.04.09-.03.09-.04.1-.04.09-.04.09-.03.1-.04.09-.04.1-.04.09-.04.09-.03.1-.04.09-.04.1-.04.09-.04.1-.04.09-.03.1-.04.09-.04.1-.12.29-.04.09-.04.1-.03.09-.04.1-.04.1-.04.09-.04.1-.02.04-.01.04-.02.04-.02.04-.01.04-.02.04-.02.04-.01.04-.02.04-.01.04-.04.08-.06.17-.03.08-.04.08-.01.04-.02.04-.03.08-.02.04-.01.04-.02.04-.02.04-.01.04-.02.04-.02.04-.01.04-.02.04-.02.05-.01.04-.02.04-.02.04-.02.04-.01.04-.02.04-.04.1-.04.09-.04.1-.04.09-.04.1-.04.09-.04.1-.04.09-.04.1-.04.09-.04.1-.04.1-.05.09-.04.1-.04.1-.04.09-.04.1-.05.1-.04.09-.04.1-.04.1-.04.09-.05.1-.04.1-.04.09-.05.1-.04.1-.04.1-.04.1-.05.09-.04.1-.17.39-.05.1-.04.1-.04.1-.05.09-.04.1-.02.05-.02.05-.02.04-.02.05-.02.04-.02.05-.03.05-.02.04-.02.05-.02.05-.02.04-.02.05-.02.04-.02.05-.02.05-.02.04-.02.05-.02.05-.02.04-.02.05-.06.14-.04.09-.02.04-.02.05-.02.05-.02.04-.02.05-.02.05-.03.04-.02.05-.02.05-.02.04-.02.05-.02.05-.02.04-.02.05-.02.05-.05.09-.04.1-.05.1-.04.09-.05.1-.04.1-.05.09-.04.1-.05.1-.04.1-.05.09-.04.1-.05.1-.05.1-.04.1-.05.1-.05.1-.04.09-.05.1-.05.1-.04.1-.05.1-.05.1-.05.1-.04.1-.05.1-.05.1-.05.1-.04.1-.05.1-.05.1-.05.1-.04.1-.05.1-.05.1-.14.3-.1.2-.02.05-.03.05-.02.05-.03.05-.02.05-.03.05-.02.06-.03.05-.02.05-.03.05-.02.05-.03.05-.02.06-.07.15-.05.1-.03.05-.02.06-.03.05-.02.05-.02.05-.03.05-.02.05-.03.06-.02.05-.03.05-.02.05-.03.05-.03.06-.02.05-.03.05-.02.05-.03.05-.02.06-.03.05-.03.05-.02.05-.03.06-.05.09-.05.1-.05.1-.05.1-.05.1-.05.1-.05.1-.05.1-.05.1-.05.1-.05.1-.05.1-.05.1-.05.1-.05.1-.05.1-.05.11-.06.1-.05.1-.05.1-.05.1-.05.1-.05.1-.06.11-.05.1-.05.1-.05.1-.06.1-.05.1-.05.11-.05.1-.06.1-.05.1-.05.1-.06.1-.05.1-.05.11-.05.1-.06.1-.05.1-.03.06-.09.17-.08.16-.06.12-.06.11-.09.17-.09.17-.06.11-.08.17-.06.11-.06.12-.06.11-.06.11-.03.06-.06.12-.03.05-.06.12-.03.06-.06.12-.03.05-.06.11-.05.1-.06.1-.05.1-.05.1-.06.1-.05.1-.06.1-.05.11-.06.1-.05.1-.06.1-.06.1-.05.1-.06.11-.05.1-.06.1-.06.1-.05.11-.06.1-.06.1-.05.1-.06.11-.06.1-.06.1-.05.11-.06.1-.06.1-.06.11-.05.1-.06.1-.06.11-.06.1-.05.1-.06.11-.06.1-.12.21-.05.1-.06.11-.07.12-.04.06-.03.07-.07.12-.03.06-.04.06-.03.07-.04.06-.03.06-.04.06-.03.06-.03.07-.04.06-.03.06-.04.06-.03.06-.04.07-.03.06-.04.06-.03.06-.04.06-.03.07-.04.06-.03.06-.04.06-.03.06-.04.07-.03.06-.04.06-.03.06-.04.06-.04.07-.03.06-.04.06-.03.06-.04.07-.03.06-.04.06-.06.11-.06.1-.06.1-.06.1-.06.11-.06.1-.06.1-.06.11-.06.1-.06.1-.06.11-.06.1-.06.1-.07.11-.06.1-.06.1-.06.11-.06.1-.06.1-.07.11-.06.1-.06.11-.06.1-.07.1-.06.11-.06.1-.06.1-.07.11-.06.1-.12.21-.07.1-.06.11-.06.1-.07.11-.06.1-.06.11-.06.1-.07.11-.06.1-.12.2-.08.14-.04.06-.04.07-.04.07-.04.06-.04.07-.04.07-.04.07-.04.06-.04.07-.04.07-.04.06-.04.07-.04.07-.04.06-.04.07-.04.07-.04.06-.04.07-.04.07-.04.06-.04.07-.04.07-.04.06-.04.07-.04.07-.04.06-.04.07-.05.07-.04.07-.04.06-.04.07-.04.07-.04.06-.04.07-.05.07-.06.1-.06.11-.07.1-.06.1-.07.11-.07.1-.06.11-.07.1-.06.11-.07.1-.07.1-.06.11-.07.1-.07.11-.06.1-.07.11-.07.1-.06.11-.07.1-.07.11-.07.1-.07.11-.06.1-.07.11-.07.1-.07.11-.07.1-.06.11-.07.1-.07.11-.07.1-.07.11-.07.1-.06.11-.07.11-.07.1-.07.11-.07.1-.07.11-.07.1-.04.07-.05.07-.04.07-.05.08-.05.07-.04.07-.05.07-.09.14-.14.21-.09.14-.05.07-.04.08-.09.14-.05.07-.05.07-.04.07-.05.07-.05.07-.04.07-.05.08-.05.07-.04.07-.05.07-.04.07-.05.07-.05.07-.04.07-.05.08-.05.07-.05.07-.04.07-.05.07-.05.07-.04.07-.05.08-.07.1-.07.11-.07.1-.07.11-.08.1-.07.11-.07.11-.07.1-.07.11-.07.1-.08.11-.07.1-.07.11-.07.11-.08.1-.07.11-.07.1-.08.11-.07.11-.07.1-.08.11-.07.11-.07.1-.08.11-.07.1-.08.11-.07.11-.07.1-.08.11-.07.11-.23.32-.07.1-.07.11-.08.11-.07.1-.08.11-.07.11-.08.11-.05.07-.05.07-.05.08-.16.22-.1.15-.05.07-.06.08-.05.07-.05.08-.05.07-.05.07-.06.08-.05.07-.05.08-.05.07-.05.08-.06.07-.05.08-.05.07-.05.07-.06.08-.05.07-.05.08-.05.07-.06.08-.05.07-.05.08-.06.07-.05.08-.05.07-.06.08-.05.07-.05.08-.06.08-.05.07-.06.08-.05.07-.08.11-.07.11-.08.1-.08.11-.08.11-.07.1-.08.11-.08.11-.08.11-.08.1-.07.11-.08.11-.08.11-.08.1-.08.11-.08.11-.08.11-.08.11-.08.1-.08.11-.08.11-.08.11-.07.11-.08.1-.08.11-.09.11-.08.11-.08.11-.08.11-.08.1-.08.11-.08.11-.08.11-.08.11-.08.1-.08.11-.08.11-.08.11-.08.11-.08.1-.04.06-.04.05-.04.05-.04.05-.04.05-.04.06-.03.05-.04.05-.04.05-.04.05-.04.05-.03.05-.04.06-.04.05-.04.05-.03.05-.04.05-.04.05-.07.11-.08.1-.04.05-.03.05-.04.05-.04.05-.04.05-.04.06-.03.05-.04.05-.04.05-.04.05-.04.05-.03.06-.04.05-.04.05-.04.05-.04.06-.04.05-.04.05.03.23.02.25.03.25.02.25.03.27.03.27.03.28.03.29.04.3.03.3.04.32.03.32.04.32.04.34.04.34.04.35.04.35.04.37.04.37.05.38.05.38.04.39.05.4.05.41.05.41.06.42.05.43.05.43.06.44.06.45.06.46.06.46.06.46.06.48.06.48.07.48.07.5.07.5.06.5.08.51.12.87.12.88.13.9.13.91.14.93.14.95.14.96.15.97.15.99.16 1 .16 1.02.16 1.03.17 1.04.18 1.06.18 1.07.18 1.09.18 1.09.2 1.11.19 1.12.2 1.13.21 1.14.21 1.16.21 1.16.22 1.18.22 1.19.23 1.19.23 1.21.24 1.22.25 1.22.24 1.24.26 1.24.25 1.26.27 1.26.26 1.27.28 1.28.27 1.28.29 1.3.29 1.3.29 1.3.3 1.32.61 2.64.63 2.67.66 2.69.67 2.71.7 2.73.73 2.75.75 2.75.77 2.77.8 2.78.82 2.78.84 2.79.87 2.79.89 2.8.92 2.79.94 2.79.97 2.78.99 2.77 1.02 2.77 1.04 2.75 1.07 2.74 1.1 2.73 1.12 2.71 1.15 2.68 1.18 2.67 1.2 2.64 1.23 2.61 1.25 2.59 1.28 2.55 1.31 2.53 1.34 2.49 1.37 2.45 1.39 2.41 1.42 2.37 1.45 2.33 1.48 2.29 1.5 2.23 1.54 2.19 1.56 2.14 1.59 2.08 1.63 2.03 1.1 1.33 1.11 1.3 1.12 1.27 1.13 1.24 1.14 1.21 1.15 1.19 1.17 1.16 1.17 1.13 1.18 1.1 1.2 1.07 1.2 1.04 1.22 1.02 1.23.98 1.24.95 1.25.92 1.27.88 1.28.86 1.29.82 1.3.79 1.32.76 1.33.72 1.34.69 1.36.66 1.37.62 1.39.59 1.4.55 1.41.52 1.43.48 1.45.45 1.46.41 1.47.37 1.49.33 1.51.3 1.52.26 1.54.22 1.56.18 1.57.15 1.59.1 1.6.07 1.63.02H254.49l.06-.01h141.8l2.06-.05 2.05-.14 2.04-.24 2.04-.33 2.02-.43 2.01-.51 2-.61 2-.71 1.98-.8 1.97-.89 1.97-.98 1.95-1.08 1.95-1.17 1.93-1.27 1.93-1.36 1.91-1.45 1.91-1.54 1.89-1.64 1.89-1.73 1.88-1.83 1.86-1.92 1.86-2.01 1.85-2.11 1.83-2.2 1.83-2.29 1.82-2.38 1.81-2.48 1.79-2.57 1.79-2.67 1.78-2.76 1.77-2.85 1.76-2.95 1.75-3.04 1.74-3.13 1.73-3.23 1.72-3.32 1.71-3.41 1.7-3.51 1.69-3.6 1.68-3.69h-.01v-93.74l-.56.6-.57.59-.58.58-.59.57-.6.55-.61.54-.63.53-.63.52-.65.5-.65.49-.66.48-.68.46-.68.45-.69.44-.7.42-.71.41-.72.39-.73.38-.73.36-.74.35-.75.33-.76.32-.77.3-.77.29-.78.27-.78.25-.8.24-.8.22-.8.21-.81.19-.82.17-.82.15-.83.14-.83.12-.84.1-.84.08-.85.07-.85.04-.86.03-.86.01h-.89l-.13-.01h-.27l-.13-.01h-.13l-.13-.01h-.14l-.13-.01h-.13l-.14-.01h-.13l-.13-.01-.14-.01-.13-.01-.13-.01-.14-.01-.13-.01-.13-.01-.14-.01-.13-.01-.14-.01-.13-.01-.14-.02-.13-.01-.14-.02-.13-.01-.14-.02-.13-.01-.14-.02-.13-.02-.14-.01-.13-.02-.14-.02-.13-.02-.14-.02-.62-.09-.62-.11-.61-.11-.62-.12-.6-.13-.61-.14-.59-.15-.6-.16-.59-.16-.59-.18-.58-.18-.58-.19-.57-.2-.57-.21-.56-.22-.56-.23-.56-.23-.55-.24-.54-.25-.54-.26-.54-.26-.53-.28-.52-.28-.53-.29-.51-.29-.51-.3-.51-.31-.5-.32-.49-.32-.49-.34-.49-.33-.48-.35-.47-.35-.47-.36-.46-.36-.46-.37-.45-.38-.44-.38-.44-.39-.44-.4-.43 1.17-.48 1.15-.5 1.13-.54 1.11-.57 1.08-.6 1.07-.63 1.05-.67 1.02-.69 1-.72.97-.75.96-.78.92-.8.91-.83.87-.85.85-.88.83-.9.79-.93.77-.95.74-.97.71-.99.69-1.01.65-1.04.62-1.05.59-1.07.56-1.08.53-1.11.49-1.12.46-1.13.43-1.15.39-1.17.36-1.18.32-1.19.29-1.2.25-1.22.21-1.22.18-1.24.13-1.24.1-1.25.06-1.27.02h-.68l-.14-.01h-.27l-.14-.01h-.14l-.14-.01h-.14l-.14-.01h-.13l-.14-.01-.14-.01-.14-.01h-.14l-.14-.01-.14-.01-.14-.01-.14-.01-.14-.01-.14-.01-.14-.02-.14-.01-.14-.01-.14-.01-.14-.02-.14-.01-.14-.02-.14-.01-.14-.02-.14-.01-.14-.02-.14-.02-.14-.01-.14-.02-.14-.02-.14-.02-1.31-.2-1.29-.25-1.28-.29-1.25-.32-1.24-.37-1.22-.4-1.2-.44-1.18-.48-1.16-.51-1.14-.54-1.11-.58-1.1-.62-1.07-.64-1.05-.68-1.02-.71-1-.74-.97-.77-.95-.79-.92-.83-.89-.85-.87-.88-.84-.9-.81-.93-.78-.95-.75-.98-.72-1-.69-1.02-.66-1.04-.62-1.07-.59-1.08-.56-1.1-.53-1.12-.49-1.14-.45-1.15-.42-1.17-.39-1.19-.34-1.19-.31-1.22-.27-1.22-.24-1.24-.03-.17-.02-.17-.03-.17-.03-.16-.03-.17-.02-.17-.03-.17-.02-.17-.02-.17-.03-.17-.02-.17-.02-.17-.02-.17-.02-.17-.02-.17-.01-.17-.02-.17-.02-.17-.01-.18-.02-.17-.01-.17-.02-.17-.01-.17-.01-.17-.01-.18-.01-.17-.01-.17-.01-.17-.01-.17-.01-.18v-.17l-.01-.17v-.17l-.01-.18v-.34l-.01-.17v-1.21l.01-.13v-.28l.01-.14v-.27l.01-.14v-.14l.01-.13.01-.14v-.14l.01-.14.01-.13.01-.14.01-.14.01-.14.01-.14.01-.13.01-.14.01-.14.01-.14.01-.14.02-.13.01-.14.01-.14.02-.14.01-.14.02-.13.02-.14.01-.14.02-.14.02-.13.01-.14.02-.14.02-.14 36.97-267.47.01-.08.01-.08.01-.08.01-.09.01-.08.01-.08.01-.08.01-.08.01-.08.01-.09.01-.08v-.08l.01-.08.01-.08.01-.09v-.08l.01-.08.01-.08v-.08l.01-.09v-.08l.01-.08v-.08l.01-.09v-.08l.01-.08v-.08l.01-.09v-.16l.01-.08V40.18l.01-.08v-.33l-.01-.85-.05-.85-.08-.84-.11-.83-.13-.83-.17-.81-.19-.81-.23-.8-.25-.78-.27-.78-.31-.76-.33-.76-.36-.73-.38-.73-.4-.71-.44-.7-.45-.68-.48-.66-.5-.65-.52-.62-.55-.62-.56-.59-.59-.57-.61-.55-.62-.53-.65-.51-.66-.49-.69-.46-.7-.44-.72-.42-.74-.39-.75-.37-.77-.34-.78-.31-.8-.28-.82-.26-.82-.23-.85-.2-.85-.17-.87-.13-.08-.02-.08-.01-.09-.01-.08-.01-.08-.01-.08-.01-.09-.01-.08-.01h-.08l-.08-.01-.09-.01-.08-.01-.08-.01h-.08l-.09-.01-.08-.01-.08-.01h-.08l-.08-.01h-.08l-.09-.01h-.08l-.08-.01h-.08l-.08-.01h-.08l-.08-.01H352.8l-.08-.01h-.24l-.08-.01H351.92l-.86.01-.84.05zm40.61 171.09l-.66.05-.66.06-.65.09-.65.1-.64.13-.64.14-.63.16-.63.17-.62.19-.61.21-.61.23-.6.25-.59.25-.59.28-.57.29-.57.31-.56.32-.55.34-.54.35-.53.37-.52.38-.51.39-.49.41-.49.42-.48.44-.46.45-.45.46-.44.47-.42.49-.41.49-.4.51-.39.53-.37.53-.35.54-.34.56-.33.56-.31.58-.29.58-.01.02-.01.01-.01.02v.01l-.01.02-.01.02-.01.01v.02l-.01.01-.01.02v.02l-.01.01-.01.02v.02l-.01.01v.02l-.01.02-.01.01v.02l-.01.02-.01.03-.01.02-.01.03v.02l-.01.03-.01.02-.01.01v.02l-.01.02v.01l-.01.02-.01.01v.02l-.01.02-.01.01v.02l-.01.02-.06.14-.07.15-.06.15-.07.15-.06.15-.06.15-.06.15-.06.15-.06.15-.05.15-.06.15-.06.15-.05.16-.06.15-.05.15-.05.16-.05.15-.05.16-.05.16-.05.15-.04.16-.05.16-.04.16-.05.15-.04.16-.04.16-.04.16-.04.16-.04.17-.04.16-.03.16-.03.16-.04.17-.03.16-.03.17-.03.16-.03.17-.02.16-.03.17-.02.17-3.3 23.42-6.41 45.63-5.08 36.12-.02.08-.01.08-.01.08-.01.09-.01.08-.01.08-.01.08-.01.08-.01.08v.08l-.01.08-.01.08-.01.08-.01.09v.08l-.01.08-.01.08v.08l-.01.08v.07l-.01.08v.08l-.01.08v.08l-.01.08v.16l-.01.08v.16l-.01.07v.4l-.01.07V316.23l.01.11v.4l.01.11v.2l.01.1v.1l.01.1.01.1v.1l.01.11.01.1v.1l.01.1.01.1.01.1.01.1.01.1.01.1.01.1.01.1.01.1.01.1.01.09.02.1.01.1.01.1.02.1.01.1.02.1.01.1.02.1.02.1.01.1.02.1.01.01.01.04.01.03v.03l.01.01v.03l.01.02v.03l.01.01v.01l.14.71.17.71.18.71.21.69.23.69.25.67.27.67.29.66.31.65.33.64.35.62.37.62.38.6.41.59.42.58.44.57.45.55.47.54.49.52.51.51.52.5.54.47.55.46.56.45.59.43.59.41.61.39.62.37.64.36.65.34.66.31.67.3.69.27.69.26.71.23.72.21.73.19.74.17.75.14.76.12.08.01.09.01.08.01.08.01.08.01.08.01.08.01.08.01.08.01h.08l.09.01.08.01.08.01h.08l.08.01h.09l.08.01.08.01h.08l.08.01h.09l.08.01h.16l.08.01H376.43l.08.01h.25l.08.01H377.5l.84-.01.83-.04.83-.08.82-.1.81-.14.8-.16.8-.19.78-.21.78-.25.76-.27.76-.29.74-.33.73-.34.71-.37.7-.4.69-.42.67-.44.66-.47.64-.49.62-.51.61-.53.59-.55.57-.57.55-.6.53-.61.5-.63.49-.65.47-.66.44-.69.42-.7.39-.72.38-.73.34-.75.32-.77.3-.78.26-.79.24-.81.22-.82.18-.84.15-.84v-.03l.01-.01v-.04l.01-.01v-.02l.01-.01v-.04l.01-.02.01-.03v-.01l.01-.02.01-.04v-.02l.01-.03v-.01l.01-.01v-.03l.01-.01v-.04l.01-.01v-.05l1.93-13.66 1.13-8.12 9.35-66.52 2.37-16.84.01-.08.01-.08.01-.09.01-.08.01-.08.01-.08.01-.08v-.09l.01-.08.01-.08.01-.08.01-.08v-.09l.01-.08.01-.08.01-.08v-.08l.01-.09.01-.08v-.08l.01-.08v-.09l.01-.08v-.08l.01-.08V211.95l.01-.08v-.08l.01-.09v-.24l.01-.09v-.49l-.02-.86-.04-.84-.08-.84-.11-.83-.13-.83-.17-.82-.19-.8-.23-.8-.25-.79-.28-.77-.3-.77-.33-.75-.36-.74-.38-.72-.41-.71-.43-.7-.45-.68-.48-.66-.5-.65-.52-.63-.55-.61-.56-.59-.59-.57-.61-.55-.63-.53-.64-.51-.67-.49-.68-.46-.7-.44-.72-.42-.74-.39-.75-.36-.77-.34-.78-.31-.8-.29-.81-.25-.83-.23-.84-.2-.86-.17-.86-.13-.09-.02-.08-.01-.08-.01-.09-.01-.08-.01-.08-.01-.08-.01-.09-.01-.08-.01-.08-.01-.08-.01-.09-.01-.08-.01h-.08l-.08-.01-.09-.01-.08-.01h-.08l-.08-.01h-.09l-.08-.01-.08-.01h-.08l-.08-.01H393.33l-.08-.01h-.16l-.08-.01h-.25l-.08-.01h-.51l-.67.01-.67.03zm-174.7 117.47l-.02.1-.02.11-.03.1-.02.1-.03.11-.02.1-.03.1-.02.1-.03.1-.02.1-.04.19-.04.19-.04.19-.04.19-.04.18-.04.19-.04.18-.04.19-.04.18-.03.18-.04.19-.04.18-.04.23-.05.23-.04.24-.04.23-.04.22-.04.23-.04.23-.04.22-.04.22-.04.22-.03.22-.04.22-.03.16-.02.17-.03.17-.03.16-.03.17-.02.16-.03.17-.02.16-.03.16-.02.16-.02.16-.03.16-.02.2-.03.2-.02.2-.03.2-.02.19-.02.2-.02.19-.02.19-.02.19-.02.2-.02.19-.02.19-.01.14-.02.15-.01.14-.02.15-.01.14-.02.15-.01.14-.02.14-.01.14-.01.14-.01.14-.01.14-.01.16-.01.16-.01.15-.01.16-.01.15v.16l-.01.15v.15l-.01.15v.3l-.01.14v.25l-.01.13v.13l-.01.12v.13l-.01.13v.12l-.01.13v.36l.02.96.04.9.06.85.07.8.08.75.1.7.1.65.12.61.12.56.13.52.14.48.14.45v.02l.01.01v.02l.02.05.02.04.02.05.03.08.02.04.01.04.02.04.02.05.01.04.02.04.01.04.1.23.09.22.1.21.09.19.1.18.09.17.09.16.09.14.08.14.09.12.08.11.07.1.02.03.02.03.03.02.02.03.02.03.03.03.02.02.03.03.03.04.03.03.03.03.03.03 4.39 1.28-5.01-27.89-.02.1-.03.1zm232.46-81.52l-.64.03-.63.04-.63.06-.62.08-.62.1-.62.11-.61.13-.61.15-.6.16-.59.18-.59.2-.58.21-.58.22-.57.24-.56.26-.55.27-.55.28-.54.3-.53.31-.52.33-.51.34-.51.35-.49.37-.48.38-.48.39-.46.41-.46.42-.44.42-.43.45-.42.45-.41.46-.4.48-.38.48-.37.5-.36.51-.35.52-.33.52-.32.54-.31.55-.01.02-.02.03-.01.02-.02.02-.01.02-.02.03-.01.02-.01.02-.02.03-.01.02-.02.02-.04.07-.03.05-.03.04-.01.02-.02.03-.01.02-.01.02-.02.02-.01.03-.01.02-.02.02-.01.03-.02.02-.01.02-.01.03-.02.02-.01.02-.01.03-.02.02-.01.02-.01.03-.01.02-.02.03-.01.02-.01.03-.03.06-.03.06-.03.06-.03.07-.03.06-.03.06-.03.07-.03.06-.03.06-.03.07-.03.06-.02.06-.03.07-.03.06-.03.06-.03.07-.02.06-.03.06-.03.07-.02.06-.03.06-.03.07-.02.06-.03.06-.02.07-.03.06-.03.07-.02.06-.03.07-.02.06-.02.06-.03.07-.02.06-.03.07-.02.06-.02.07-.02.06-.03.07-.02.06-.02.06-.04.11-.03.11-.04.1-.04.11-.03.11-.04.1-.03.11-.03.11-.04.1-.03.11-.03.11-.03.11-.04.11-.03.11-.03.1-.03.11-.02.11-.03.11-.03.11-.03.11-.03.11-.02.11-.03.11-.02.11-.03.11-.02.11-.02.11-.03.11-.02.11-.02.11-.02.12-.02.11-.02.11-.02.11-.02.11-.02.11-.01.11-.02.11-.01.11-.02.11-2.7 19.19-4.81 34.19-.01.08-.01.08-.01.08-.01.09-.01.08-.01.08-.01.08-.01.08-.01.08-.01.08-.01.08-.01.08v.08l-.01.08-.01.08v.08l-.01.08-.01.08v.08l-.01.08v.08l-.01.08v.08l-.01.07v.08l-.01.08v.16l-.01.07v.31l-.01.08v.97l.01.1V301.1l.01.1v.11l.01.1v.1l.01.1v.1l.01.11.01.1.01.1v.1l.01.11.01.1.01.1.01.1.01.1.01.11.01.1.01.1.02.1.01.1.01.11.02.1.01.1.02.1.01.11.02.1.01.1.02.1.02.11.02.1.02.1v.04l.01.02v.02l.01.02v.01l.01.02.01.04.01.01v.02l.01.01v.02l.01.01v.04l.01.02v.04l.01.02v.02l.01.02v.02l.01.02v.02l.01.02v.02l.01.02v.01l.01.02v.02l.01.02.01.04.02.08.01.03.01.02v.02l.01.02.01.02v.02l.01.02v.02l.01.02v.02l.01.02v.02l.01.02v.04l.17.69.18.67.2.68.23.66.24.66.26.65.28.64.3.62.31.62.34.61.35.6.37.59.39.58.4.56.42.56.43.54.46.52.46.52.49.5.49.48.52.47.52.46.54.44.56.42.57.41.58.39.59.38.61.35.62.34.63.32.65.31.65.28.67.26.68.25.68.22.7.2.71.18.72.16.73.14.74.11.08.02.08.01.08.01.08.01.08.01.09.01.08.01.08.01.08.01.08.01h.08l.08.01.09.01.08.01h.08l.08.01.08.01h.09l.08.01h.08l.08.01h.09l.08.01h.08l.08.01H440.8l.08.01H441.05l.08.01h.5l.08.01H441.88l.74-.01.73-.04.73-.06.73-.08.72-.1.72-.13.71-.15.7-.17.69-.19.69-.22.68-.23.67-.26.66-.27.65-.3.65-.31.63-.34.62-.35.61-.37.6-.39.59-.41.57-.42.56-.45.55-.46.53-.47.52-.49.5-.51.49-.53.47-.53.46-.56.44-.57.43-.58.4-.59.39-.61.37-.63.35-.63.33-.65.31-.66.29-.67.27-.69.25-.69.04-.11.03-.11.04-.1.03-.11.04-.11.03-.1.03-.11.04-.11.03-.1.03-.11.03-.11.03-.1.03-.11.03-.11.03-.1.03-.11.03-.1.02-.11.03-.11.03-.1.02-.11.03-.11.02-.1.03-.11.02-.11.02-.11.02-.1.03-.11.02-.11.02-.1.02-.11.02-.11.02-.11.01-.1.02-.11.02-.11.02-.11.01-.11.02-.1.01-.11 1.47-10.45 3.86-27.41.79-5.62 1.38-9.88.01-.08.01-.08.01-.08.01-.09.01-.08.01-.08.01-.08.01-.08.01-.09.01-.08.01-.08v-.08l.01-.09.01-.08.01-.08v-.08l.01-.08.01-.09v-.08l.01-.08v-.08l.01-.09v-.08l.01-.08v-.09l.01-.08v-.08l.01-.08V247.68l.01-.08v-.25l.01-.09V246.85l-.01-.85-.05-.85-.08-.84-.11-.83-.13-.83-.17-.81-.19-.81-.23-.8-.25-.78-.28-.78-.3-.76-.33-.75-.36-.74-.38-.73-.41-.71-.43-.69-.45-.68-.48-.66-.5-.65-.52-.63-.55-.61-.56-.59-.59-.57-.61-.55-.63-.53-.64-.51-.67-.49-.68-.46-.7-.44-.72-.42-.74-.39-.75-.37-.77-.34-.78-.31-.8-.28-.81-.26-.83-.23-.84-.2-.85-.16-.87-.14h-.01l-.08-.01-.08-.02-.09-.01-.08-.01-.08-.01-.09-.01-.08-.01-.08-.01-.08-.01h-.09l-.08-.01-.08-.01-.09-.01-.08-.01h-.08l-.08-.01-.08-.01h-.09l-.08-.01-.08-.01h-.08l-.08-.01h-.09l-.08-.01h-.16l-.08-.01H450.19l-.08-.01h-.32l-.08-.01H449.23l-.64.01z"/></defs><use xlink:href="#a"/><use fill-opacity="0" stroke="#000" stroke-opacity="0" xlink:href="#a"/></svg>