<?xml version="1.0" encoding="UTF-8"?>
<!DOCTYPE svg  PUBLIC '-//W3C//DTD SVG 1.1//EN'  'http://www.w3.org/Graphics/SVG/1.1/DTD/svg11.dtd'>
<svg version="1.1" viewBox="0 0 640 640" xmlns="http://www.w3.org/2000/svg" xmlns:xlink="http://www.w3.org/1999/xlink">
<defs>
<path id="a" d="m352.2 0h0.14 0.14l0.14 0.01h0.14 0.14l0.14 0.01h0.13l0.14 0.01h0.14l0.14 0.01h0.14l0.14 0.01 0.14 0.01h0.14l0.14 0.01 0.14 0.01 0.14 0.01 0.13 0.01 0.14 0.01 0.14 0.01 0.14 0.01 0.14 0.01 0.14 0.02 0.14 0.01 0.14 0.01 0.14 0.01 0.13 0.02 0.14 0.01 0.14 0.02 0.14 0.01 0.14 0.02 0.14 0.02 0.14 0.01 0.14 0.02 0.14 0.02 0.13 0.02 0.14 0.01 0.14 0.02 1.48 0.24 1.46 0.29 1.44 0.34 1.41 0.39 1.39 0.44 1.36 0.49 1.34 0.53 1.32 0.58 1.28 0.62 1.26 0.67 1.23 0.71 1.2 0.75 1.16 0.79 1.14 0.83 1.1 0.87 1.08 0.9 1.03 0.94 1 0.98 0.97 1 0.93 1.04 0.89 1.08 0.86 1.1 0.82 1.13 0.77 1.16 0.74 1.19 0.69 1.21 0.65 1.24 0.61 1.26 0.57 1.28 0.52 1.31 0.47 1.32 0.43 1.35 0.38 1.36 0.33 1.39 0.29 1.39 0.23 1.42 0.19 1.42 0.13 1.44 0.08 1.45 0.02 1.46v0.14 0.14 0.14 0.13 0.14 0.14l-0.01 0.14v0.13 0.14l-0.01 0.14v0.14l-0.01 0.14v0.13l-0.01 0.14-0.01 0.14v0.14l-0.01 0.14-0.01 0.14-0.01 0.13v0.14l-0.01 0.14-0.01 0.14-0.01 0.14-0.01 0.14-0.02 0.13-0.01 0.14-0.01 0.14-0.01 0.14-0.02 0.13-0.01 0.14-0.01 0.14-0.02 0.14-0.01 0.13-0.02 0.14-0.02 0.14-0.01 0.13-0.02 0.14-0.02 0.13-0.02 0.14-0.02 0.14-16.96 130.17 0.41-0.2 0.41-0.2 0.41-0.2 0.41-0.18 0.42-0.19 0.42-0.18 0.42-0.17 0.42-0.18 0.42-0.16 0.43-0.16 0.43-0.16 0.43-0.15 0.43-0.15 0.44-0.14 0.43-0.14 0.44-0.14 0.44-0.12 0.45-0.13 0.44-0.11 0.45-0.12 0.44-0.11 0.45-0.1 0.45-0.1 0.46-0.09 0.45-0.09 0.46-0.08 0.46-0.07 0.46-0.07 0.46-0.07 0.46-0.06 0.46-0.06 0.47-0.04 0.47-0.05 0.46-0.04 0.47-0.03 0.47-0.03 0.48-0.02 0.47-0.01 0.47-0.01h0.48 0.14 0.14 0.14 0.14 0.14 0.14l0.14 0.01h0.14l0.14 0.01h0.14l0.14 0.01h0.14l0.14 0.01h0.13l0.14 0.01 0.14 0.01 0.14 0.01 0.14 0.01h0.14l0.14 0.01 0.14 0.01 0.14 0.01 0.14 0.01 0.14 0.02 0.13 0.01 0.14 0.01 0.14 0.01 0.14 0.02 0.14 0.01 0.14 0.01 0.14 0.02 0.14 0.01 0.14 0.02 0.14 0.02 0.13 0.01 0.14 0.02 0.14 0.02 0.14 0.02 0.14 0.01 0.14 0.02 1.48 0.24 1.46 0.29 1.44 0.34 1.41 0.39 1.39 0.44 1.36 0.49 1.34 0.53 1.32 0.58 1.28 0.62 1.26 0.67 1.23 0.71 1.19 0.75 1.17 0.79 1.14 0.83 1.1 0.87 1.07 0.9 1.04 0.94 1 0.98 0.97 1 0.93 1.05 0.89 1.07 0.86 1.1 0.81 1.13 0.78 1.16 0.74 1.19 0.69 1.21 0.65 1.24 0.61 1.26 0.57 1.28 0.52 1.31 0.47 1.33 0.43 1.34 0.38 1.37 0.33 1.38 0.29 1.39 0.23 1.42 0.18 1.42 0.14 1.44 0.08 1.45 0.02 1.46v0.02 0.01 0.02 0.01 0.01 0.02 0.01 0.01l-0.01 0.03v0.02 0.03 0.01l-0.01 0.02v0.01 0.01 0.02 0.01 0.02 0.01l0.4-0.19 0.4-0.19 0.4-0.18 0.4-0.18 0.41-0.17 0.4-0.17 0.41-0.17 0.42-0.16 0.41-0.15 0.42-0.16 0.41-0.14 0.42-0.15 0.43-0.13 0.42-0.14 0.42-0.13 0.43-0.12 0.43-0.12 0.43-0.12 0.43-0.11 0.44-0.1 0.43-0.11 0.44-0.09 0.44-0.09 0.44-0.09 0.44-0.08 0.44-0.08 0.45-0.07 0.44-0.06 0.45-0.07 0.45-0.05 0.45-0.05 0.45-0.05 0.45-0.04 0.45-0.03 0.46-0.03 0.46-0.03 0.45-0.02 0.46-0.01 0.46-0.01h0.46 0.14 0.14 0.14 0.14 0.14 0.13l0.14 0.01h0.14l0.14 0.01h0.14l0.14 0.01h0.14l0.14 0.01 0.14 0.01h0.14l0.14 0.01 0.14 0.01 0.14 0.01 0.14 0.01 0.14 0.01 0.14 0.01 0.14 0.01 0.14 0.01 0.14 0.01 0.14 0.02 0.14 0.01 0.14 0.01 0.14 0.02 0.14 0.01 0.14 0.02 0.14 0.01 0.14 0.02 0.14 0.01 0.14 0.02 0.14 0.02 0.14 0.01 0.14 0.02 0.14 0.02 0.14 0.02 0.14 0.02 1.48 0.24 1.46 0.29 1.43 0.34 1.42 0.39 1.38 0.44 1.37 0.49 1.33 0.53 1.32 0.58 1.28 0.62 1.26 0.67 1.22 0.71 1.2 0.75 1.17 0.79 1.13 0.83 1.11 0.86 1.07 0.91 1.04 0.94 1 0.97 0.96 1.01 0.93 1.04 0.9 1.07 0.85 1.1 0.82 1.13 0.77 1.16 0.74 1.19 0.69 1.21 0.66 1.24 0.6 1.26 0.57 1.28 0.52 1.3 0.48 1.33 0.42 1.34 0.39 1.37 0.33 1.38 0.28 1.39 0.24 1.41 0.18 1.43 0.14 1.44 0.08 1.45 0.02 1.46v0.13 0.14 0.14 0.14 0.13 0.14 0.14l-0.01 0.14v0.14 0.13l-0.01 0.14v0.14l-0.01 0.14-0.01 0.14v0.14l-0.01 0.14-0.01 0.13-0.01 0.14v0.14l-0.01 0.14-0.01 0.14-0.01 0.14-0.01 0.14-0.02 0.14-0.01 0.14-0.01 0.14-0.01 0.14-0.02 0.14-0.01 0.14-0.01 0.14-0.02 0.14-0.01 0.14-0.02 0.14-0.02 0.15-0.01 0.14-0.02 0.14-0.02 0.14-0.01 0.14-0.02 0.14-0.02 0.14-1.06 168.2-0.08 3.77-0.22 3.72-0.38 3.69-0.52 3.64-0.66 3.59-0.79 3.54-0.94 3.49-1.07 3.43-1.19 3.38-1.33 3.31-1.45 3.24-1.57 3.18-1.68 3.11-1.81 3.03-1.91 2.96-2.03 2.87-2.13 2.8-2.23 2.7-2.33 2.62-2.44 2.53-2.52 2.43-2.62 2.34-2.71 2.23-2.79 2.13-2.88 2.03-2.95 1.91-3.03 1.81-3.11 1.68-3.18 1.57-3.24 1.45-3.31 1.33-3.38 1.2-3.43 1.06-3.49 0.94-3.54 0.8-3.59 0.66-3.64 0.52-3.69 0.38-3.73 0.22-3.76 0.08-141.69-0.01h-0.05-0.08-0.04-0.04-0.04-0.05-0.05-0.05-0.05-0.02-0.05-0.03-0.03-0.03-0.03-0.02-0.03-0.03-0.03l-0.03 0.01h-0.04-0.03-0.03-0.03-0.04-0.03-0.03-0.13l-2.06-0.03-2.05-0.08-2.03-0.13-2-0.19-1.98-0.24-1.97-0.28-1.94-0.34-1.92-0.39-1.9-0.43-1.87-0.48-1.86-0.53-1.84-0.57-1.81-0.62-1.79-0.66-1.78-0.71-1.75-0.74-1.73-0.79-1.7-0.83-1.69-0.87-1.67-0.9-1.64-0.95-1.62-0.98-1.6-1.02-1.58-1.05-1.56-1.09-1.54-1.12-1.52-1.15-1.49-1.19-1.48-1.21-1.45-1.25-1.43-1.28-1.41-1.31-1.38-1.33-1.37-1.36-1.34-1.39-1.33-1.41-1.3-1.44-1.28-1.46-1.26-1.48-1.23-1.51-1.23-1.53-1.21-1.56-1.19-1.57-1.18-1.6-1.16-1.62-1.13-1.63-1.13-1.66-1.1-1.67-1.09-1.69-1.07-1.71-1.05-1.72-1.04-1.74-1.02-1.76-1.01-1.77-0.99-1.78-0.97-1.8-0.96-1.81-0.94-1.82-0.93-1.83-0.91-1.85-0.9-1.85-0.88-1.87-0.87-1.88-0.85-1.88-0.84-1.89-0.83-1.9-0.81-1.91-0.79-1.91-0.79-1.92-0.77-1.93-0.75-1.93-0.74-1.93-0.73-1.94-0.72-1.94-0.71-1.95-0.69-1.94-0.68-1.95-0.66-1.95-0.66-1.95-0.64-1.95-1.25-3.89-1.2-3.88-1.15-3.87-1.11-3.85-1.06-3.84-1.02-3.8-0.98-3.78-0.93-3.74-0.89-3.7-0.86-3.65-0.81-3.61-0.77-3.55-0.74-3.49-0.7-3.43-0.66-3.36-0.62-3.29-0.6-3.2-0.55-3.13-0.53-3.04-0.49-2.95-0.46-2.85-0.43-2.75-0.4-2.64-0.37-2.53-0.34-2.42-0.31-2.29-0.29-2.18-0.26-2.04-0.23-1.91-0.22-1.77-0.18-1.62-0.17-1.48-0.14-1.32-0.12-1.17-0.1-1-0.08-0.84-0.07-0.66-0.04-0.49-0.03-0.31-0.01-0.12v-0.01-0.01-0.01-0.01-0.01-0.01-0.02l0.01-0.01v-0.03l0.01-0.02v-0.01-0.01-0.01-0.01-0.02-0.07l-0.01-0.07v-0.07-0.07-0.07-0.07-0.08-0.07-0.07-0.07-0.07-0.07-0.07l0.01-0.07v-0.07l0.01-0.07v-0.07l0.01-0.07v-0.07l0.01-0.07 0.01-0.07v-0.07l0.01-0.07 0.01-0.07 0.01-0.07 0.01-0.07 0.01-0.06 0.02-0.07 0.01-0.07 0.01-0.07 0.01-0.07 0.02-0.07 0.01-0.06 0.02-0.07 0.01-0.07 0.02-0.07 0.02-0.07 0.01-0.06 0.02-0.07 0.02-0.07 0.01-0.01v-0.01l0.01-0.01v-0.02l0.01-0.01v-0.01l0.02-0.02v-0.02l0.01-0.01 0.01-0.02v-0.01-0.01l0.01-0.01v-0.01l0.01-0.01v-0.01l0.02-0.07 0.02-0.06 0.02-0.07 0.03-0.07 0.02-0.07 0.03-0.07 0.02-0.06 0.03-0.07 0.03-0.07 0.02-0.07 0.03-0.06 0.03-0.07 0.03-0.07 0.03-0.06 0.03-0.07 0.03-0.06 0.03-0.07 0.03-0.07 0.03-0.06 0.04-0.07 0.03-0.06 0.03-0.06 0.04-0.07 0.03-0.06 0.04-0.07 0.03-0.06 0.04-0.06 0.04-0.06 0.04-0.07 0.04-0.06 0.04-0.06 0.04-0.06 0.04-0.06 0.04-0.06 0.04-0.06 0.04-0.06 0.05-0.06 0.04-0.06 0.04-0.06 0.05-0.06v-0.01l2.4-3.12 2.3-3.08 2.2-3.05 2.11-3.01 2.02-2.98 1.93-2.93 1.85-2.89 1.75-2.85 1.68-2.81 1.59-2.75 1.51-2.71 1.44-2.66 1.36-2.6 1.29-2.56 1.21-2.49 1.15-2.44 1.07-2.38 1.02-2.32 0.95-2.26 0.88-2.2 0.83-2.13 0.77-2.06 0.72-1.99 0.66-1.93 0.61-1.85 0.57-1.78 0.51-1.7 0.47-1.62 0.43-1.55 0.38-1.46 0.35-1.39 0.3-1.29 0.28-1.22 0.24-1.12 0.2-1.04 0.18-0.95 0.16-0.85 0.12-0.76 0.11-0.66 0.08-0.57 0.01-0.07 0.01-0.07 0.01-0.07 0.01-0.07v-0.06l0.01-0.06 0.01-0.06 0.01-0.06v-0.05l0.01-0.05 0.01-0.05v-0.05l0.01-0.04v-0.05l0.01-0.04v-0.03l0.01-0.04v-0.04l0.01-0.03v-0.03-0.03l0.01-0.03v-0.02-0.05l0.01-0.02v-0.01-0.04-0.02-0.02l0.01-0.01v-0.02l0.02-0.23 0.03-0.22 0.03-0.22 0.04-0.22 0.04-0.21 0.05-0.22 0.06-0.21 0.06-0.21 0.06-0.21 0.07-0.21 0.08-0.2 0.08-0.2 0.09-0.2 0.09-0.2 0.1-0.19 0.1-0.19 0.11-0.19 0.11-0.19 0.12-0.18 0.12-0.18 0.13-0.17 0.13-0.17 0.14-0.17 0.14-0.17 0.14-0.16 0.15-0.16 0.15-0.15 0.16-0.15 0.16-0.15 0.17-0.14 0.17-0.14 0.17-0.13 0.18-0.13 0.18-0.12 0.18-0.12 0.19-0.12 0.2-0.11 0.19-0.11 0.2-0.1 0.2-0.1 0.12-0.05 0.11-0.05 0.11-0.05 0.12-0.05 0.11-0.05 0.11-0.05 0.12-0.05 0.11-0.05 0.11-0.04 0.11-0.05 0.11-0.05 0.12-0.05 0.11-0.04 0.11-0.05 0.11-0.05 0.11-0.04 0.11-0.05 0.11-0.04 0.12-0.05 0.11-0.04 0.11-0.05 0.11-0.04 0.11-0.04 0.11-0.05 0.11-0.04 0.11-0.04 0.11-0.05 0.11-0.04 0.11-0.04 0.11-0.04 0.11-0.05 0.11-0.04 0.11-0.04 0.11-0.04 0.11-0.05 0.11-0.04 0.11-0.04 0.11-0.04 0.11-0.04 0.11-0.04 0.28-0.11 0.28-0.1 0.27-0.11 0.28-0.1 0.27-0.1 0.28-0.09 0.27-0.1 0.28-0.1 0.27-0.09 0.27-0.09 0.27-0.09 0.27-0.09 0.27-0.08 0.27-0.09 0.27-0.08 0.27-0.08 0.26-0.08 0.27-0.08 0.27-0.08 0.26-0.07 0.27-0.08 0.26-0.07 0.27-0.07 0.26-0.07 0.26-0.07 0.26-0.06 0.26-0.07 0.27-0.06 0.26-0.06 0.25-0.06 0.26-0.06 0.26-0.05 0.26-0.06 0.26-0.05 0.25-0.06 0.26-0.05 0.25-0.05 0.26-0.05 0.25-0.04 0.26-0.05-33.26-137.91-0.07-0.26-0.07-0.25-0.06-0.26-0.06-0.26-0.07-0.26-0.05-0.26-0.06-0.26-0.06-0.26-0.05-0.26-0.06-0.26-0.05-0.26-0.05-0.26-0.04-0.26-0.05-0.26-0.04-0.25-0.04-0.26-0.04-0.26-0.04-0.26-0.04-0.26-0.03-0.26-0.04-0.26-0.03-0.26-0.03-0.26-0.03-0.25-0.02-0.26-0.03-0.26-0.02-0.26-0.02-0.26-0.02-0.25-0.02-0.26-0.01-0.26-0.02-0.26-0.01-0.25-0.01-0.26-0.01-0.26-0.01-0.25v-0.26l-0.01-0.26v-0.25-0.26l0.02-1.31 0.06-1.31 0.11-1.31 0.15-1.29 0.19-1.28 0.24-1.28 0.27-1.26 0.32-1.25 0.35-1.24 0.39-1.22 0.43-1.21 0.47-1.19 0.51-1.17 0.55-1.16 0.58-1.14 0.62-1.12 0.65-1.1 0.69-1.08 0.72-1.06 0.75-1.03 0.79-1.01 0.82-0.98 0.86-0.96 0.88-0.93 0.92-0.91 0.95-0.87 0.98-0.85 1-0.81 1.04-0.79 1.06-0.75 1.1-0.72 1.12-0.68 1.14-0.65 1.18-0.62 1.19-0.58 1.23-0.54 1.25-0.5 1.27-0.46 1.3-0.42 1.32-0.38 0.26-0.07 0.26-0.07 0.25-0.06 0.26-0.06 0.26-0.07 0.26-0.06 0.26-0.05 0.26-0.06 0.26-0.05 0.26-0.06 0.26-0.05 0.26-0.04 0.26-0.05 0.26-0.05 0.25-0.04 0.26-0.04 0.26-0.04 0.26-0.04 0.26-0.04 0.26-0.03 0.26-0.03 0.26-0.04 0.25-0.02 0.26-0.03 0.26-0.03 0.26-0.02 0.26-0.03 0.25-0.02 0.26-0.02 0.26-0.01 0.26-0.02 0.25-0.01 0.26-0.02 0.26-0.01 0.25-0.01h0.26l0.26-0.01h0.25l0.26-0.01h0.25l1.32 0.03 1.31 0.06 1.3 0.11 1.3 0.15 1.28 0.19 1.28 0.24 1.26 0.27 1.25 0.32 1.24 0.35 1.22 0.39 1.21 0.44 1.2 0.47 1.17 0.51 1.16 0.54 1.14 0.58 1.12 0.62 1.1 0.65 1.08 0.69 1.06 0.72 1.03 0.76 1.01 0.79 0.99 0.82 0.95 0.86 0.94 0.88 0.9 0.92 0.88 0.95 0.84 0.98 0.82 1 0.78 1.04 0.75 1.06 0.72 1.1 0.69 1.12 0.65 1.15 0.61 1.17 0.57 1.2 0.54 1.22 0.5 1.25 0.46 1.28 0.42 1.29 0.38 1.33 49.51 181.4 28.45-189.15 0.23-1.48 0.29-1.46 0.34-1.44 0.39-1.42 0.43-1.39 0.49-1.37 0.53-1.34 0.58-1.32 0.62-1.29 0.67-1.26 0.71-1.23 0.75-1.2 0.79-1.16 0.83-1.14 0.87-1.11 0.9-1.07 0.94-1.04 0.98-1 1.01-0.97 1.04-0.93 1.07-0.89 1.1-0.86 1.14-0.81 1.16-0.78 1.19-0.74 1.21-0.69 1.24-0.65 1.26-0.61 1.29-0.57 1.3-0.51 1.33-0.48 1.35-0.43 1.36-0.38 1.38-0.33 1.4-0.28 1.41-0.24 1.43-0.18 1.44-0.13 1.45-0.08 1.46-0.03h0.14 0.14zm-1.98 16.56l-0.84 0.08-0.84 0.11-0.82 0.13-0.82 0.17-0.81 0.19-0.8 0.23-0.79 0.25-0.77 0.28-0.77 0.3-0.75 0.33-0.74 0.36-0.73 0.38-0.71 0.41-0.69 0.43-0.68 0.46-0.67 0.48-0.65 0.5-0.63 0.52-0.61 0.55-0.59 0.57-0.57 0.59-0.55 0.61-0.53 0.63-0.51 0.65-0.49 0.67-0.47 0.68-0.44 0.71-0.41 0.72-0.39 0.74-0.37 0.76-0.34 0.77-0.31 0.79-0.29 0.81-0.25 0.82-0.23 0.83-0.2 0.85-0.17 0.86-0.14 0.87-29.51 196.41-2.91 19.31-0.73 4.9-0.06 0.34-0.07 0.33-0.08 0.32-0.1 0.32-0.1 0.31-0.12 0.3-0.13 0.3-0.15 0.29-0.15 0.29-0.16 0.28-0.17 0.27-0.19 0.26-0.19 0.25-0.2 0.25-0.21 0.24-0.22 0.23-0.23 0.22-0.23 0.21-0.25 0.2-0.25 0.19-0.26 0.19-0.26 0.17-0.27 0.16-0.28 0.16-0.28 0.14-0.29 0.13-0.3 0.12-0.3 0.11-0.3 0.1-0.31 0.08-0.31 0.08-0.32 0.06-0.32 0.05-0.33 0.04-0.32 0.02-0.33 0.01h-0.33l-0.34-0.01-0.33-0.03-0.34-0.05h-0.01-0.01-0.01-0.01l-0.01-0.01h-0.01-0.01l-0.01-0.01h-0.02-0.01l-0.01-0.01h-0.02l-0.02-0.01-0.04-0.01-0.03-0.01-0.02-0.01h-0.02l-0.01-0.01h-0.01-0.01l-0.01-0.01h-0.01-0.01-0.01-0.01l-0.25 0.04-0.25 0.03-0.24 0.03-0.25 0.02-0.25 0.01-0.24 0.01-0.25-0.01-0.24-0.01-0.25-0.02-0.24-0.02-0.24-0.03-0.24-0.04-0.23-0.05-0.24-0.05-0.23-0.06-0.23-0.06-0.23-0.07-0.22-0.08-0.22-0.09-0.22-0.09-0.22-0.1-0.21-0.1-0.22-0.11-0.2-0.12-0.21-0.12-0.2-0.13-0.19-0.13-0.2-0.14-0.19-0.15-0.18-0.15-0.18-0.15-0.18-0.16-0.17-0.17-0.17-0.17-0.16-0.18-0.16-0.18-0.15-0.19-0.15-0.19-0.14-0.2-0.14-0.2-0.03-0.05-0.04-0.06-0.03-0.05-0.03-0.05-0.04-0.06-0.03-0.05-0.03-0.06-0.03-0.05-0.04-0.06-0.03-0.05-0.03-0.06-0.03-0.05-0.03-0.06-0.03-0.05-0.03-0.06-0.03-0.06-0.03-0.05-0.03-0.06-0.03-0.06-0.02-0.05-0.03-0.06-0.03-0.06-0.02-0.06-0.03-0.06-0.03-0.06-0.02-0.05-0.03-0.06-0.02-0.06-0.02-0.06-0.03-0.06-0.02-0.07-0.02-0.06-0.02-0.06-0.02-0.06-0.02-0.06-0.02-0.06-0.02-0.07-0.02-0.06-0.02-0.06-0.02-0.07-3.7-13.58-54.12-198.3-0.22-0.78-0.25-0.76-0.27-0.74-0.29-0.74-0.31-0.72-0.34-0.7-0.36-0.69-0.38-0.67-0.4-0.66-0.42-0.64-0.44-0.63-0.46-0.6-0.48-0.59-0.5-0.58-0.51-0.55-0.53-0.54-0.55-0.52-0.56-0.5-0.58-0.48-0.59-0.47-0.61-0.44-0.62-0.42-0.63-0.41-0.65-0.38-0.65-0.36-0.67-0.34-0.68-0.32-0.69-0.3-0.7-0.27-0.71-0.26-0.72-0.23-0.72-0.21-0.73-0.18-0.74-0.16-0.75-0.14-0.75-0.11-0.76-0.09-0.76-0.06-0.77-0.04-0.77-0.01h-0.15-0.15-0.15-0.15l-0.15 0.01h-0.15l-0.15 0.01-0.15 0.01h-0.15l-0.15 0.01-0.15 0.01-0.15 0.01-0.15 0.02-0.15 0.01-0.15 0.01-0.15 0.02-0.15 0.01-0.15 0.02-0.15 0.02-0.15 0.02-0.15 0.02-0.15 0.02-0.16 0.02-0.15 0.03-0.15 0.02-0.15 0.02-0.15 0.03-0.15 0.03-0.15 0.03-0.15 0.03-0.15 0.03-0.15 0.03-0.15 0.03-0.16 0.04-0.15 0.03-0.15 0.04-0.15 0.04-0.15 0.04-0.15 0.04-0.15 0.04-0.78 0.22-0.76 0.24-0.74 0.27-0.74 0.29-0.71 0.32-0.71 0.34-0.68 0.36-0.68 0.38-0.65 0.4-0.64 0.42-0.63 0.44-0.61 0.46-0.59 0.48-0.57 0.49-0.55 0.52-0.54 0.53-0.52 0.54-0.5 0.56-0.48 0.58-0.47 0.59-0.44 0.61-0.42 0.62-0.41 0.63-0.38 0.65-0.36 0.65-0.34 0.67-0.32 0.68-0.3 0.69-0.27 0.7-0.26 0.71-0.23 0.71-0.21 0.73-0.18 0.73-0.16 0.74-0.14 0.74-0.11 0.76-0.09 0.75-0.07 0.76-0.04 0.77-0.01 0.77v0.15 0.15 0.15l0.01 0.15v0.15l0.01 0.15v0.15l0.01 0.15 0.01 0.15 0.01 0.15 0.01 0.16 0.01 0.15 0.02 0.15 0.01 0.15 0.02 0.16 0.01 0.15 0.02 0.15 0.02 0.16 0.02 0.15 0.02 0.15 0.02 0.16 0.02 0.16 0.03 0.15 0.02 0.16 0.03 0.16 0.02 0.15 0.03 0.16 0.03 0.16 0.03 0.16 0.03 0.16 0.04 0.16 0.03 0.16 0.04 0.17 0.03 0.16 0.04 0.16 0.04 0.17 0.04 0.16 0.04 0.17 0.04 0.17 0.05 0.17 34.44 142.81 0.35 0.12 0.35 0.11 0.34 0.13 0.34 0.13 0.34 0.13 0.34 0.13 0.33 0.14 0.33 0.15 0.33 0.14 0.32 0.16 0.32 0.15 0.32 0.16 0.31 0.16 0.32 0.17 0.3 0.16 0.31 0.18 0.3 0.17 0.3 0.18 0.3 0.18 0.3 0.19 0.29 0.18 0.29 0.19 0.28 0.2 0.29 0.19 0.28 0.2 0.27 0.21 0.28 0.2 0.27 0.21 0.27 0.21 0.26 0.21 0.27 0.22 0.26 0.21 0.26 0.22 0.25 0.23 0.25 0.22 0.25 0.23 0.25 0.22 0.24 0.24 0.24 0.23 0.24 0.23 0.11 0.11 0.1 0.1 0.11 0.11 0.1 0.11 0.11 0.1 0.1 0.11 0.1 0.11 0.11 0.1 0.1 0.11 0.1 0.11 0.1 0.11 0.11 0.11 0.1 0.1 0.1 0.11 0.1 0.11 0.09 0.11 0.1 0.11 0.1 0.11 0.1 0.11 0.09 0.11 0.1 0.11 0.1 0.12 0.09 0.11 0.1 0.11 0.09 0.11 0.09 0.11 0.09 0.12 0.1 0.11 0.09 0.11 0.09 0.12 0.09 0.11 0.09 0.11 0.08 0.12 0.09 0.11 0.09 0.12 0.08 0.11 0.09 0.12 0.08 0.12 0.09 0.11 0.08 0.12 0.45 0.67 0.43 0.67 0.43 0.68 0.41 0.68 0.39 0.69 0.38 0.69 0.37 0.69 0.36 0.7 0.35 0.7 0.33 0.71 0.32 0.71 0.31 0.71 0.3 0.71 0.29 0.71 0.28 0.72 0.26 0.72 0.26 0.71 0.25 0.72 0.23 0.72 0.23 0.72 0.21 0.71 0.21 0.72 0.2 0.72 0.19 0.71 0.18 0.71 0.17 0.71 0.16 0.71 0.16 0.71 0.14 0.7 0.14 0.7 0.14 0.69 0.12 0.7 0.12 0.68 0.11 0.69 0.1 0.67 0.1 0.68 0.09 0.66 0.09 0.67 0.08 0.65 0.07 0.65 0.02 0.09 0.01 0.09 0.01 0.1 0.01 0.09 0.01 0.09 0.01 0.09 0.01 0.09 0.01 0.09 0.01 0.09v0.09l0.01 0.09 0.01 0.09 0.01 0.1 0.01 0.09 0.01 0.09 0.01 0.08 0.01 0.09 0.01 0.09v0.09l0.01 0.09 0.01 0.09 0.01 0.09 0.01 0.09v0.09l0.01 0.09 0.01 0.08 0.01 0.09v0.09l0.01 0.09 0.01 0.08 0.01 0.09v0.09l0.01 0.09 0.01 0.08 0.01 0.09v0.09l0.01 0.08 0.01 0.09v0.09l0.01 0.08 0.01 0.08v0.08l0.01 0.08v0.08l0.01 0.08 0.01 0.08v0.08l0.01 0.08v0.08l0.01 0.08v0.07l0.01 0.08v0.08l0.01 0.07v0.08l0.01 0.08v0.07l0.01 0.08v0.08l0.01 0.07v0.08l0.01 0.07v0.08l0.01 0.07v0.08l0.01 0.07v0.08 0.07l0.01 0.08v0.07l0.01 0.08v0.07l0.01 0.08v0.07 0.07l0.01 0.08v0.07l0.01 0.08v0.07 0.08l0.01 0.16 0.01 0.16 0.01 0.16 0.01 0.16v0.16l0.01 0.16 0.01 0.16v0.15l0.01 0.16 0.01 0.16v0.15l0.01 0.16 0.01 0.15v0.15l0.01 0.15v0.15l0.01 0.15v0.15l0.01 0.15v0.14l0.01 0.15v0.14l0.01 0.14v0.15l0.01 0.14v0.14 0.13l0.01 0.14v0.14l0.01 0.13v0.13 0.14 0.13l0.01 0.13v0.12 0.13l0.01 0.12v0.13 0.12 0.12 0.05 0.05 0.06 0.05 0.05 0.05 0.05 0.05 0.05 0.05 0.05 0.05 0.05 0.05 0.05 0.05 0.05 0.04 0.05 0.05 0.05 0.04 0.05 0.05 0.04 0.05 0.04l-0.01 0.05v0.05 0.04 0.04 0.05 0.04 0.05 0.04 0.04 0.05 0.04 0.04 0.04l-0.01 0.13v0.12 0.12 0.12l-0.01 0.11v0.11 0.11 0.11l-0.01 0.1v0.1 0.1l-0.01 0.1v0.09 0.09l-0.01 0.09v0.08 0.08 0.08l-0.01 0.08v0.07 0.07l-0.01 0.07v0.06 0.06l-0.01 0.06v0.05 0.05 0.05l-0.01 0.05v0.04 0.04 0.04 0.03 0.03l-0.01 0.07v0.02 0.02l-0.01 0.08v0.09l-0.01 0.08-0.01 0.08-0.01 0.08-0.01 0.08-0.01 0.08-0.01 0.08-0.01 0.08-0.02 0.07-0.01 0.08-0.01 0.08-0.02 0.08-0.01 0.08-0.02 0.07-0.02 0.08-0.01 0.08-0.02 0.07-0.02 0.08-0.02 0.08-0.02 0.07-0.02 0.08-0.03 0.08-0.02 0.07-0.02 0.08-0.03 0.07-0.02 0.08-0.03 0.07-0.02 0.08-0.03 0.07-0.03 0.08-0.03 0.07-0.03 0.08-0.03 0.07-0.03 0.08-0.03 0.07-0.04 0.08-0.03 0.07-0.03 0.08-0.04 0.07-0.02 0.05-0.04 0.07-0.01 0.03-0.01 0.02-0.02 0.03-0.01 0.03-0.01 0.02-0.02 0.03-0.01 0.03-0.01 0.03-0.02 0.02-0.01 0.02-0.01 0.05-0.12 0.23-0.11 0.23-0.11 0.23-0.11 0.23-0.11 0.23-0.11 0.22-0.11 0.23-0.11 0.23-0.11 0.23-0.11 0.22-0.11 0.23-0.1 0.22-0.11 0.23-0.11 0.22-0.1 0.23-0.11 0.22-0.11 0.23-0.1 0.22-0.11 0.22-0.1 0.23-0.1 0.22-0.11 0.22-0.1 0.22-0.1 0.22-0.11 0.22-0.1 0.22-0.1 0.22-0.1 0.22-0.1 0.22-0.1 0.22-0.1 0.21-0.11 0.22-0.1 0.22-0.09 0.22-0.1 0.21-0.1 0.22-0.1 0.21-0.1 0.22-0.1 0.21-0.1 0.22-0.06 0.14-0.06 0.13-0.06 0.14-0.06 0.14-0.07 0.13-0.06 0.14-0.06 0.13-0.06 0.14-0.05 0.13-0.06 0.14-0.06 0.13-0.06 0.13-0.06 0.14-0.06 0.13-0.05 0.13-0.06 0.13-0.06 0.13-0.05 0.13-0.06 0.13-0.06 0.14-0.05 0.13-0.06 0.13-0.05 0.13-0.06 0.13-0.05 0.13-0.06 0.13-0.05 0.12-0.06 0.13-0.05 0.13-0.06 0.13-0.11 0.26-0.05 0.13-0.06 0.13-0.06 0.13-0.05 0.13-0.06 0.13-0.05 0.13-0.06 0.13-0.05 0.13 5.12 20.5 2.19 12.21 5.03 28.02 0.46 0.04 0.47 0.04 0.49 0.04 0.5 0.05 0.51 0.05 0.53 0.05 0.54 0.06 0.55 0.06 0.56 0.07 0.58 0.07 0.58 0.07 0.6 0.08 0.61 0.08 0.63 0.09 0.63 0.09 0.64 0.09 0.65 0.1 0.66 0.11 0.68 0.11 0.68 0.12 0.69 0.12 0.7 0.13 0.71 0.13 0.71 0.14 0.73 0.15 0.73 0.15 0.74 0.16 0.75 0.16 0.75 0.17 0.77 0.18 0.76 0.18 0.78 0.19 0.78 0.2 0.79 0.2 0.79 0.22 0.8 0.22 0.8 0.22 0.81 0.24 0.81 0.24 0.82 0.25 1.29 0.41 1.31 0.43 1.32 0.46 1.32 0.48 1.34 0.5 1.34 0.53 1.34 0.55 1.36 0.58 1.35 0.6 1.35 0.63 1.36 0.65 1.36 0.69 1.35 0.71 1.35 0.74 1.34 0.77 1.34 0.8 1.33 0.83 1.32 0.86 1.32 0.9 1.3 0.92 1.29 0.96 1.28 0.99 1.26 1.03 1.24 1.06 1.23 1.1 1.21 1.13 1.18 1.16 1.17 1.21 1.15 1.24 1.12 1.28 1.09 1.32 1.07 1.35 1.04 1.4 1.01 1.44 0.99 1.47 0.95 1.52 0.91 1.56 0.89 1.61 0.85 1.64 0.81 1.69 0.13 0.31 0.13 0.32 0.1 0.31 0.1 0.32 0.08 0.32 0.07 0.32 0.06 0.32 0.04 0.32 0.03 0.33 0.01 0.32 0.01 0.32-0.01 0.32-0.02 0.32-0.03 0.31-0.05 0.32-0.05 0.31-0.07 0.31-0.08 0.3-0.1 0.31-0.1 0.29-0.11 0.3-0.13 0.29-0.14 0.28-0.15 0.28-0.15 0.28-0.17 0.27-0.18 0.26-0.2 0.25-0.2 0.25-0.21 0.24-0.22 0.24-0.23 0.22-0.24 0.22-0.25 0.21-0.26 0.2-0.27 0.19-0.28 0.18-0.29 0.17-0.3 0.16-0.31 0.15-0.08 0.04-0.08 0.03-0.09 0.04-0.08 0.04-0.09 0.03-0.08 0.03-0.09 0.04-0.08 0.03-0.09 0.03-0.08 0.03-0.09 0.03-0.09 0.02-0.08 0.03-0.09 0.03-0.08 0.02-0.09 0.02-0.08 0.03-0.09 0.02-0.09 0.02-0.08 0.02-0.09 0.02-0.09 0.01-0.08 0.02-0.09 0.02-0.09 0.01-0.08 0.01-0.09 0.02-0.08 0.01-0.09 0.01-0.09 0.01-0.08 0.01-0.09 0.01h-0.09l-0.08 0.01h-0.09l-0.09 0.01h-0.08-0.09-0.09-0.08-0.24l-0.23-0.01-0.23-0.02-0.23-0.02-0.23-0.03-0.23-0.03-0.23-0.05-0.23-0.05-0.22-0.05-0.23-0.06-0.22-0.07-0.22-0.07-0.21-0.08-0.22-0.09-0.21-0.09-0.21-0.1-0.21-0.1-0.2-0.11-0.2-0.12-0.2-0.12-0.2-0.12-0.19-0.14-0.19-0.13-0.18-0.15-0.18-0.15-0.18-0.15-0.17-0.16-0.17-0.16-0.16-0.17-0.16-0.18-0.16-0.18-0.15-0.19-0.14-0.19-0.14-0.19-0.14-0.2-0.13-0.21-0.12-0.21-0.12-0.21-0.11-0.22-0.11-0.23-0.59-1.24-0.63-1.22-0.65-1.19-0.68-1.16-0.71-1.13-0.73-1.1-0.75-1.08-0.79-1.05-0.8-1.02-0.83-0.99-0.85-0.97-0.87-0.94-0.89-0.92-0.91-0.89-0.93-0.87-0.94-0.84-0.96-0.82-0.98-0.79-0.99-0.77-1.01-0.75-1.02-0.72-1.04-0.7-1.04-0.68-1.06-0.66-1.07-0.64-1.07-0.61-1.09-0.6-1.09-0.57-1.1-0.56-1.1-0.53-1.11-0.52-1.12-0.49-1.11-0.48-1.12-0.46-1.13-0.44-1.12-0.43-1.12-0.4-1.13-0.39-1.12-0.38-1.12-0.35-0.98-0.3-0.97-0.29-0.97-0.28-0.96-0.26-0.96-0.25-0.94-0.23-0.94-0.23-0.93-0.21-0.91-0.21-0.91-0.19-0.89-0.18-0.88-0.17-0.86-0.17-0.85-0.15-0.84-0.14-0.82-0.13-0.8-0.13-0.79-0.12-0.76-0.11-0.75-0.1-0.73-0.09-0.7-0.09-0.69-0.07-0.66-0.08-0.64-0.06-0.62-0.06-0.59-0.06-0.57-0.04-0.54-0.05-0.52-0.04-0.49-0.03-0.45-0.03-0.43-0.02-0.41-0.03-0.37-0.01-0.33-0.02-0.31-0.01-0.28-0.01-0.24-0.01h-0.2-0.03-0.02l-0.02 0.01h-0.02-0.02l-0.02 0.01h-0.02-0.02-0.02l-0.03 0.01h-0.02-0.02-0.02l-0.02 0.01h-0.02-0.02-0.03l-0.02 0.01h-0.02-0.02-0.02-0.02l-0.02 0.01h-0.03-0.02-0.02-0.02-0.02l-0.02 0.01h-0.03-0.02-0.02-0.02-0.02l-0.05 0.01h-0.04-0.04-0.01-0.02l-0.01 0.01h-0.01-0.01-0.01-0.01-0.01l-0.01 0.01h-0.01-0.01-0.01-0.01l-0.03 0.01h-0.01l-0.04 0.01h-0.01l-0.02 0.01h-0.01-0.01-0.01l-0.01 0.01h-0.02-0.01-0.01-0.01-0.01l-0.01 0.01h-0.01-0.01-0.01-0.01-0.01-0.01-0.02-0.01-0.02-0.01l-0.03-0.01h-0.01-0.02-0.01-0.01-0.05-0.06-0.05l-0.06-0.01h-0.06-0.05-0.06l-0.06-0.01h-0.05l-0.06-0.01h-0.05l-0.06-0.01h-0.06l-0.05-0.01h-0.06l-0.06-0.01-0.05-0.01h-0.06l-0.05-0.01-0.06-0.01-0.06-0.01h-0.05l-0.06-0.01-0.05-0.01-0.06-0.01-0.05-0.01-0.06-0.01-0.06-0.02-0.05-0.01-0.06-0.01-0.05-0.01-0.06-0.02-0.05-0.01-0.06-0.01-0.06-0.02-0.05-0.01-0.06-0.02-0.05-0.01-0.06-0.02-0.05-0.02-2.74-0.81-15.72-4.65-0.47-0.17-0.27-0.09-0.03-0.01h-0.02l-0.02-0.01-0.03-0.01h-0.03l-0.02-0.01-0.03-0.01-0.03-0.01-0.02-0.01-0.03-0.01-0.03-0.01-0.03-0.01-0.03-0.01-0.03-0.01-0.03-0.01-0.03-0.01-0.03-0.01-0.03-0.01-0.03-0.01-0.03-0.02-0.03-0.01-0.04-0.01-0.03-0.02-0.03-0.01-0.04-0.02-0.03-0.01-0.04-0.02-0.03-0.02-0.04-0.01-0.03-0.02-0.04-0.02-0.04-0.01-0.03-0.02-0.04-0.02-0.04-0.02-0.04-0.02-0.03-0.02-0.04-0.02-0.04-0.02-0.04-0.02-0.25-0.15-0.26-0.16-0.27-0.18-0.28-0.19-0.29-0.21-0.3-0.23-0.3-0.25-0.31-0.26-0.32-0.28-0.32-0.3-0.33-0.32-0.33-0.34-0.34-0.35-0.33-0.38-0.34-0.39-0.33-0.41-0.34-0.43-0.33-0.45-0.34-0.47-0.33-0.49-0.32-0.51-0.33-0.53-0.31-0.55-0.31-0.57-0.31-0.6-0.29-0.61-0.29-0.63-0.28-0.65-0.26-0.68-0.26-0.7-0.25-0.72-0.23-0.74-0.22-0.76-0.2-0.78-0.2-0.81-0.17-0.83-0.16-0.85-0.14-0.88-0.12-0.89-0.11-0.93-0.01-0.12-0.01-0.13-0.02-0.12-0.01-0.13-0.01-0.13-0.01-0.12-0.01-0.13-0.01-0.13-0.02-0.13-0.01-0.13-0.01-0.12-0.01-0.13-0.01-0.13-0.01-0.13-0.01-0.13-0.01-0.13-0.01-0.13v-0.13l-0.01-0.14-0.01-0.13-0.01-0.13v-0.13l-0.01-0.14-0.01-0.13v-0.13l-0.01-0.14v-0.13l-0.01-0.14v-0.14-0.13l-0.01-0.14v-0.14-0.14-0.14-0.14-0.14-0.14-0.14-0.14l0.01-0.14v-0.82l0.02-0.83 0.03-0.84 0.04-0.86 0.06-0.87 0.06-0.89 0.08-0.9 0.09-0.92 0.1-0.94 0.12-0.95 0.13-0.97 0.14-0.99 0.15-1 0.17-1.02 0.19-1.04 0.2-1.05 0.21-1.08 0.23-1.09 0.24-1.11 0.26-1.13 0.28-1.14 0.29-1.17 0.31-1.18 0.32-1.2 0.34-1.23 0.36-1.24 0.37-1.26 0.39-1.28 0.41-1.31 0.43-1.32 0.45-1.35 0.46-1.36 0.48-1.39 0.5-1.4 0.52-1.43 0.54-1.45 0.56-1.48 0.58-1.49 0.6-1.52 0.62-1.54 0.11-0.26 0.1-0.25 0.11-0.26 0.11-0.26 0.1-0.26 0.11-0.26 0.11-0.26 0.11-0.26 0.1-0.26 0.11-0.26 0.11-0.27 0.11-0.26 0.11-0.26 0.11-0.27 0.11-0.26 0.12-0.27 0.11-0.26 0.11-0.27 0.11-0.26 0.12-0.27 0.11-0.27 0.12-0.27 0.11-0.27 0.12-0.27 0.12-0.27 0.12-0.27 0.11-0.27 0.12-0.28 0.12-0.27 0.12-0.28 0.12-0.27 0.13-0.28 0.12-0.27 0.12-0.28 0.12-0.28 0.13-0.28 0.12-0.28 0.13-0.28 0.13-0.28 0.13-0.29 0.06-0.13 0.06-0.14 0.06-0.13 0.06-0.14 0.07-0.13 0.06-0.14 0.06-0.14 0.07-0.13 0.06-0.14 0.07-0.14 0.06-0.13 0.06-0.14 0.07-0.14 0.06-0.14 0.07-0.14 0.06-0.14 0.07-0.14 0.06-0.14 0.07-0.14 0.06-0.14 0.07-0.14 0.07-0.14 0.06-0.14 0.07-0.14 0.06-0.14 0.07-0.14 0.07-0.14 0.06-0.14 0.07-0.14 0.07-0.14 0.06-0.14 0.07-0.14 0.06-0.15 0.07-0.14 0.07-0.14 0.06-0.14 0.07-0.14 0.07-0.14 0.13-0.29 0.03-0.06 0.03-0.07 0.03-0.06 0.03-0.07 0.03-0.06 0.03-0.07 0.03-0.06 0.03-0.07 0.03-0.06 0.03-0.06 0.03-0.07 0.03-0.06 0.03-0.07 0.03-0.06 0.03-0.07 0.03-0.06 0.06-0.13 0.03-0.06 0.03-0.07 0.03-0.06 0.03-0.07 0.03-0.06 0.03-0.07 0.03-0.06 0.03-0.06 0.03-0.07 0.03-0.06 0.03-0.07 0.03-0.07 0.03-0.06 0.03-0.07 0.03-0.06 0.04-0.07 0.03-0.06 0.03-0.07 0.03-0.07 0.03-0.07 0.04-0.06 0.03-0.07v-0.02-0.17-0.05-0.04-0.05l0.01-0.09v-0.09-0.05-0.05-0.05-0.05-0.05-0.05-0.05-0.05-0.05-0.05l0.01-0.06v-0.05-0.06-0.05-0.06-0.05-0.06-0.05-0.06-0.06-0.06-0.06-0.06-0.06-0.06-0.06-0.06-0.06-0.07l0.01-0.38v-0.4-0.42-0.43l-0.01-0.45-0.01-0.46-0.01-0.47-0.02-0.49-0.02-0.5-0.03-0.51-0.03-0.52-0.03-0.54-0.04-0.54-0.05-0.55-0.04-0.56-0.06-0.57-0.05-0.57-0.07-0.59-0.06-0.59-0.07-0.59-0.08-0.6-0.08-0.61-0.09-0.61-0.09-0.61-0.09-0.62-0.11-0.62-0.1-0.62-0.12-0.62-0.12-0.63-0.12-0.62-0.13-0.62-0.14-0.62-0.14-0.62-0.15-0.62-0.15-0.62-0.16-0.61-0.17-0.61-0.17-0.6-0.18-0.6-0.18-0.59-0.08-0.24-0.08-0.23-0.08-0.24-0.08-0.23-0.08-0.24-0.08-0.23-0.08-0.23-0.08-0.23-0.09-0.23-0.09-0.22-0.08-0.23-0.09-0.22-0.09-0.23-0.09-0.22-0.09-0.22-0.1-0.22-0.09-0.21-0.09-0.22-0.1-0.21-0.1-0.21-0.1-0.21-0.1-0.21-0.1-0.21-0.1-0.2-0.1-0.2-0.11-0.2-0.1-0.2-0.11-0.2-0.11-0.19-0.11-0.19-0.11-0.19-0.11-0.19-0.12-0.19-0.11-0.18-0.12-0.18-0.12-0.18-0.12-0.17-0.12-0.17-0.12-0.17-0.13-0.17-0.04-0.06-0.05-0.07-0.04-0.06-0.05-0.06-0.04-0.06-0.05-0.06-0.05-0.06-0.04-0.06-0.05-0.06-0.05-0.06-0.04-0.06-0.05-0.06-0.04-0.06-0.05-0.05-0.05-0.06-0.04-0.06-0.05-0.05-0.05-0.06-0.05-0.06-0.04-0.05-0.05-0.06-0.05-0.05-0.04-0.06-0.05-0.05-0.05-0.05-0.05-0.06-0.04-0.05-0.05-0.05-0.05-0.06-0.05-0.05-0.04-0.05-0.05-0.05-0.05-0.05-0.05-0.05-0.05-0.06-0.04-0.05-0.05-0.05-0.05-0.05-0.05-0.05-0.05-0.05-0.11-0.11-0.12-0.12-0.12-0.11-0.12-0.11-0.11-0.11-0.12-0.11-0.12-0.11-0.13-0.1-0.12-0.11-0.12-0.1-0.12-0.1-0.13-0.1-0.12-0.09-0.13-0.1-0.12-0.09-0.13-0.09-0.13-0.09-0.13-0.09-0.13-0.09-0.13-0.08-0.14-0.09-0.13-0.08-0.13-0.08-0.14-0.08-0.14-0.07-0.14-0.08-0.14-0.07-0.14-0.07-0.14-0.07-0.14-0.07-0.15-0.07-0.15-0.07-0.14-0.06-0.15-0.06-0.15-0.06-0.16-0.06-0.15-0.06-0.15-0.06-0.16-0.05-0.16-0.05-0.1-0.04-0.1-0.03-0.11-0.03-0.1-0.03-0.11-0.03-0.1-0.03-0.11-0.03-0.11-0.02-0.11-0.03-0.11-0.03-0.11-0.02-0.11-0.03-0.12-0.02-0.11-0.03-0.11-0.02-0.12-0.02-0.12-0.02-0.11-0.02-0.12-0.02-0.12-0.02-0.12-0.02-0.13-0.01-0.12-0.02-0.12-0.02-0.13-0.01-0.13-0.01-0.12-0.02-0.13-0.01-0.13-0.01-0.13-0.01-0.14-0.01-0.13-0.01-0.14-0.01h-0.13l-0.14-0.01h-0.14l-0.14-0.01h-0.14-0.14-0.15-0.07-0.07-0.08-0.08-0.07l-0.08 0.01h-0.08-0.07l-0.08 0.01h-0.08-0.08l-0.08 0.01h-0.08l-0.08 0.01h-0.08l-0.08 0.01h-0.08l-0.08 0.01-0.09 0.01h-0.08l-0.08 0.01-0.08 0.01-0.09 0.01-0.08 0.01h-0.09l-0.08 0.01-0.09 0.01-0.08 0.01-0.09 0.01-0.08 0.01-0.09 0.01-0.09 0.01-0.08 0.01-0.09 0.01-0.09 0.01-0.09 0.02-0.08 0.01-0.09 0.01-0.09 0.01-0.09 0.01-0.02 0.01h-0.01-0.01-0.02-0.01l-0.02 0.01h-0.01-0.02-0.02-0.02l-0.03 0.01-0.17 0.02-0.17 0.03-0.18 0.02-0.17 0.03-0.17 0.03-0.18 0.03-0.18 0.04-0.18 0.03-0.17 0.04-0.19 0.03-0.18 0.04-0.18 0.04-0.19 0.04-0.18 0.04-0.19 0.04-0.19 0.05-0.19 0.04-0.19 0.05-0.19 0.05-0.2 0.05-0.19 0.05-0.2 0.05-0.2 0.05-0.2 0.06-0.2 0.06-0.2 0.06-0.21 0.06-0.2 0.06-0.21 0.06-0.21 0.07-0.21 0.06-0.21 0.07-0.21 0.07-0.22 0.07-0.21 0.08-0.22 0.07-0.22 0.08-0.22 0.08-0.22 0.08-0.22 0.08-0.02 0.12-0.01 0.05-0.02 0.12-0.02 0.06-0.02 0.12-0.01 0.06-0.01 0.06-0.01 0.06-0.01 0.06-0.01 0.07-0.02 0.06-0.01 0.06-0.01 0.06-0.01 0.07-0.01 0.06-0.02 0.06-0.01 0.07-0.01 0.06-0.01 0.06-0.01 0.07-0.02 0.06-0.01 0.07-0.01 0.06-0.01 0.07-0.02 0.07-0.01 0.06-0.01 0.07-0.02 0.07-0.01 0.06-0.01 0.07-0.02 0.07-0.01 0.07-0.01 0.07-0.02 0.07-0.01 0.07-0.02 0.07-0.01 0.07-0.01 0.04-0.01 0.04-0.01 0.05-0.01 0.04-0.01 0.05-0.01 0.04v0.05l-0.01 0.05-0.01 0.04-0.01 0.05-0.01 0.05-0.01 0.04-0.01 0.05-0.02 0.05-0.01 0.04-0.01 0.05-0.01 0.05-0.01 0.05-0.01 0.05-0.02 0.09-0.01 0.05-0.01 0.05-0.02 0.1-0.05 0.2-0.02 0.09-0.02 0.1-0.02 0.1-0.01 0.05-0.01 0.05-0.01 0.05-0.01 0.05-0.01 0.05-0.01 0.02-0.01 0.03v0.03l-0.01 0.02-0.01 0.06v0.02l-0.02 0.05-0.01 0.06-0.01 0.05-0.02 0.1-0.02 0.08-0.01 0.05-0.01 0.05-0.01 0.06-0.01 0.02v0.03l-0.01 0.03v0.02l-0.01 0.03-0.01 0.03v0.02l-0.01 0.03v0.03l-0.01 0.03-0.01 0.03v0.02l-0.01 0.03-0.01 0.03-0.01 0.06-0.02 0.07-0.01 0.06-0.02 0.07-0.01 0.06-0.02 0.07-0.01 0.07-0.02 0.06-0.01 0.07-0.02 0.06-0.02 0.07-0.01 0.07-0.02 0.07-0.01 0.06-0.02 0.07-0.02 0.07-0.01 0.07-0.02 0.06-0.02 0.07-0.01 0.07-0.02 0.07-0.02 0.07-0.01 0.07-0.02 0.07-0.02 0.07-0.02 0.07-0.01 0.07-0.02 0.07-0.02 0.07-0.02 0.07-0.01 0.07-0.02 0.07-0.02 0.07-0.02 0.07-0.01 0.07-0.02 0.07-0.02 0.07-0.02 0.07-0.02 0.07-0.01 0.07-0.01 0.04-0.01 0.03-0.01 0.04v0.02 0.01l-0.01 0.02v0.02l-0.01 0.02-0.01 0.03v0.02 0.02l-0.01 0.03-0.01 0.02v0.03l-0.01 0.04-0.01 0.03-0.01 0.06-0.02 0.05-0.02 0.09-0.01 0.05-0.01 0.04-0.02 0.08-0.02 0.07-0.02 0.08-0.02 0.07-0.02 0.08-0.02 0.07-0.02 0.08-0.02 0.08-0.02 0.07-0.02 0.08-0.02 0.08-0.02 0.08-0.02 0.07-0.02 0.08-0.03 0.08-0.02 0.08-0.02 0.08-0.02 0.08-0.02 0.07-0.02 0.08-0.02 0.08-0.02 0.08-0.03 0.08-0.02 0.08-0.02 0.08-0.02 0.08-0.02 0.08-0.03 0.08-0.02 0.08-0.02 0.08-0.02 0.08-0.03 0.08-0.02 0.08-0.02 0.08-0.02 0.08-0.03 0.08-0.02 0.09-0.02 0.08-0.02 0.08-0.03 0.08v0.02l-0.01 0.01v0.02l-0.01 0.04-0.01 0.02v0.01l-0.01 0.02v0.02l-0.01 0.02v0.02l-0.01 0.01-0.01 0.04v0.02l-0.01 0.03-0.01 0.04-0.03 0.1-0.01 0.02v0.04l-0.01 0.01v0.02l-0.01 0.02-0.01 0.04v0.01l-0.01 0.02v0.02l-0.01 0.02-0.01 0.02v0.02l-0.01 0.01-0.02 0.08-0.02 0.08-0.03 0.09-0.02 0.08-0.02 0.08-0.03 0.08-0.02 0.08-0.03 0.08-0.02 0.08-0.02 0.08-0.03 0.09-0.02 0.08-0.03 0.08-0.02 0.08-0.03 0.09-0.02 0.08-0.03 0.08-0.02 0.09-0.03 0.08-0.02 0.08-0.03 0.09-0.02 0.08-0.03 0.09-0.03 0.08-0.02 0.09-0.03 0.08-0.02 0.08-0.03 0.09-0.03 0.08-0.02 0.09-0.03 0.08-0.03 0.09-0.02 0.09-0.03 0.08-0.03 0.09-0.02 0.08-0.03 0.09-0.03 0.08-0.02 0.09-0.03 0.08-0.01 0.03v0.02l-0.01 0.03-0.01 0.02-0.01 0.02-0.01 0.05-0.01 0.03-0.01 0.02-0.01 0.05-0.01 0.04-0.02 0.05-0.03 0.12-0.02 0.04-0.01 0.05-0.01 0.05-0.01 0.02-0.02 0.05v0.02l-0.01 0.03-0.01 0.02v0.02l-0.01 0.03-0.01 0.02-0.01 0.03-0.01 0.02v0.03l-0.01 0.02-0.01 0.02-0.03 0.09-0.02 0.09-0.03 0.08-0.03 0.09-0.03 0.08-0.02 0.09-0.03 0.09-0.03 0.08-0.03 0.09-0.03 0.09-0.03 0.08-0.02 0.09-0.03 0.09-0.03 0.09-0.03 0.09-0.03 0.08-0.03 0.09-0.03 0.09-0.03 0.09-0.03 0.09-0.03 0.09-0.03 0.09-0.03 0.08-0.03 0.09-0.03 0.09-0.03 0.09-0.03 0.09-0.03 0.09-0.03 0.09-0.03 0.09-0.03 0.09-0.03 0.09-0.03 0.09-0.03 0.09-0.13 0.36-0.03 0.09-0.03 0.09-0.01 0.03-0.01 0.03-0.01 0.03-0.01 0.03-0.01 0.02-0.01 0.03-0.01 0.03-0.01 0.03-0.01 0.03-0.01 0.03-0.01 0.02-0.01 0.03-0.01 0.03-0.01 0.05-0.01 0.03-0.02 0.06-0.01 0.03-0.02 0.05-0.01 0.03-0.02 0.06-0.02 0.05-0.02 0.06-0.03 0.08-0.06 0.2-0.02 0.06-0.03 0.09-0.04 0.09-0.03 0.09-0.03 0.08-0.03 0.09-0.03 0.09-0.03 0.09-0.04 0.09-0.03 0.09-0.03 0.09-0.03 0.09-0.03 0.09-0.04 0.09-0.03 0.1-0.03 0.09-0.04 0.09-0.03 0.09-0.03 0.09-0.04 0.09-0.03 0.09-0.03 0.1-0.04 0.09-0.03 0.09-0.04 0.09-0.03 0.1-0.03 0.09-0.04 0.09-0.03 0.09-0.04 0.1-0.03 0.09-0.04 0.09-0.03 0.09-0.04 0.1-0.03 0.09-0.04 0.09-0.03 0.1-0.04 0.09-0.03 0.09-0.04 0.09-0.03 0.1-0.01 0.03-0.02 0.04-0.02 0.07-0.01 0.03-0.03 0.07-0.02 0.07-0.09 0.24-0.03 0.07-0.01 0.04-0.02 0.07-0.03 0.07-0.01 0.03-0.02 0.04-0.01 0.03-0.01 0.03-0.01 0.04-0.02 0.03-0.01 0.04-0.01 0.03-0.02 0.04-0.01 0.03-0.01 0.04-0.02 0.03-0.01 0.04-0.01 0.03-0.02 0.04-0.01 0.04-0.01 0.03-0.04 0.09-0.03 0.09-0.04 0.1-0.03 0.09-0.04 0.09-0.04 0.09-0.03 0.09-0.04 0.1-0.04 0.09-0.03 0.09-0.04 0.1-0.04 0.09-0.03 0.09-0.04 0.1-0.04 0.09-0.04 0.09-0.03 0.1-0.04 0.09-0.04 0.1-0.04 0.09-0.04 0.09-0.03 0.1-0.04 0.09-0.04 0.1-0.04 0.09-0.04 0.1-0.04 0.09-0.03 0.1-0.04 0.09-0.04 0.1-0.12 0.29-0.04 0.09-0.04 0.1-0.03 0.09-0.04 0.1-0.04 0.1-0.04 0.09-0.04 0.1-0.02 0.04-0.01 0.04-0.02 0.04-0.02 0.04-0.01 0.04-0.02 0.04-0.02 0.04-0.01 0.04-0.02 0.04-0.01 0.04-0.04 0.08-0.06 0.17-0.03 0.08-0.04 0.08-0.01 0.04-0.02 0.04-0.03 0.08-0.02 0.04-0.01 0.04-0.02 0.04-0.02 0.04-0.01 0.04-0.02 0.04-0.02 0.04-0.01 0.04-0.02 0.04-0.02 0.05-0.01 0.04-0.02 0.04-0.02 0.04-0.02 0.04-0.01 0.04-0.02 0.04-0.04 0.1-0.04 0.09-0.04 0.1-0.04 0.09-0.04 0.1-0.04 0.09-0.04 0.1-0.04 0.09-0.04 0.1-0.04 0.09-0.04 0.1-0.04 0.1-0.05 0.09-0.04 0.1-0.04 0.1-0.04 0.09-0.04 0.1-0.05 0.1-0.04 0.09-0.04 0.1-0.04 0.1-0.04 0.09-0.05 0.1-0.04 0.1-0.04 0.09-0.05 0.1-0.04 0.1-0.04 0.1-0.04 0.1-0.05 0.09-0.04 0.1-0.17 0.39-0.05 0.1-0.04 0.1-0.04 0.1-0.05 0.09-0.04 0.1-0.02 0.05-0.02 0.05-0.02 0.04-0.02 0.05-0.02 0.04-0.02 0.05-0.03 0.05-0.02 0.04-0.02 0.05-0.02 0.05-0.02 0.04-0.02 0.05-0.02 0.04-0.02 0.05-0.02 0.05-0.02 0.04-0.02 0.05-0.02 0.05-0.02 0.04-0.02 0.05-0.06 0.14-0.04 0.09-0.02 0.04-0.02 0.05-0.02 0.05-0.02 0.04-0.02 0.05-0.02 0.05-0.03 0.04-0.02 0.05-0.02 0.05-0.02 0.04-0.02 0.05-0.02 0.05-0.02 0.04-0.02 0.05-0.02 0.05-0.05 0.09-0.04 0.1-0.05 0.1-0.04 0.09-0.05 0.1-0.04 0.1-0.05 0.09-0.04 0.1-0.05 0.1-0.04 0.1-0.05 0.09-0.04 0.1-0.05 0.1-0.05 0.1-0.04 0.1-0.05 0.1-0.05 0.1-0.04 0.09-0.05 0.1-0.05 0.1-0.04 0.1-0.05 0.1-0.05 0.1-0.05 0.1-0.04 0.1-0.05 0.1-0.05 0.1-0.05 0.1-0.04 0.1-0.05 0.1-0.05 0.1-0.05 0.1-0.04 0.1-0.05 0.1-0.05 0.1-0.14 0.3-0.1 0.2-0.02 0.05-0.03 0.05-0.02 0.05-0.03 0.05-0.02 0.05-0.03 0.05-0.02 0.06-0.03 0.05-0.02 0.05-0.03 0.05-0.02 0.05-0.03 0.05-0.02 0.06-0.07 0.15-0.05 0.1-0.03 0.05-0.02 0.06-0.03 0.05-0.02 0.05-0.02 0.05-0.03 0.05-0.02 0.05-0.03 0.06-0.02 0.05-0.03 0.05-0.02 0.05-0.03 0.05-0.03 0.06-0.02 0.05-0.03 0.05-0.02 0.05-0.03 0.05-0.02 0.06-0.03 0.05-0.03 0.05-0.02 0.05-0.03 0.06-0.05 0.09-0.05 0.1-0.05 0.1-0.05 0.1-0.05 0.1-0.05 0.1-0.05 0.1-0.05 0.1-0.05 0.1-0.05 0.1-0.05 0.1-0.05 0.1-0.05 0.1-0.05 0.1-0.05 0.1-0.05 0.1-0.05 0.11-0.06 0.1-0.05 0.1-0.05 0.1-0.05 0.1-0.05 0.1-0.05 0.1-0.06 0.11-0.05 0.1-0.05 0.1-0.05 0.1-0.06 0.1-0.05 0.1-0.05 0.11-0.05 0.1-0.06 0.1-0.05 0.1-0.05 0.1-0.06 0.1-0.05 0.1-0.05 0.11-0.05 0.1-0.06 0.1-0.05 0.1-0.03 0.06-0.09 0.17-0.08 0.16-0.06 0.12-0.06 0.11-0.09 0.17-0.09 0.17-0.06 0.11-0.08 0.17-0.06 0.11-0.06 0.12-0.06 0.11-0.06 0.11-0.03 0.06-0.06 0.12-0.03 0.05-0.06 0.12-0.03 0.06-0.06 0.12-0.03 0.05-0.06 0.11-0.05 0.1-0.06 0.1-0.05 0.1-0.05 0.1-0.06 0.1-0.05 0.1-0.06 0.1-0.05 0.11-0.06 0.1-0.05 0.1-0.06 0.1-0.06 0.1-0.05 0.1-0.06 0.11-0.05 0.1-0.06 0.1-0.06 0.1-0.05 0.11-0.06 0.1-0.06 0.1-0.05 0.1-0.06 0.11-0.06 0.1-0.06 0.1-0.05 0.11-0.06 0.1-0.06 0.1-0.06 0.11-0.05 0.1-0.06 0.1-0.06 0.11-0.06 0.1-0.05 0.1-0.06 0.11-0.06 0.1-0.12 0.21-0.05 0.1-0.06 0.11-0.07 0.12-0.04 0.06-0.03 0.07-0.07 0.12-0.03 0.06-0.04 0.06-0.03 0.07-0.04 0.06-0.03 0.06-0.04 0.06-0.03 0.06-0.03 0.07-0.04 0.06-0.03 0.06-0.04 0.06-0.03 0.06-0.04 0.07-0.03 0.06-0.04 0.06-0.03 0.06-0.04 0.06-0.03 0.07-0.04 0.06-0.03 0.06-0.04 0.06-0.03 0.06-0.04 0.07-0.03 0.06-0.04 0.06-0.03 0.06-0.04 0.06-0.04 0.07-0.03 0.06-0.04 0.06-0.03 0.06-0.04 0.07-0.03 0.06-0.04 0.06-0.06 0.11-0.06 0.1-0.06 0.1-0.06 0.1-0.06 0.11-0.06 0.1-0.06 0.1-0.06 0.11-0.06 0.1-0.06 0.1-0.06 0.11-0.06 0.1-0.06 0.1-0.07 0.11-0.06 0.1-0.06 0.1-0.06 0.11-0.06 0.1-0.06 0.1-0.07 0.11-0.06 0.1-0.06 0.11-0.06 0.1-0.07 0.1-0.06 0.11-0.06 0.1-0.06 0.1-0.07 0.11-0.06 0.1-0.12 0.21-0.07 0.1-0.06 0.11-0.06 0.1-0.07 0.11-0.06 0.1-0.06 0.11-0.06 0.1-0.07 0.11-0.06 0.1-0.12 0.2-0.08 0.14-0.04 0.06-0.04 0.07-0.04 0.07-0.04 0.06-0.04 0.07-0.04 0.07-0.04 0.07-0.04 0.06-0.04 0.07-0.04 0.07-0.04 0.06-0.04 0.07-0.04 0.07-0.04 0.06-0.04 0.07-0.04 0.07-0.04 0.06-0.04 0.07-0.04 0.07-0.04 0.06-0.04 0.07-0.04 0.07-0.04 0.06-0.04 0.07-0.04 0.07-0.04 0.06-0.04 0.07-0.05 0.07-0.04 0.07-0.04 0.06-0.04 0.07-0.04 0.07-0.04 0.06-0.04 0.07-0.05 0.07-0.06 0.1-0.06 0.11-0.07 0.1-0.06 0.1-0.07 0.11-0.07 0.1-0.06 0.11-0.07 0.1-0.06 0.11-0.07 0.1-0.07 0.1-0.06 0.11-0.07 0.1-0.07 0.11-0.06 0.1-0.07 0.11-0.07 0.1-0.06 0.11-0.07 0.1-0.07 0.11-0.07 0.1-0.07 0.11-0.06 0.1-0.07 0.11-0.07 0.1-0.07 0.11-0.07 0.1-0.06 0.11-0.07 0.1-0.07 0.11-0.07 0.1-0.07 0.11-0.07 0.1-0.06 0.11-0.07 0.11-0.07 0.1-0.07 0.11-0.07 0.1-0.07 0.11-0.07 0.1-0.04 0.07-0.05 0.07-0.04 0.07-0.05 0.08-0.05 0.07-0.04 0.07-0.05 0.07-0.09 0.14-0.14 0.21-0.09 0.14-0.05 0.07-0.04 0.08-0.09 0.14-0.05 0.07-0.05 0.07-0.04 0.07-0.05 0.07-0.05 0.07-0.04 0.07-0.05 0.08-0.05 0.07-0.04 0.07-0.05 0.07-0.04 0.07-0.05 0.07-0.05 0.07-0.04 0.07-0.05 0.08-0.05 0.07-0.05 0.07-0.04 0.07-0.05 0.07-0.05 0.07-0.04 0.07-0.05 0.08-0.07 0.1-0.07 0.11-0.07 0.1-0.07 0.11-0.08 0.1-0.07 0.11-0.07 0.11-0.07 0.1-0.07 0.11-0.07 0.1-0.08 0.11-0.07 0.1-0.07 0.11-0.07 0.11-0.08 0.1-0.07 0.11-0.07 0.1-0.08 0.11-0.07 0.11-0.07 0.1-0.08 0.11-0.07 0.11-0.07 0.1-0.08 0.11-0.07 0.1-0.08 0.11-0.07 0.11-0.07 0.1-0.08 0.11-0.07 0.11-0.23 0.32-0.07 0.1-0.07 0.11-0.08 0.11-0.07 0.1-0.08 0.11-0.07 0.11-0.08 0.11-0.05 0.07-0.05 0.07-0.05 0.08-0.16 0.22-0.1 0.15-0.05 0.07-0.06 0.08-0.05 0.07-0.05 0.08-0.05 0.07-0.05 0.07-0.06 0.08-0.05 0.07-0.05 0.08-0.05 0.07-0.05 0.08-0.06 0.07-0.05 0.08-0.05 0.07-0.05 0.07-0.06 0.08-0.05 0.07-0.05 0.08-0.05 0.07-0.06 0.08-0.05 0.07-0.05 0.08-0.06 0.07-0.05 0.08-0.05 0.07-0.06 0.08-0.05 0.07-0.05 0.08-0.06 0.08-0.05 0.07-0.06 0.08-0.05 0.07-0.08 0.11-0.07 0.11-0.08 0.1-0.08 0.11-0.08 0.11-0.07 0.1-0.08 0.11-0.08 0.11-0.08 0.11-0.08 0.1-0.07 0.11-0.08 0.11-0.08 0.11-0.08 0.1-0.08 0.11-0.08 0.11-0.08 0.11-0.08 0.11-0.08 0.1-0.08 0.11-0.08 0.11-0.08 0.11-0.07 0.11-0.08 0.1-0.08 0.11-0.09 0.11-0.08 0.11-0.08 0.11-0.08 0.11-0.08 0.1-0.08 0.11-0.08 0.11-0.08 0.11-0.08 0.11-0.08 0.1-0.08 0.11-0.08 0.11-0.08 0.11-0.08 0.11-0.08 0.1-0.04 0.06-0.04 0.05-0.04 0.05-0.04 0.05-0.04 0.05-0.04 0.06-0.03 0.05-0.04 0.05-0.04 0.05-0.04 0.05-0.04 0.05-0.03 0.05-0.04 0.06-0.04 0.05-0.04 0.05-0.03 0.05-0.04 0.05-0.04 0.05-0.07 0.11-0.08 0.1-0.04 0.05-0.03 0.05-0.04 0.05-0.04 0.05-0.04 0.05-0.04 0.06-0.03 0.05-0.04 0.05-0.04 0.05-0.04 0.05-0.04 0.05-0.03 0.06-0.04 0.05-0.04 0.05-0.04 0.05-0.04 0.06-0.04 0.05-0.04 0.05 0.03 0.23 0.02 0.25 0.03 0.25 0.02 0.25 0.03 0.27 0.03 0.27 0.03 0.28 0.03 0.29 0.04 0.3 0.03 0.3 0.04 0.32 0.03 0.32 0.04 0.32 0.04 0.34 0.04 0.34 0.04 0.35 0.04 0.35 0.04 0.37 0.04 0.37 0.05 0.38 0.05 0.38 0.04 0.39 0.05 0.4 0.05 0.41 0.05 0.41 0.06 0.42 0.05 0.43 0.05 0.43 0.06 0.44 0.06 0.45 0.06 0.46 0.06 0.46 0.06 0.46 0.06 0.48 0.06 0.48 0.07 0.48 0.07 0.5 0.07 0.5 0.06 0.5 0.08 0.51 0.12 0.87 0.12 0.88 0.13 0.9 0.13 0.91 0.14 0.93 0.14 0.95 0.14 0.96 0.15 0.97 0.15 0.99 0.16 1 0.16 1.02 0.16 1.03 0.17 1.04 0.18 1.06 0.18 1.07 0.18 1.09 0.18 1.09 0.2 1.11 0.19 1.12 0.2 1.13 0.21 1.14 0.21 1.16 0.21 1.16 0.22 1.18 0.22 1.19 0.23 1.19 0.23 1.21 0.24 1.22 0.25 1.22 0.24 1.24 0.26 1.24 0.25 1.26 0.27 1.26 0.26 1.27 0.28 1.28 0.27 1.28 0.29 1.3 0.29 1.3 0.29 1.3 0.3 1.32 0.61 2.64 0.63 2.67 0.66 2.69 0.67 2.71 0.7 2.73 0.73 2.75 0.75 2.75 0.77 2.77 0.8 2.78 0.82 2.78 0.84 2.79 0.87 2.79 0.89 2.8 0.92 2.79 0.94 2.79 0.97 2.78 0.99 2.77 1.02 2.77 1.04 2.75 1.07 2.74 1.1 2.73 1.12 2.71 1.15 2.68 1.18 2.67 1.2 2.64 1.23 2.61 1.25 2.59 1.28 2.55 1.31 2.53 1.34 2.49 1.37 2.45 1.39 2.41 1.42 2.37 1.45 2.33 1.48 2.29 1.5 2.23 1.54 2.19 1.56 2.14 1.59 2.08 1.63 2.03 1.1 1.33 1.11 1.3 1.12 1.27 1.13 1.24 1.14 1.21 1.15 1.19 1.17 1.16 1.17 1.13 1.18 1.1 1.2 1.07 1.2 1.04 1.22 1.02 1.23 0.98 1.24 0.95 1.25 0.92 1.27 0.88 1.28 0.86 1.29 0.82 1.3 0.79 1.32 0.76 1.33 0.72 1.34 0.69 1.36 0.66 1.37 0.62 1.39 0.59 1.4 0.55 1.41 0.52 1.43 0.48 1.45 0.45 1.46 0.41 1.47 0.37 1.49 0.33 1.51 0.3 1.52 0.26 1.54 0.22 1.56 0.18 1.57 0.15 1.59 0.1 1.6 0.07 1.63 0.02h0.02 0.02 0.03 0.02 0.02 0.05 0.03 0.02 0.06 0.05 0.05 0.03 0.14 0.09 0.03 0.03 0.06 0.06 0.03l0.06-0.01h0.04 0.03 0.03 0.03 0.03 0.03 0.03 141.58l2.06-0.05 2.05-0.14 2.04-0.24 2.04-0.33 2.02-0.43 2.01-0.51 2-0.61 2-0.71 1.98-0.8 1.97-0.89 1.97-0.98 1.95-1.08 1.95-1.17 1.93-1.27 1.93-1.36 1.91-1.45 1.91-1.54 1.89-1.64 1.89-1.73 1.88-1.83 1.86-1.92 1.86-2.01 1.85-2.11 1.83-2.2 1.83-2.29 1.82-2.38 1.81-2.48 1.79-2.57 1.79-2.67 1.78-2.76 1.77-2.85 1.76-2.95 1.75-3.04 1.74-3.13 1.73-3.23 1.72-3.32 1.71-3.41 1.7-3.51 1.69-3.6 1.68-3.69h-0.01v-93.74l-0.56 0.6-0.57 0.59-0.58 0.58-0.59 0.57-0.6 0.55-0.61 0.54-0.63 0.53-0.63 0.52-0.65 0.5-0.65 0.49-0.66 0.48-0.68 0.46-0.68 0.45-0.69 0.44-0.7 0.42-0.71 0.41-0.72 0.39-0.73 0.38-0.73 0.36-0.74 0.35-0.75 0.33-0.76 0.32-0.77 0.3-0.77 0.29-0.78 0.27-0.78 0.25-0.8 0.24-0.8 0.22-0.8 0.21-0.81 0.19-0.82 0.17-0.82 0.15-0.83 0.14-0.83 0.12-0.84 0.1-0.84 0.08-0.85 0.07-0.85 0.04-0.86 0.03-0.86 0.01h-0.22-0.15-0.13-0.13-0.13-0.13l-0.13-0.01h-0.14-0.13l-0.13-0.01h-0.13l-0.13-0.01h-0.14l-0.13-0.01h-0.13l-0.14-0.01h-0.13l-0.13-0.01-0.14-0.01-0.13-0.01-0.13-0.01-0.14-0.01-0.13-0.01-0.13-0.01-0.14-0.01-0.13-0.01-0.14-0.01-0.13-0.01-0.14-0.02-0.13-0.01-0.14-0.02-0.13-0.01-0.14-0.02-0.13-0.01-0.14-0.02-0.13-0.02-0.14-0.01-0.13-0.02-0.14-0.02-0.13-0.02-0.14-0.02-0.62-0.09-0.62-0.11-0.61-0.11-0.62-0.12-0.6-0.13-0.61-0.14-0.59-0.15-0.6-0.16-0.59-0.16-0.59-0.18-0.58-0.18-0.58-0.19-0.57-0.2-0.57-0.21-0.56-0.22-0.56-0.23-0.56-0.23-0.55-0.24-0.54-0.25-0.54-0.26-0.54-0.26-0.53-0.28-0.52-0.28-0.53-0.29-0.51-0.29-0.51-0.3-0.51-0.31-0.5-0.32-0.49-0.32-0.49-0.34-0.49-0.33-0.48-0.35-0.47-0.35-0.47-0.36-0.46-0.36-0.46-0.37-0.45-0.38-0.44-0.38-0.44-0.39-0.44-0.4-0.43 1.17-0.48 1.15-0.5 1.13-0.54 1.11-0.57 1.08-0.6 1.07-0.63 1.05-0.67 1.02-0.69 1-0.72 0.97-0.75 0.96-0.78 0.92-0.8 0.91-0.83 0.87-0.85 0.85-0.88 0.83-0.9 0.79-0.93 0.77-0.95 0.74-0.97 0.71-0.99 0.69-1.01 0.65-1.04 0.62-1.05 0.59-1.07 0.56-1.08 0.53-1.11 0.49-1.12 0.46-1.13 0.43-1.15 0.39-1.17 0.36-1.18 0.32-1.19 0.29-1.2 0.25-1.22 0.21-1.22 0.18-1.24 0.13-1.24 0.1-1.25 0.06-1.27 0.02h-0.13-0.14-0.14-0.13-0.14l-0.14-0.01h-0.14-0.13l-0.14-0.01h-0.14l-0.14-0.01h-0.14l-0.14-0.01h-0.13l-0.14-0.01-0.14-0.01-0.14-0.01h-0.14l-0.14-0.01-0.14-0.01-0.14-0.01-0.14-0.01-0.14-0.01-0.14-0.01-0.14-0.02-0.14-0.01-0.14-0.01-0.14-0.01-0.14-0.02-0.14-0.01-0.14-0.02-0.14-0.01-0.14-0.02-0.14-0.01-0.14-0.02-0.14-0.02-0.14-0.01-0.14-0.02-0.14-0.02-0.14-0.02-1.31-0.2-1.29-0.25-1.28-0.29-1.25-0.32-1.24-0.37-1.22-0.4-1.2-0.44-1.18-0.48-1.16-0.51-1.14-0.54-1.11-0.58-1.1-0.62-1.07-0.64-1.05-0.68-1.02-0.71-1-0.74-0.97-0.77-0.95-0.79-0.92-0.83-0.89-0.85-0.87-0.88-0.84-0.9-0.81-0.93-0.78-0.95-0.75-0.98-0.72-1-0.69-1.02-0.66-1.04-0.62-1.07-0.59-1.08-0.56-1.1-0.53-1.12-0.49-1.14-0.45-1.15-0.42-1.17-0.39-1.19-0.34-1.19-0.31-1.22-0.27-1.22-0.24-1.24-0.03-0.17-0.02-0.17-0.03-0.17-0.03-0.16-0.03-0.17-0.02-0.17-0.03-0.17-0.02-0.17-0.02-0.17-0.03-0.17-0.02-0.17-0.02-0.17-0.02-0.17-0.02-0.17-0.02-0.17-0.01-0.17-0.02-0.17-0.02-0.17-0.01-0.18-0.02-0.17-0.01-0.17-0.02-0.17-0.01-0.17-0.01-0.17-0.01-0.18-0.01-0.17-0.01-0.17-0.01-0.17-0.01-0.17-0.01-0.18v-0.17l-0.01-0.17v-0.17l-0.01-0.18v-0.17-0.17l-0.01-0.17v-0.17-0.18-0.17-0.14-0.13-0.14-0.14-0.14l0.01-0.13v-0.14-0.14l0.01-0.14v-0.13-0.14l0.01-0.14v-0.14l0.01-0.13 0.01-0.14v-0.14l0.01-0.14 0.01-0.13 0.01-0.14 0.01-0.14 0.01-0.14 0.01-0.14 0.01-0.13 0.01-0.14 0.01-0.14 0.01-0.14 0.01-0.14 0.02-0.13 0.01-0.14 0.01-0.14 0.02-0.14 0.01-0.14 0.02-0.13 0.02-0.14 0.01-0.14 0.02-0.14 0.02-0.13 0.01-0.14 0.02-0.14 0.02-0.14 36.97-267.47 0.01-0.08 0.01-0.08 0.01-0.08 0.01-0.09 0.01-0.08 0.01-0.08 0.01-0.08 0.01-0.08 0.01-0.08 0.01-0.09 0.01-0.08v-0.08l0.01-0.08 0.01-0.08 0.01-0.09v-0.08l0.01-0.08 0.01-0.08v-0.08l0.01-0.09v-0.08l0.01-0.08v-0.08l0.01-0.09v-0.08l0.01-0.08v-0.08l0.01-0.09v-0.08-0.08l0.01-0.08v-0.09-0.08-0.08-0.09l0.01-0.08v-0.08-0.08-0.09-0.08l-0.01-0.85-0.05-0.85-0.08-0.84-0.11-0.83-0.13-0.83-0.17-0.81-0.19-0.81-0.23-0.8-0.25-0.78-0.27-0.78-0.31-0.76-0.33-0.76-0.36-0.73-0.38-0.73-0.4-0.71-0.44-0.7-0.45-0.68-0.48-0.66-0.5-0.65-0.52-0.62-0.55-0.62-0.56-0.59-0.59-0.57-0.61-0.55-0.62-0.53-0.65-0.51-0.66-0.49-0.69-0.46-0.7-0.44-0.72-0.42-0.74-0.39-0.75-0.37-0.77-0.34-0.78-0.31-0.8-0.28-0.82-0.26-0.82-0.23-0.85-0.2-0.85-0.17-0.87-0.13-0.08-0.02-0.08-0.01-0.09-0.01-0.08-0.01-0.08-0.01-0.08-0.01-0.09-0.01-0.08-0.01h-0.08l-0.08-0.01-0.09-0.01-0.08-0.01-0.08-0.01h-0.08l-0.09-0.01-0.08-0.01-0.08-0.01h-0.08l-0.08-0.01h-0.08l-0.09-0.01h-0.08l-0.08-0.01h-0.08l-0.08-0.01h-0.08l-0.08-0.01h-0.09-0.08l-0.08-0.01h-0.08-0.08-0.08l-0.08-0.01h-0.08-0.08-0.08-0.08-0.08-0.08l-0.86 0.01-0.84 0.05zm40.61 171.09l-0.66 0.05-0.66 0.06-0.65 0.09-0.65 0.1-0.64 0.13-0.64 0.14-0.63 0.16-0.63 0.17-0.62 0.19-0.61 0.21-0.61 0.23-0.6 0.25-0.59 0.25-0.59 0.28-0.57 0.29-0.57 0.31-0.56 0.32-0.55 0.34-0.54 0.35-0.53 0.37-0.52 0.38-0.51 0.39-0.49 0.41-0.49 0.42-0.48 0.44-0.46 0.45-0.45 0.46-0.44 0.47-0.42 0.49-0.41 0.49-0.4 0.51-0.39 0.53-0.37 0.53-0.35 0.54-0.34 0.56-0.33 0.56-0.31 0.58-0.29 0.58-0.01 0.02-0.01 0.01-0.01 0.02v0.01l-0.01 0.02-0.01 0.02-0.01 0.01v0.02l-0.01 0.01-0.01 0.02v0.02l-0.01 0.01-0.01 0.02v0.02l-0.01 0.01v0.02l-0.01 0.02-0.01 0.01v0.02l-0.01 0.02-0.01 0.03-0.01 0.02-0.01 0.03v0.02l-0.01 0.03-0.01 0.02-0.01 0.01v0.02l-0.01 0.02v0.01l-0.01 0.02-0.01 0.01v0.02l-0.01 0.02-0.01 0.01v0.02l-0.01 0.02-0.06 0.14-0.07 0.15-0.06 0.15-0.07 0.15-0.06 0.15-0.06 0.15-0.06 0.15-0.06 0.15-0.06 0.15-0.05 0.15-0.06 0.15-0.06 0.15-0.05 0.16-0.06 0.15-0.05 0.15-0.05 0.16-0.05 0.15-0.05 0.16-0.05 0.16-0.05 0.15-0.04 0.16-0.05 0.16-0.04 0.16-0.05 0.15-0.04 0.16-0.04 0.16-0.04 0.16-0.04 0.16-0.04 0.17-0.04 0.16-0.03 0.16-0.03 0.16-0.04 0.17-0.03 0.16-0.03 0.17-0.03 0.16-0.03 0.17-0.02 0.16-0.03 0.17-0.02 0.17-3.3 23.42-6.41 45.63-5.08 36.12-0.02 0.08-0.01 0.08-0.01 0.08-0.01 0.09-0.01 0.08-0.01 0.08-0.01 0.08-0.01 0.08-0.01 0.08v0.08l-0.01 0.08-0.01 0.08-0.01 0.08-0.01 0.09v0.08l-0.01 0.08-0.01 0.08v0.08l-0.01 0.08v0.07l-0.01 0.08v0.08l-0.01 0.08v0.08l-0.01 0.08v0.08 0.08l-0.01 0.08v0.08 0.08l-0.01 0.07v0.08 0.08 0.08 0.08 0.08l-0.01 0.07v0.08 0.08 0.08 0.1 0.1l0.01 0.11v0.1 0.1 0.1 0.1l0.01 0.11v0.1 0.1l0.01 0.1v0.1l0.01 0.1 0.01 0.1v0.1l0.01 0.11 0.01 0.1v0.1l0.01 0.1 0.01 0.1 0.01 0.1 0.01 0.1 0.01 0.1 0.01 0.1 0.01 0.1 0.01 0.1 0.01 0.1 0.01 0.1 0.01 0.09 0.02 0.1 0.01 0.1 0.01 0.1 0.02 0.1 0.01 0.1 0.02 0.1 0.01 0.1 0.02 0.1 0.02 0.1 0.01 0.1 0.02 0.1 0.01 0.01 0.01 0.04 0.01 0.03v0.02 0.01l0.01 0.01v0.02 0.01l0.01 0.02v0.01 0.02l0.01 0.01v0.01l0.14 0.71 0.17 0.71 0.18 0.71 0.21 0.69 0.23 0.69 0.25 0.67 0.27 0.67 0.29 0.66 0.31 0.65 0.33 0.64 0.35 0.62 0.37 0.62 0.38 0.6 0.41 0.59 0.42 0.58 0.44 0.57 0.45 0.55 0.47 0.54 0.49 0.52 0.51 0.51 0.52 0.5 0.54 0.47 0.55 0.46 0.56 0.45 0.59 0.43 0.59 0.41 0.61 0.39 0.62 0.37 0.64 0.36 0.65 0.34 0.66 0.31 0.67 0.3 0.69 0.27 0.69 0.26 0.71 0.23 0.72 0.21 0.73 0.19 0.74 0.17 0.75 0.14 0.76 0.12 0.08 0.01 0.09 0.01 0.08 0.01 0.08 0.01 0.08 0.01 0.08 0.01 0.08 0.01 0.08 0.01 0.08 0.01h0.08l0.09 0.01 0.08 0.01 0.08 0.01h0.08l0.08 0.01h0.09l0.08 0.01 0.08 0.01h0.08l0.08 0.01h0.09l0.08 0.01h0.08 0.08l0.08 0.01h0.09 0.08l0.08 0.01h0.08 0.09 0.08l0.08 0.01h0.08 0.09 0.08 0.08 0.08 0.09 0.08 0.08l0.84-0.01 0.83-0.04 0.83-0.08 0.82-0.1 0.81-0.14 0.8-0.16 0.8-0.19 0.78-0.21 0.78-0.25 0.76-0.27 0.76-0.29 0.74-0.33 0.73-0.34 0.71-0.37 0.7-0.4 0.69-0.42 0.67-0.44 0.66-0.47 0.64-0.49 0.62-0.51 0.61-0.53 0.59-0.55 0.57-0.57 0.55-0.6 0.53-0.61 0.5-0.63 0.49-0.65 0.47-0.66 0.44-0.69 0.42-0.7 0.39-0.72 0.38-0.73 0.34-0.75 0.32-0.77 0.3-0.78 0.26-0.79 0.24-0.81 0.22-0.82 0.18-0.84 0.15-0.84v-0.02-0.01l0.01-0.01v-0.01-0.01-0.02l0.01-0.01v-0.01-0.01l0.01-0.01v-0.02-0.01-0.01l0.01-0.02 0.01-0.03v-0.01l0.01-0.02 0.01-0.04v-0.02l0.01-0.03v-0.01l0.01-0.01v-0.01-0.02l0.01-0.01v-0.01-0.01-0.02l0.01-0.01v-0.01-0.01-0.02-0.01l1.93-13.66 1.13-8.12 9.35-66.52 2.37-16.84 0.01-0.08 0.01-0.08 0.01-0.09 0.01-0.08 0.01-0.08 0.01-0.08 0.01-0.08v-0.09l0.01-0.08 0.01-0.08 0.01-0.08 0.01-0.08v-0.09l0.01-0.08 0.01-0.08 0.01-0.08v-0.08l0.01-0.09 0.01-0.08v-0.08l0.01-0.08v-0.09l0.01-0.08v-0.08l0.01-0.08v-0.09-0.08l0.01-0.08v-0.08l0.01-0.09v-0.08-0.08-0.08l0.01-0.09v-0.08-0.08-0.08-0.09-0.08-0.08l-0.02-0.86-0.04-0.84-0.08-0.84-0.11-0.83-0.13-0.83-0.17-0.82-0.19-0.8-0.23-0.8-0.25-0.79-0.28-0.77-0.3-0.77-0.33-0.75-0.36-0.74-0.38-0.72-0.41-0.71-0.43-0.7-0.45-0.68-0.48-0.66-0.5-0.65-0.52-0.63-0.55-0.61-0.56-0.59-0.59-0.57-0.61-0.55-0.63-0.53-0.64-0.51-0.67-0.49-0.68-0.46-0.7-0.44-0.72-0.42-0.74-0.39-0.75-0.36-0.77-0.34-0.78-0.31-0.8-0.29-0.81-0.25-0.83-0.23-0.84-0.2-0.86-0.17-0.86-0.13-0.09-0.02-0.08-0.01-0.08-0.01-0.09-0.01-0.08-0.01-0.08-0.01-0.08-0.01-0.09-0.01-0.08-0.01-0.08-0.01-0.08-0.01-0.09-0.01-0.08-0.01h-0.08l-0.08-0.01-0.09-0.01-0.08-0.01h-0.08l-0.08-0.01h-0.09l-0.08-0.01-0.08-0.01h-0.08l-0.08-0.01h-0.09-0.08l-0.08-0.01h-0.08-0.08l-0.08-0.01h-0.08-0.08-0.09l-0.08-0.01h-0.08-0.08-0.08-0.08-0.08-0.11l-0.67 0.01-0.67 0.03zm-174.7 117.47l-0.02 0.1-0.02 0.11-0.03 0.1-0.02 0.1-0.03 0.11-0.02 0.1-0.03 0.1-0.02 0.1-0.03 0.1-0.02 0.1-0.04 0.19-0.04 0.19-0.04 0.19-0.04 0.19-0.04 0.18-0.04 0.19-0.04 0.18-0.04 0.19-0.04 0.18-0.03 0.18-0.04 0.19-0.04 0.18-0.04 0.23-0.05 0.23-0.04 0.24-0.04 0.23-0.04 0.22-0.04 0.23-0.04 0.23-0.04 0.22-0.04 0.22-0.04 0.22-0.03 0.22-0.04 0.22-0.03 0.16-0.02 0.17-0.03 0.17-0.03 0.16-0.03 0.17-0.02 0.16-0.03 0.17-0.02 0.16-0.03 0.16-0.02 0.16-0.02 0.16-0.03 0.16-0.02 0.2-0.03 0.2-0.02 0.2-0.03 0.2-0.02 0.19-0.02 0.2-0.02 0.19-0.02 0.19-0.02 0.19-0.02 0.2-0.02 0.19-0.02 0.19-0.01 0.14-0.02 0.15-0.01 0.14-0.02 0.15-0.01 0.14-0.02 0.15-0.01 0.14-0.02 0.14-0.01 0.14-0.01 0.14-0.01 0.14-0.01 0.14-0.01 0.16-0.01 0.16-0.01 0.15-0.01 0.16-0.01 0.15v0.16l-0.01 0.15v0.15l-0.01 0.15v0.15 0.15l-0.01 0.14v0.13 0.12l-0.01 0.13v0.13l-0.01 0.12v0.13l-0.01 0.13v0.12l-0.01 0.13v0.12 0.12 0.12l0.02 0.96 0.04 0.9 0.06 0.85 0.07 0.8 0.08 0.75 0.1 0.7 0.1 0.65 0.12 0.61 0.12 0.56 0.13 0.52 0.14 0.48 0.14 0.45v0.01 0.01l0.01 0.01v0.01 0.01l0.02 0.05 0.02 0.04 0.02 0.05 0.03 0.08 0.02 0.04 0.01 0.04 0.02 0.04 0.02 0.05 0.01 0.04 0.02 0.04 0.01 0.04 0.1 0.23 0.09 0.22 0.1 0.21 0.09 0.19 0.1 0.18 0.09 0.17 0.09 0.16 0.09 0.14 0.08 0.14 0.09 0.12 0.08 0.11 0.07 0.1 0.02 0.03 0.02 0.03 0.03 0.02 0.02 0.03 0.02 0.03 0.03 0.03 0.02 0.02 0.03 0.03 0.03 0.04 0.03 0.03 0.03 0.03 0.03 0.03 4.39 1.28-5.01-27.89-0.02 0.1-0.03 0.1zm232.46-81.52l-0.64 0.03-0.63 0.04-0.63 0.06-0.62 0.08-0.62 0.1-0.62 0.11-0.61 0.13-0.61 0.15-0.6 0.16-0.59 0.18-0.59 0.2-0.58 0.21-0.58 0.22-0.57 0.24-0.56 0.26-0.55 0.27-0.55 0.28-0.54 0.3-0.53 0.31-0.52 0.33-0.51 0.34-0.51 0.35-0.49 0.37-0.48 0.38-0.48 0.39-0.46 0.41-0.46 0.42-0.44 0.42-0.43 0.45-0.42 0.45-0.41 0.46-0.4 0.48-0.38 0.48-0.37 0.5-0.36 0.51-0.35 0.52-0.33 0.52-0.32 0.54-0.31 0.55-0.01 0.02-0.02 0.03-0.01 0.02-0.02 0.02-0.01 0.02-0.02 0.03-0.01 0.02-0.01 0.02-0.02 0.03-0.01 0.02-0.02 0.02-0.04 0.07-0.03 0.05-0.03 0.04-0.01 0.02-0.02 0.03-0.01 0.02-0.01 0.02-0.02 0.02-0.01 0.03-0.01 0.02-0.02 0.02-0.01 0.03-0.02 0.02-0.01 0.02-0.01 0.03-0.02 0.02-0.01 0.02-0.01 0.03-0.02 0.02-0.01 0.02-0.01 0.03-0.01 0.02-0.02 0.03-0.01 0.02-0.01 0.03-0.03 0.06-0.03 0.06-0.03 0.06-0.03 0.07-0.03 0.06-0.03 0.06-0.03 0.07-0.03 0.06-0.03 0.06-0.03 0.07-0.03 0.06-0.02 0.06-0.03 0.07-0.03 0.06-0.03 0.06-0.03 0.07-0.02 0.06-0.03 0.06-0.03 0.07-0.02 0.06-0.03 0.06-0.03 0.07-0.02 0.06-0.03 0.06-0.02 0.07-0.03 0.06-0.03 0.07-0.02 0.06-0.03 0.07-0.02 0.06-0.02 0.06-0.03 0.07-0.02 0.06-0.03 0.07-0.02 0.06-0.02 0.07-0.02 0.06-0.03 0.07-0.02 0.06-0.02 0.06-0.04 0.11-0.03 0.11-0.04 0.1-0.04 0.11-0.03 0.11-0.04 0.1-0.03 0.11-0.03 0.11-0.04 0.1-0.03 0.11-0.03 0.11-0.03 0.11-0.04 0.11-0.03 0.11-0.03 0.1-0.03 0.11-0.02 0.11-0.03 0.11-0.03 0.11-0.03 0.11-0.03 0.11-0.02 0.11-0.03 0.11-0.02 0.11-0.03 0.11-0.02 0.11-0.02 0.11-0.03 0.11-0.02 0.11-0.02 0.11-0.02 0.12-0.02 0.11-0.02 0.11-0.02 0.11-0.02 0.11-0.02 0.11-0.01 0.11-0.02 0.11-0.01 0.11-0.02 0.11-2.7 19.19-4.81 34.19-0.01 0.08-0.01 0.08-0.01 0.08-0.01 0.09-0.01 0.08-0.01 0.08-0.01 0.08-0.01 0.08-0.01 0.08-0.01 0.08-0.01 0.08-0.01 0.08v0.08l-0.01 0.08-0.01 0.08v0.08l-0.01 0.08-0.01 0.08v0.08l-0.01 0.08v0.08l-0.01 0.08v0.08l-0.01 0.07v0.08l-0.01 0.08v0.08 0.08l-0.01 0.07v0.08 0.08 0.08 0.07l-0.01 0.08v0.08 0.07 0.08 0.08 0.07 0.08 0.1 0.1 0.11 0.1 0.1l0.01 0.1v0.11 0.1 0.1l0.01 0.1v0.11l0.01 0.1v0.1l0.01 0.1v0.1l0.01 0.11 0.01 0.1 0.01 0.1v0.1l0.01 0.11 0.01 0.1 0.01 0.1 0.01 0.1 0.01 0.1 0.01 0.11 0.01 0.1 0.01 0.1 0.02 0.1 0.01 0.1 0.01 0.11 0.02 0.1 0.01 0.1 0.02 0.1 0.01 0.11 0.02 0.1 0.01 0.1 0.02 0.1 0.02 0.11 0.02 0.1 0.02 0.1v0.01 0.01 0.01 0.01l0.01 0.02v0.01 0.01l0.01 0.02v0.01l0.01 0.02 0.01 0.04 0.01 0.01v0.02l0.01 0.01v0.01 0.01l0.01 0.01v0.02 0.02l0.01 0.02v0.02 0.02l0.01 0.02v0.02l0.01 0.02v0.02l0.01 0.02v0.02l0.01 0.02v0.02l0.01 0.02v0.01l0.01 0.02v0.02l0.01 0.02 0.01 0.04 0.02 0.08 0.01 0.03 0.01 0.02v0.02l0.01 0.02 0.01 0.02v0.02l0.01 0.02v0.02l0.01 0.02v0.02l0.01 0.02v0.02l0.01 0.02v0.02 0.02l0.17 0.69 0.18 0.67 0.2 0.68 0.23 0.66 0.24 0.66 0.26 0.65 0.28 0.64 0.3 0.62 0.31 0.62 0.34 0.61 0.35 0.6 0.37 0.59 0.39 0.58 0.4 0.56 0.42 0.56 0.43 0.54 0.46 0.52 0.46 0.52 0.49 0.5 0.49 0.48 0.52 0.47 0.52 0.46 0.54 0.44 0.56 0.42 0.57 0.41 0.58 0.39 0.59 0.38 0.61 0.35 0.62 0.34 0.63 0.32 0.65 0.31 0.65 0.28 0.67 0.26 0.68 0.25 0.68 0.22 0.7 0.2 0.71 0.18 0.72 0.16 0.73 0.14 0.74 0.11 0.08 0.02 0.08 0.01 0.08 0.01 0.08 0.01 0.08 0.01 0.09 0.01 0.08 0.01 0.08 0.01 0.08 0.01 0.08 0.01h0.08l0.08 0.01 0.09 0.01 0.08 0.01h0.08l0.08 0.01 0.08 0.01h0.09l0.08 0.01h0.08l0.08 0.01h0.09l0.08 0.01h0.08l0.08 0.01h0.09 0.08l0.08 0.01h0.08 0.09l0.08 0.01h0.08 0.08 0.09 0.08 0.08 0.09l0.08 0.01h0.08 0.09l0.74-0.01 0.73-0.04 0.73-0.06 0.73-0.08 0.72-0.1 0.72-0.13 0.71-0.15 0.7-0.17 0.69-0.19 0.69-0.22 0.68-0.23 0.67-0.26 0.66-0.27 0.65-0.3 0.65-0.31 0.63-0.34 0.62-0.35 0.61-0.37 0.6-0.39 0.59-0.41 0.57-0.42 0.56-0.45 0.55-0.46 0.53-0.47 0.52-0.49 0.5-0.51 0.49-0.53 0.47-0.53 0.46-0.56 0.44-0.57 0.43-0.58 0.4-0.59 0.39-0.61 0.37-0.63 0.35-0.63 0.33-0.65 0.31-0.66 0.29-0.67 0.27-0.69 0.25-0.69 0.04-0.11 0.03-0.11 0.04-0.1 0.03-0.11 0.04-0.11 0.03-0.1 0.03-0.11 0.04-0.11 0.03-0.1 0.03-0.11 0.03-0.11 0.03-0.1 0.03-0.11 0.03-0.11 0.03-0.1 0.03-0.11 0.03-0.1 0.02-0.11 0.03-0.11 0.03-0.1 0.02-0.11 0.03-0.11 0.02-0.1 0.03-0.11 0.02-0.11 0.02-0.11 0.02-0.1 0.03-0.11 0.02-0.11 0.02-0.1 0.02-0.11 0.02-0.11 0.02-0.11 0.01-0.1 0.02-0.11 0.02-0.11 0.02-0.11 0.01-0.11 0.02-0.1 0.01-0.11 1.47-10.45 3.86-27.41 0.79-5.62 1.38-9.88 0.01-0.08 0.01-0.08 0.01-0.08 0.01-0.09 0.01-0.08 0.01-0.08 0.01-0.08 0.01-0.08 0.01-0.09 0.01-0.08 0.01-0.08v-0.08l0.01-0.09 0.01-0.08 0.01-0.08v-0.08l0.01-0.08 0.01-0.09v-0.08l0.01-0.08v-0.08l0.01-0.09v-0.08l0.01-0.08v-0.09l0.01-0.08v-0.08l0.01-0.08v-0.09-0.08l0.01-0.08v-0.09-0.08-0.08l0.01-0.09v-0.08-0.08-0.09-0.08-0.08l-0.01-0.85-0.05-0.85-0.08-0.84-0.11-0.83-0.13-0.83-0.17-0.81-0.19-0.81-0.23-0.8-0.25-0.78-0.28-0.78-0.3-0.76-0.33-0.75-0.36-0.74-0.38-0.73-0.41-0.71-0.43-0.69-0.45-0.68-0.48-0.66-0.5-0.65-0.52-0.63-0.55-0.61-0.56-0.59-0.59-0.57-0.61-0.55-0.63-0.53-0.64-0.51-0.67-0.49-0.68-0.46-0.7-0.44-0.72-0.42-0.74-0.39-0.75-0.37-0.77-0.34-0.78-0.31-0.8-0.28-0.81-0.26-0.83-0.23-0.84-0.2-0.85-0.16-0.87-0.14h-0.01l-0.08-0.01-0.08-0.02-0.09-0.01-0.08-0.01-0.08-0.01-0.09-0.01-0.08-0.01-0.08-0.01-0.08-0.01h-0.09l-0.08-0.01-0.08-0.01-0.09-0.01-0.08-0.01h-0.08l-0.08-0.01-0.08-0.01h-0.09l-0.08-0.01-0.08-0.01h-0.08l-0.08-0.01h-0.09l-0.08-0.01h-0.08-0.08l-0.08-0.01h-0.08-0.09l-0.08-0.01h-0.08-0.08-0.08-0.08l-0.08-0.01h-0.08-0.08-0.08-0.08-0.08-0.08l-0.64 0.01z"/>
</defs>
<use fill="#000000" xlink:href="#a"/>
<use fill-opacity="0" stroke="#000000" stroke-opacity="0" xlink:href="#a"/>
</svg>
